<svg width="1437" height="579" viewBox="0 0 1437 579" fill="none" xmlns="http://www.w3.org/2000/svg">
<g filter="url(#filter0_d_184_23)">
<path d="M-7 146C-7 65.3666 58.3664 0 139 0H1287C1367.63 0 1433 65.3664 1433 146V393.274L748.73 565.982C725.278 571.901 700.722 571.901 677.27 565.982L-7 393.274V146Z" fill="url(#paint0_linear_184_23)"/>
<path d="M139 1H1287C1367.08 1 1432 65.9187 1432 146V392.495L748.485 565.012C725.193 570.891 700.807 570.891 677.515 565.012L-6 392.495V146C-6 65.9189 58.9187 1 139 1Z" stroke="url(#paint1_linear_184_23)" stroke-width="2"/>
</g>
<defs>
<filter id="filter0_d_184_23" x="-11" y="0" width="1448" height="578.421" filterUnits="userSpaceOnUse" color-interpolation-filters="sRGB">
<feFlood flood-opacity="0" result="BackgroundImageFix"/>
<feColorMatrix in="SourceAlpha" type="matrix" values="0 0 0 0 0 0 0 0 0 0 0 0 0 0 0 0 0 0 127 0" result="hardAlpha"/>
<feOffset dy="4"/>
<feGaussianBlur stdDeviation="2"/>
<feComposite in2="hardAlpha" operator="out"/>
<feColorMatrix type="matrix" values="0 0 0 0 0 0 0 0 0 0 0 0 0 0 0 0 0 0 0.25 0"/>
<feBlend mode="normal" in2="BackgroundImageFix" result="effect1_dropShadow_184_23"/>
<feBlend mode="normal" in="SourceGraphic" in2="effect1_dropShadow_184_23" result="shape"/>
</filter>
<linearGradient id="paint0_linear_184_23" x1="699.501" y1="329" x2="699.501" y2="904" gradientUnits="userSpaceOnUse">
<stop stop-color="#8D00FF"/>
<stop offset="1" stop-color="#410075"/>
</linearGradient>
<linearGradient id="paint1_linear_184_23" x1="699.501" y1="329" x2="699.501" y2="904" gradientUnits="userSpaceOnUse">
<stop stop-color="#21E2A5"/>
<stop offset="1" stop-color="#DD38FD"/>
</linearGradient>
</defs>
</svg>
