<svg width="32" height="33" viewBox="0 0 32 33" fill="none" xmlns="http://www.w3.org/2000/svg">
<path fill-rule="evenodd" clip-rule="evenodd" d="M16.0123 0.217041L23.9724 8.28812L31.8779 16.3592L23.9724 24.4859L16.0123 32.557L8.10673 24.4859L0.201172 16.3592L8.10673 8.28812L16.0123 0.217041Z" fill="url(#paint0_linear_153_2828)"/>
<path fill-rule="evenodd" clip-rule="evenodd" d="M14.4827 22.5934C14.4827 22.8717 14.2646 23.0944 13.992 23.0944C13.7194 23.0944 13.5014 22.8717 13.5014 22.5934V20.4782C13.5014 20.1999 13.2833 19.9773 13.0107 19.9773C12.7381 19.9773 12.52 20.1999 12.52 20.4782V21.5358C12.52 21.8141 12.3019 22.0368 12.0838 22.0368C11.8112 22.0368 11.5931 21.8141 11.5931 21.5358V18.363C11.5931 18.0847 11.375 17.8621 11.1024 17.8621C10.8298 17.8621 10.6117 18.0847 10.6117 18.363V22.4264C10.6117 22.7047 10.3936 22.9274 10.121 22.9274C9.84844 22.9274 9.63035 22.7047 9.63035 22.4264V17.2498C9.63035 16.9715 9.41227 16.7488 9.13966 16.7488C8.92158 16.7488 8.70349 16.9715 8.70349 17.2498V18.3074C8.70349 18.5857 8.48541 18.8083 8.2128 18.8083C7.9402 18.8083 7.72211 18.5857 7.72211 18.3074V17.1941L6.9043 16.3592L10.3936 12.8524L16.0093 18.6414L21.6795 12.8524L25.1144 16.3592L24.3511 17.1941V18.3074C24.3511 18.5857 24.133 18.8083 23.8604 18.8083C23.5878 18.8083 23.3697 18.5857 23.3697 18.3074V17.2498C23.3697 16.9715 23.1516 16.7488 22.879 16.7488C22.6064 16.7488 22.3883 16.9715 22.3883 17.2498V22.4264C22.3883 22.7047 22.1702 22.9274 21.8976 22.9274C21.6795 22.9274 21.4614 22.7047 21.4614 22.4264V18.363C21.4614 18.0847 21.2434 17.8621 20.9707 17.8621C20.6981 17.8621 20.4801 18.0847 20.4801 18.363V21.5358C20.4801 21.8141 20.262 22.0368 19.9894 22.0368C19.7168 22.0368 19.4987 21.8141 19.4987 21.5358V20.4782C19.4987 20.1999 19.2806 19.9773 19.008 19.9773C18.7354 19.9773 18.5173 20.1999 18.5173 20.4782V22.5934C18.5173 22.8717 18.2992 23.0944 18.0811 23.0944C17.8085 23.0944 17.5904 22.8717 17.5904 22.5934V22.4821H17.5359V22.3151H17.4814V22.2594H17.4269V22.2038H17.3724V22.1481H17.2633V22.0924H16.8817V22.1481H16.8271V22.2038H16.7181V22.3151H16.6636V22.4264H16.6091V25.0982L16.0093 25.6548L15.4641 25.0982V22.4821H15.4096V22.3151H15.3551V22.2594H15.3005V22.2038H15.246V22.1481H15.137V22.0924H14.7553V22.1481H14.7008L14.6463 22.2038H14.5918V22.3151H14.5373V22.3708L14.4827 22.4264V22.5934Z" fill="#FEFEFE"/>
<path fill-rule="evenodd" clip-rule="evenodd" d="M18.0836 23.484C17.811 23.484 17.5929 23.7067 17.5929 23.985V24.0406C17.5929 24.319 17.811 24.5416 18.0836 24.5416C18.3017 24.5416 18.5198 24.319 18.5198 24.0406V23.985C18.5198 23.7067 18.3017 23.484 18.0836 23.484ZM13.9945 23.484C14.2671 23.484 14.4852 23.7067 14.4852 23.985V24.0406C14.4852 24.319 14.2671 24.5416 13.9945 24.5416C13.7219 24.5416 13.5038 24.319 13.5038 24.0406V23.985C13.5038 23.7067 13.7219 23.484 13.9945 23.484ZM23.8629 19.3093C23.5903 19.3093 23.3722 19.532 23.3722 19.8103V20.5339C23.3722 20.8122 23.5903 21.0349 23.8629 21.0349C24.1355 21.0349 24.3536 20.8122 24.3536 20.5339V19.8103C24.3536 19.532 24.1355 19.3093 23.8629 19.3093ZM8.2153 19.3093C8.48791 19.3093 8.70599 19.532 8.70599 19.8103V20.5339C8.70599 20.8122 8.48791 21.0349 8.2153 21.0349C7.94269 21.0349 7.72461 20.8122 7.72461 20.5339V19.8103C7.72461 19.532 7.94269 19.3093 8.2153 19.3093ZM16.0118 7.11922L19.5557 10.6816L16.0118 14.2997L12.5225 10.6816L16.0118 7.11922Z" fill="#FEFEFE"/>
<defs>
<linearGradient id="paint0_linear_153_2828" x1="16.0287" y1="32.5709" x2="32.2113" y2="16.7201" gradientUnits="userSpaceOnUse">
<stop stop-color="#01C48C"/>
<stop offset="1" stop-color="#B600BC"/>
</linearGradient>
</defs>
</svg>
