<svg width="119" height="230" viewBox="0 0 119 230" fill="none" xmlns="http://www.w3.org/2000/svg">
<g filter="url(#filter0_d_194_220)">
<path fill-rule="evenodd" clip-rule="evenodd" d="M57.6199 0L81.9074 46.1169L106.195 92.2521L81.9074 138.387L57.6199 184.504L33.3324 138.387L9.04492 92.2521L33.3324 46.1169L57.6199 0Z" fill="url(#paint0_linear_194_220)"/>
<path fill-rule="evenodd" clip-rule="evenodd" d="M52.8693 110.817V110.89C52.8693 111.715 52.2089 112.376 51.4018 112.376C50.5763 112.376 49.9159 111.715 49.9159 110.89V104.58C49.9159 103.772 49.2555 103.094 48.4301 103.094C47.6229 103.094 46.9625 103.772 46.9625 104.58V107.698C46.9625 108.505 46.2838 109.184 45.4767 109.184C44.6695 109.184 43.9908 108.505 43.9908 107.698V98.2325C43.9908 97.4254 43.3304 96.7467 42.5233 96.7467C41.6978 96.7467 41.0374 97.4254 41.0374 98.2325V110.34C41.0374 111.147 40.377 111.825 39.5516 111.825C38.7444 111.825 38.084 111.147 38.084 110.34V94.8572C38.084 94.0501 37.4053 93.3714 36.5982 93.3714C35.7727 93.3714 35.1123 94.0501 35.1123 94.8572V98.0858C35.1123 98.9112 34.4519 99.5716 33.6264 99.5716C32.8193 99.5716 32.1589 98.9112 32.1589 98.0858V94.6554L29.7559 92.2524L40.2853 81.7229L57.6204 99.058L74.9555 81.7229L85.485 92.2524L83.0819 94.6554V98.0858C83.0819 98.9112 82.4215 99.5716 81.6144 99.5716C80.7889 99.5716 80.1285 98.9112 80.1285 98.0858V94.8572C80.1285 94.0501 79.4681 93.3714 78.6427 93.3714C77.8355 93.3714 77.1568 94.0501 77.1568 94.8572V110.34C77.1568 111.147 76.4964 111.825 75.6893 111.825C74.8638 111.825 74.2034 111.147 74.2034 110.34V98.2325C74.2034 97.4254 73.543 96.7467 72.7175 96.7467C71.9104 96.7467 71.25 97.4254 71.25 98.2325V107.698C71.25 108.505 70.5713 109.184 69.7642 109.184C68.957 109.184 68.2783 108.505 68.2783 107.698V104.58C68.2783 103.772 67.6179 103.094 66.8108 103.094C65.9853 103.094 65.3249 103.772 65.3249 104.58V110.89C65.3249 111.715 64.6645 112.376 63.839 112.376C63.0319 112.376 62.3715 111.715 62.3715 110.89V110.743L62.3532 110.706V110.596L62.3348 110.56V110.486L62.3165 110.45V110.413L62.2981 110.376L62.2798 110.34V110.303L62.2615 110.285L62.2431 110.248L62.2248 110.211V110.174L62.2064 110.156L62.1881 110.119L62.1697 110.083L62.1514 110.046L62.133 110.028L62.1147 109.991L62.0964 109.973L62.078 109.936L62.0413 109.899V109.881H62.023V109.863H62.0046V109.844L61.9863 109.826L61.9496 109.808V109.789H61.9313V109.771H61.9129V109.753L61.8762 109.734L61.8579 109.698H61.8395V109.679H61.8212V109.661H61.8029L61.7662 109.642L61.7478 109.606L61.7111 109.587L61.6744 109.569L61.6561 109.551L61.6194 109.532L61.5827 109.514L61.5644 109.496L61.5277 109.477H61.491L61.4543 109.459L61.4176 109.441L61.3993 109.422H61.3626L61.3259 109.404H61.2892L61.2525 109.386H61.2158L61.1792 109.367H61.1425L61.1058 109.349H60.9223L60.8857 109.331L60.849 109.349H60.6655L60.6288 109.367H60.5922L60.5555 109.386H60.5188L60.4821 109.404H60.4454L60.4087 109.422H60.372L60.3353 109.441L60.317 109.459L60.2803 109.477H60.2436L60.2069 109.496L60.1886 109.514C60.1519 109.532 60.1336 109.551 60.1152 109.551V109.569H60.0785V109.587H60.0602V109.606H60.0235V109.624H60.0051V109.642H59.9868L59.9685 109.661H59.9501V109.679H59.9318V109.698H59.9134V109.716H59.8951V109.734H59.8767V109.753H59.8584V109.771H59.84V109.789H59.8217V109.808L59.785 109.826L59.7667 109.844C59.7483 109.863 59.73 109.881 59.73 109.899L59.6933 109.936V109.954H59.675V109.973L59.6566 109.991L59.6383 110.028L59.6199 110.046L59.6016 110.083L59.5832 110.119V110.138H59.5649V110.174H59.5465L59.5282 110.211V110.248L59.5099 110.285L59.4915 110.303V110.34L59.4732 110.376L59.4548 110.413V110.45L59.4365 110.486V110.56L59.4181 110.596V110.67L59.3998 110.706V118.338L57.6204 120.117L55.8411 118.338V110.743L55.8227 110.706V110.596L55.8044 110.56V110.486L55.786 110.45V110.413L55.7677 110.376L55.7493 110.34V110.303L55.731 110.285L55.7126 110.248V110.211L55.6943 110.174L55.676 110.156L55.6576 110.119L55.6393 110.083L55.6209 110.046L55.6026 110.028L55.5842 109.991H55.5659V109.954H55.5475V109.936L55.5109 109.899V109.881H55.4925V109.863H55.4742V109.844L55.4558 109.826L55.4191 109.808V109.789H55.4008V109.771H55.3825V109.753L55.3458 109.734L55.3274 109.698H55.3091V109.679H55.2907V109.661H55.2724L55.2357 109.642L55.2174 109.606L55.1807 109.587H55.1623V109.569H55.1256V109.551L55.0889 109.532L55.0523 109.514L55.0339 109.496L54.9972 109.477H54.9605L54.9239 109.459L54.9055 109.441L54.8688 109.422H54.8321L54.7954 109.404H54.7588L54.7221 109.386H54.6854L54.6487 109.367H54.612L54.5753 109.349H54.3919L54.3552 109.331L54.3185 109.349H54.1351L54.0984 109.367H54.0617L54.025 109.386H53.9883L53.9516 109.404H53.9149L53.8782 109.422H53.8416L53.8232 109.441L53.7865 109.459L53.7498 109.477H53.7131L53.6765 109.496L53.6581 109.514L53.6214 109.532L53.5847 109.551V109.569H53.548V109.587H53.5297L53.493 109.606L53.4747 109.642L53.438 109.661L53.4196 109.679H53.4013V109.698H53.383L53.3646 109.734L53.3279 109.753V109.771H53.3096V109.789H53.2912V109.808L53.2545 109.826L53.2362 109.844V109.863H53.2179V109.881H53.1995V109.899L53.1628 109.936V109.954H53.1445V109.991H53.1261L53.1078 110.028L53.0894 110.046L53.0711 110.083L53.0528 110.119L53.0344 110.156L53.0161 110.174V110.211L52.9977 110.248L52.9794 110.285L52.961 110.303V110.34L52.9427 110.376L52.9244 110.413V110.45L52.906 110.486V110.56L52.8877 110.596V110.706L52.8693 110.743V110.817Z" fill="#FEFEFE"/>
<path fill-rule="evenodd" clip-rule="evenodd" d="M63.8383 113.604C63.0312 113.604 62.3708 114.265 62.3708 115.072V115.2C62.3708 116.008 63.0312 116.686 63.8383 116.686C64.6638 116.686 65.3242 116.008 65.3242 115.2V115.072C65.3242 114.265 64.6638 113.604 63.8383 113.604ZM51.4011 113.604C52.2082 113.604 52.8686 114.265 52.8686 115.072V115.2C52.8686 116.008 52.2082 116.686 51.4011 116.686C50.5756 116.686 49.9152 116.008 49.9152 115.2V115.072C49.9152 114.265 50.5756 113.604 51.4011 113.604ZM81.6137 101.057C80.7882 101.057 80.1278 101.718 80.1278 102.525V104.653C80.1278 105.46 80.7882 106.138 81.6137 106.138C82.4208 106.138 83.0812 105.46 83.0812 104.653V102.525C83.0812 101.718 82.4208 101.057 81.6137 101.057ZM33.6257 101.057C34.4512 101.057 35.1116 101.718 35.1116 102.525V104.653C35.1116 105.46 34.4512 106.138 33.6257 106.138C32.8186 106.138 32.1582 105.46 32.1582 104.653V102.525C32.1582 101.718 32.8186 101.057 33.6257 101.057ZM57.6197 64.3875L68.4427 75.2104L57.6197 86.0334L46.7967 75.2104L57.6197 64.3875Z" fill="#FEFEFE"/>
<path fill-rule="evenodd" clip-rule="evenodd" d="M9.04461 92.252L4 102.396L58.1332 221.394L57.6196 184.522L33.3321 138.387L9.04461 92.252Z" fill="url(#paint1_linear_194_220)"/>
<path fill-rule="evenodd" clip-rule="evenodd" d="M106.194 92.252L114.999 95.9574L58.1328 221.394L57.6191 184.522L81.9066 138.387L106.194 92.252Z" fill="url(#paint2_linear_194_220)"/>
<path fill-rule="evenodd" clip-rule="evenodd" d="M106.194 92.2521L81.9066 46.1169L57.6191 0L68.0202 4.36588L114.999 95.9576L106.194 92.2521Z" fill="url(#paint3_linear_194_220)"/>
</g>
<defs>
<filter id="filter0_d_194_220" x="0" y="0" width="119" height="229.394" filterUnits="userSpaceOnUse" color-interpolation-filters="sRGB">
<feFlood flood-opacity="0" result="BackgroundImageFix"/>
<feColorMatrix in="SourceAlpha" type="matrix" values="0 0 0 0 0 0 0 0 0 0 0 0 0 0 0 0 0 0 127 0" result="hardAlpha"/>
<feOffset dy="4"/>
<feGaussianBlur stdDeviation="2"/>
<feComposite in2="hardAlpha" operator="out"/>
<feColorMatrix type="matrix" values="0 0 0 0 0 0 0 0 0 0 0 0 0 0 0 0 0 0 0.25 0"/>
<feBlend mode="normal" in2="BackgroundImageFix" result="effect1_dropShadow_194_220"/>
<feBlend mode="normal" in="SourceGraphic" in2="effect1_dropShadow_194_220" result="shape"/>
</filter>
<linearGradient id="paint0_linear_194_220" x1="43.8749" y1="158.406" x2="119.942" y2="118.356" gradientUnits="userSpaceOnUse">
<stop stop-color="#01C48C"/>
<stop offset="1" stop-color="#B600BC"/>
</linearGradient>
<linearGradient id="paint1_linear_194_220" x1="-33.6359" y1="180.373" x2="171.338" y2="189.846" gradientUnits="userSpaceOnUse">
<stop stop-color="#01C48C"/>
<stop offset="1" stop-color="#B600BC"/>
</linearGradient>
<linearGradient id="paint2_linear_194_220" x1="66.1326" y1="196.367" x2="121.552" y2="181.853" gradientUnits="userSpaceOnUse">
<stop stop-color="#01C48C"/>
<stop offset="1" stop-color="#B600BC"/>
</linearGradient>
<linearGradient id="paint3_linear_194_220" x1="93.097" y1="11.3478" x2="50.8304" y2="36.6192" gradientUnits="userSpaceOnUse">
<stop stop-color="#01C48C"/>
<stop offset="1" stop-color="#B600BC"/>
</linearGradient>
</defs>
</svg>
