<svg width="89" height="103" viewBox="0 0 89 103" fill="none" xmlns="http://www.w3.org/2000/svg">
<g filter="url(#filter0_d_194_209)">
<path fill-rule="evenodd" clip-rule="evenodd" d="M81.5343 38.7668L84.0231 55.31L45.2564 94.0767L42.7676 77.5482L62.1509 58.1648L81.5343 38.7668Z" fill="url(#paint0_linear_194_209)"/>
<path fill-rule="evenodd" clip-rule="evenodd" d="M4 38.7668L6.4888 55.3247L45.2555 94.0914L42.7667 77.5482L23.3833 58.1648L4 38.7668Z" fill="#457B9E"/>
<path fill-rule="evenodd" clip-rule="evenodd" d="M42.7667 0L62.15 19.3833L81.5334 38.7667L62.15 58.1647L42.7667 77.548L23.3833 58.1647L4 38.7667L23.3833 19.3833L42.7667 0Z" fill="url(#paint1_linear_194_209)"/>
<path fill-rule="evenodd" clip-rule="evenodd" d="M38.9737 53.5969V53.6555C38.9737 54.2997 38.4467 54.8413 37.7879 54.8413C37.1437 54.8413 36.6167 54.2997 36.6167 53.6555V48.6047C36.6167 47.9606 36.075 47.4335 35.4309 47.4335C34.7867 47.4335 34.245 47.9606 34.245 48.6047V51.1081C34.245 51.7523 33.718 52.2793 33.0738 52.2793C32.415 52.2793 31.888 51.7523 31.888 51.1081V43.5393C31.888 42.8951 31.3609 42.3681 30.7021 42.3681C30.058 42.3681 29.5309 42.8951 29.5309 43.5393V53.2017C29.5309 53.8605 28.9893 54.3875 28.3451 54.3875C27.7009 54.3875 27.1593 53.8605 27.1593 53.2017V40.8455C27.1593 40.2014 26.6322 39.6743 25.9881 39.6743C25.3293 39.6743 24.8022 40.2014 24.8022 40.8455V43.4368C24.8022 44.081 24.2752 44.608 23.6164 44.608C22.9722 44.608 22.4452 44.081 22.4452 43.4368V40.6845L20.5273 38.7666L28.9307 30.3633L42.7655 44.2127L56.6003 30.3633L65.0036 38.7666L63.0858 40.6845V43.4368C63.0858 44.081 62.5588 44.608 61.9 44.608C61.2558 44.608 60.7288 44.081 60.7288 43.4368V40.8455C60.7288 40.2014 60.1871 39.6743 59.5429 39.6743C58.8988 39.6743 58.3571 40.2014 58.3571 40.8455V53.2017C58.3571 53.8605 57.83 54.3875 57.1859 54.3875C56.5271 54.3875 56 53.8605 56 53.2017V43.5393C56 42.8951 55.473 42.3681 54.8142 42.3681C54.17 42.3681 53.643 42.8951 53.643 43.5393V51.1081C53.643 51.7523 53.1013 52.2793 52.4572 52.2793C51.7984 52.2793 51.2713 51.7523 51.2713 51.1081V48.6047C51.2713 47.9606 50.7443 47.4335 50.0855 47.4335C49.4413 47.4335 48.9143 47.9606 48.9143 48.6047V53.6555C48.9143 54.2997 48.3872 54.8413 47.7284 54.8413C47.0843 54.8413 46.5426 54.2997 46.5426 53.6555V53.4066L46.528 53.3773V53.3481L46.5133 53.3188V53.3041L46.4987 53.2749V53.2456L46.484 53.2163V53.187L46.4694 53.1577L46.4548 53.1285L46.4401 53.0992L46.4255 53.0845V53.0553L46.4108 53.026L46.3962 53.0113L46.3816 52.9821L46.3669 52.9528L46.3523 52.9381L46.3376 52.9089L46.3084 52.8796L46.2937 52.8649V52.8503H46.2791V52.8357H46.2644V52.821L46.2352 52.7917L46.2205 52.7771V52.7625H46.2059L46.1912 52.7478V52.7332H46.1766L46.162 52.7185L46.1327 52.7039V52.6893H46.118V52.6746H46.1034V52.66H46.0888L46.0741 52.6453L46.0448 52.6307L46.0302 52.6161L46.0009 52.6014L45.9863 52.5868L45.957 52.5721L45.9277 52.5575L45.8984 52.5429L45.8838 52.5282L45.8545 52.5136L45.8252 52.4989H45.796L45.7667 52.4843L45.752 52.4697H45.7228L45.6935 52.455L45.6642 52.4404H45.6056L45.5764 52.4257H45.5178L45.4885 52.4111H45.2543L45.225 52.4257H45.1664L45.1372 52.4404H45.0786L45.0493 52.455L45.02 52.4697H44.9908L44.9615 52.4843L44.9322 52.4989H44.9029L44.8883 52.5136L44.859 52.5282L44.8297 52.5429L44.8004 52.5575C44.7858 52.5575 44.7712 52.5721 44.7565 52.5868H44.7419V52.6014H44.7126V52.6161H44.698V52.6307H44.6687V52.6453H44.654V52.66H44.6394V52.6746H44.6101V52.6893H44.5955V52.7039H44.5808V52.7185H44.5662V52.7332H44.5516V52.7478H44.5369V52.7625H44.5223V52.7771H44.5076L44.493 52.7917L44.4784 52.821L44.4344 52.8649L44.4198 52.8796V52.8942H44.4052V52.9235H44.3905V52.9381L44.3759 52.9528L44.3612 52.9821L44.3466 53.0113L44.332 53.026V53.0406H44.3173V53.0699H44.3027V53.0845L44.288 53.0992L44.2734 53.1285V53.1577L44.2588 53.187L44.2441 53.2163V53.2456L44.2295 53.2749V53.3041L44.2148 53.3188V53.3481L44.2002 53.3773V53.4359L44.1856 53.4652V59.5847L42.7655 61.0194L41.3454 59.5847V53.5677L41.3308 53.5237V53.4066L41.3161 53.3773V53.3481L41.3015 53.3188V53.3041L41.2868 53.2749V53.2456L41.2722 53.2163V53.187L41.2576 53.1577L41.2429 53.1285L41.2283 53.0992V53.0845L41.2136 53.0553L41.199 53.026L41.1844 53.0113L41.1697 52.9821L41.1551 52.9528L41.1404 52.9381V52.9235H41.1258V52.9089H41.1112V52.8942L41.0965 52.8796L41.0819 52.8649V52.8503H41.0672V52.8357H41.0526V52.821L41.038 52.7917L41.0087 52.7771V52.7625H40.994V52.7478H40.9794V52.7332H40.9648L40.9501 52.7185L40.9355 52.7039H40.9208V52.6893H40.9062V52.6746H40.8916V52.66L40.8623 52.6453L40.833 52.6307L40.8184 52.6161L40.8037 52.6014H40.7891V52.5868H40.7744L40.7452 52.5721L40.7159 52.5575L40.7012 52.5429L40.672 52.5282L40.6427 52.5136L40.6134 52.4989H40.5841L40.5695 52.4843L40.5402 52.4697H40.5109L40.4816 52.455L40.4524 52.4404H40.3938L40.3645 52.4257H40.306L40.2767 52.4111H40.0424L40.0132 52.4257H39.9546L39.9253 52.4404H39.8668L39.8375 52.455L39.8082 52.4697H39.7789L39.7496 52.4843L39.7204 52.4989H39.7057L39.6764 52.5136L39.6472 52.5282L39.6179 52.5429L39.5886 52.5575L39.574 52.5721L39.5447 52.5868H39.53V52.6014H39.5008V52.6161L39.4715 52.6307L39.4568 52.6453L39.4276 52.66V52.6746H39.4129L39.3983 52.6893H39.3836V52.7039L39.369 52.7185L39.3397 52.7332V52.7478H39.3251V52.7625H39.3104V52.7771L39.2812 52.7917L39.2665 52.821H39.2519V52.8357L39.2372 52.8503V52.8649H39.2226L39.208 52.8796V52.8942H39.1933V52.9235H39.1787V52.9381L39.164 52.9528L39.1494 52.9821L39.1348 53.0113L39.1201 53.026L39.1055 53.0553L39.0908 53.0845L39.0762 53.0992V53.1285L39.0616 53.1577L39.0469 53.187L39.0323 53.2163V53.2456L39.0176 53.2749V53.3041L39.003 53.3188V53.3481L38.9884 53.3773V53.4652L38.9737 53.4945V53.5969Z" fill="#FEFEFE"/>
<path fill-rule="evenodd" clip-rule="evenodd" d="M47.7286 55.8077C47.0844 55.8077 46.5427 56.3347 46.5427 56.9935V57.096C46.5427 57.7401 47.0844 58.2672 47.7286 58.2672C48.3874 58.2672 48.9144 57.7401 48.9144 57.096V56.9935C48.9144 56.3347 48.3874 55.8077 47.7286 55.8077ZM37.788 55.8077C38.4468 55.8077 38.9739 56.3347 38.9739 56.9935V57.096C38.9739 57.7401 38.4468 58.2672 37.788 58.2672C37.1439 58.2672 36.6168 57.7401 36.6168 57.096V56.9935C36.6168 56.3347 37.1439 55.8077 37.788 55.8077ZM61.9001 45.7939C61.2559 45.7939 60.7289 46.3209 60.7289 46.9797V48.6633C60.7289 49.3221 61.2559 49.8492 61.9001 49.8492C62.5589 49.8492 63.0859 49.3221 63.0859 48.6633V46.9797C63.0859 46.3209 62.5589 45.7939 61.9001 45.7939ZM23.6165 45.7939C24.2753 45.7939 24.8024 46.3209 24.8024 46.9797V48.6633C24.8024 49.3221 24.2753 49.8492 23.6165 49.8492C22.9724 49.8492 22.4453 49.3221 22.4453 48.6633V46.9797C22.4453 46.3209 22.9724 45.7939 23.6165 45.7939ZM42.7656 16.5286L51.4032 25.1662L42.7656 33.8038L34.128 25.1662L42.7656 16.5286Z" fill="#FEFEFE"/>
</g>
<defs>
<filter id="filter0_d_194_209" x="0" y="0" width="88.0234" height="102.091" filterUnits="userSpaceOnUse" color-interpolation-filters="sRGB">
<feFlood flood-opacity="0" result="BackgroundImageFix"/>
<feColorMatrix in="SourceAlpha" type="matrix" values="0 0 0 0 0 0 0 0 0 0 0 0 0 0 0 0 0 0 127 0" result="hardAlpha"/>
<feOffset dy="4"/>
<feGaussianBlur stdDeviation="2"/>
<feComposite in2="hardAlpha" operator="out"/>
<feColorMatrix type="matrix" values="0 0 0 0 0 0 0 0 0 0 0 0 0 0 0 0 0 0 0.25 0"/>
<feBlend mode="normal" in2="BackgroundImageFix" result="effect1_dropShadow_194_209"/>
<feBlend mode="normal" in="SourceGraphic" in2="effect1_dropShadow_194_209" result="shape"/>
</filter>
<linearGradient id="paint0_linear_194_209" x1="50.0056" y1="89.6921" x2="93.5361" y2="75.6435" gradientUnits="userSpaceOnUse">
<stop stop-color="#01C48C"/>
<stop offset="1" stop-color="#B600BC"/>
</linearGradient>
<linearGradient id="paint1_linear_194_209" x1="42.7638" y1="77.5407" x2="81.5319" y2="38.7725" gradientUnits="userSpaceOnUse">
<stop stop-color="#01C48C"/>
<stop offset="1" stop-color="#B600BC"/>
</linearGradient>
</defs>
</svg>
