<svg width="75" height="163" viewBox="0 0 75 163" fill="none" xmlns="http://www.w3.org/2000/svg">
<g filter="url(#filter0_d_194_286)">
<path fill-rule="evenodd" clip-rule="evenodd" d="M36.3672 0L51.0273 32.2869L65.6875 64.5866L51.0273 96.8863L36.3672 129.173L21.707 96.8863L7.04688 64.5866L21.707 32.2869L36.3672 0Z" fill="url(#paint0_linear_194_286)"/>
<path fill-rule="evenodd" clip-rule="evenodd" d="M33.4984 77.5836V77.635C33.4984 78.2129 33.0998 78.6752 32.6126 78.6752C32.1143 78.6752 31.7157 78.2129 31.7157 77.635V73.217C31.7157 72.6519 31.3171 72.1767 30.8188 72.1767C30.3316 72.1767 29.933 72.6519 29.933 73.217V75.4003C29.933 75.9654 29.5233 76.4406 29.0361 76.4406C28.5489 76.4406 28.1392 75.9654 28.1392 75.4003V68.7734C28.1392 68.2083 27.7406 67.7331 27.2534 67.7331C26.7552 67.7331 26.3565 68.2083 26.3565 68.7734V77.2497C26.3565 77.8148 25.9579 78.2899 25.4597 78.2899C24.9725 78.2899 24.5738 77.8148 24.5738 77.2497V66.4103C24.5738 65.8452 24.1642 65.37 23.677 65.37C23.1787 65.37 22.7801 65.8452 22.7801 66.4103V68.6707C22.7801 69.2486 22.3815 69.7109 21.8832 69.7109C21.396 69.7109 20.9974 69.2486 20.9974 68.6707V66.269L19.5469 64.5866L25.9026 57.2148L36.3662 69.3513L46.8298 57.2148L53.1855 64.5866L51.735 66.269V68.6707C51.735 69.2486 51.3364 69.7109 50.8492 69.7109C50.3509 69.7109 49.9523 69.2486 49.9523 68.6707V66.4103C49.9523 65.8452 49.5537 65.37 49.0554 65.37C48.5682 65.37 48.1585 65.8452 48.1585 66.4103V77.2497C48.1585 77.8148 47.7599 78.2899 47.2727 78.2899C46.7745 78.2899 46.3758 77.8148 46.3758 77.2497V68.7734C46.3758 68.2083 45.9772 67.7331 45.479 67.7331C44.9918 67.7331 44.5931 68.2083 44.5931 68.7734V75.4003C44.5931 75.9654 44.1835 76.4406 43.6963 76.4406C43.2091 76.4406 42.7994 75.9654 42.7994 75.4003V73.217C42.7994 72.6519 42.4008 72.1767 41.9136 72.1767C41.4153 72.1767 41.0167 72.6519 41.0167 73.217V77.635C41.0167 78.2129 40.6181 78.6752 40.1198 78.6752C39.6326 78.6752 39.234 78.2129 39.234 77.635V77.5322L39.2229 77.5065V77.4295L39.2118 77.4038V77.3524L39.2008 77.3267V77.301L39.1897 77.2754L39.1786 77.2497V77.224L39.1676 77.2111L39.1565 77.1855L39.1454 77.1598V77.1341L39.1343 77.1212L39.1233 77.0956L39.1122 77.0699L39.1011 77.0442L39.09 77.0313L39.079 77.0057L39.0679 76.9928L39.0568 76.9671L39.0347 76.9414V76.9286H39.0236V76.9158H39.0125V76.9029L39.0015 76.8901L38.9793 76.8772V76.8644H38.9683V76.8515H38.9572V76.8387L38.935 76.8259L38.924 76.8002H38.9129V76.7873H38.9018V76.7745H38.8907L38.8686 76.7616L38.8575 76.736L38.8354 76.7231L38.8132 76.7103L38.8022 76.6974L38.78 76.6846L38.7579 76.6717L38.7468 76.6589L38.7247 76.6461H38.7025L38.6804 76.6332L38.6582 76.6204L38.6471 76.6075H38.625L38.6029 76.5947H38.5807L38.5586 76.5818H38.5364L38.5143 76.569H38.4921L38.47 76.5562H38.3593L38.3371 76.5433L38.315 76.5562H38.2042L38.1821 76.569H38.16L38.1378 76.5818H38.1157L38.0935 76.5947H38.0714L38.0492 76.6075H38.0271L38.0049 76.6204L37.9939 76.6332L37.9717 76.6461H37.9496L37.9274 76.6589L37.9164 76.6717C37.8942 76.6846 37.8831 76.6974 37.8721 76.6974V76.7103H37.8499V76.7231H37.8388V76.736H37.8167V76.7488H37.8056V76.7616H37.7946L37.7835 76.7745H37.7724V76.7873H37.7613V76.8002H37.7503V76.813H37.7392V76.8259H37.7281V76.8387H37.717V76.8515H37.706V76.8644H37.6949V76.8772L37.6728 76.8901L37.6617 76.9029C37.6506 76.9158 37.6395 76.9286 37.6395 76.9414L37.6174 76.9671V76.98H37.6063V76.9928L37.5952 77.0057L37.5842 77.0313L37.5731 77.0442L37.562 77.0699L37.551 77.0956V77.1084H37.5399V77.1341H37.5288L37.5177 77.1598V77.1855L37.5067 77.2111L37.4956 77.224V77.2497L37.4845 77.2754L37.4734 77.301V77.3267L37.4624 77.3524V77.4038L37.4513 77.4295V77.4808L37.4402 77.5065V82.8491L36.3662 84.0949L35.2921 82.8491V77.5322L35.2811 77.5065V77.4295L35.27 77.4038V77.3524L35.2589 77.3267V77.301L35.2479 77.2754L35.2368 77.2497V77.224L35.2257 77.2111L35.2146 77.1855V77.1598L35.2036 77.1341L35.1925 77.1212L35.1814 77.0956L35.1703 77.0699L35.1593 77.0442L35.1482 77.0313L35.1371 77.0057H35.1261V76.98H35.115V76.9671L35.0928 76.9414V76.9286H35.0818V76.9158H35.0707V76.9029L35.0596 76.8901L35.0375 76.8772V76.8644H35.0264V76.8515H35.0153V76.8387L34.9932 76.8259L34.9821 76.8002H34.971V76.7873H34.96V76.7745H34.9489L34.9267 76.7616L34.9157 76.736L34.8935 76.7231H34.8825V76.7103H34.8603V76.6974L34.8382 76.6846L34.816 76.6717L34.8049 76.6589L34.7828 76.6461H34.7607L34.7385 76.6332L34.7274 76.6204L34.7053 76.6075H34.6831L34.661 76.5947H34.6389L34.6167 76.5818H34.5946L34.5724 76.569H34.5503L34.5281 76.5562H34.4174L34.3953 76.5433L34.3731 76.5562H34.2624L34.2402 76.569H34.2181L34.196 76.5818H34.1738L34.1517 76.5947H34.1295L34.1074 76.6075H34.0852L34.0742 76.6204L34.052 76.6332L34.0299 76.6461H34.0077L33.9856 76.6589L33.9745 76.6717L33.9524 76.6846L33.9302 76.6974V76.7103H33.9081V76.7231H33.897L33.8748 76.736L33.8638 76.7616L33.8416 76.7745L33.8306 76.7873H33.8195V76.8002H33.8084L33.7973 76.8259L33.7752 76.8387V76.8515H33.7641V76.8644H33.753V76.8772L33.7309 76.8901L33.7198 76.9029V76.9158H33.7088V76.9286H33.6977V76.9414L33.6755 76.9671V76.98H33.6645V77.0057H33.6534L33.6423 77.0313L33.6312 77.0442L33.6202 77.0699L33.6091 77.0956L33.598 77.1212L33.587 77.1341V77.1598L33.5759 77.1855L33.5648 77.2111L33.5537 77.224V77.2497L33.5427 77.2754L33.5316 77.301V77.3267L33.5205 77.3524V77.4038L33.5094 77.4295V77.5065L33.4984 77.5322V77.5836Z" fill="#FEFEFE"/>
<path fill-rule="evenodd" clip-rule="evenodd" d="M40.1185 79.5359C39.6313 79.5359 39.2327 79.9983 39.2327 80.5634V80.6533C39.2327 81.2183 39.6313 81.6935 40.1185 81.6935C40.6168 81.6935 41.0154 81.2183 41.0154 80.6533V80.5634C41.0154 79.9983 40.6168 79.5359 40.1185 79.5359ZM32.6113 79.5359C33.0985 79.5359 33.4971 79.9983 33.4971 80.5634V80.6533C33.4971 81.2183 33.0985 81.6935 32.6113 81.6935C32.113 81.6935 31.7144 81.2183 31.7144 80.6533V80.5634C31.7144 79.9983 32.113 79.5359 32.6113 79.5359ZM50.8479 70.7514C50.3496 70.7514 49.951 71.2138 49.951 71.7789V73.2686C49.951 73.8337 50.3496 74.3089 50.8479 74.3089C51.3351 74.3089 51.7337 73.8337 51.7337 73.2686V71.7789C51.7337 71.2138 51.3351 70.7514 50.8479 70.7514ZM21.8819 70.7514C22.3802 70.7514 22.7788 71.2138 22.7788 71.7789V73.2686C22.7788 73.8337 22.3802 74.3089 21.8819 74.3089C21.3947 74.3089 20.9961 73.8337 20.9961 73.2686V71.7789C20.9961 71.2138 21.3947 70.7514 21.8819 70.7514ZM36.3649 45.0786L42.8977 52.6559L36.3649 60.2332L29.832 52.6559L36.3649 45.0786Z" fill="#FEFEFE"/>
<path fill-rule="evenodd" clip-rule="evenodd" d="M7.04497 64.5864L4 71.6885L36.6753 155L36.3653 129.186L21.7051 96.8862L7.04497 64.5864Z" fill="url(#paint1_linear_194_286)"/>
<path fill-rule="evenodd" clip-rule="evenodd" d="M65.6855 64.5864L71.0004 67.1807L36.6753 155L36.3652 129.186L51.0254 96.8862L65.6855 64.5864Z" fill="url(#paint2_linear_194_286)"/>
<path fill-rule="evenodd" clip-rule="evenodd" d="M65.6855 64.5866L51.0254 32.2869L36.3652 0L42.6434 3.05659L71.0004 67.1809L65.6855 64.5866Z" fill="url(#paint3_linear_194_286)"/>
</g>
<defs>
<filter id="filter0_d_194_286" x="0" y="0" width="75" height="163" filterUnits="userSpaceOnUse" color-interpolation-filters="sRGB">
<feFlood flood-opacity="0" result="BackgroundImageFix"/>
<feColorMatrix in="SourceAlpha" type="matrix" values="0 0 0 0 0 0 0 0 0 0 0 0 0 0 0 0 0 0 127 0" result="hardAlpha"/>
<feOffset dy="4"/>
<feGaussianBlur stdDeviation="2"/>
<feComposite in2="hardAlpha" operator="out"/>
<feColorMatrix type="matrix" values="0 0 0 0 0 0 0 0 0 0 0 0 0 0 0 0 0 0 0.25 0"/>
<feBlend mode="normal" in2="BackgroundImageFix" result="effect1_dropShadow_194_286"/>
<feBlend mode="normal" in="SourceGraphic" in2="effect1_dropShadow_194_286" result="shape"/>
</filter>
<linearGradient id="paint0_linear_194_286" x1="28.0706" y1="110.902" x2="76.6942" y2="88.8294" gradientUnits="userSpaceOnUse">
<stop stop-color="#01C48C"/>
<stop offset="1" stop-color="#B600BC"/>
</linearGradient>
<linearGradient id="paint1_linear_194_286" x1="-18.7174" y1="126.281" x2="105.074" y2="131.213" gradientUnits="userSpaceOnUse">
<stop stop-color="#01C48C"/>
<stop offset="1" stop-color="#B600BC"/>
</linearGradient>
<linearGradient id="paint2_linear_194_286" x1="41.504" y1="137.478" x2="75.5159" y2="129.799" gradientUnits="userSpaceOnUse">
<stop stop-color="#01C48C"/>
<stop offset="1" stop-color="#B600BC"/>
</linearGradient>
<linearGradient id="paint3_linear_194_286" x1="57.78" y1="7.94471" x2="30.418" y2="22.0496" gradientUnits="userSpaceOnUse">
<stop stop-color="#01C48C"/>
<stop offset="1" stop-color="#B600BC"/>
</linearGradient>
</defs>
</svg>
