<svg width="71" height="131" viewBox="0 0 71 131" fill="none" xmlns="http://www.w3.org/2000/svg">
<g filter="url(#filter0_d_194_215)">
<path d="M66.0004 43.1441C66.0004 19.3162 52.1211 0 35.0002 0C17.8793 0 4 19.3162 4 43.1441V78.9095C4 102.737 17.8793 122.054 35.0002 122.054C52.1211 122.054 66.0004 102.737 66.0004 78.9095V43.1441Z" fill="url(#paint0_linear_194_215)"/>
<path d="M35.0075 62.015C52.1325 62.015 66.015 48.1325 66.015 31.0075C66.015 13.8825 52.1325 0 35.0075 0C17.8825 0 4 13.8825 4 31.0075C4 48.1325 17.8825 62.015 35.0075 62.015Z" fill="url(#paint1_linear_194_215)"/>
<path fill-rule="evenodd" clip-rule="evenodd" d="M31.7281 43.8029V43.8614C31.7281 44.4178 31.2743 44.8862 30.7033 44.8862C30.147 44.8862 29.6931 44.4178 29.6931 43.8614V39.5134C29.6931 38.9424 29.2247 38.4886 28.6683 38.4886C28.112 38.4886 27.6435 38.9424 27.6435 39.5134V41.6654C27.6435 42.2218 27.1897 42.6756 26.6334 42.6756C26.0624 42.6756 25.6086 42.2218 25.6086 41.6654V35.136C25.6086 34.565 25.1547 34.1112 24.5838 34.1112C24.0275 34.1112 23.5736 34.565 23.5736 35.136V43.4808C23.5736 44.0371 23.1052 44.491 22.5488 44.491C21.9779 44.491 21.524 44.0371 21.524 43.4808V32.8082C21.524 32.2373 21.0702 31.7834 20.4992 31.7834C19.9429 31.7834 19.4891 32.2373 19.4891 32.8082V35.0335C19.4891 35.5898 19.0206 36.0583 18.4643 36.0583C17.908 36.0583 17.4395 35.5898 17.4395 35.0335V32.6618L15.7852 31.0075L23.0466 23.7461L35.0075 35.707L46.9537 23.7461L54.2151 31.0075L52.5608 32.6618V35.0335C52.5608 35.5898 52.0923 36.0583 51.536 36.0583C50.9797 36.0583 50.5112 35.5898 50.5112 35.0335V32.8082C50.5112 32.2373 50.0574 31.7834 49.5011 31.7834C48.9301 31.7834 48.4763 32.2373 48.4763 32.8082V43.4808C48.4763 44.0371 48.0224 44.491 47.4515 44.491C46.8951 44.491 46.4413 44.0371 46.4413 43.4808V35.136C46.4413 34.565 45.9728 34.1112 45.4165 34.1112C44.8602 34.1112 44.3917 34.565 44.3917 35.136V41.6654C44.3917 42.2218 43.9379 42.6756 43.3669 42.6756C42.8106 42.6756 42.3567 42.2218 42.3567 41.6654V39.5134C42.3567 38.9424 41.8883 38.4886 41.3319 38.4886C40.7756 38.4886 40.3071 38.9424 40.3071 39.5134V43.8614C40.3071 44.4178 39.8533 44.8862 39.297 44.8862C38.726 44.8862 38.2722 44.4178 38.2722 43.8614V43.7004L38.2575 43.6858V43.5979L38.2429 43.5833V43.554L38.2283 43.5247V43.5101L38.2136 43.4808V43.4662L38.199 43.4369L38.1843 43.4076V43.393L38.1697 43.3637L38.1551 43.349V43.3198L38.1404 43.3051L38.1258 43.2758L38.1111 43.2612L38.0965 43.2466L38.0819 43.2173L38.0672 43.2026L38.0526 43.1734H38.0379V43.1587H38.0233V43.1441L38.0087 43.1294L37.994 43.1002H37.9794L37.9647 43.0855V43.0709H37.9501L37.9355 43.0562L37.9208 43.0416L37.9062 43.027H37.8915V43.0123H37.8769L37.8623 42.9977L37.8476 42.983L37.8183 42.9684L37.8037 42.9538L37.7744 42.9391L37.7598 42.9245L37.7305 42.9098L37.7159 42.8952H37.6866L37.6719 42.8806L37.6427 42.8659H37.628L37.5987 42.8513L37.5841 42.8366H37.5548L37.5255 42.822H37.4816L37.4523 42.8074H37.4084L37.3791 42.7927H37.1156L37.101 42.8074H37.0424L37.0278 42.822H36.9692L36.9546 42.8366H36.9253L36.896 42.8513L36.8814 42.8659H36.8521L36.8375 42.8806L36.8082 42.8952H36.7935L36.7643 42.9098C36.7496 42.9245 36.735 42.9245 36.7203 42.9391H36.7057V42.9538H36.6911V42.9684H36.6618V42.983H36.6471V42.9977H36.6325V43.0123H36.6032V43.027H36.5886V43.0416H36.5739V43.0562H36.5593V43.0709H36.5447V43.0855H36.53V43.1002H36.5154L36.5007 43.1294L36.4861 43.1441L36.4568 43.1734L36.4275 43.2026V43.2173H36.4129V43.2466L36.3983 43.2612L36.3836 43.2758L36.369 43.3051L36.3543 43.3198V43.3344H36.3397V43.3637H36.3251V43.393L36.3104 43.4076L36.2958 43.4369V43.4662L36.2811 43.4808V43.5101L36.2665 43.5247V43.554L36.2519 43.5833V43.6272L36.2372 43.6565V48.9854L35.0075 50.2152L33.7777 48.9854V43.7882L33.7631 43.759V43.6565L33.7484 43.6272V43.5833L33.7338 43.554V43.5247L33.7191 43.5101V43.4808L33.7045 43.4662V43.4369L33.6899 43.4076L33.6752 43.393V43.3637L33.6606 43.349L33.6459 43.3198L33.6313 43.3051L33.6167 43.2758V43.2612L33.602 43.2466V43.2319H33.5874V43.2173H33.5727V43.2026L33.5581 43.1734H33.5435V43.1587H33.5288V43.1441H33.5142L33.4995 43.1294L33.4849 43.1002H33.4703V43.0855H33.4556V43.0709L33.441 43.0562L33.4117 43.0416V43.027H33.3971V43.0123H33.3824L33.3531 42.9977L33.3385 42.983L33.3239 42.9684H33.3092V42.9538H33.2946V42.9391H33.2799L33.2507 42.9245L33.236 42.9098L33.2214 42.8952H33.1921L33.1628 42.8806L33.1482 42.8659H33.1189L33.1043 42.8513L33.075 42.8366H33.0603L33.0311 42.822H32.9871L32.9579 42.8074H32.8993L32.8847 42.7927H32.6211L32.5919 42.8074H32.5479L32.5187 42.822H32.4747L32.4455 42.8366H32.4308L32.4015 42.8513L32.3723 42.8659H32.3576L32.3283 42.8806L32.3137 42.8952H32.2844L32.2698 42.9098L32.2405 42.9245L32.2259 42.9391H32.2112V42.9538H32.1819V42.9684L32.1673 42.983L32.138 42.9977L32.1234 43.0123H32.1087V43.027H32.0941V43.0416H32.0795L32.0648 43.0562L32.0502 43.0709H32.0355V43.0855H32.0209V43.1002H32.0063L31.9916 43.1294L31.977 43.1441V43.1587H31.9623V43.1734H31.9477L31.9331 43.2026V43.2173H31.9184V43.2319H31.9038V43.2466L31.8891 43.2612L31.8745 43.2758L31.8599 43.3051V43.3198L31.8452 43.349L31.8306 43.3637L31.8159 43.393V43.4076L31.8013 43.4369L31.7867 43.4662V43.4808L31.772 43.5101V43.5247L31.7574 43.554V43.5979L31.7427 43.6272V43.6858L31.7281 43.7004V43.8029Z" fill="#FEFEFE"/>
<path fill-rule="evenodd" clip-rule="evenodd" d="M39.297 45.7207C38.726 45.7207 38.2722 46.1891 38.2722 46.7455V46.8333C38.2722 47.3896 38.726 47.8581 39.297 47.8581C39.8533 47.8581 40.3071 47.3896 40.3071 46.8333V46.7455C40.3071 46.1891 39.8533 45.7207 39.297 45.7207ZM30.7033 45.7207C31.2742 45.7207 31.7281 46.1891 31.7281 46.7455V46.8333C31.7281 47.3896 31.2742 47.8581 30.7033 47.8581C30.147 47.8581 29.6931 47.3896 29.6931 46.8333V46.7455C29.6931 46.1891 30.147 45.7207 30.7033 45.7207ZM51.536 37.0684C50.9797 37.0684 50.5112 37.5369 50.5112 38.0932V39.5572C50.5112 40.1135 50.9797 40.582 51.536 40.582C52.0923 40.582 52.5608 40.1135 52.5608 39.5572V38.0932C52.5608 37.5369 52.0923 37.0684 51.536 37.0684ZM18.4643 37.0684C19.0206 37.0684 19.4891 37.5369 19.4891 38.0932V39.5572C19.4891 40.1135 19.0206 40.582 18.4643 40.582C17.9079 40.582 17.4395 40.1135 17.4395 39.5572V38.0932C17.4395 37.5369 17.9079 37.0684 18.4643 37.0684ZM35.0074 11.7998L42.4592 19.2516L35.0074 26.718L27.541 19.2516L35.0074 11.7998Z" fill="#FEFEFE"/>
</g>
<defs>
<filter id="filter0_d_194_215" x="0" y="0" width="70.0156" height="130.054" filterUnits="userSpaceOnUse" color-interpolation-filters="sRGB">
<feFlood flood-opacity="0" result="BackgroundImageFix"/>
<feColorMatrix in="SourceAlpha" type="matrix" values="0 0 0 0 0 0 0 0 0 0 0 0 0 0 0 0 0 0 127 0" result="hardAlpha"/>
<feOffset dy="4"/>
<feGaussianBlur stdDeviation="2"/>
<feComposite in2="hardAlpha" operator="out"/>
<feColorMatrix type="matrix" values="0 0 0 0 0 0 0 0 0 0 0 0 0 0 0 0 0 0 0.25 0"/>
<feBlend mode="normal" in2="BackgroundImageFix" result="effect1_dropShadow_194_215"/>
<feBlend mode="normal" in="SourceGraphic" in2="effect1_dropShadow_194_215" result="shape"/>
</filter>
<linearGradient id="paint0_linear_194_215" x1="23.8606" y1="74.6773" x2="81.2772" y2="57.3391" gradientUnits="userSpaceOnUse">
<stop stop-color="#09B081"/>
<stop offset="1" stop-color="#A700AD"/>
</linearGradient>
<linearGradient id="paint1_linear_194_215" x1="35.0016" y1="62.0097" x2="66.0018" y2="31.0084" gradientUnits="userSpaceOnUse">
<stop stop-color="#01C48C"/>
<stop offset="1" stop-color="#B600BC"/>
</linearGradient>
</defs>
</svg>
