<svg width="98" height="107" viewBox="0 0 98 107" fill="none" xmlns="http://www.w3.org/2000/svg">
<g filter="url(#filter0_d_194_227)">
<path fill-rule="evenodd" clip-rule="evenodd" d="M48.827 0L68.4299 11.3167L88.0475 22.6334V67.9149L68.4299 79.2316L48.827 90.5483L29.224 79.2316L9.62109 67.9149V22.6334L29.224 11.3167L48.827 0Z" fill="url(#paint0_linear_194_227)"/>
<path fill-rule="evenodd" clip-rule="evenodd" d="M44.0099 64.1231V64.2109C44.0099 65.0308 43.3364 65.7042 42.5166 65.7042C41.6821 65.7042 41.0087 65.0308 41.0087 64.2109V57.7986C41.0087 56.9641 40.3352 56.2907 39.5008 56.2907C38.6809 56.2907 38.0075 56.9641 38.0075 57.7986V60.9608C38.0075 61.7807 37.3194 62.4688 36.4996 62.4688C35.6797 62.4688 34.9917 61.7807 34.9917 60.9608V51.3424C34.9917 50.5225 34.3182 49.8491 33.4984 49.8491C32.6639 49.8491 31.9905 50.5225 31.9905 51.3424V63.64C31.9905 64.4598 31.317 65.1479 30.4825 65.1479C29.6627 65.1479 28.9893 64.4598 28.9893 63.64V47.9166C28.9893 47.0968 28.3158 46.4233 27.4813 46.4233C26.6615 46.4233 25.9734 47.0968 25.9734 47.9166V51.2106C25.9734 52.0305 25.3 52.7039 24.4801 52.7039C23.6457 52.7039 22.9722 52.0305 22.9722 51.2106V47.7117L20.5273 45.2814L31.2292 34.5796L48.8264 52.1915L66.4384 34.5796L77.1255 45.2814L74.6807 47.7117V51.2106C74.6807 52.0305 74.0072 52.7039 73.1874 52.7039C72.3529 52.7039 71.6795 52.0305 71.6795 51.2106V47.9166C71.6795 47.0968 71.006 46.4233 70.1862 46.4233H70.1715C69.3517 46.4233 68.6783 47.0968 68.6783 47.9166V63.64C68.6783 64.4598 68.0048 65.1479 67.1703 65.1479C66.3505 65.1479 65.6771 64.4598 65.6771 63.64V51.3424C65.6771 50.5225 64.989 49.8491 64.1692 49.8491C63.3347 49.8491 62.6612 50.5225 62.6612 51.3424V60.9608C62.6612 61.7807 61.9878 62.4688 61.168 62.4688C60.3335 62.4688 59.66 61.7807 59.66 60.9608V57.7986C59.66 56.9641 58.9866 56.2907 58.1521 56.2907C57.3323 56.2907 56.6588 56.9641 56.6588 57.7986V64.2109C56.6588 65.0308 55.9708 65.7042 55.1509 65.7042C54.3311 65.7042 53.643 65.0308 53.643 64.2109V63.9328L53.6284 63.9035V63.8596L53.6137 63.8303V63.7864L53.5991 63.7571L53.5844 63.7132V63.6839L53.5698 63.6546L53.5552 63.6107L53.5405 63.5814L53.5259 63.5521L53.5112 63.5082L53.4966 63.4789L53.482 63.4496L53.4673 63.4204L53.4527 63.3764L53.4234 63.3472L53.4088 63.3179L53.3941 63.2886L53.3648 63.2593L53.3502 63.23L53.3209 63.2008V63.1861H53.3063V63.1715H53.2916V63.1568H53.277V63.1422L53.2624 63.1129L53.2331 63.0983V63.0836H53.2184V63.069H53.2038V63.0544H53.1892V63.0397H53.1745L53.1599 63.0104L53.1306 62.9958H53.116V62.9812H53.1013V62.9665H53.0867V62.9519H53.072L53.0428 62.9226L53.0135 62.908L52.9842 62.8787L52.9549 62.864L52.9256 62.8494L52.8964 62.8201L52.8671 62.8055L52.8232 62.7908L52.7939 62.7762L52.7646 62.7616L52.7353 62.7469L52.6914 62.7323L52.6621 62.7176L52.6328 62.703L52.5889 62.6884H52.5596L52.5157 62.6737L52.4864 62.6591H52.4425L52.4132 62.6444H52.34L52.2961 62.6298H51.9887L51.9594 62.6444H51.8862L51.8423 62.6591H51.813L51.7691 62.6737L51.7398 62.6884H51.6959L51.6666 62.703L51.6227 62.7176L51.5934 62.7323L51.5641 62.7469L51.5348 62.7616L51.4909 62.7762L51.4616 62.7908L51.4324 62.8055C51.4031 62.8201 51.3884 62.8348 51.3738 62.8494H51.3445V62.864H51.3299V62.8787H51.3006V62.8933H51.286L51.2713 62.908H51.2567V62.9226H51.242V62.9372H51.2274V62.9519H51.1981V62.9665H51.1835V62.9812H51.1688V62.9958H51.1542V63.0104H51.1396V63.0251H51.1249V63.0397H51.1103V63.0544H51.0956V63.069H51.081V63.0836H51.0664V63.0983H51.0517L51.0371 63.1129L51.0078 63.1422C50.9932 63.1715 50.9785 63.1861 50.9639 63.2008L50.9346 63.23V63.2447H50.92V63.274H50.9053V63.2886L50.876 63.3179L50.8614 63.3472L50.8468 63.3764L50.8175 63.4204V63.435H50.8028V63.4643H50.7882V63.4789L50.7736 63.5082L50.7589 63.5521L50.7443 63.5814L50.7296 63.6107L50.715 63.6546V63.6839L50.7004 63.7132L50.6857 63.7571V63.7864L50.6711 63.8303V63.8596L50.6564 63.9035V63.9767L50.6418 64.006V71.7652L48.8264 73.5659L47.0257 71.7652V64.0938L47.0111 64.0499V63.9328L46.9964 63.9035V63.8596L46.9818 63.8303V63.7864L46.9672 63.7571V63.7132L46.9525 63.6839L46.9379 63.6546L46.9232 63.6107L46.9086 63.5814L46.894 63.5521L46.8793 63.5082L46.8647 63.4789L46.85 63.4496L46.8354 63.4204L46.8208 63.3764L46.8061 63.3472L46.7768 63.3179L46.7622 63.2886V63.274H46.7476V63.2593H46.7329V63.2447H46.7183V63.23L46.7036 63.2008H46.689V63.1861H46.6744V63.1715L46.6597 63.1568V63.1422H46.6451L46.6304 63.1129L46.6012 63.0983V63.0836H46.5865V63.069H46.5719V63.0544H46.5572V63.0397L46.528 63.0104L46.4987 62.9958L46.484 62.9812H46.4694V62.9665H46.4548V62.9519H46.4401L46.4108 62.9226L46.3816 62.908L46.3523 62.8787H46.3376V62.864H46.3084V62.8494H46.2937L46.2644 62.8201L46.2352 62.8055L46.2059 62.7908L46.162 62.7762L46.1327 62.7616L46.1034 62.7469L46.0595 62.7323L46.0302 62.7176L46.0009 62.703L45.957 62.6884H45.9277L45.8838 62.6737L45.8545 62.6591H45.8252L45.7813 62.6444H45.7081L45.6642 62.6298H45.3568L45.3275 62.6444H45.2543L45.2104 62.6591H45.1811L45.1372 62.6737L45.1079 62.6884H45.064L45.0347 62.703L45.0054 62.7176L44.9615 62.7323L44.9322 62.7469L44.9029 62.7616L44.859 62.7762L44.8297 62.7908L44.8004 62.8055L44.7712 62.8201L44.7419 62.8494H44.7126V62.864H44.698V62.8787H44.6833L44.654 62.908L44.6248 62.9226L44.5955 62.9519H44.5808L44.5662 62.9665H44.5516V62.9812H44.5369V62.9958L44.5076 63.0104L44.4784 63.0397V63.0544H44.4637V63.069H44.4491V63.0836H44.4344V63.0983L44.4052 63.1129L44.3759 63.1422V63.1568H44.3612V63.1715L44.3466 63.1861V63.2008H44.332L44.3173 63.23H44.3027V63.2593H44.288V63.274H44.2734V63.2886L44.2441 63.3179L44.2295 63.3472L44.2148 63.3764L44.2002 63.4204L44.1856 63.4496L44.1563 63.4789L44.1416 63.5082L44.127 63.5521L44.1124 63.5814L44.0977 63.6107V63.6546L44.0831 63.6839L44.0684 63.7132L44.0538 63.7571V63.7864L44.0392 63.8303V63.8596L44.0245 63.9035V64.006L44.0099 64.0499V64.1231Z" fill="#FEFEFE"/>
<path fill-rule="evenodd" clip-rule="evenodd" d="M55.1514 66.9487C54.3315 66.9487 53.6434 67.6221 53.6434 68.4566V68.5737C53.6434 69.4082 54.3315 70.0817 55.1514 70.0817C55.9712 70.0817 56.6593 69.4082 56.6593 68.5737V68.4566C56.6593 67.6221 55.9712 66.9487 55.1514 66.9487ZM42.517 66.9487C43.3369 66.9487 44.0103 67.6221 44.0103 68.4566V68.5737C44.0103 69.4082 43.3369 70.0817 42.517 70.0817C41.6826 70.0817 41.0091 69.4082 41.0091 68.5737V68.4566C41.0091 67.6221 41.6826 66.9487 42.517 66.9487ZM73.1878 54.2119C72.3533 54.2119 71.6799 54.8854 71.6799 55.7052V57.8719C71.6799 58.6917 72.3533 59.3652 73.1878 59.3652C74.0077 59.3652 74.6811 58.6917 74.6811 57.8719V55.7052C74.6811 54.8854 74.0077 54.2119 73.1878 54.2119ZM24.4806 54.2119C25.3004 54.2119 25.9739 54.8854 25.9739 55.7052V57.8719C25.9739 58.6917 25.3004 59.3652 24.4806 59.3652C23.6461 59.3652 22.9727 58.6917 22.9727 57.8719V55.7052C22.9727 54.8854 23.6461 54.2119 24.4806 54.2119ZM48.8269 16.9824L59.8215 27.9624L48.8269 38.957L37.8469 27.9624L48.8269 16.9824Z" fill="#FEFEFE"/>
<path fill-rule="evenodd" clip-rule="evenodd" d="M9.62176 67.915L4 72.7462L48.7837 98.2491L48.8276 90.5485L9.62176 67.915Z" fill="#1AA993"/>
<path fill-rule="evenodd" clip-rule="evenodd" d="M88.0477 67.915L93.6694 72.7462L48.7832 98.2491L48.8271 90.5485L88.0477 67.915Z" fill="url(#paint1_linear_194_227)"/>
<path fill-rule="evenodd" clip-rule="evenodd" d="M88.0488 22.6335L93.1289 27.7868L93.6706 72.7462L88.0488 67.915V22.6335Z" fill="url(#paint2_linear_194_227)"/>
<path fill-rule="evenodd" clip-rule="evenodd" d="M9.62176 22.6335L4.54168 27.7868L4 72.7462L9.62176 67.915V22.6335Z" fill="#457B9E"/>
</g>
<defs>
<filter id="filter0_d_194_227" x="0" y="0" width="97.6699" height="106.249" filterUnits="userSpaceOnUse" color-interpolation-filters="sRGB">
<feFlood flood-opacity="0" result="BackgroundImageFix"/>
<feColorMatrix in="SourceAlpha" type="matrix" values="0 0 0 0 0 0 0 0 0 0 0 0 0 0 0 0 0 0 127 0" result="hardAlpha"/>
<feOffset dy="4"/>
<feGaussianBlur stdDeviation="2"/>
<feComposite in2="hardAlpha" operator="out"/>
<feColorMatrix type="matrix" values="0 0 0 0 0 0 0 0 0 0 0 0 0 0 0 0 0 0 0.25 0"/>
<feBlend mode="normal" in2="BackgroundImageFix" result="effect1_dropShadow_194_227"/>
<feBlend mode="normal" in="SourceGraphic" in2="effect1_dropShadow_194_227" result="shape"/>
</filter>
<linearGradient id="paint0_linear_194_227" x1="46.0308" y1="87.3173" x2="90.8408" y2="48.5096" gradientUnits="userSpaceOnUse">
<stop stop-color="#01C48C"/>
<stop offset="1" stop-color="#B600BC"/>
</linearGradient>
<linearGradient id="paint1_linear_194_227" x1="42.0517" y1="117.99" x2="126.785" y2="63.1131" gradientUnits="userSpaceOnUse">
<stop stop-color="#01C48C"/>
<stop offset="1" stop-color="#B600BC"/>
</linearGradient>
<linearGradient id="paint2_linear_194_227" x1="111.423" y1="-28.9472" x2="97.6087" y2="109.267" gradientUnits="userSpaceOnUse">
<stop stop-color="#7A41AC"/>
<stop offset="1" stop-color="#B600BC"/>
</linearGradient>
</defs>
</svg>
