<svg width="50" height="89" viewBox="0 0 50 89" fill="none" xmlns="http://www.w3.org/2000/svg">
<g filter="url(#filter0_d_194_281)">
<path d="M45.1461 28.6322C45.1461 12.8191 35.9352 0 24.573 0C13.2109 0 4 12.8191 4 28.6322V52.3678C4 68.1809 13.2109 81 24.573 81C35.9352 81 45.1461 68.1809 45.1461 52.3678V28.6322Z" fill="url(#paint0_linear_194_281)"/>
<path d="M24.5779 41.1558C35.9428 41.1558 45.1558 31.9428 45.1558 20.5779C45.1558 9.21304 35.9428 0 24.5779 0C13.213 0 4 9.21304 4 20.5779C4 31.9428 13.213 41.1558 24.5779 41.1558Z" fill="url(#paint1_linear_194_281)"/>
<path fill-rule="evenodd" clip-rule="evenodd" d="M22.4027 29.0693V29.1082C22.4027 29.4774 22.1015 29.7883 21.7226 29.7883C21.3534 29.7883 21.0522 29.4774 21.0522 29.1082V26.2226C21.0522 25.8437 20.7413 25.5425 20.3721 25.5425C20.0029 25.5425 19.692 25.8437 19.692 26.2226V27.6508C19.692 28.02 19.3908 28.3212 19.0216 28.3212C18.6427 28.3212 18.3415 28.02 18.3415 27.6508V23.3176C18.3415 22.9387 18.0403 22.6375 17.6614 22.6375C17.2922 22.6375 16.991 22.9387 16.991 23.3176V28.8556C16.991 29.2248 16.6801 29.526 16.3109 29.526C15.932 29.526 15.6308 29.2248 15.6308 28.8556V21.7728C15.6308 21.3939 15.3296 21.0927 14.9507 21.0927C14.5815 21.0927 14.2803 21.3939 14.2803 21.7728V23.2496C14.2803 23.6188 13.9694 23.9297 13.6002 23.9297C13.231 23.9297 12.9201 23.6188 12.9201 23.2496V21.6757L11.8223 20.5778L16.6413 15.7588L24.579 23.6965L32.507 15.7588L37.326 20.5778L36.2282 21.6757V23.2496C36.2282 23.6188 35.9173 23.9297 35.5481 23.9297C35.1789 23.9297 34.868 23.6188 34.868 23.2496V21.7728C34.868 21.3939 34.5668 21.0927 34.1976 21.0927C33.8187 21.0927 33.5175 21.3939 33.5175 21.7728V28.8556C33.5175 29.2248 33.2163 29.526 32.8374 29.526C32.4682 29.526 32.167 29.2248 32.167 28.8556V23.3176C32.167 22.9387 31.8561 22.6375 31.4869 22.6375C31.1177 22.6375 30.8068 22.9387 30.8068 23.3176V27.6508C30.8068 28.02 30.5056 28.3212 30.1267 28.3212C29.7575 28.3212 29.4563 28.02 29.4563 27.6508V26.2226C29.4563 25.8437 29.1454 25.5425 28.7762 25.5425C28.407 25.5425 28.0961 25.8437 28.0961 26.2226V29.1082C28.0961 29.4774 27.7949 29.7883 27.4257 29.7883C27.0468 29.7883 26.7456 29.4774 26.7456 29.1082V29.0013L26.7359 28.9916V28.9333L26.7262 28.9236V28.9042L26.7165 28.8847V28.875L26.7068 28.8556V28.8459L26.697 28.8264L26.6873 28.807V28.7973L26.6776 28.7779L26.6679 28.7681V28.7487L26.6582 28.739L26.6485 28.7196L26.6387 28.7098L26.629 28.7001L26.6193 28.6807L26.6096 28.671L26.5999 28.6516H26.5902V28.6418H26.5805V28.6321L26.5707 28.6224L26.561 28.603H26.5513L26.5416 28.5933V28.5835H26.5319L26.5222 28.5738L26.5124 28.5641L26.5027 28.5544H26.493V28.5447H26.4833L26.4736 28.535L26.4639 28.5253L26.4444 28.5155L26.4347 28.5058L26.4153 28.4961L26.4056 28.4864L26.3861 28.4767L26.3764 28.467H26.357L26.3473 28.4572L26.3278 28.4475H26.3181L26.2987 28.4378L26.289 28.4281H26.2695L26.2501 28.4184H26.221L26.2015 28.4087H26.1724L26.153 28.3989H25.9781L25.9684 28.4087H25.9295L25.9198 28.4184H25.8809L25.8712 28.4281H25.8518L25.8323 28.4378L25.8226 28.4475H25.8032L25.7935 28.4572L25.774 28.467H25.7643L25.7449 28.4767C25.7352 28.4864 25.7255 28.4864 25.7158 28.4961H25.706V28.5058H25.6963V28.5155H25.6769V28.5253H25.6672V28.535H25.6575V28.5447H25.638V28.5544H25.6283V28.5641H25.6186V28.5738H25.6089V28.5835H25.5992V28.5933H25.5894V28.603H25.5797L25.57 28.6224L25.5603 28.6321L25.5409 28.6516L25.5214 28.671V28.6807H25.5117V28.7001L25.502 28.7098L25.4923 28.7196L25.4826 28.739L25.4729 28.7487V28.7584H25.4631V28.7779H25.4534V28.7973L25.4437 28.807L25.434 28.8264V28.8459L25.4243 28.8556V28.875L25.4146 28.8847V28.9042L25.4049 28.9236V28.9527L25.3951 28.9722V32.5087L24.579 33.3248L23.7629 32.5087V29.0596L23.7532 29.0402V28.9722L23.7435 28.9527V28.9236L23.7337 28.9042V28.8847L23.724 28.875V28.8556L23.7143 28.8459V28.8264L23.7046 28.807L23.6949 28.7973V28.7779L23.6852 28.7681L23.6755 28.7487L23.6657 28.739L23.656 28.7196V28.7098L23.6463 28.7001V28.6904H23.6366V28.6807H23.6269V28.671L23.6172 28.6516H23.6074V28.6418H23.5977V28.6321H23.588L23.5783 28.6224L23.5686 28.603H23.5589V28.5933H23.5491V28.5835L23.5394 28.5738L23.52 28.5641V28.5544H23.5103V28.5447H23.5006L23.4811 28.535L23.4714 28.5253L23.4617 28.5155H23.452V28.5058H23.4423V28.4961H23.4326L23.4131 28.4864L23.4034 28.4767L23.3937 28.467H23.3743L23.3548 28.4572L23.3451 28.4475H23.3257L23.316 28.4378L23.2965 28.4281H23.2868L23.2674 28.4184H23.2382L23.2188 28.4087H23.1799L23.1702 28.3989H22.9953L22.9759 28.4087H22.9468L22.9273 28.4184H22.8982L22.8788 28.4281H22.869L22.8496 28.4378L22.8302 28.4475H22.8205L22.801 28.4572L22.7913 28.467H22.7719L22.7622 28.4767L22.7427 28.4864L22.733 28.4961H22.7233V28.5058H22.7039V28.5155L22.6942 28.5253L22.6747 28.535L22.665 28.5447H22.6553V28.5544H22.6456V28.5641H22.6359L22.6262 28.5738L22.6164 28.5835H22.6067V28.5933H22.597V28.603H22.5873L22.5776 28.6224L22.5679 28.6321V28.6418H22.5581V28.6516H22.5484L22.5387 28.671V28.6807H22.529V28.6904H22.5193V28.7001L22.5096 28.7098L22.4998 28.7196L22.4901 28.739V28.7487L22.4804 28.7681L22.4707 28.7779L22.461 28.7973V28.807L22.4513 28.8264L22.4416 28.8459V28.8556L22.4318 28.875V28.8847L22.4221 28.9042V28.9333L22.4124 28.9527V28.9916L22.4027 29.0013V29.0693Z" fill="#FEFEFE"/>
<path fill-rule="evenodd" clip-rule="evenodd" d="M27.4235 30.3421C27.0446 30.3421 26.7434 30.653 26.7434 31.0222V31.0805C26.7434 31.4497 27.0446 31.7606 27.4235 31.7606C27.7927 31.7606 28.0939 31.4497 28.0939 31.0805V31.0222C28.0939 30.653 27.7927 30.3421 27.4235 30.3421ZM21.7204 30.3421C22.0993 30.3421 22.4005 30.653 22.4005 31.0222V31.0805C22.4005 31.4497 22.0993 31.7606 21.7204 31.7606C21.3512 31.7606 21.05 31.4497 21.05 31.0805V31.0222C21.05 30.653 21.3512 30.3421 21.7204 30.3421ZM35.5459 24.6002C35.1767 24.6002 34.8658 24.9111 34.8658 25.2803V26.2518C34.8658 26.621 35.1767 26.9319 35.5459 26.9319C35.9151 26.9319 36.226 26.621 36.226 26.2518V25.2803C36.226 24.9111 35.9151 24.6002 35.5459 24.6002ZM13.5981 24.6002C13.9673 24.6002 14.2782 24.9111 14.2782 25.2803V26.2518C14.2782 26.621 13.9673 26.9319 13.5981 26.9319C13.2289 26.9319 12.918 26.621 12.918 26.2518V25.2803C12.918 24.9111 13.2289 24.6002 13.5981 24.6002ZM24.5768 7.83081L29.5221 12.7761L24.5768 17.7311L19.6218 12.7761L24.5768 7.83081Z" fill="#FEFEFE"/>
</g>
<defs>
<filter id="filter0_d_194_281" x="0" y="0" width="49.1562" height="89" filterUnits="userSpaceOnUse" color-interpolation-filters="sRGB">
<feFlood flood-opacity="0" result="BackgroundImageFix"/>
<feColorMatrix in="SourceAlpha" type="matrix" values="0 0 0 0 0 0 0 0 0 0 0 0 0 0 0 0 0 0 127 0" result="hardAlpha"/>
<feOffset dy="4"/>
<feGaussianBlur stdDeviation="2"/>
<feComposite in2="hardAlpha" operator="out"/>
<feColorMatrix type="matrix" values="0 0 0 0 0 0 0 0 0 0 0 0 0 0 0 0 0 0 0.25 0"/>
<feBlend mode="normal" in2="BackgroundImageFix" result="effect1_dropShadow_194_281"/>
<feBlend mode="normal" in="SourceGraphic" in2="effect1_dropShadow_194_281" result="shape"/>
</filter>
<linearGradient id="paint0_linear_194_281" x1="17.1804" y1="49.559" x2="55.2844" y2="38.0527" gradientUnits="userSpaceOnUse">
<stop stop-color="#09B081"/>
<stop offset="1" stop-color="#A700AD"/>
</linearGradient>
<linearGradient id="paint1_linear_194_281" x1="24.574" y1="41.1523" x2="45.1471" y2="20.5785" gradientUnits="userSpaceOnUse">
<stop stop-color="#01C48C"/>
<stop offset="1" stop-color="#B600BC"/>
</linearGradient>
</defs>
</svg>
