<svg width="207" height="114" viewBox="0 0 207 114" fill="none" xmlns="http://www.w3.org/2000/svg">
<path d="M0.927734 69.0129L59.2653 15.2428L81.8916 62.1107L81.5099 62.3334L59.1563 15.9107L1.20034 69.2912L0.927734 69.0129Z" fill="white"/>
<path d="M135.27 55.5982L59.1582 15.7995L59.3218 15.4098L135.433 55.2643L135.27 55.5982ZM81.8935 62.2777L72.952 113.487L72.5704 113.432L81.4573 62.1664L81.8935 62.2777Z" fill="white"/>
<path d="M81.6756 62.3334L135.597 55.2643L146.447 0.937548L59.2674 15.7995L59.2129 15.3542L146.992 0.436584C143.339 18.8053 139.632 37.2296 135.924 55.5982L81.7301 62.7231L81.6756 62.3334Z" fill="white"/>
<path d="M206.418 66.8421L135.322 55.6539L135.377 55.2086L206.472 66.4524L206.418 66.8421Z" fill="white"/>
</svg>
