<svg width="1460" height="176" viewBox="0 0 1460 176" fill="none" xmlns="http://www.w3.org/2000/svg">
<g filter="url(#filter0_d_157_3274)">
<path d="M1372 160C1415.08 160 1450 125.078 1450 82C1450 38.9218 1415.08 4 1372 4H88C44.9218 4 10 38.9218 10 82C10 125.078 44.9218 160 88 160H1372Z" fill="url(#paint0_linear_157_3274)"/>
<path d="M1449 82C1449 124.526 1414.53 159 1372 159H88C45.4741 159 11 124.526 11 82C11 39.4741 45.4741 5 88 5H1372C1414.53 5 1449 39.4741 1449 82Z" stroke="url(#paint1_linear_157_3274)" stroke-width="2"/>
</g>
<defs>
<filter id="filter0_d_157_3274" x="0.2" y="0.2" width="1459.6" height="175.6" filterUnits="userSpaceOnUse" color-interpolation-filters="sRGB">
<feFlood flood-opacity="0" result="BackgroundImageFix"/>
<feColorMatrix in="SourceAlpha" type="matrix" values="0 0 0 0 0 0 0 0 0 0 0 0 0 0 0 0 0 0 127 0" result="hardAlpha"/>
<feOffset dy="6"/>
<feGaussianBlur stdDeviation="4.9"/>
<feComposite in2="hardAlpha" operator="out"/>
<feColorMatrix type="matrix" values="0 0 0 0 0 0 0 0 0 0 0 0 0 0 0 0 0 0 0.25 0"/>
<feBlend mode="normal" in2="BackgroundImageFix" result="effect1_dropShadow_157_3274"/>
<feBlend mode="normal" in="SourceGraphic" in2="effect1_dropShadow_157_3274" result="shape"/>
</filter>
<linearGradient id="paint0_linear_157_3274" x1="772.219" y1="59.8098" x2="772.219" y2="160" gradientUnits="userSpaceOnUse">
<stop stop-color="#13134F"/>
<stop offset="1" stop-color="#4F018B"/>
</linearGradient>
<linearGradient id="paint1_linear_157_3274" x1="730" y1="4" x2="730" y2="160" gradientUnits="userSpaceOnUse">
<stop stop-color="#E035FE"/>
<stop offset="1" stop-color="#1DE3A2"/>
</linearGradient>
</defs>
</svg>
