<svg width="320" height="103" viewBox="0 0 320 103" fill="none" xmlns="http://www.w3.org/2000/svg">
<g filter="url(#filter0_d_194_295)">
<path d="M301 87C305.971 87 310 82.9706 310 78V13C310 8.02944 305.971 4 301 4H19C14.0294 4 10 8.02944 10 13V78C10 82.9706 14.0294 87 19 87H301Z" fill="url(#paint0_linear_194_295)"/>
<path d="M309 78C309 82.4183 305.418 86 301 86H19C14.5817 86 11 82.4183 11 78V13C11 8.58172 14.5817 5 19 5H301C305.418 5 309 8.58172 309 13V78Z" stroke="url(#paint1_linear_194_295)" stroke-width="2"/>
</g>
<defs>
<filter id="filter0_d_194_295" x="0.2" y="0.2" width="319.6" height="102.6" filterUnits="userSpaceOnUse" color-interpolation-filters="sRGB">
<feFlood flood-opacity="0" result="BackgroundImageFix"/>
<feColorMatrix in="SourceAlpha" type="matrix" values="0 0 0 0 0 0 0 0 0 0 0 0 0 0 0 0 0 0 127 0" result="hardAlpha"/>
<feOffset dy="6"/>
<feGaussianBlur stdDeviation="4.9"/>
<feComposite in2="hardAlpha" operator="out"/>
<feColorMatrix type="matrix" values="0 0 0 0 0 0 0 0 0 0 0 0 0 0 0 0 0 0 0.25 0"/>
<feBlend mode="normal" in2="BackgroundImageFix" result="effect1_dropShadow_194_295"/>
<feBlend mode="normal" in="SourceGraphic" in2="effect1_dropShadow_194_295" result="shape"/>
</filter>
<linearGradient id="paint0_linear_194_295" x1="160" y1="4" x2="160" y2="87" gradientUnits="userSpaceOnUse">
<stop stop-color="#2D087B"/>
<stop offset="1" stop-color="#310202"/>
</linearGradient>
<linearGradient id="paint1_linear_194_295" x1="160" y1="4" x2="160" y2="87" gradientUnits="userSpaceOnUse">
<stop stop-color="#E134FE"/>
<stop offset="1" stop-color="#1DE4A2"/>
</linearGradient>
</defs>
</svg>
