<svg width="1033" height="1096" viewBox="0 0 1033 1096" fill="none" xmlns="http://www.w3.org/2000/svg">
<g filter="url(#filter0_d_166_3381)">
<path d="M943 1080C987.183 1080 1023 1044.18 1023 1000V84C1023 39.8172 987.183 4 943 4H90C45.8172 4 10 39.8172 10 84V1000C10 1044.18 45.8172 1080 90 1080H943Z" fill="#290A72"/>
<path d="M1022 1000C1022 1043.63 986.63 1079 943 1079H90C46.3695 1079 11 1043.63 11 1000V84C11 40.3695 46.3695 5 90 5H943C986.63 5 1022 40.3695 1022 84V1000Z" stroke="url(#paint0_linear_166_3381)" stroke-width="2"/>
</g>
<defs>
<filter id="filter0_d_166_3381" x="0.2" y="0.2" width="1032.6" height="1095.6" filterUnits="userSpaceOnUse" color-interpolation-filters="sRGB">
<feFlood flood-opacity="0" result="BackgroundImageFix"/>
<feColorMatrix in="SourceAlpha" type="matrix" values="0 0 0 0 0 0 0 0 0 0 0 0 0 0 0 0 0 0 127 0" result="hardAlpha"/>
<feOffset dy="6"/>
<feGaussianBlur stdDeviation="4.9"/>
<feComposite in2="hardAlpha" operator="out"/>
<feColorMatrix type="matrix" values="0 0 0 0 0 0 0 0 0 0 0 0 0 0 0 0 0 0 0.25 0"/>
<feBlend mode="normal" in2="BackgroundImageFix" result="effect1_dropShadow_166_3381"/>
<feBlend mode="normal" in="SourceGraphic" in2="effect1_dropShadow_166_3381" result="shape"/>
</filter>
<linearGradient id="paint0_linear_166_3381" x1="516.5" y1="4" x2="516.5" y2="1080" gradientUnits="userSpaceOnUse">
<stop stop-color="#E134FE"/>
<stop offset="1" stop-color="#1DE4A2"/>
</linearGradient>
</defs>
</svg>
