<svg width="413" height="108" viewBox="0 0 413 108" fill="none" xmlns="http://www.w3.org/2000/svg">
<g filter="url(#filter0_d_155_3260)">
<path d="M390 92C397.18 92 403 86.1797 403 79V17C403 9.8203 397.18 4 390 4H23C15.8203 4 10 9.8203 10 17V79C10 86.1797 15.8203 92 23 92H390Z" fill="url(#paint0_linear_155_3260)"/>
<path d="M402 79C402 85.6274 396.627 91 390 91H23C16.3726 91 11 85.6274 11 79V17C11 10.3726 16.3726 5 23 5H390C396.627 5 402 10.3726 402 17V79Z" stroke="url(#paint1_linear_155_3260)" stroke-width="2"/>
</g>
<defs>
<filter id="filter0_d_155_3260" x="0.2" y="0.2" width="412.6" height="107.6" filterUnits="userSpaceOnUse" color-interpolation-filters="sRGB">
<feFlood flood-opacity="0" result="BackgroundImageFix"/>
<feColorMatrix in="SourceAlpha" type="matrix" values="0 0 0 0 0 0 0 0 0 0 0 0 0 0 0 0 0 0 127 0" result="hardAlpha"/>
<feOffset dy="6"/>
<feGaussianBlur stdDeviation="4.9"/>
<feComposite in2="hardAlpha" operator="out"/>
<feColorMatrix type="matrix" values="0 0 0 0 0 0 0 0 0 0 0 0 0 0 0 0 0 0 0.25 0"/>
<feBlend mode="normal" in2="BackgroundImageFix" result="effect1_dropShadow_155_3260"/>
<feBlend mode="normal" in="SourceGraphic" in2="effect1_dropShadow_155_3260" result="shape"/>
</filter>
<linearGradient id="paint0_linear_155_3260" x1="218.022" y1="35.4824" x2="218.022" y2="92" gradientUnits="userSpaceOnUse">
<stop stop-color="#13134F"/>
<stop offset="1" stop-color="#4F018B"/>
</linearGradient>
<linearGradient id="paint1_linear_155_3260" x1="206.5" y1="4" x2="206.5" y2="92" gradientUnits="userSpaceOnUse">
<stop stop-color="#1CE4A1"/>
<stop offset="1" stop-color="#E431FF"/>
</linearGradient>
</defs>
</svg>
