<svg width="979" height="1096" viewBox="0 0 979 1096" fill="none" xmlns="http://www.w3.org/2000/svg">
<g filter="url(#filter0_d_159_3379)">
<path d="M889 1080C933.183 1080 969 1044.18 969 1000V84C969 39.8172 933.183 4 889 4H90C45.8172 4 10 39.8172 10 84V1000C10 1044.18 45.8172 1080 90 1080H889Z" fill="url(#paint0_linear_159_3379)"/>
<path d="M968 1000C968 1043.63 932.63 1079 889 1079H90C46.3695 1079 11 1043.63 11 1000V84C11 40.3695 46.3695 5 90 5H889C932.63 5 968 40.3695 968 84V1000Z" stroke="url(#paint1_linear_159_3379)" stroke-width="2"/>
</g>
<defs>
<filter id="filter0_d_159_3379" x="0.2" y="0.2" width="978.6" height="1095.6" filterUnits="userSpaceOnUse" color-interpolation-filters="sRGB">
<feFlood flood-opacity="0" result="BackgroundImageFix"/>
<feColorMatrix in="SourceAlpha" type="matrix" values="0 0 0 0 0 0 0 0 0 0 0 0 0 0 0 0 0 0 127 0" result="hardAlpha"/>
<feOffset dy="6"/>
<feGaussianBlur stdDeviation="4.9"/>
<feComposite in2="hardAlpha" operator="out"/>
<feColorMatrix type="matrix" values="0 0 0 0 0 0 0 0 0 0 0 0 0 0 0 0 0 0 0.25 0"/>
<feBlend mode="normal" in2="BackgroundImageFix" result="effect1_dropShadow_159_3379"/>
<feBlend mode="normal" in="SourceGraphic" in2="effect1_dropShadow_159_3379" result="shape"/>
</filter>
<linearGradient id="paint0_linear_159_3379" x1="489.5" y1="4" x2="489.5" y2="1080" gradientUnits="userSpaceOnUse">
<stop stop-color="#2A087B"/>
<stop offset="1" stop-color="#02310C"/>
</linearGradient>
<linearGradient id="paint1_linear_159_3379" x1="489.5" y1="4" x2="489.5" y2="1080" gradientUnits="userSpaceOnUse">
<stop stop-color="#E134FE"/>
<stop offset="1" stop-color="#1DE4A2"/>
</linearGradient>
</defs>
</svg>
