<svg width="49" height="49" viewBox="0 0 49 49" fill="none" xmlns="http://www.w3.org/2000/svg">
<g filter="url(#filter0_d_153_3070)">
<path d="M35.6329 37.1805C28.4282 43.5145 16.8205 41.7777 9.71579 33.4005C2.61109 25.0233 2.71116 13.0704 9.91592 6.73641C17.1207 0.402419 28.7284 2.037 35.8331 10.5164C42.8377 18.8936 42.8377 30.8465 35.6329 37.1805Z" fill="url(#paint0_linear_153_3070)"/>
<path d="M35.8312 10.5164C42.3355 18.2807 42.7358 29.0076 37.1321 35.6481C37.7325 35.2395 38.2328 34.8308 38.8332 34.32C46.038 27.986 46.038 16.0332 38.9333 7.65593C31.9287 -0.721289 20.321 -2.35587 13.1162 3.97813C12.5158 4.38677 12.1156 4.89758 11.6152 5.51055C18.82 0.708968 29.2269 2.75219 35.8312 10.5164Z" fill="url(#paint1_linear_153_3070)"/>
<path d="M36.2383 11.0274C36.5385 11.436 36.8387 11.7425 37.1389 12.1511L40.341 9.39277L39.4404 8.16684L36.2383 11.0274Z" fill="url(#paint2_linear_153_3070)" fill-opacity="0.501961"/>
<path d="M33.8359 8.37105L34.8366 9.39267L38.0387 6.63431C37.7385 6.22567 37.3383 5.91919 37.0381 5.6127L33.8359 8.37105Z" fill="url(#paint3_linear_153_3070)" fill-opacity="0.501961"/>
<path d="M38.2344 13.9899C38.5346 14.3986 38.7347 14.8072 38.9348 15.318L42.137 12.4575C41.9368 12.0489 41.6366 11.6402 41.4365 11.1294L38.2344 13.9899Z" fill="url(#paint4_linear_153_3070)" fill-opacity="0.501961"/>
<path d="M39.834 17.3613C39.9341 17.8721 40.1342 18.3829 40.2342 18.7916L43.4364 16.0332C43.3363 15.5224 43.1362 15.0116 43.0361 14.5008L39.834 17.3613Z" fill="url(#paint5_linear_153_3070)" fill-opacity="0.501961"/>
<path d="M31.0332 6.22572C31.4335 6.43004 31.8337 6.73652 32.1339 7.04301L35.336 4.18249C34.9358 3.87601 34.5355 3.67169 34.1353 3.3652L31.0332 6.22572Z" fill="url(#paint6_linear_153_3070)" fill-opacity="0.501961"/>
<path d="M27.627 4.38683C28.1273 4.59115 28.5275 4.79548 29.0279 5.10196L32.23 2.24145C31.7297 2.03712 31.3294 1.8328 30.8291 1.62848L27.627 4.38683Z" fill="url(#paint7_linear_153_3070)" fill-opacity="0.501961"/>
<path d="M22.7285 3.0587L24.5297 3.36518L27.7318 0.606826C27.1314 0.402504 26.531 0.300342 25.9306 0.198181L22.7285 3.0587Z" fill="url(#paint8_linear_153_3070)" fill-opacity="0.501961"/>
<path d="M17.1211 3.16085C18.0217 3.05868 18.8222 2.95652 19.6227 2.95652L22.8249 0.0960083C22.0243 0.0960083 21.1237 0.19817 20.3232 0.402492L17.1211 3.16085Z" fill="url(#paint9_linear_153_3070)" fill-opacity="0.501961"/>
<path d="M40.9414 22.0607C41.0415 22.6737 41.0415 23.1845 41.0415 23.7975L44.2436 21.0391C44.2436 20.4261 44.1435 19.8132 44.1435 19.2002L40.9414 22.0607Z" fill="url(#paint10_linear_153_3070)" fill-opacity="0.501961"/>
<path d="M40.9374 26.7601C40.8373 27.5774 40.6372 28.2925 40.5371 29.0076L43.6392 26.2493C43.8393 25.5342 44.0394 24.7169 44.1395 24.0017L40.9374 26.7601Z" fill="url(#paint11_linear_153_3070)" fill-opacity="0.501961"/>
<path d="M33.0322 34.2179C32.732 34.4222 32.3317 34.4222 32.1316 34.1157C31.8314 33.8092 31.9314 33.2984 32.2316 33.0941L33.1322 32.1746C33.4324 31.8682 33.8327 31.8682 34.1329 32.0725C34.4331 32.379 34.4331 32.7876 34.1329 33.0941C33.8327 33.5027 33.4324 33.8092 33.1322 34.2179H33.0322ZM29.4298 36.3633C29.4298 36.3633 29.3297 36.4654 29.2297 36.4654C28.8294 36.6697 28.3291 36.7719 27.8287 36.8741C27.4285 36.9762 27.1283 36.7719 27.0282 36.3633C26.9281 35.9546 27.1283 35.6481 27.5285 35.546C27.9288 35.4438 28.3291 35.2395 28.7293 35.1373C29.1296 35.0352 29.5299 35.1373 29.6299 35.546C29.73 35.8525 29.73 36.1589 29.4298 36.3633ZM36.3344 29.6206C36.1342 29.7228 35.834 29.8249 35.6339 29.7228C35.2336 29.5185 35.0335 29.1098 35.2336 28.8033C35.3337 28.3947 35.5338 27.986 35.6339 27.4752C35.734 27.1687 36.1342 26.8623 36.5345 27.0666C36.8347 27.1687 37.1349 27.4752 37.0348 27.8839C36.8347 28.3947 36.7346 28.9055 36.5345 29.3141C36.4344 29.4163 36.4344 29.5185 36.3344 29.6206ZM24.0262 37.0784C23.8261 37.1805 23.726 37.2827 23.5259 37.2827C23.0256 37.1805 22.5252 37.1805 22.0249 37.0784C21.6246 36.9762 21.4245 36.6697 21.4245 36.2611C21.5246 35.8525 21.9248 35.546 22.3251 35.6481C22.7254 35.7503 23.1256 35.7503 23.6259 35.8525C24.0262 35.8525 24.2263 36.1589 24.2263 36.5676C24.2263 36.7719 24.1263 36.9762 24.0262 37.0784ZM37.235 24.0017C37.1349 24.1039 37.0348 24.2061 36.8347 24.2061C36.4344 24.2061 36.1342 23.8996 36.1342 23.4909C36.1342 23.0823 36.0342 22.5715 36.0342 22.1628C35.9341 21.7542 36.2343 21.4477 36.6346 21.3456C37.0348 21.3456 37.335 21.5499 37.4351 21.9585C37.4351 22.4693 37.5351 22.9801 37.5351 23.4909C37.5351 23.6953 37.4351 23.8996 37.235 24.0017ZM18.6226 35.546C18.4225 35.7503 18.1223 35.8525 17.9222 35.6481C17.4218 35.4438 17.0216 35.2395 16.6213 35.0352C16.3211 34.8308 16.121 34.32 16.3211 34.0135C16.5213 33.7071 17.0216 33.6049 17.3218 33.8092L18.5226 34.4222C18.8228 34.5244 19.0229 35.0352 18.8228 35.3416C18.8228 35.4438 18.7227 35.546 18.6226 35.546ZM36.1342 18.485C36.0342 18.5872 36.0342 18.5872 35.9341 18.5872C35.6339 18.7915 35.1336 18.5872 35.0335 18.2807C34.8334 17.7699 34.6332 17.3613 34.4331 16.9526C34.333 16.6461 34.4331 16.2375 34.8334 16.0332C35.1336 15.8288 35.5338 16.0332 35.734 16.3397C35.9341 16.7483 36.1342 17.2591 36.3344 17.6678C36.4344 17.9742 36.3344 18.2807 36.1342 18.485ZM14.1197 32.2768C13.8195 32.5833 13.4192 32.5833 13.2191 32.2768C12.8188 31.9703 12.5186 31.5617 12.2184 31.2552V31.153C11.9182 30.9487 12.0183 30.4379 12.3185 30.2336C12.6187 29.9271 13.0189 30.0293 13.3191 30.3357L14.2197 31.2552C14.4199 31.5617 14.4199 31.9703 14.2197 32.2768H14.1197ZM33.2323 13.6835C32.9321 13.8878 32.5318 13.8878 32.2316 13.5813C31.9314 13.2748 31.6312 12.9683 31.331 12.5597C31.0308 12.3554 31.0308 11.8446 31.331 11.6402C31.6312 11.3338 32.0315 11.3338 32.3317 11.5381C32.6319 11.9467 33.0322 12.2532 33.3324 12.6619C33.5325 12.9683 33.5325 13.377 33.2323 13.6835ZM10.9175 27.7817C10.8175 27.7817 10.8175 27.7817 10.7174 27.8839C10.4172 27.986 9.91688 27.8839 9.81682 27.4752C9.61668 27.0666 9.41655 26.6579 9.21642 26.1471C9.01629 25.8407 9.21642 25.432 9.61668 25.2277C9.91688 25.1255 10.3171 25.2277 10.5173 25.6363C10.6173 26.045 10.8175 26.4536 11.0176 26.8623C11.2177 27.1687 11.1177 27.5774 10.9175 27.7817ZM29.0295 10.0057C28.7293 10.21 28.4291 10.3121 28.229 10.1078L27.0282 9.49485C26.6279 9.29053 26.5279 8.88189 26.6279 8.5754C26.8281 8.16676 27.2283 8.0646 27.6286 8.16676C28.0289 8.37108 28.4291 8.67756 28.9295 8.88189C29.2297 9.08621 29.3297 9.49485 29.1296 9.9035L29.0295 10.0057ZM9.21642 22.3672C9.11635 22.4693 9.01629 22.4693 8.91622 22.4693C8.51596 22.5715 8.11569 22.265 8.11569 21.8564C8.01562 21.3456 8.01562 20.8348 8.01562 20.4261C8.01562 20.0175 8.31582 19.711 8.71609 19.6088C9.11635 19.6088 9.41655 19.9153 9.41655 20.3239C9.41655 20.8348 9.41655 21.2434 9.51662 21.652C9.51662 21.9585 9.41655 22.1628 9.21642 22.3672ZM23.8261 8.0646C23.6259 8.16676 23.4258 8.26892 23.2257 8.26892C22.8254 8.16676 22.3251 8.0646 21.9248 8.0646C21.5246 8.0646 21.2244 7.65595 21.2244 7.24731C21.3244 6.94082 21.6246 6.63434 22.0249 6.63434C22.5252 6.63434 23.0256 6.7365 23.4258 6.83866C23.8261 6.94082 24.1263 7.24731 24.0262 7.65595C24.0262 7.86027 23.9261 7.96243 23.8261 8.0646ZM9.71675 16.7483C9.51662 16.8505 9.31649 16.9526 9.01629 16.8505C8.61602 16.7483 8.41589 16.3397 8.51596 15.931C8.71609 15.5224 8.81615 15.0116 9.01629 14.5008C9.21642 14.1943 9.61668 13.9899 9.91688 14.1943C10.3171 14.2964 10.5173 14.7051 10.3171 15.1137C10.2171 15.5224 10.0169 15.931 9.91688 16.3397C9.91688 16.4418 9.81682 16.6461 9.71675 16.7483ZM18.3224 8.26892C18.2224 8.26892 18.1223 8.37108 18.0222 8.37108C17.5219 8.47324 17.1216 8.5754 16.7214 8.77972C16.4212 8.88189 15.9209 8.67756 15.8208 8.37108C15.7207 7.96243 15.9209 7.55379 16.2211 7.45163C16.7214 7.24731 17.2217 7.14514 17.622 6.94082C18.0222 6.94082 18.4225 7.14514 18.5226 7.55379C18.5226 7.75811 18.5226 8.0646 18.3224 8.26892ZM12.4185 11.7424C12.1183 12.0489 11.7181 12.0489 11.4179 11.7424C11.1177 11.5381 11.1177 11.0273 11.4179 10.7208L12.4185 9.69918C12.7187 9.49485 13.2191 9.49485 13.4192 9.80134C13.7194 10.1078 13.6193 10.5165 13.3191 10.8229L12.4185 11.7424Z" fill="url(#paint12_linear_153_3070)"/>
<path fill-rule="evenodd" clip-rule="evenodd" d="M21.3224 27.2708C21.4225 27.4751 21.2223 27.6794 20.9221 27.6794C20.722 27.6794 20.5219 27.4751 20.4218 27.2708V25.7383L20.3217 25.3297C20.3217 25.0232 20.1216 24.8189 19.9215 24.8189C19.6213 24.8189 19.4212 25.0232 19.4212 25.3297L19.5212 26.2492C19.5212 26.5556 19.3211 26.76 19.121 26.76C18.8208 26.76 18.6206 26.5556 18.6206 26.2492L18.5206 24.1038V23.7973L18.4205 23.3886C18.4205 23.0822 18.2204 22.8778 18.0202 22.8778C17.72 22.8778 17.5199 23.0822 17.5199 23.3886L17.62 25.0232L17.8201 27.0664C17.8201 27.3729 17.62 27.5773 17.3198 27.5773C17.1196 27.5773 16.9195 27.3729 16.9195 27.0664L16.7194 24.1038L16.6193 22.6735V22.367C16.6193 22.0605 16.4192 21.8562 16.119 21.8562C15.9188 21.8562 15.7187 22.0605 15.7187 22.367V23.1843L15.8188 23.2865C15.8188 23.593 15.6186 23.7973 15.3184 23.7973C15.1183 23.7973 14.9182 23.593 14.9182 23.2865L14.8181 22.2649L14.0176 21.5497L17.0196 18.2806L22.6233 23.593L27.5265 18.2806L30.8287 21.5497L30.2283 22.2649V23.2865C30.2283 23.593 30.0282 23.7973 29.828 23.7973C29.6279 23.7973 29.3277 23.593 29.3277 23.2865V22.367C29.2276 22.0605 29.0275 21.8562 28.8274 21.8562C28.5272 21.8562 28.4271 22.0605 28.4271 22.367V22.6735L28.5272 24.1038L28.7273 27.0664C28.7273 27.3729 28.5272 27.5773 28.227 27.5773C28.0268 27.5773 27.8267 27.3729 27.8267 27.0664L27.6266 25.0232L27.5265 23.3886C27.5265 23.0822 27.3264 22.8778 27.1262 22.8778C26.826 22.8778 26.6259 23.0822 26.6259 23.3886L26.726 23.7973V24.1038L26.826 26.2492C26.826 26.5556 26.6259 26.76 26.4258 26.76C26.2256 26.76 25.9255 26.5556 25.9255 26.2492V25.3297C25.9255 25.0232 25.6253 24.8189 25.4251 24.8189C25.225 24.8189 25.0249 25.0232 25.0249 25.3297V26.2492L25.1249 27.2708C25.1249 27.4751 24.9248 27.6794 24.7247 27.6794C24.4245 27.6794 24.2243 27.4751 24.2243 27.2708V27.0664H24.1243V26.9643L24.0242 26.8621H23.9241V26.76H23.6239V26.8621H23.4238V26.9643L23.3237 27.0664V27.2708L23.4238 29.5183L22.9235 30.1313L22.4231 29.5183L22.223 27.2708V26.9643H22.1229V26.8621H21.9228V26.76H21.6226V26.8621H21.5225L21.4225 26.9643V27.0664H21.3224V27.2708Z" fill="#FEFEFE"/>
<path fill-rule="evenodd" clip-rule="evenodd" d="M21.9219 12.9683L25.4242 16.2374L22.3222 19.6087L18.9199 16.2374L21.9219 12.9683Z" fill="#FEFEFE"/>
</g>
<defs>
<filter id="filter0_d_153_3070" x="0.449219" y="0.0960083" width="47.8008" height="48.904" filterUnits="userSpaceOnUse" color-interpolation-filters="sRGB">
<feFlood flood-opacity="0" result="BackgroundImageFix"/>
<feColorMatrix in="SourceAlpha" type="matrix" values="0 0 0 0 0 0 0 0 0 0 0 0 0 0 0 0 0 0 127 0" result="hardAlpha"/>
<feOffset dy="4"/>
<feGaussianBlur stdDeviation="2"/>
<feComposite in2="hardAlpha" operator="out"/>
<feColorMatrix type="matrix" values="0 0 0 0 0 0 0 0 0 0 0 0 0 0 0 0 0 0 0.25 0"/>
<feBlend mode="normal" in2="BackgroundImageFix" result="effect1_dropShadow_153_3070"/>
<feBlend mode="normal" in="SourceGraphic" in2="effect1_dropShadow_153_3070" result="shape"/>
</filter>
<linearGradient id="paint0_linear_153_3070" x1="15.5997" y1="3.95354" x2="31.8875" y2="43.2003" gradientUnits="userSpaceOnUse">
<stop stop-color="#1CE5A1"/>
<stop offset="0.490196" stop-color="#18CE9F"/>
<stop offset="1" stop-color="#13B79C"/>
</linearGradient>
<linearGradient id="paint1_linear_153_3070" x1="21.7119" y1="19.3902" x2="49.6531" y2="12.7692" gradientUnits="userSpaceOnUse">
<stop stop-color="#1CE5A1"/>
<stop offset="0.0784314" stop-color="#1CE5A1"/>
<stop offset="0.960784" stop-color="#2951DB"/>
<stop offset="0.968627" stop-color="#2951DB"/>
<stop offset="0.988235" stop-color="#2951DB"/>
<stop offset="1" stop-color="#2951DB"/>
</linearGradient>
<linearGradient id="paint2_linear_153_3070" x1="39.9007" y1="8.74405" x2="36.5911" y2="11.5449" gradientUnits="userSpaceOnUse">
<stop stop-color="#13C6A3"/>
<stop offset="0.490196" stop-color="#0006AF"/>
<stop offset="0.988235"/>
<stop offset="1"/>
</linearGradient>
<linearGradient id="paint3_linear_153_3070" x1="37.5784" y1="6.05302" x2="34.2383" y2="8.8808" gradientUnits="userSpaceOnUse">
<stop stop-color="#13C6A3"/>
<stop offset="0.490196" stop-color="#0006AF"/>
<stop offset="0.988235"/>
<stop offset="1"/>
</linearGradient>
<linearGradient id="paint4_linear_153_3070" x1="41.8968" y1="11.7128" x2="38.4041" y2="14.6631" gradientUnits="userSpaceOnUse">
<stop stop-color="#13C6A3"/>
<stop offset="0.490196" stop-color="#0006AF"/>
<stop offset="0.988235"/>
<stop offset="1"/>
</linearGradient>
<linearGradient id="paint5_linear_153_3070" x1="43.4464" y1="15.08" x2="39.7498" y2="18.208" gradientUnits="userSpaceOnUse">
<stop stop-color="#13C6A3"/>
<stop offset="0.490196" stop-color="#0006AF"/>
<stop offset="0.988235"/>
<stop offset="1"/>
</linearGradient>
<linearGradient id="paint6_linear_153_3070" x1="34.9058" y1="3.67169" x2="31.3823" y2="6.65508" gradientUnits="userSpaceOnUse">
<stop stop-color="#13C6A3"/>
<stop offset="0.490196" stop-color="#0006AF"/>
<stop offset="0.988235"/>
<stop offset="1"/>
</linearGradient>
<linearGradient id="paint7_linear_153_3070" x1="31.7697" y1="1.70204" x2="28.0223" y2="4.86884" gradientUnits="userSpaceOnUse">
<stop stop-color="#13C6A3"/>
<stop offset="0.490196" stop-color="#0006AF"/>
<stop offset="0.988235"/>
<stop offset="1"/>
</linearGradient>
<linearGradient id="paint8_linear_153_3070" x1="27.2215" y1="0.0275722" x2="23.0973" y2="3.51764" gradientUnits="userSpaceOnUse">
<stop stop-color="#13C6A3"/>
<stop offset="0.490196" stop-color="#0006AF"/>
<stop offset="0.988235"/>
<stop offset="1"/>
</linearGradient>
<linearGradient id="paint9_linear_153_3070" x1="22.3746" y1="-0.440338" x2="17.5375" y2="3.6542" gradientUnits="userSpaceOnUse">
<stop stop-color="#13C6A3"/>
<stop offset="0.490196" stop-color="#0006AF"/>
<stop offset="0.988235"/>
<stop offset="1"/>
</linearGradient>
<linearGradient id="paint10_linear_153_3070" x1="44.5738" y1="19.7754" x2="40.531" y2="23.1966" gradientUnits="userSpaceOnUse">
<stop stop-color="#13C6A3"/>
<stop offset="0.490196" stop-color="#0006AF"/>
<stop offset="0.988235"/>
<stop offset="1"/>
</linearGradient>
<linearGradient id="paint11_linear_153_3070" x1="44.5698" y1="24.5105" x2="39.9467" y2="28.4154" gradientUnits="userSpaceOnUse">
<stop stop-color="#13C6A3"/>
<stop offset="0.490196" stop-color="#0006AF"/>
<stop offset="0.988235"/>
<stop offset="1"/>
</linearGradient>
<linearGradient id="paint12_linear_153_3070" x1="-16.5706" y1="8.93194" x2="69.7191" y2="36.3198" gradientUnits="userSpaceOnUse">
<stop stop-color="#1CE5A1"/>
<stop offset="0.0784314" stop-color="#1CE5A1"/>
<stop offset="0.960784" stop-color="#2951DB"/>
<stop offset="0.968627" stop-color="#2951DB"/>
<stop offset="0.988235" stop-color="#2951DB"/>
<stop offset="1" stop-color="#2951DB"/>
</linearGradient>
</defs>
</svg>
