<svg width="22" height="23" viewBox="0 0 22 23" fill="none" xmlns="http://www.w3.org/2000/svg">
<g filter="url(#filter0_d_153_3088)">
<path d="M12.0079 14.1669C8.8457 14.1669 6.2832 11.2168 6.2832 7.48737C6.2832 3.81364 8.8457 0.807861 12.0079 0.807861C15.1701 0.807861 17.7326 3.81364 17.7326 7.48737C17.7326 11.2168 15.1701 14.1669 12.0079 14.1669Z" fill="url(#paint0_linear_153_3088)"/>
<path d="M6.28278 7.48737C6.28278 4.09196 8.46363 1.25316 11.2987 0.863524C11.0806 0.863524 10.808 0.807861 10.59 0.807861C7.42773 0.807861 4.86523 3.81364 4.86523 7.48737C4.86523 11.2168 7.42773 14.1669 10.59 14.1669C10.808 14.1669 11.0806 14.1669 11.2987 14.1112C8.46363 13.7216 6.28278 10.9385 6.28278 7.48737Z" fill="url(#paint1_linear_153_3088)"/>
<path d="M6.28181 7.76569H4.86523C4.86523 7.87667 4.86523 8.04315 4.91972 8.20963H6.28181V7.76569Z" fill="url(#paint2_linear_153_3088)"/>
<path d="M6.3373 6.54114H4.91976C4.91976 6.70796 4.86523 6.87477 4.86523 7.04159H6.28278C6.28278 6.87477 6.28278 6.70796 6.3373 6.54114Z" fill="url(#paint3_linear_153_3088)"/>
<path d="M6.39021 8.93463H4.97266C5.02718 9.10145 5.0817 9.26827 5.0817 9.43508H6.49925C6.44473 9.26827 6.44473 9.10145 6.39021 8.93463Z" fill="url(#paint4_linear_153_3088)"/>
<path d="M6.72028 10.1035H5.30273C5.35726 10.2703 5.4663 10.4372 5.52082 10.604H6.93837C6.82933 10.4372 6.7748 10.2703 6.72028 10.1035Z" fill="url(#paint5_linear_153_3088)"/>
<path d="M6.55394 5.37213H5.13639C5.13639 5.48334 5.08186 5.65016 5.02734 5.81698H6.44489C6.49941 5.65016 6.49941 5.48334 6.55394 5.37213Z" fill="url(#paint6_linear_153_3088)"/>
<path d="M7.04579 4.14758H5.62824C5.57372 4.3144 5.46468 4.48122 5.41016 4.64804H6.82771C6.88223 4.48122 6.93675 4.3144 7.04579 4.14758Z" fill="url(#paint7_linear_153_3088)"/>
<path d="M7.96929 2.75604H6.55174C6.44269 2.86725 6.33365 3.03407 6.22461 3.20089H7.58764C7.69668 3.03407 7.86024 2.86725 7.96929 2.75604Z" fill="url(#paint8_linear_153_3088)"/>
<path d="M9.39016 1.53143H8.02713C7.75453 1.69825 7.53644 1.80946 7.31836 2.03189H8.73591C8.95399 1.80946 9.17208 1.69825 9.39016 1.53143Z" fill="url(#paint9_linear_153_3088)"/>
<path d="M7.42358 11.5507H6.06055L6.38767 12.0512H7.80522C7.64166 11.8844 7.53262 11.7175 7.42358 11.5507Z" fill="url(#paint10_linear_153_3088)"/>
<path d="M7.04883 12.7753C7.21239 12.9421 7.43048 13.1089 7.64856 13.2201H9.06611C8.84802 13.1089 8.62994 12.9421 8.46638 12.7753H7.04883Z" fill="url(#paint11_linear_153_3088)"/>
<path d="M12.2295 12.9979H12.3385V12.9423H12.8838L12.9383 12.8866H13.2109V12.831H13.3744L13.429 12.7753H13.538L13.5925 12.7196H13.7016L13.7561 12.664H13.8651L13.9197 12.6083H13.9742L14.0287 12.5526H14.0832L14.1377 12.497H14.1923L14.2468 12.4413H14.3013L14.3558 12.3857H14.4103V12.33H14.5194V12.2743H14.5739V12.2187H14.683V12.163H14.7375L14.792 12.1073H14.8465V12.0517H14.901V11.996H14.9556L15.0101 11.9404L15.0646 11.8847H15.1191V11.829H15.1736V11.7734H15.2282V11.7177H15.2827V11.662H15.3372V11.6064H15.3917V11.5507H15.4462L15.5008 11.4951V11.4394H15.5553V11.3837H15.6098V11.3281H15.6643V11.2724H15.7189V11.2167L15.7734 11.1611V11.1054H15.8279V11.0498H15.8824V10.9941L15.9369 10.9384V10.8828H15.9915V10.8271L16.046 10.7714V10.7158H16.1005V10.6601H16.155V10.5488H16.2095V10.4931L16.2641 10.4375V10.3818L16.3186 10.3261V10.2705L16.3731 10.2148V10.1592H16.4276V10.0478L16.4821 9.99216V9.88084H16.5367V9.76951H16.5912V9.60253H16.6457V9.4912L16.7002 9.43554V9.32421L16.7548 9.26855V9.10156H16.8093V8.87891H16.8638V8.65626L16.9183 8.6006V8.26662L16.9728 8.21096V7.48735H16.7002V8.1553L16.6457 8.21096V8.54494H16.5912V8.82325H16.5367V9.0459H16.4821V9.21289H16.4276V9.37987L16.3731 9.43554V9.54686H16.3186V9.65819L16.2641 9.71385V9.82518H16.2095V9.9365H16.155V10.0478H16.1005V10.1592H16.046V10.2705H15.9915V10.3818H15.9369V10.4375H15.8824V10.5488H15.8279V10.6045L15.7734 10.6601V10.7158H15.7189V10.7714L15.6643 10.8271V10.8828H15.6098V10.9384H15.5553V10.9941H15.5008V11.0498L15.4462 11.1054L15.3917 11.1611V11.2167H15.3372V11.2724H15.2827V11.3281H15.2282V11.3837H15.1736V11.4394H15.1191V11.4951H15.0646V11.5507H15.0101V11.6064H14.9556L14.901 11.662L14.8465 11.7177H14.792V11.7734H14.7375V11.829H14.683V11.8847H14.5739V11.9404H14.5194V11.996H14.4103V12.0517H14.3558V12.1073H14.2468V12.163H14.1377V12.2187H14.0287V12.2743H13.9197V12.33H13.8106V12.3857H13.7016L13.647 12.4413H13.538L13.4835 12.497H13.3744L13.3199 12.5526H13.1564L13.1018 12.6083H12.8838L12.8292 12.664H12.2295V12.9979ZM7.43164 7.48735V7.65433L7.48616 7.71V8.32229L7.54068 8.37795V8.65626L7.5952 8.71192V8.93457L7.64973 8.99024V9.10156L7.70425 9.15722V9.32421H7.75877V9.4912L7.81329 9.54686V9.65819L7.86781 9.71385V9.76951L7.92233 9.82518V9.9365H7.97685V10.0478H8.03137V10.1592L8.08589 10.2148V10.2705L8.14042 10.3261V10.3818H8.19494V10.4931H8.24946V10.5488L8.30398 10.6045V10.6601L8.3585 10.7158L8.41302 10.7714V10.8271H8.46754V10.8828L8.52206 10.9384V10.9941H8.57658V11.0498H8.63111V11.1054L8.68563 11.1611V11.2167H8.74015V11.2724H8.79467V11.3281H8.84919V11.3837H8.90371V11.4394L8.95823 11.4951L9.01275 11.5507L9.06727 11.6064H9.1218V11.662L9.17632 11.7177H9.23084V11.7734H9.28536V11.829H9.33988V11.8847H9.3944V11.9404H9.44892L9.50344 11.996L9.55796 12.0517H9.61249V12.1073H9.66701L9.72153 12.163L9.77605 12.2187H9.83057L9.88509 12.2743H9.93961V12.33H9.99413L10.0487 12.3857H10.1032V12.4413H10.2122V12.497H10.3213V12.5526H10.4303L10.4848 12.6083H10.5393L10.5939 12.664H10.7029V12.7196H10.8665V12.7753H11.03V12.831H11.2481V12.8866H11.5207L11.5752 12.9423H12.1205V12.9979H12.2295V12.664H11.5752V12.6083H11.3026V12.5526H11.0846V12.497H10.921V12.4413H10.812L10.7574 12.3857H10.6484V12.33H10.5393L10.4848 12.2743H10.4303V12.2187H10.3213L10.2667 12.163H10.2122L10.1577 12.1073H10.1032V12.0517H10.0487L9.99413 11.996H9.93961V11.9404H9.88509L9.83057 11.8847H9.77605V11.829H9.72153V11.7734H9.66701L9.61249 11.7177L9.55796 11.662H9.50344V11.6064H9.44892V11.5507H9.3944V11.4951H9.33988L9.28536 11.4394V11.3837H9.23084V11.3281H9.17632V11.2724H9.1218V11.2167H9.06727V11.1611H9.01275V11.1054H8.95823V11.0498L8.90371 10.9941L8.84919 10.9384V10.8828H8.79467V10.8271H8.74015V10.7714L8.68563 10.7158V10.6601H8.63111V10.6045L8.57658 10.5488V10.4931L8.52206 10.4375V10.3818H8.46754V10.3261L8.41302 10.2705V10.2148L8.3585 10.1592V10.1035L8.30398 10.0478V9.99216L8.24946 9.9365V9.88084L8.19494 9.82518V9.76951L8.14042 9.71385V9.60253H8.08589V9.4912L8.03137 9.43554V9.26855H7.97685V9.10156H7.92233V8.87891H7.86781V8.65626L7.81329 8.6006V8.32229H7.75877V7.48735H7.43164ZM12.2295 2.03241H11.7933L11.7388 2.08807H11.4117V2.14373H11.1936L11.1391 2.1994H10.9755V2.25506H10.812V2.31072H10.6484V2.36639H10.5393V2.42205H10.4303L10.3758 2.47771H10.3213L10.2667 2.53337H10.2122L10.1577 2.58904H10.1032L10.0487 2.6447H9.99413V2.70036H9.93961L9.88509 2.75602H9.83057L9.77605 2.81169H9.72153V2.86735H9.66701V2.92301H9.61249L9.55796 2.97867H9.50344V3.03434H9.44892V3.09H9.3944L9.33988 3.14566L9.28536 3.20132H9.23084V3.25699L9.17632 3.31265H9.1218V3.36831L9.06727 3.42397H9.01275V3.47964H8.95823V3.5353H8.90371V3.59096L8.84919 3.64663L8.79467 3.70229L8.74015 3.75795V3.81361H8.68563V3.86928H8.63111V3.92494L8.57658 3.9806L8.52206 4.03626V4.09193H8.46754V4.14759L8.41302 4.20325V4.25891H8.3585V4.31458L8.30398 4.37024V4.4259H8.24946V4.48156L8.19494 4.53723V4.59289L8.14042 4.64855V4.70422H8.08589V4.81554L8.03137 4.8712V4.92687L7.97685 4.98253V5.03819L7.92233 5.09385V5.20518H7.86781V5.3165L7.81329 5.37217V5.48349H7.75877V5.65048L7.70425 5.70614V5.87313H7.64973V6.04012L7.5952 6.09578V6.31843H7.54068V6.65241H7.48616V7.32036H7.43164V7.48735H7.75877V6.70807L7.81329 6.65241V6.37409H7.86781V6.15144L7.92233 6.09578V5.92879L7.97685 5.87313V5.7618L8.03137 5.70614V5.59482L8.08589 5.53915V5.42783L8.14042 5.37217V5.26084H8.19494V5.14952H8.24946V5.03819H8.30398V4.92687H8.3585V4.81554H8.41302V4.70422H8.46754V4.64855L8.52206 4.59289V4.53723H8.57658V4.4259H8.63111V4.37024H8.68563V4.25891H8.74015V4.20325H8.79467V4.14759L8.84919 4.09193V4.03626H8.90371V3.9806H8.95823V3.92494H9.01275V3.86928L9.06727 3.81361L9.1218 3.75795L9.17632 3.70229L9.23084 3.64663L9.28536 3.59096V3.5353H9.33988L9.3944 3.47964L9.44892 3.42397H9.50344V3.36831H9.55796V3.31265H9.61249V3.25699H9.66701L9.72153 3.20132L9.77605 3.14566H9.83057V3.09H9.88509L9.93961 3.03434H9.99413V2.97867H10.0487L10.1032 2.92301H10.1577V2.86735H10.2667V2.81169H10.3758V2.75602H10.4303L10.4848 2.70036H10.5939V2.6447H10.7029L10.7574 2.58904H10.8665V2.53337H11.03V2.47771H11.1936L11.2481 2.42205H11.4662V2.36639H11.8479V2.31072H12.2295V2.03241ZM16.9728 7.48735V6.76373H16.9183V6.42976L16.8638 6.37409V6.15144L16.8093 6.09578V5.92879L16.7548 5.87313V5.70614H16.7002V5.53915H16.6457V5.42783L16.5912 5.37217V5.26084L16.5367 5.20518V5.14952L16.4821 5.09385V4.98253H16.4276V4.8712H16.3731V4.81554L16.3186 4.75988V4.64855H16.2641V4.53723H16.2095V4.48156L16.155 4.4259V4.37024H16.1005V4.31458L16.046 4.25891V4.20325H15.9915V4.14759L15.9369 4.09193V4.03626H15.8824V3.9806H15.8279V3.92494L15.7734 3.86928V3.81361H15.7189V3.75795H15.6643V3.70229L15.6098 3.64663H15.5553V3.59096L15.5008 3.5353V3.47964H15.4462L15.3917 3.42397L15.3372 3.36831L15.2827 3.31265L15.2282 3.25699L15.1736 3.20132L15.1191 3.14566H15.0646V3.09H15.0101V3.03434H14.9556L14.901 2.97867H14.8465V2.92301H14.792V2.86735H14.7375L14.683 2.81169H14.6284V2.75602H14.5739L14.5194 2.70036H14.4649V2.6447H14.3558V2.58904H14.2468V2.53337H14.1377V2.47771H14.0287V2.42205H13.9197V2.36639H13.8106L13.7561 2.31072H13.647L13.5925 2.25506H13.4835L13.429 2.1994H13.3199L13.2654 2.14373H13.0473L12.9928 2.08807H12.6657V2.03241H12.2295V2.31072H12.6111V2.36639H12.9383L12.9928 2.42205H13.2109V2.47771H13.3744L13.429 2.53337H13.538L13.5925 2.58904H13.7016L13.7561 2.6447H13.8106L13.8651 2.70036H13.9742V2.75602H14.0832V2.81169H14.1377L14.1923 2.86735H14.2468L14.3013 2.92301H14.3558V2.97867H14.4649V3.03434H14.5194V3.09H14.6284V3.14566H14.683V3.20132H14.7375L14.792 3.25699L14.8465 3.31265H14.901V3.36831H14.9556V3.42397H15.0101V3.47964H15.0646V3.5353H15.1191L15.1736 3.59096V3.64663H15.2282V3.70229H15.2827L15.3372 3.75795V3.81361H15.3917V3.86928H15.4462V3.92494H15.5008V3.9806L15.5553 4.03626L15.6098 4.09193V4.14759H15.6643V4.20325H15.7189V4.25891L15.7734 4.31458V4.37024H15.8279V4.4259L15.8824 4.48156V4.53723L15.9369 4.59289V4.64855H15.9915V4.70422L16.046 4.75988V4.81554L16.1005 4.8712V4.92687L16.155 4.98253V5.03819L16.2095 5.09385V5.14952L16.2641 5.20518V5.3165H16.3186V5.42783L16.3731 5.48349V5.59482L16.4276 5.65048V5.7618L16.4821 5.81747V5.98446H16.5367V6.15144L16.5912 6.20711V6.42976L16.6457 6.48542V6.81939H16.7002V7.48735H16.9728Z" fill="url(#paint12_linear_153_3088)"/>
<path d="M12.278 12.3857H12.7687L12.8232 12.3301H13.0959V12.2744H13.3139V12.2187H13.4775V12.1631H13.6411V12.1074H13.7501L13.8046 12.0518H13.8592L13.9137 11.9961H14.0227V11.9404H14.0772L14.1318 11.8848H14.1863V11.8291H14.2953V11.7734H14.3498L14.4044 11.7178H14.4589V11.6621H14.5134L14.5679 11.6065H14.6224V11.5508H14.677V11.4951H14.7315V11.4395H14.786L14.8405 11.3838H14.8951V11.3281H14.9496V11.2725H15.0041V11.2168H15.0586V11.1612H15.1131V11.1055H15.1677V11.0498H15.2222V10.9942H15.2767V10.9385L15.3312 10.8828L15.3857 10.8272V10.7715H15.4403V10.7159H15.4948V10.6602L15.5493 10.6045V10.5489H15.6038V10.4932L15.6583 10.4375V10.3819H15.7129V10.3262L15.7674 10.2706V10.2149H15.8219V10.1036H15.8764V10.0479L15.931 9.99224V9.93658L15.9855 9.88092V9.76959H16.04V9.65827H16.0945V9.54694L16.149 9.49128V9.37995H16.2036V9.21297H16.2581V9.04598H16.3126V8.87899L16.3671 8.82333V8.60068L16.4216 8.54501V8.2667L16.4762 8.21104V7.54309H16.4216V7.98839H16.3671V8.43369H16.3126V8.712H16.2581V8.93465H16.2036V9.10164L16.149 9.1573V9.26863L16.0945 9.32429V9.43562H16.04V9.6026H15.9855V9.71393H15.931V9.82525H15.8764V9.93658H15.8219V10.0479H15.7674V10.1592H15.7129V10.2149L15.6583 10.2706V10.3262H15.6038V10.3819L15.5493 10.4375V10.4932H15.4948V10.5489H15.4403V10.6602H15.3857V10.7159H15.3312V10.7715H15.2767V10.8272H15.2222V10.8828L15.1677 10.9385L15.1131 10.9942L15.0586 11.0498L15.0041 11.1055L14.9496 11.1612L14.8951 11.2168L14.8405 11.2725L14.786 11.3281L14.7315 11.3838H14.677V11.4395H14.6224V11.4951H14.5679L14.5134 11.5508L14.4589 11.6065H14.4044V11.6621H14.2953V11.7178H14.2408L14.1863 11.7734H14.1318V11.8291H14.0772L14.0227 11.8848H13.9137V11.9404H13.8046V11.9961H13.6956V12.0518H13.5865L13.532 12.1074H13.423L13.3685 12.1631H13.2049V12.2187H12.9868V12.2744H12.6052L12.5506 12.3301H12.278V12.3857ZM8.02539 7.54309V8.21104H8.07991V8.54501L8.13443 8.60068V8.82333H8.18895V9.04598H8.24348V9.21297H8.298V9.37995H8.35252V9.49128L8.40704 9.54694V9.65827H8.46156V9.76959H8.51608V9.88092H8.5706V9.99224L8.62512 10.0479V10.1036H8.67964V10.2149H8.73417V10.2706L8.78869 10.3262V10.3819H8.84321V10.4375L8.89773 10.4932V10.5489H8.95225V10.6045L9.00677 10.6602V10.7159H9.06129V10.7715H9.11581V10.8272H9.17033V10.8828L9.22486 10.9385V10.9942H9.27938V11.0498H9.3339V11.1055H9.38842V11.1612H9.44294V11.2168H9.49746V11.2725H9.55198V11.3281H9.6065V11.3838H9.66102L9.71555 11.4395H9.77007V11.4951H9.82459V11.5508H9.87911V11.6065H9.98815V11.6621H10.0427V11.7178H10.0972L10.1517 11.7734H10.2062V11.8291H10.3153V11.8848H10.3698L10.4243 11.9404H10.4788V11.9961H10.5879L10.6424 12.0518H10.6969L10.7514 12.1074H10.8605L10.915 12.1631H11.0241V12.2187H11.1876V12.2744H11.4057V12.3301H11.6783L11.7328 12.3857H12.278V12.3301H11.9509L11.8964 12.2744H11.5147V12.2187H11.2967V12.1631H11.1331L11.0786 12.1074H10.9695V12.0518H10.806V11.9961H10.6969V11.9404H10.5879V11.8848H10.4788L10.4243 11.8291H10.3698V11.7734H10.3153L10.2608 11.7178H10.2062V11.6621H10.0972V11.6065H10.0427L9.98815 11.5508L9.93363 11.4951H9.87911V11.4395H9.82459V11.3838H9.77007V11.3281H9.71555L9.66102 11.2725L9.6065 11.2168L9.55198 11.1612L9.49746 11.1055L9.44294 11.0498L9.38842 10.9942L9.3339 10.9385L9.27938 10.8828V10.8272H9.22486V10.7715H9.17033V10.7159H9.11581V10.6602L9.06129 10.6045V10.5489H9.00677V10.4932H8.95225V10.4375L8.89773 10.3819V10.3262H8.84321V10.2706L8.78869 10.2149V10.1592H8.73417V10.0479H8.67964V9.93658H8.62512V9.82525H8.5706V9.71393L8.51608 9.65827V9.6026L8.46156 9.54694V9.43562H8.40704V9.32429L8.35252 9.26863V9.1573L8.298 9.10164V8.93465H8.24348V8.712H8.18895V8.43369L8.13443 8.37803V7.98839L8.07991 7.93272V7.54309H8.02539ZM12.278 2.64478H11.7873V2.70044H11.4602V2.7561H11.2421V2.81176H11.0786L11.0241 2.86743H10.915V2.92309H10.7514V2.97875H10.6424V3.03441H10.5334L10.4788 3.09008H10.4243V3.14574H10.3153V3.2014H10.2608L10.2062 3.25706H10.1517V3.31273H10.0972L10.0427 3.36839H9.98815V3.42405H9.93363L9.87911 3.47971L9.82459 3.53538H9.77007V3.59104H9.71555V3.6467H9.66102L9.6065 3.70237L9.55198 3.75803L9.49746 3.81369L9.44294 3.86935H9.38842V3.92502H9.3339V3.98068L9.27938 4.03634L9.22486 4.092L9.17033 4.14767V4.20333H9.11581V4.25899H9.06129V4.31465L9.00677 4.37032L8.95225 4.42598V4.48164L8.89773 4.5373L8.84321 4.59297V4.64863H8.78869V4.70429L8.73417 4.75996V4.81562L8.67964 4.87128V4.92694H8.62512V5.03827H8.5706V5.14959H8.51608V5.26092H8.46156V5.37224L8.40704 5.42791V5.53923H8.35252V5.65056L8.298 5.70622V5.81754L8.24348 5.87321V5.98453L8.18895 6.0402V6.20718L8.13443 6.26285V6.42983L8.07991 6.4855V6.81947H8.02539V7.54309H8.07991V7.09779L8.13443 7.04212V6.65248L8.18895 6.59682V6.37417L8.24348 6.31851V6.09586H8.298V5.92887L8.35252 5.87321V5.76188H8.40704V5.65056L8.46156 5.59489V5.48357H8.51608V5.37224L8.5706 5.31658V5.26092L8.62512 5.20526V5.14959L8.67964 5.09393V4.98261H8.73417V4.92694L8.78869 4.87128V4.81562H8.84321V4.75996L8.89773 4.70429V4.64863H8.95225V4.5373H9.00677V4.48164H9.06129V4.42598H9.11581V4.31465H9.17033V4.25899H9.22486V4.20333H9.27938V4.14767H9.3339V4.092H9.38842V4.03634H9.44294V3.98068L9.49746 3.92502L9.55198 3.86935L9.6065 3.81369L9.66102 3.75803L9.71555 3.70237H9.77007V3.6467H9.82459V3.59104H9.87911V3.53538H9.98815V3.47971H10.0427V3.42405H10.0972L10.1517 3.36839H10.2062V3.31273H10.3153V3.25706H10.3698L10.4243 3.2014H10.4788V3.14574H10.5879V3.09008H10.6969L10.7514 3.03441H10.806L10.8605 2.97875H10.9695V2.92309H11.1331L11.1876 2.86743H11.3512V2.81176H11.5693L11.6238 2.7561H12.1145V2.70044H12.278V2.64478ZM16.4762 7.54309V6.81947L16.4216 6.76381V6.4855L16.3671 6.42983V6.20718H16.3126V6.0402L16.2581 5.98453V5.87321L16.2036 5.81754V5.70622L16.149 5.65056V5.53923H16.0945V5.42791L16.04 5.37224V5.26092H15.9855V5.14959L15.931 5.09393V5.03827H15.8764V4.92694H15.8219V4.87128L15.7674 4.81562V4.75996L15.7129 4.70429V4.64863H15.6583V4.59297L15.6038 4.5373L15.5493 4.48164V4.42598L15.4948 4.37032L15.4403 4.31465V4.25899H15.3857V4.20333H15.3312V4.14767L15.2767 4.092L15.2222 4.03634L15.1677 3.98068V3.92502H15.1131V3.86935H15.0586L15.0041 3.81369L14.9496 3.75803L14.8951 3.70237L14.8405 3.6467H14.786V3.59104H14.7315V3.53538H14.677L14.6224 3.47971L14.5679 3.42405H14.5134V3.36839H14.4589V3.31273H14.3498V3.25706H14.2953L14.2408 3.2014H14.1863V3.14574H14.0772V3.09008H14.0227L13.9682 3.03441H13.8592V2.97875H13.7501V2.92309H13.6411L13.5865 2.86743H13.4775L13.423 2.81176H13.3139L13.2594 2.7561H13.0413V2.70044H12.7142V2.64478H12.278V2.70044H12.3871V2.7561H12.8778L12.9323 2.81176H13.1504V2.86743H13.3139L13.3685 2.92309H13.532V2.97875H13.6411L13.6956 3.03441H13.7501L13.8046 3.09008H13.9137V3.14574H14.0227V3.2014H14.0772L14.1318 3.25706H14.1863V3.31273H14.2953V3.36839H14.3498L14.4044 3.42405H14.4589V3.47971H14.5134V3.53538H14.6224V3.59104H14.677V3.6467H14.7315V3.70237H14.786L14.8405 3.75803L14.8951 3.81369L14.9496 3.86935L15.0041 3.92502L15.0586 3.98068L15.1131 4.03634V4.092H15.1677V4.14767H15.2222V4.20333H15.2767V4.25899H15.3312V4.31465H15.3857V4.37032L15.4403 4.42598V4.48164H15.4948V4.5373H15.5493V4.64863H15.6038V4.70429L15.6583 4.75996V4.81562H15.7129V4.87128L15.7674 4.92694V4.98261H15.8219V5.09393H15.8764V5.20526L15.931 5.26092V5.31658H15.9855V5.42791L16.04 5.48357V5.59489L16.0945 5.65056V5.76188H16.149V5.87321L16.2036 5.92887V6.09586H16.2581V6.31851L16.3126 6.37417V6.59682H16.3671V7.04212H16.4216V7.54309H16.4762Z" fill="url(#paint13_linear_153_3088)"/>
<path fill-rule="evenodd" clip-rule="evenodd" d="M11.7846 9.7139C11.7846 9.82523 11.6756 9.88089 11.6211 9.88089C11.512 9.88089 11.403 9.82523 11.403 9.7139V8.99029C11.403 8.87896 11.3485 8.8233 11.2394 8.8233C11.1849 8.8233 11.0759 8.87896 11.0759 8.99029V9.32426C11.0759 9.43559 11.0214 9.54691 10.9123 9.54691C10.8033 9.54691 10.7487 9.43559 10.7487 9.32426V8.21101C10.7487 8.09968 10.6397 8.04402 10.5852 8.04402C10.4761 8.04402 10.3671 8.09968 10.3671 8.21101V9.65824C10.3671 9.76956 10.3126 9.82523 10.2035 9.82523C10.149 9.82523 10.04 9.76956 10.04 9.65824V7.82137C10.04 7.71005 9.98545 7.65438 9.87641 7.65438C9.76737 7.65438 9.71285 7.71005 9.71285 7.82137V8.21101C9.71285 8.32233 9.6038 8.378 9.54928 8.378C9.44024 8.378 9.38572 8.32233 9.38572 8.21101V7.82137L9.05859 7.4874L10.3126 6.26282L12.3299 8.32233L14.3471 6.26282L15.5466 7.4874L15.274 7.82137V8.21101C15.274 8.32233 15.2195 8.378 15.1104 8.378C15.0014 8.378 14.9469 8.32233 14.9469 8.21101V7.82137C14.9469 7.71005 14.8924 7.65438 14.7833 7.65438C14.6743 7.65438 14.6197 7.71005 14.6197 7.82137V9.65824C14.6197 9.76956 14.5107 9.82523 14.4017 9.82523C14.3471 9.82523 14.2381 9.76956 14.2381 9.65824V8.21101C14.2381 8.09968 14.1836 8.04402 14.0745 8.04402C13.9655 8.04402 13.911 8.09968 13.911 8.21101V9.32426C13.911 9.43559 13.8565 9.54691 13.7474 9.54691C13.6384 9.54691 13.5838 9.43559 13.5838 9.32426V8.99029C13.5838 8.87896 13.4748 8.8233 13.4203 8.8233C13.3112 8.8233 13.2022 8.87896 13.2022 8.99029V9.7139C13.2022 9.82523 13.1477 9.88089 13.0386 9.88089C12.9296 9.88089 12.8751 9.82523 12.8751 9.7139V9.60257H12.8206V9.54691H12.6025V9.60257H12.5479V10.6045L12.3299 10.8272L12.1118 10.6045V9.60257H12.0573V9.54691H11.8392V9.60257H11.7846V9.7139Z" fill="#FEFEFE"/>
<path fill-rule="evenodd" clip-rule="evenodd" d="M12.3302 4.20325L13.5841 5.48349L12.3302 6.76373L11.0762 5.48349L12.3302 4.20325Z" fill="#FEFEFE"/>
</g>
<defs>
<filter id="filter0_d_153_3088" x="0.865234" y="0.807861" width="20.8672" height="21.359" filterUnits="userSpaceOnUse" color-interpolation-filters="sRGB">
<feFlood flood-opacity="0" result="BackgroundImageFix"/>
<feColorMatrix in="SourceAlpha" type="matrix" values="0 0 0 0 0 0 0 0 0 0 0 0 0 0 0 0 0 0 127 0" result="hardAlpha"/>
<feOffset dy="4"/>
<feGaussianBlur stdDeviation="2"/>
<feComposite in2="hardAlpha" operator="out"/>
<feColorMatrix type="matrix" values="0 0 0 0 0 0 0 0 0 0 0 0 0 0 0 0 0 0 0.25 0"/>
<feBlend mode="normal" in2="BackgroundImageFix" result="effect1_dropShadow_153_3088"/>
<feBlend mode="normal" in="SourceGraphic" in2="effect1_dropShadow_153_3088" result="shape"/>
</filter>
<linearGradient id="paint0_linear_153_3088" x1="9.96665" y1="1.37562" x2="14.5888" y2="14.76" gradientUnits="userSpaceOnUse">
<stop stop-color="#1CE5A1"/>
<stop offset="0.490196" stop-color="#18CE9F"/>
<stop offset="1" stop-color="#13B79C"/>
</linearGradient>
<linearGradient id="paint1_linear_153_3088" x1="9.97441" y1="6.50771" x2="1.40731" y2="10.8219" gradientUnits="userSpaceOnUse">
<stop stop-color="#1CE5A1"/>
<stop offset="0.0784314" stop-color="#1CE5A1"/>
<stop offset="0.960784" stop-color="#2951DB"/>
<stop offset="0.968627" stop-color="#2951DB"/>
<stop offset="0.988235" stop-color="#2951DB"/>
<stop offset="1" stop-color="#2951DB"/>
</linearGradient>
<linearGradient id="paint2_linear_153_3088" x1="4.86578" y1="7.97656" x2="6.29597" y2="7.97656" gradientUnits="userSpaceOnUse">
<stop stop-color="#13C6A3"/>
<stop offset="0.490196" stop-color="#0006AF"/>
<stop offset="0.988235"/>
<stop offset="1"/>
</linearGradient>
<linearGradient id="paint3_linear_153_3088" x1="4.87559" y1="6.7858" x2="6.32095" y2="6.7858" gradientUnits="userSpaceOnUse">
<stop stop-color="#13C6A3"/>
<stop offset="0.490196" stop-color="#0006AF"/>
<stop offset="0.988235"/>
<stop offset="1"/>
</linearGradient>
<linearGradient id="paint4_linear_153_3088" x1="4.99174" y1="9.17374" x2="6.49979" y2="9.17374" gradientUnits="userSpaceOnUse">
<stop stop-color="#13C6A3"/>
<stop offset="0.490196" stop-color="#0006AF"/>
<stop offset="0.988235"/>
<stop offset="1"/>
</linearGradient>
<linearGradient id="paint5_linear_153_3088" x1="5.32073" y1="10.3649" x2="6.92038" y2="10.3649" gradientUnits="userSpaceOnUse">
<stop stop-color="#13C6A3"/>
<stop offset="0.490196" stop-color="#0006AF"/>
<stop offset="0.988235"/>
<stop offset="1"/>
</linearGradient>
<linearGradient id="paint6_linear_153_3088" x1="5.03879" y1="5.59455" x2="6.56375" y2="5.59455" gradientUnits="userSpaceOnUse">
<stop stop-color="#13C6A3"/>
<stop offset="0.490196" stop-color="#0006AF"/>
<stop offset="0.988235"/>
<stop offset="1"/>
</linearGradient>
<linearGradient id="paint7_linear_153_3088" x1="5.41179" y1="4.39781" x2="7.03052" y2="4.39781" gradientUnits="userSpaceOnUse">
<stop stop-color="#13C6A3"/>
<stop offset="0.490196" stop-color="#0006AF"/>
<stop offset="0.988235"/>
<stop offset="1"/>
</linearGradient>
<linearGradient id="paint8_linear_153_3088" x1="6.19789" y1="2.96734" x2="7.98128" y2="2.96734" gradientUnits="userSpaceOnUse">
<stop stop-color="#13C6A3"/>
<stop offset="0.490196" stop-color="#0006AF"/>
<stop offset="0.988235"/>
<stop offset="1"/>
</linearGradient>
<linearGradient id="paint9_linear_153_3088" x1="7.32163" y1="1.77054" x2="9.4147" y2="1.77054" gradientUnits="userSpaceOnUse">
<stop stop-color="#13C6A3"/>
<stop offset="0.490196" stop-color="#0006AF"/>
<stop offset="0.988235"/>
<stop offset="1"/>
</linearGradient>
<linearGradient id="paint10_linear_153_3088" x1="6.03438" y1="11.8009" x2="7.78287" y2="11.8009" gradientUnits="userSpaceOnUse">
<stop stop-color="#13C6A3"/>
<stop offset="0.490196" stop-color="#0006AF"/>
<stop offset="0.988235"/>
<stop offset="1"/>
</linearGradient>
<linearGradient id="paint11_linear_153_3088" x1="7.04992" y1="12.9921" x2="9.04703" y2="12.9921" gradientUnits="userSpaceOnUse">
<stop stop-color="#13C6A3"/>
<stop offset="0.490196" stop-color="#0006AF"/>
<stop offset="0.988235"/>
<stop offset="1"/>
</linearGradient>
<linearGradient id="paint12_linear_153_3088" x1="15.9511" y1="1.2253" x2="8.26337" y2="13.6415" gradientUnits="userSpaceOnUse">
<stop stop-color="#13C6A3"/>
<stop offset="0.490196" stop-color="#0006AF"/>
<stop offset="0.988235" stop-color="#000069"/>
<stop offset="1" stop-color="#000069"/>
</linearGradient>
<linearGradient id="paint13_linear_153_3088" x1="15.5782" y1="1.92116" x2="8.7215" y2="12.9945" gradientUnits="userSpaceOnUse">
<stop stop-color="#13C6A3"/>
<stop offset="0.490196" stop-color="#0006AF"/>
<stop offset="0.988235" stop-color="#000069"/>
<stop offset="1" stop-color="#000069"/>
</linearGradient>
</defs>
</svg>
