<svg width="65" height="100" viewBox="0 0 65 100" fill="none" xmlns="http://www.w3.org/2000/svg">
<path fill-rule="evenodd" clip-rule="evenodd" d="M41.9018 55.589L46.6452 59.3741L46.4271 64.9404L44.5188 72.6218L36.5042 76.0172V55.1437L41.9018 55.589ZM21.5654 55.589L16.7676 59.3741L17.0402 64.9404L18.8939 72.6218L26.9085 76.0172V55.1437L21.5654 55.589Z" fill="#170949"/>
<path fill-rule="evenodd" clip-rule="evenodd" d="M19.1735 80.0249C18.2466 96.7794 29.7506 103.459 43.2718 97.8926C48.5059 95.2765 52.7585 91.1018 56.684 86.4261C58.7013 84.4779 61.4274 86.0365 61.1548 88.5413C60.8821 90.8235 55.2665 97.1133 61.4274 98.5606C59.3556 97.0577 59.301 95.2208 61.4819 93.1613C63.8808 90.7678 64.8077 88.597 64.6986 86.5375C64.4805 78.856 56.4114 77.5758 50.8503 82.5854C44.8529 88.764 41.6362 89.4876 43.1083 81.1382L43.6535 76.2955L19.0645 76.2399L19.1735 80.0249Z" fill="#270045"/>
<path fill-rule="evenodd" clip-rule="evenodd" d="M59.1883 93.0499C58.2069 95.3321 57.9343 97.7813 61.4236 98.5605C59.3518 97.0576 59.2973 95.2208 61.4781 93.1613C62.1324 92.4933 62.7321 91.8254 63.1683 91.1574L62.6231 91.3801L60.9329 91.9367C60.9329 91.9367 60.1151 92.4376 59.1883 93.0499ZM63.55 82.474C61.0965 78.5776 55.2082 78.689 50.8465 82.5854C48.066 85.4798 45.8306 87.1497 44.4676 87.3167L47.7388 87.7063L54.0088 82.3627L59.788 81.0268L63.55 82.474ZM19.1152 81.9174C19.1152 98.1709 31.2734 102.902 43.2681 97.8926C46.2122 96.4454 48.8293 94.4415 51.2827 92.1593L42.1777 95.1094L30.9463 94.5528L24.3493 90.3225L19.1152 81.9174Z" fill="#009C70"/>
<path d="M15.0235 61.9346C13.3334 64.2168 11.1525 66.7773 10.3347 67.0556C8.91716 67.5566 7.7177 67.0556 6.08207 65.9424C4.50095 64.8291 3.73766 63.1592 4.06478 61.7677C4.22835 61.044 5.86398 59.0959 7.39057 57.426C8.69908 55.9787 9.95307 54.6985 9.95307 54.6985C13.5515 53.8636 17.1499 57.593 17.3134 58.2609C17.3679 58.5949 16.332 60.1534 15.0235 61.9346Z" fill="#4F018B"/>
<path d="M15.0216 61.9346C11.6413 60.8214 9.07883 58.9845 7.38867 57.426C8.69718 55.9787 9.95116 54.6985 9.95116 54.6985C13.5496 53.8636 17.148 57.593 17.3115 58.2609C17.366 58.5949 16.3301 60.1534 15.0216 61.9346Z" fill="#170949"/>
<path d="M21.7886 56.5909C21.0253 58.2051 19.9894 59.9307 19.0625 59.9863C18.5173 59.9863 17.4814 59.6524 16.282 59.1514C13.3924 57.9825 9.52135 55.8673 9.1397 55.5333C8.70353 55.0324 8.70353 53.2512 10.8299 51.0247C12.9562 48.8538 16.282 48.6868 19.1716 50.0784C19.5532 50.3011 19.8804 50.468 20.2075 50.6907C20.8072 51.136 21.2979 51.637 21.625 52.3049C22.3338 53.5851 22.4429 55.1994 21.7886 56.5909Z" fill="#01C48C"/>
<path d="M21.7859 56.591C21.0226 58.2052 19.9867 59.9307 19.0599 59.9864C18.5147 59.9864 17.4788 59.6524 16.2793 59.1514C16.8245 57.4816 18.2966 54.4201 19.0054 53.5295C19.496 52.9172 20.6955 52.4719 21.6224 52.3049C22.3311 53.5852 22.4402 55.1994 21.7859 56.591Z" fill="#1A7A5F"/>
<path d="M15.7909 50.2454C14.9185 49.4105 10.5023 51.5813 11.8108 52.8059C13.1193 54.0305 17.481 51.804 15.7909 50.2454Z" fill="#8CFFDE"/>
<path d="M48.665 61.9346C50.3551 64.2168 52.536 66.7773 53.2993 67.0556C54.7168 67.5566 55.9708 67.0556 57.5519 65.9424C59.1876 64.8291 59.8963 63.1592 59.6237 61.7677C59.4602 61.044 57.8245 59.0959 56.2979 57.426C54.9349 55.9787 53.6809 54.6985 53.6809 54.6985C50.0825 53.8636 46.4841 57.593 46.3751 58.2609C46.3206 58.5949 47.3565 60.1534 48.665 61.9346Z" fill="#4F018B"/>
<path d="M48.665 61.9346C51.9908 60.8214 54.6078 58.9845 56.2979 57.426C54.9349 55.9787 53.6809 54.6985 53.6809 54.6985C50.0825 53.8636 46.4841 57.593 46.3751 58.2609C46.3206 58.5949 47.3565 60.1534 48.665 61.9346Z" fill="#170949"/>
<path d="M41.9051 56.5909C42.6139 58.2051 43.6498 59.9307 44.6312 59.9863C45.1219 59.9863 46.1578 59.6524 47.3573 59.1514C50.2469 57.9825 54.1724 55.8673 54.4995 55.5333C54.9902 55.0324 54.9357 53.2512 52.8094 51.0247C50.683 48.8538 47.3573 48.6868 44.5222 50.0784C44.1405 50.3011 43.7589 50.468 43.4863 50.6907C42.8865 51.136 42.3958 51.637 42.0687 52.3049C41.3599 53.5851 41.2509 55.1994 41.9051 56.5909Z" fill="#01C48C"/>
<path d="M41.9051 56.591C42.6139 58.2052 43.6498 59.9307 44.6312 59.9864C45.1219 59.9864 46.1578 59.6524 47.3573 59.1514C46.8666 57.4816 45.34 54.4201 44.6857 53.5295C44.195 52.9172 42.941 52.4719 42.0687 52.3049C41.3599 53.5852 41.2509 55.1994 41.9051 56.591Z" fill="#1A7A5F"/>
<path d="M47.8487 50.2454C48.7755 49.4105 53.1372 51.5813 51.8287 52.8059C50.5202 54.0305 46.1585 51.804 47.8487 50.2454Z" fill="#8CFFDE"/>
<path d="M41.8985 70.0057C40.3174 71.6756 37.0461 74.069 31.703 74.57C26.36 74.069 23.0342 71.6756 21.4531 70.0057C21.1259 69.6717 21.1805 67.4452 21.2895 65.4413C21.3985 63.4932 21.5076 61.712 21.5076 61.712L31.703 60.7657L41.844 61.712C41.844 61.712 42.0075 63.5488 42.062 65.497C42.1711 67.5009 42.2256 69.6717 41.8985 70.0057Z" fill="#4F018B"/>
<path d="M42.0636 65.497C40.1553 65.8866 36.9386 66.3319 31.9226 66.3319C26.6341 66.3876 23.1993 65.8866 21.291 65.4413C21.4001 63.4932 21.5091 61.712 21.5091 61.712L31.7045 60.7657L41.8455 61.712C41.8455 61.712 42.009 63.5488 42.0636 65.497Z" fill="#170949"/>
<path d="M44.7388 58.2608C44.7388 61.1552 42.3944 63.5487 39.5048 63.5487H23.9118C21.0767 63.5487 18.6777 61.1552 18.6777 58.2608C18.6777 57.4815 18.7868 56.7022 18.8413 56.0343C19.0594 54.8097 19.332 53.8078 19.441 53.4181C19.8227 52.0822 22.2216 50.969 22.8759 50.468C23.5846 49.967 23.0394 48.8538 23.1485 47.2952C23.2575 45.7924 24.8931 45.5697 25.8745 45.514H37.542C38.5234 45.5697 40.1591 45.7924 40.2681 47.2952C40.3771 48.8538 39.8319 49.967 40.5407 50.468C41.2495 50.969 43.6484 52.0822 44.0301 53.4181C44.1391 53.9191 44.4662 55.1437 44.6298 56.6466C44.6843 57.1475 44.7388 57.7042 44.7388 58.2608Z" fill="#01C48C"/>
<path d="M44.6322 56.6466C42.1243 57.5928 38.1442 58.5391 32.2559 58.7617C25.7679 59.0401 21.4608 57.4815 18.8438 56.0343C19.0618 54.8097 19.3344 53.8078 19.4435 53.4181C19.8251 52.0822 22.2241 50.969 22.8783 50.468C23.5326 50.0227 23.1509 49.0208 23.1509 47.6849V47.2952C23.26 45.7924 24.8956 45.5697 25.877 45.514H37.5445C38.5259 45.5697 40.1615 45.7924 40.2705 47.2952V47.9632C40.2705 49.1878 39.9434 50.0784 40.5432 50.468C41.2519 50.969 43.6509 52.0822 44.0325 53.4181C44.1416 53.9191 44.4687 55.1437 44.6322 56.6466Z" fill="#009C70"/>
<path d="M40.27 51.4143C39.016 51.6927 36.7261 52.0266 32.7461 52.138C28.1663 52.305 24.8951 51.5813 23.1504 51.0804V50.5794C23.2594 48.6869 24.8951 48.4086 25.8764 48.3529H37.544C38.5253 48.4086 40.161 48.6869 40.27 50.5794V51.4143Z" fill="#1A7A5F"/>
<path d="M26.5801 46.7388V50.3568C26.5801 52.2494 28.7064 54.0306 31.487 54.1976C35.358 54.4202 36.7755 52.2494 36.7755 50.6351V46.6274L26.5801 46.7388Z" fill="#170949"/>
<path d="M31.3816 57.092C30.7274 57.4816 29.855 57.9826 29.2008 58.3166C28.7646 58.6505 28.4375 59.1515 28.4375 59.7081V63.4375C28.4375 63.8272 30.4003 64.8847 31.4907 65.3857C31.8723 65.5527 32.3085 65.5527 32.7447 65.3857C33.7806 64.8847 35.7433 63.8272 35.7433 63.4375V59.7081C35.7433 59.1515 35.4707 58.6505 34.98 58.3166C34.3803 57.9826 33.4534 57.4816 32.8537 57.092C32.363 56.8693 31.8178 56.8693 31.3816 57.092Z" fill="#4F018B"/>
<path d="M44.3042 76.5182C43.7044 77.4645 43.4863 77.8541 42.3959 77.6315C41.3055 77.4645 40.5967 76.6852 38.4704 77.2975C37.0529 77.6871 36.126 79.1343 35.1991 80.0806C34.1632 81.1939 32.6366 82.4741 30.892 81.9175C30.5103 81.8062 30.2377 81.6392 29.9106 81.4722C29.2563 81.0269 28.7111 80.4702 28.1659 79.9136C27.2936 79.023 26.4212 77.6315 25.0582 77.2975C22.9319 76.6852 22.2231 77.4645 21.1327 77.6315C20.0968 77.8541 19.8242 77.4645 19.2245 76.5182C18.8973 76.0172 18.8428 74.2917 18.8973 72.6218C18.9518 71.3416 19.0064 70.117 19.0609 69.7274C19.1699 68.8924 20.2058 68.3915 21.1327 68.5028C22.1141 68.6141 22.2776 70.0613 24.3494 70.6736C26.4212 71.2859 27.021 70.117 28.7656 69.2821C29.747 68.8368 30.892 68.3358 32.0369 68.3915C32.9093 68.3915 34.0542 68.9481 34.8175 69.2821C36.5076 70.117 37.1074 71.2859 39.1792 70.6736C41.251 70.0613 41.4691 68.6141 42.3959 68.5028C43.3773 68.3915 44.3587 68.8924 44.4677 69.7274C44.5222 70.0613 44.5768 71.1189 44.6313 72.3435C44.6858 74.0134 44.6313 76.0172 44.3042 76.5182Z" fill="#01C48C"/>
<path d="M44.3057 76.5182C43.706 77.4644 43.4879 77.8541 42.3975 77.6314C41.3071 77.4644 40.5983 76.6852 38.472 77.2974C37.0544 77.6871 36.1276 79.1343 35.2007 80.0806C34.1648 81.1938 32.6382 82.4741 30.8935 81.9174C30.5119 81.8061 30.2393 81.6391 29.9122 81.4721C29.2579 81.0268 28.7127 80.4702 28.1675 79.9136C27.2952 79.023 26.4228 77.6314 25.0598 77.2974C22.9335 76.6852 22.2247 77.4644 21.1343 77.6314C20.0984 77.8541 19.8258 77.4644 19.226 76.5182C18.8989 76.0172 18.8444 74.2917 18.8989 72.6218C20.8617 73.3454 25.605 74.0134 31.4388 74.1803C37.9813 74.4587 42.0159 73.0114 44.6329 72.3435C44.6874 74.0134 44.6329 76.0172 44.3057 76.5182ZM22.8789 1.54063C22.6063 2.20858 21.843 3.98979 20.9707 6.16063C20.6436 6.93991 20.3164 7.71918 19.9893 8.55412C19.7712 9.22207 19.4986 9.89002 19.226 10.5023C19.117 10.7806 19.0625 11.0589 18.9534 11.2816C17.5359 15.1223 13.7739 26.6445 13.5013 28.4813C13.3377 29.5946 12.3564 31.4315 11.2114 32.0437C10.5026 32.4334 9.73935 32.3221 9.0851 31.2088C7.94016 28.1474 9.52127 19.631 11.0479 13.5081C11.2659 12.5618 11.484 11.6712 11.7021 10.8363C11.9747 9.89002 12.2473 9.05509 12.4654 8.38713C12.629 7.83051 12.7925 7.38521 12.9016 7.10689C14.5372 3.09919 16.8816 1.42931 18.6808 0.705693C18.8444 0.594368 19.0625 0.538705 19.226 0.483043C22.2247 -0.518884 23.2061 0.42738 22.8789 1.54063Z" fill="#009C70"/>
<path d="M22.8784 1.54063C22.6058 2.20858 21.8425 3.98979 20.9701 6.16063C19.8797 6.0493 18.4622 6.0493 16.8811 6.32762C15.0273 6.66159 13.5007 7.5522 12.4648 8.38713C12.6284 7.83051 12.792 7.38521 12.901 7.10689C14.7547 2.65389 17.4263 1.09533 19.2255 0.483043C22.2241 -0.518884 23.2055 0.42738 22.8784 1.54063Z" fill="#2F1A5F"/>
<path d="M19.9883 8.55411C19.7703 9.22206 19.4976 9.89001 19.225 10.5023C17.3168 10.6693 13.991 11.3372 11.0469 13.5081C11.265 12.5618 11.483 11.6712 11.7011 10.8363C12.628 10.2796 13.882 9.66736 15.354 9.22206C17.4258 8.60977 19.007 8.49844 19.9883 8.55411Z" fill="#E9E9E9"/>
<path d="M14.7553 8.83249C12.629 15.9016 9.3577 25.7539 11.2114 32.0438C10.5026 32.4334 9.73935 32.3221 9.0851 31.2089C7.94016 28.1474 9.52127 19.631 11.0479 13.5082C11.2659 12.5619 11.484 11.6713 11.7021 10.8363C11.9747 9.89008 12.2473 9.05514 12.4654 8.38719C12.629 7.83056 12.7925 7.38526 12.9016 7.10695C14.5372 3.09924 16.8816 1.42936 18.6808 0.70575C17.4814 2.31997 15.9548 4.93611 14.7553 8.83249Z" fill="#2F1A5F" fill-opacity="0.168627"/>
<path d="M40.4841 1.54063C40.7021 2.20858 41.4654 3.98979 42.3378 6.16063C42.6649 6.93991 42.992 7.71918 43.3192 8.55412C43.5918 9.22207 43.8644 9.89002 44.0825 10.5023C44.1915 10.7806 44.3005 11.0589 44.4096 11.2816C45.8271 15.1223 49.5346 26.6445 49.8072 28.4813C49.9707 29.5946 50.9521 31.4315 52.0971 32.0437C52.8058 32.4334 53.6237 32.3221 54.2779 31.2088C55.4228 28.1474 53.8417 19.631 52.3151 13.5081C52.0971 12.5618 51.8245 11.6712 51.6064 10.8363C51.3338 9.89002 51.1157 9.05509 50.8976 8.38713C50.734 7.83051 50.5705 7.38521 50.4614 7.10689C48.7713 3.09919 46.4269 1.42931 44.6822 0.705693C44.4641 0.594368 44.3005 0.538705 44.137 0.483043C41.0838 -0.518884 40.1569 0.42738 40.4841 1.54063Z" fill="#009C70"/>
<path d="M40.4841 1.54063C40.7021 2.20858 41.4654 3.98979 42.3378 6.16063C43.4827 6.0493 44.8458 6.0493 46.4269 6.32762C48.3351 6.66159 49.8072 7.5522 50.8976 8.38713C50.734 7.83051 50.5705 7.38521 50.4614 7.10689C48.6077 2.65389 45.9362 1.09533 44.137 0.483043C41.0838 -0.518884 40.1569 0.42738 40.4841 1.54063Z" fill="#2F1A5F"/>
<path d="M43.3203 8.55411C43.5929 9.22206 43.8655 9.89001 44.0836 10.5023C45.9918 10.6693 49.3176 11.3372 52.3163 13.5081C52.0982 12.5618 51.8256 11.6712 51.6075 10.8363C50.6807 10.2796 49.4812 9.66736 47.9546 9.22206C45.9373 8.60977 44.3562 8.49844 43.3203 8.55411Z" fill="#E9E9E9"/>
<path d="M48.5585 8.83249C50.7393 15.9016 53.9561 25.7539 52.1024 32.0438C52.8111 32.4334 53.629 32.3221 54.2832 31.2089C55.4282 28.1474 53.847 19.631 52.3205 13.5082C52.1024 12.5619 51.8298 11.6713 51.6117 10.8363C51.3391 9.89008 51.121 9.05514 50.9029 8.38719C50.7393 7.83056 50.5758 7.38526 50.4667 7.10695C48.7766 3.09924 46.4322 1.42936 44.6875 0.70575C45.8324 2.31997 47.359 4.93611 48.5585 8.83249Z" fill="#2F1A5F" fill-opacity="0.168627"/>
<path d="M57.9892 33.3796V33.8249C57.444 39.4469 53.0823 50.0228 32.6914 50.4681C12.9002 50.9134 6.19415 40.3375 5.8125 34.1032V33.0457C6.13963 27.5351 9.73802 13.4524 31.2193 12.3392C52.7007 11.2259 58.3163 27.869 57.9892 33.3796Z" fill="#01C48C"/>
<path d="M43.2126 15.679C40.1595 15.0667 40.7592 17.9612 44.5757 21.1896C46.8656 23.1378 53.081 27.9248 54.335 27.0342C55.5889 26.1436 50.7911 17.2932 43.2126 15.679Z" fill="#8CFFDE"/>
<path d="M57.9892 33.825C57.444 39.4469 53.0823 50.0228 32.6914 50.4681C12.9002 50.9134 6.19415 40.3375 5.8125 34.1033C10.4468 35.4392 18.625 36.9421 32.2552 37.2204C47.4666 37.4987 54.6634 35.4949 57.9892 33.825Z" fill="#009C70"/>
<path d="M54.4424 35.1609C54.1698 39.9479 48.7176 43.8443 44.574 44.9576C38.4132 46.5161 34.4876 46.7944 31.9251 46.7388C29.3081 46.7944 25.3826 46.5161 19.2762 44.9576C15.0781 43.8443 9.57148 39.8366 9.40792 34.9939C9.3534 34.159 9.46244 33.2684 9.78957 32.3778C12.0249 26.3662 18.2403 25.253 22.0023 25.253C25.8188 25.253 28.981 28.2588 31.9251 28.1474C34.8148 28.2588 38.0315 25.253 41.7935 25.253C45.6099 25.253 51.8254 26.3662 54.0062 32.3778C54.3878 33.3241 54.4969 34.2703 54.4424 35.1609Z" fill="#4F018B"/>
<path d="M54.4446 35.1608C54.172 39.9478 48.7199 43.8442 44.5763 44.9574C38.4154 46.516 34.4899 46.7943 31.9274 46.7386C29.3104 46.7943 25.3848 46.516 19.2785 44.9574C15.0804 43.8442 9.57372 39.8365 9.41016 34.9938C14.2625 35.9958 21.6229 36.9977 32.2545 37.2203C43.4313 37.443 50.301 36.4411 54.4446 35.1608Z" fill="#170949"/>
<path d="M26.3664 33.658C26.3664 36.9978 23.7494 39.6696 20.4781 39.6696C17.6975 39.6696 15.4077 37.7214 14.7534 35.1053C14.6444 34.66 14.5898 34.159 14.5898 33.658C14.5898 30.374 17.2069 27.6465 20.4781 27.6465C22.3864 27.6465 24.0765 28.5927 25.1124 29.9843C25.8757 30.9862 26.3664 32.2665 26.3664 33.658Z" fill="#2BFEFF"/>
<path d="M26.365 33.658C26.365 36.9977 23.7479 39.6695 20.4767 39.6695C17.6961 39.6695 15.4062 37.7214 14.752 35.1052C15.8969 36.3298 17.9142 37.61 21.0764 36.5524C25.111 35.1609 25.2745 31.5985 25.111 29.9843C25.8743 30.9862 26.365 32.2664 26.365 33.658Z" fill="#00C3B9"/>
<path d="M19.1666 31.1532C19.1666 32.2108 18.3488 33.0457 17.3129 33.0457C16.4405 33.0457 15.7318 32.4335 15.5137 31.6542V31.1532C15.5137 30.1513 16.277 29.3163 17.3129 29.3163C17.9126 29.3163 18.4033 29.5947 18.7849 30.04C19.003 30.3739 19.1666 30.7636 19.1666 31.1532Z" fill="#B5FAF8"/>
<path d="M50.298 33.658C50.298 36.9978 47.681 39.6696 44.4098 39.6696C41.7928 39.6696 39.5029 37.8884 38.7941 35.3836C38.6305 34.8826 38.5215 34.2703 38.5215 33.658C38.5215 30.374 41.193 27.6465 44.4098 27.6465C45.9364 27.6465 47.3539 28.2588 48.3898 29.205C49.5893 30.3183 50.298 31.8768 50.298 33.658Z" fill="#2BFEFF"/>
<path d="M50.3028 33.6581C50.3028 36.9978 47.6858 39.6696 44.4145 39.6696C41.7975 39.6696 39.5076 37.8884 38.7988 35.3836C39.7257 36.4412 41.2523 37.3875 43.8148 36.9978C47.9584 36.3299 49.1033 31.7656 48.3945 29.2051C49.594 30.3183 50.3028 31.8769 50.3028 33.6581Z" fill="#00C3B9"/>
<path d="M43.8697 31.1532C43.8697 32.2108 43.0519 33.0457 42.0705 33.0457C41.1982 33.0457 40.4894 32.4335 40.2713 31.6542C40.2713 31.4872 40.2168 31.3202 40.2168 31.1532C40.2168 30.1513 41.0346 29.3163 42.0705 29.3163C42.6702 29.3163 43.1609 29.5947 43.4881 30.04C43.7607 30.3739 43.8697 30.7636 43.8697 31.1532Z" fill="#B5FAF8"/>
<path d="M37.382 39.1686C37.3275 39.2799 36.128 42.7866 32.4751 42.731C28.8222 42.6753 27.5682 39.4469 27.5137 39.3356L37.382 39.1686Z" fill="#2BFEFF"/>
<path d="M37.382 39.1686C37.273 39.2242 35.2557 40.5045 32.5841 40.5601C29.9126 40.6715 27.5682 39.3912 27.5137 39.3356L37.382 39.1686Z" fill="#00C3B9"/>
<path d="M38.963 75.5163C39.0175 75.7389 39.072 75.9059 39.181 76.0729C39.4536 76.4625 39.8898 76.5739 39.8898 76.5739C39.8898 76.5739 39.8353 76.7965 39.7808 77.1305C39.6172 78.2994 39.3991 80.8042 40.6531 81.5835C41.6345 82.1401 43.2156 82.1958 44.6332 82.0845C46.3233 81.9731 47.7954 81.5835 47.7954 81.5835C50.6305 79.8023 48.2861 73.0115 46.8685 72.3435C46.2688 72.1209 45.1238 72.2878 43.9789 72.6218C42.2887 73.0671 40.5986 73.7907 40.326 73.8464C39.7808 73.9021 38.6903 74.6813 38.963 75.5163Z" fill="#4F018B"/>
<path d="M43.9748 72.6218C44.1929 74.2917 43.8658 77.3531 43.9203 79.357C43.9748 80.4702 44.3019 81.4165 44.6291 82.0845C46.3192 81.9731 47.7913 81.5835 47.7913 81.5835C50.6264 79.8023 48.282 73.0115 46.8644 72.3435C46.2647 72.1209 45.1198 72.2878 43.9748 72.6218Z" fill="#170949"/>
<path d="M39.1816 76.0729C39.4542 76.4625 39.8904 76.5738 39.8904 76.5738C39.8904 76.5738 39.8359 76.7965 39.7814 77.1305C39.7814 77.1861 39.8359 77.1861 39.8359 77.1861C40.3811 77.3531 40.9263 77.4644 41.4715 77.4644C41.9077 77.4644 42.3984 77.4088 42.8346 77.6871C43.2162 77.9097 43.5979 78.2437 43.925 78.522C44.1976 78.689 44.5247 78.7447 44.7428 78.522C44.9609 78.2994 45.0154 77.9097 44.7973 77.6871C44.3066 77.2418 43.8705 76.8522 43.3252 76.6295C42.8346 76.4069 42.2893 76.3512 41.7441 76.3512C41.1989 76.3512 40.6537 76.2955 40.163 76.2399C39.8359 76.2399 39.5088 76.1285 39.1816 76.0729Z" fill="#170949"/>
<path d="M42.0138 77.1862C42.1774 77.2419 42.3409 77.3532 42.3409 77.5759C42.3409 77.7985 42.2864 78.0212 42.2864 78.2438V78.4665H42.2319V79.3571C42.2319 79.4684 42.2864 79.524 42.2864 79.6354V80.025C42.2319 80.192 42.1228 80.3033 41.9593 80.359C41.7957 80.359 41.6321 80.3033 41.5231 80.192C41.4686 80.0807 41.4686 79.9693 41.4141 79.858V79.691V79.4127V78.8004C41.4141 78.5221 41.4141 78.2995 41.4686 78.0768C41.4686 77.8542 41.5231 77.6315 41.6321 77.4089C41.6867 77.2975 41.8502 77.1862 42.0138 77.1862Z" fill="#170949"/>
<path d="M62.5688 64.5507C63.6592 66.0536 63.1685 67.6122 62.2962 68.8367C61.3693 70.0613 59.243 72.9558 57.989 73.5124C56.735 74.1247 52.5369 72.5661 51.9372 70.1726C51.392 67.7792 57.1712 62.0459 58.0981 61.9902C59.0249 61.9346 61.4239 62.9365 62.5688 64.5507Z" fill="#170949"/>
<path d="M46.5912 70.5623C46.5366 70.618 46.5366 70.6736 46.4821 70.7293C45.7188 71.5086 45.6098 72.6775 46.0459 73.6794C46.264 74.1804 46.4821 74.904 46.3731 75.7946C46.264 76.6852 45.9914 77.5201 45.7733 78.2994C45.5007 79.4126 45.3917 80.4702 46.3731 81.5278C50.4076 83.977 60.1124 75.2936 61.0938 74.1804C62.893 72.1208 62.6749 70.3953 61.639 70.3396C60.4395 70.284 58.9129 69.5047 57.4954 68.5584C55.5326 67.3339 53.7334 65.9423 53.0792 65.998C51.8797 66.0536 47.7361 69.3934 46.5912 70.5623Z" fill="#01C48C"/>
<path d="M46.5913 70.5623C46.5367 70.618 46.5367 70.6736 46.4822 70.7293C45.7189 71.5086 45.6099 72.6775 46.046 73.6794C46.2641 74.1804 46.4822 74.904 46.3732 75.7946C46.2641 76.6852 45.9915 77.5201 45.7734 78.2994C48.8266 74.3473 54.2787 70.5623 57.4955 68.5584C55.5327 67.3339 53.7335 65.9423 53.0793 65.998C51.8798 66.0536 47.7362 69.3934 46.5913 70.5623Z" fill="#009C70"/>
<path d="M56.8936 73.6238C58.2566 74.9041 51.2779 80.526 49.5332 79.5241C47.734 78.5778 54.5492 71.5086 56.8936 73.6238Z" fill="#8CFFDE"/>
<path d="M55.1562 64.4394C55.865 64.996 57.6642 66.4989 58.3185 65.33C58.373 65.2186 58.4275 65.1073 58.4275 64.996C58.5366 63.8271 56.6828 62.4912 56.3012 62.1572C55.5924 61.4336 54.611 60.8213 53.8477 61.6562H53.7932C53.0299 62.5468 54.3929 63.8827 55.1562 64.4394Z" fill="#E9E9E9"/>
<path d="M55.1562 64.4394C55.865 64.996 57.6642 66.4989 58.3185 65.33C58.373 65.2187 58.4275 65.1073 58.4275 64.996C58.1549 65.0517 57.7733 64.996 57.5006 64.7734C56.7374 64.2167 54.7746 62.7138 53.8477 61.6562H53.7932C53.0299 62.5469 54.3929 63.8828 55.1562 64.4394Z" fill="#D3F8FA"/>
<path d="M24.7282 75.5163C24.6737 75.7389 24.5646 75.9059 24.4556 76.0729C24.183 76.4625 23.8013 76.5739 23.8013 76.5739C23.8013 76.5739 23.8559 76.7965 23.9104 77.1305C24.0739 78.2994 24.292 80.8042 22.9835 81.5835C22.0021 82.1401 20.421 82.1958 19.0035 82.0845C17.3133 81.9731 15.8413 81.5835 15.8413 81.5835C13.0062 79.8023 15.3506 73.0115 16.8226 72.3435C17.4224 72.1209 18.5673 72.2878 19.7123 72.6218C21.3479 73.0671 23.038 73.7907 23.3652 73.8464C23.8559 73.9021 24.9463 74.6813 24.7282 75.5163Z" fill="#4F018B"/>
<path d="M19.7123 72.6218C19.4942 74.2917 19.7668 77.3531 19.7123 79.357C19.6577 80.4702 19.3306 81.4165 19.0035 82.0845C17.3133 81.9731 15.8413 81.5835 15.8413 81.5835C13.0062 79.8023 15.3506 73.0115 16.8226 72.3435C17.4224 72.1209 18.5673 72.2878 19.7123 72.6218Z" fill="#170949"/>
<path d="M24.4528 76.0729C24.1802 76.4625 23.7985 76.5738 23.7985 76.5738C23.7985 76.5738 23.853 76.7965 23.9075 77.1305C23.853 77.1861 23.853 77.1861 23.7985 77.1861C23.3078 77.3531 22.7626 77.4644 22.2174 77.4644C21.7267 77.4644 21.2905 77.4088 20.8544 77.6871C20.4727 77.9097 20.0911 78.2437 19.7639 78.522C19.4913 78.689 19.1642 78.7447 18.8916 78.522C18.6735 78.2994 18.619 77.9097 18.8916 77.6871C19.3278 77.2418 19.7639 76.8522 20.3637 76.6295C20.8544 76.4069 21.3996 76.3512 21.9448 76.3512C22.4355 76.3512 22.9807 76.2955 23.5259 76.2399C23.853 76.2399 24.1802 76.1285 24.4528 76.0729Z" fill="#170949"/>
<path d="M21.6224 77.1861C21.4589 77.2418 21.3498 77.3531 21.3498 77.5758C21.2953 77.7984 21.3498 78.0211 21.4044 78.2437V79.6353C21.4044 79.8023 21.3498 79.9136 21.4044 80.0249C21.4589 80.1919 21.5679 80.3032 21.7315 80.3589C21.895 80.3589 22.0586 80.3032 22.1131 80.1919C22.1676 80.0806 22.2222 79.9693 22.2222 79.8579V79.691C22.2767 79.6353 22.2767 79.524 22.2767 79.4126V78.8003C22.2767 78.522 22.2222 78.2994 22.2222 78.0767C22.1676 77.8541 22.1676 77.6314 22.0586 77.4088C21.9496 77.2975 21.786 77.1861 21.6224 77.1861ZM1.06797 64.5507C0.0320712 66.0536 0.522761 67.6122 1.3951 68.8367C2.26744 70.0613 4.39376 72.9558 5.70227 73.5124C6.95625 74.1247 11.1544 72.5661 11.6996 70.1726C12.2448 67.7792 6.46556 62.0459 5.5387 61.9902C4.61185 61.9346 2.26744 62.9365 1.06797 64.5507Z" fill="#170949"/>
<path d="M17.0417 70.5623L17.2053 70.7293C17.9141 71.5086 18.0776 72.6775 17.6415 73.6794C17.3689 74.1804 17.2053 74.904 17.3143 75.7946C17.3689 76.6852 17.696 77.5201 17.8596 78.2994C18.1867 79.4126 18.2957 80.4702 17.3143 81.5278C13.2798 83.977 3.57502 75.2936 2.59364 74.1804C0.794442 72.1208 1.01253 70.3953 1.99391 70.3396C3.19337 70.284 4.71996 69.5047 6.19203 68.5584C8.10027 67.3339 9.89947 65.9423 10.6082 65.998C11.8077 66.0536 15.8968 69.3934 17.0417 70.5623Z" fill="#01C48C"/>
<path d="M17.0411 70.5623L17.2047 70.7293C17.9134 71.5086 18.077 72.6775 17.6408 73.6794C17.3682 74.1804 17.2047 74.904 17.3137 75.7946C17.3682 76.6852 17.6954 77.5201 17.8589 78.2994C14.8603 74.3473 9.40815 70.5623 6.19141 68.5584C8.09965 67.3339 9.89884 65.9423 10.6076 65.998C11.8071 66.0536 15.8962 69.3934 17.0411 70.5623Z" fill="#009C70"/>
<path d="M6.79092 73.6238C5.37337 74.9041 12.4066 80.526 14.1513 79.5241C15.8959 78.5778 9.13533 71.5086 6.79092 73.6238Z" fill="#8CFFDE"/>
<path d="M8.53549 64.4394C7.77219 64.9961 6.02751 66.4989 5.37326 65.33C5.26422 65.2187 5.26422 65.1074 5.2097 64.9961C5.10066 63.8271 6.95437 62.4912 7.33602 62.1573C8.09932 61.4336 9.02618 60.8214 9.84399 61.6563C10.6073 62.5469 9.29878 63.8828 8.53549 64.4394Z" fill="#E9E9E9"/>
<path d="M8.53673 64.4395C7.77343 64.9961 6.02875 66.499 5.3745 65.3301C5.26546 65.2188 5.26546 65.1075 5.21094 64.9961C5.53806 65.0518 5.86519 64.9961 6.19232 64.7735C6.95561 64.2169 8.86385 62.714 9.84523 61.6564C10.6085 62.547 9.30002 63.8829 8.53673 64.4395Z" fill="#D3F8FA"/>
<path fill-rule="evenodd" clip-rule="evenodd" d="M30.8345 24.1954C30.8345 24.3623 30.6709 24.4737 30.5074 24.4737C30.3983 24.4737 30.2348 24.3623 30.2348 24.1954V22.9708C30.2348 22.8594 30.1257 22.6925 29.9622 22.6925C29.8531 22.6925 29.6896 22.8594 29.6896 22.9708V23.5831C29.6896 23.7501 29.5805 23.8614 29.417 23.8614C29.3079 23.8614 29.1444 23.7501 29.1444 23.5831V21.8019C29.1444 21.6349 29.0353 21.5235 28.8718 21.5235C28.7627 21.5235 28.5991 21.6349 28.5991 21.8019V24.084C28.5991 24.251 28.4901 24.3623 28.3265 24.3623C28.2175 24.3623 28.0539 24.251 28.0539 24.084V21.1339C28.0539 21.0226 27.9449 20.8556 27.7813 20.8556C27.6178 20.8556 27.5087 21.0226 27.5087 21.1339V21.7462C27.5087 21.9132 27.3997 22.0245 27.2361 22.0245C27.0726 22.0245 26.9635 21.9132 26.9635 21.7462V21.1339L26.5273 20.6886L28.4901 18.6848L31.7069 21.9688L34.8691 18.6848L36.8318 20.6886L36.3957 21.1339V21.7462C36.3957 21.9132 36.2866 22.0245 36.1231 22.0245C35.9595 22.0245 35.8505 21.9132 35.8505 21.7462V21.1339C35.8505 21.0226 35.7414 20.8556 35.5778 20.8556C35.4143 20.8556 35.3052 21.0226 35.3052 21.1339V24.084C35.3052 24.251 35.1962 24.3623 35.0326 24.3623C34.8691 24.3623 34.76 24.251 34.76 24.084V21.8019C34.76 21.6349 34.651 21.5235 34.4874 21.5235C34.3239 21.5235 34.2148 21.6349 34.2148 21.8019V23.5831C34.2148 23.7501 34.1058 23.8614 33.9422 23.8614C33.7787 23.8614 33.6696 23.7501 33.6696 23.5831V22.9708C33.6696 22.8594 33.5606 22.6925 33.397 22.6925C33.2334 22.6925 33.1244 22.8594 33.1244 22.9708V24.1954C33.1244 24.3623 33.0154 24.4737 32.8518 24.4737C32.6882 24.4737 32.5792 24.3623 32.5792 24.1954V24.084H32.5247V23.9727H32.4701V23.917H32.143V23.9727H32.0885V24.0284H32.034V25.5869L31.7069 25.9209L31.3797 25.5869V24.1397H31.3252V24.0284H31.2707V23.9727H31.2162V23.917H30.9436V23.9727H30.889V24.0284H30.8345V24.1954Z" fill="#4F018B"/>
<path fill-rule="evenodd" clip-rule="evenodd" d="M32.8531 24.6963C32.6896 24.6963 32.5805 24.8076 32.5805 24.9746V25.0303C32.5805 25.1416 32.6896 25.3086 32.8531 25.3086C33.0167 25.3086 33.1257 25.1416 33.1257 25.0303V24.9746C33.1257 24.8076 33.0167 24.6963 32.8531 24.6963ZM30.5087 24.6963C30.6723 24.6963 30.8358 24.8076 30.8358 24.9746V25.0303C30.8358 25.1416 30.6723 25.3086 30.5087 25.3086C30.3997 25.3086 30.2361 25.1416 30.2361 25.0303V24.9746C30.2361 24.8076 30.3997 24.6963 30.5087 24.6963ZM36.1244 22.3028C35.9608 22.3028 35.8518 22.4698 35.8518 22.6368V23.0264C35.8518 23.1377 35.9608 23.3047 36.1244 23.3047C36.288 23.3047 36.397 23.1377 36.397 23.0264V22.6368C36.397 22.4698 36.288 22.3028 36.1244 22.3028ZM27.2374 22.3028C27.401 22.3028 27.5101 22.4698 27.5101 22.6368V23.0264C27.5101 23.1377 27.401 23.3047 27.2374 23.3047C27.0739 23.3047 26.9648 23.1377 26.9648 23.0264V22.6368C26.9648 22.4698 27.0739 22.3028 27.2374 22.3028ZM31.7082 15.4006L33.6709 17.4602L31.7082 19.464L29.6909 17.4602L31.7082 15.4006Z" fill="#4F018B"/>
<path fill-rule="evenodd" clip-rule="evenodd" d="M31.6533 63.0478C31.6533 63.1591 31.5988 63.2148 31.4898 63.2148C31.4353 63.2148 31.3262 63.1591 31.3262 63.0478V62.4355C31.3262 62.3242 31.2717 62.2685 31.2172 62.2685C31.1081 62.2685 31.0536 62.3242 31.0536 62.4355V62.7138C31.0536 62.8251 30.9991 62.8808 30.9446 62.8808C30.8355 62.8808 30.781 62.8251 30.781 62.7138V61.8232C30.781 61.7119 30.7265 61.6562 30.6174 61.6562C30.5629 61.6562 30.5084 61.7119 30.5084 61.8232V62.9921C30.5084 63.1034 30.4539 63.1591 30.3448 63.1591C30.2903 63.1591 30.2358 63.1034 30.2358 62.9921V61.4892C30.2358 61.3779 30.1267 61.3222 30.0722 61.3222C29.9632 61.3222 29.9087 61.3779 29.9087 61.4892V61.7675C29.9087 61.8789 29.8541 61.9345 29.7996 61.9345C29.6906 61.9345 29.6361 61.8789 29.6361 61.7675V61.4336L29.418 61.2109L30.3993 60.1533L32.0895 61.8789L33.7797 60.1533L34.8156 61.2109L34.543 61.4336V61.7675C34.543 61.8789 34.4884 61.9345 34.4339 61.9345C34.3249 61.9345 34.2703 61.8789 34.2703 61.7675V61.4892C34.2703 61.3779 34.2158 61.3222 34.1068 61.3222C34.0523 61.3222 33.9977 61.3779 33.9977 61.4892V62.9921C33.9977 63.1034 33.9432 63.1591 33.8342 63.1591C33.7797 63.1591 33.7251 63.1034 33.7251 62.9921V61.8232C33.7251 61.7119 33.6161 61.6562 33.5616 61.6562C33.4525 61.6562 33.398 61.7119 33.398 61.8232V62.7138C33.398 62.8251 33.3435 62.8808 33.289 62.8808C33.1799 62.8808 33.1254 62.8251 33.1254 62.7138V62.4355C33.1254 62.3242 33.0709 62.2685 32.9618 62.2685C32.9073 62.2685 32.8528 62.3242 32.8528 62.4355V63.0478C32.8528 63.1591 32.7983 63.2148 32.6892 63.2148C32.6347 63.2148 32.5802 63.1591 32.5802 63.0478L32.5257 62.9921V62.9365H32.4712V62.8808H32.3621V62.9365H32.3076V62.9921H32.2531V63.7714L32.0895 63.9384L31.9259 63.7714V62.9365H31.8169V62.8808H31.7079V62.9365H31.6533V63.0478Z" fill="#00FFB7"/>
<path fill-rule="evenodd" clip-rule="evenodd" d="M32.6879 63.326C32.6334 63.326 32.5789 63.3817 32.5789 63.4374V63.493C32.5789 63.5487 32.6334 63.6044 32.6879 63.6044C32.797 63.6044 32.8515 63.5487 32.8515 63.493V63.4374C32.8515 63.3817 32.797 63.326 32.6879 63.326ZM31.4885 63.326C31.5975 63.326 31.652 63.3817 31.652 63.4374V63.493C31.652 63.5487 31.5975 63.6044 31.4885 63.6044C31.434 63.6044 31.3249 63.5487 31.3249 63.493V63.4374C31.3249 63.3817 31.434 63.326 31.4885 63.326ZM34.4326 62.1015C34.3236 62.1015 34.2691 62.1571 34.2691 62.2128V62.4354C34.2691 62.4911 34.3236 62.6024 34.4326 62.6024C34.4871 62.6024 34.5417 62.4911 34.5417 62.4354V62.2128C34.5417 62.1571 34.4871 62.1015 34.4326 62.1015ZM29.7983 62.1015C29.8529 62.1015 29.9074 62.1571 29.9074 62.2128V62.4354C29.9074 62.4911 29.8529 62.6024 29.7983 62.6024C29.6893 62.6024 29.6348 62.4911 29.6348 62.4354V62.2128C29.6348 62.1571 29.6893 62.1015 29.7983 62.1015ZM32.0882 58.4834L33.1241 59.541L32.0882 60.5986L31.0523 59.541L32.0882 58.4834Z" fill="#00FFB7"/>
<path fill-rule="evenodd" clip-rule="evenodd" d="M31.327 76.4625V76.5182C31.327 76.5739 31.2724 76.6852 31.1634 76.6852C31.0543 76.6852 30.9453 76.5739 30.9453 76.5182V75.6833C30.9453 75.5719 30.8908 75.4606 30.7817 75.4606C30.6727 75.4606 30.5637 75.5719 30.5637 75.6833V76.0729C30.5637 76.1842 30.5091 76.2399 30.4001 76.2399C30.2911 76.2399 30.182 76.1842 30.182 76.0729V74.8483C30.182 74.737 30.1275 74.6257 30.0184 74.6257C29.9094 74.6257 29.8549 74.737 29.8549 74.8483V76.4069C29.8549 76.5182 29.7458 76.6295 29.6368 76.6295C29.5278 76.6295 29.4732 76.5182 29.4732 76.4069V74.403C29.4732 74.2917 29.3642 74.1804 29.2552 74.1804C29.1461 74.1804 29.0916 74.2917 29.0916 74.403V74.7927C29.0916 74.904 28.9825 75.0153 28.8735 75.0153C28.7645 75.0153 28.7099 74.904 28.7099 74.7927V74.3474L28.3828 74.0691L29.7458 72.6775L31.9812 74.9597L34.1621 72.6775L35.5251 74.0691L35.198 74.3474V74.7927C35.198 74.904 35.1434 75.0153 35.0344 75.0153C34.9253 75.0153 34.8163 74.904 34.8163 74.7927V74.403C34.8163 74.2917 34.7618 74.1804 34.6527 74.1804C34.5437 74.1804 34.4347 74.2917 34.4347 74.403V76.4069C34.4347 76.5182 34.3801 76.6295 34.2711 76.6295C34.1621 76.6295 34.1075 76.5182 34.1075 76.4069V74.8483C34.1075 74.737 33.9985 74.6257 33.8894 74.6257C33.7804 74.6257 33.7259 74.737 33.7259 74.8483V76.0729C33.7259 76.1842 33.6168 76.2399 33.5078 76.2399C33.3988 76.2399 33.3442 76.1842 33.3442 76.0729V75.6833C33.3442 75.5719 33.2352 75.4606 33.1261 75.4606C33.0171 75.4606 32.9626 75.5719 32.9626 75.6833V76.5182C32.9626 76.5739 32.8535 76.6852 32.7445 76.6852C32.6355 76.6852 32.5809 76.5739 32.5809 76.5182V76.4069H32.5264V76.3512H32.4719V76.2956H32.2538V76.3512H32.1993V77.4645L31.9812 77.6871L31.7086 77.4645V76.3512H31.6541V76.2956H31.436V76.3512H31.3815V76.4069H31.327V76.4625Z" fill="#270045"/>
<path fill-rule="evenodd" clip-rule="evenodd" d="M32.7455 76.8522C32.6365 76.8522 32.5819 76.9079 32.5819 77.0192V77.0748C32.5819 77.1862 32.6365 77.2418 32.7455 77.2418C32.8545 77.2418 32.9636 77.1862 32.9636 77.0748V77.0192C32.9636 76.9079 32.8545 76.8522 32.7455 76.8522ZM31.1644 76.8522C31.2734 76.8522 31.328 76.9079 31.328 77.0192V77.0748C31.328 77.1862 31.2734 77.2418 31.1644 77.2418C31.0553 77.2418 30.9463 77.1862 30.9463 77.0748V77.0192C30.9463 76.9079 31.0553 76.8522 31.1644 76.8522ZM35.0354 75.1823C34.9263 75.1823 34.8173 75.2936 34.8173 75.405V75.6833C34.8173 75.7946 34.9263 75.8503 35.0354 75.8503C35.1444 75.8503 35.199 75.7946 35.199 75.6833V75.405C35.199 75.2936 35.1444 75.1823 35.0354 75.1823ZM28.8745 75.1823C28.9835 75.1823 29.0926 75.2936 29.0926 75.405V75.6833C29.0926 75.7946 28.9835 75.8503 28.8745 75.8503C28.7655 75.8503 28.7109 75.7946 28.7109 75.6833V75.405C28.7109 75.2936 28.7655 75.1823 28.8745 75.1823ZM31.9822 70.3953L33.3452 71.8426L31.9822 73.2341L30.5647 71.8426L31.9822 70.3953Z" fill="#270045"/>
</svg>
