<svg width="54" height="55" viewBox="0 0 54 55" fill="none" xmlns="http://www.w3.org/2000/svg">
<g filter="url(#filter0_d_153_2998)">
<path d="M10.4653 39.5583C2.10227 32.4047 1.8009 18.713 9.86253 8.94424C17.8488 -0.824558 31.109 -2.90139 39.472 4.25214C47.835 11.4057 48.1364 25.0974 40.0748 34.8662C32.0885 44.635 18.8283 46.7118 10.4653 39.5583Z" fill="url(#paint0_linear_153_2998)"/>
<path d="M40.0764 34.8663C32.6929 43.8659 20.7888 46.3273 12.4258 41.0198C12.9532 41.6352 13.5559 42.1736 14.1587 42.7121C22.5216 49.8656 35.7819 47.7888 43.8435 38.02C51.8298 28.3281 51.5284 14.5595 43.2408 7.40593C42.5627 6.86749 41.8846 6.40598 41.2065 5.94446C47.8366 13.4826 47.5353 25.8667 40.0764 34.8663Z" fill="url(#paint1_linear_153_2998)"/>
<path d="M39.6262 35.4812C39.2495 35.9427 38.8728 36.3273 38.4961 36.7119L42.1879 39.8656L43.318 38.7118L39.6262 35.4812Z" fill="url(#paint2_linear_153_2998)" fill-opacity="0.501961"/>
<path d="M42.035 32.2507C41.7336 32.7122 41.4322 33.1737 41.1309 33.5583L44.8226 36.7889L45.7267 35.4044L42.035 32.2507Z" fill="url(#paint3_linear_153_2998)" fill-opacity="0.501961"/>
<path d="M36.6921 38.3274C36.24 38.712 35.788 39.0966 35.3359 39.4043L39.0277 42.558C39.4798 42.2503 39.9318 41.8657 40.3839 41.558L36.6921 38.3274Z" fill="url(#paint4_linear_153_2998)" fill-opacity="0.501961"/>
<path d="M33.2228 40.7888C32.6954 41.0964 32.168 41.3272 31.6406 41.6349L35.3324 44.7886C35.8598 44.5578 36.3872 44.2501 36.9146 43.9425L33.2228 40.7888Z" fill="url(#paint5_linear_153_2998)" fill-opacity="0.501961"/>
<path d="M43.9995 28.5586C43.7735 29.0201 43.5475 29.5585 43.2461 30.0201L47.0132 33.2507C47.2392 32.7123 47.4653 32.2507 47.6913 31.7123L43.9995 28.5586Z" fill="url(#paint6_linear_153_2998)" fill-opacity="0.501961"/>
<path d="M45.3446 24.3279C45.1939 24.8664 45.0433 25.4817 44.8926 26.0971L48.5843 29.2508C48.735 28.6354 48.8857 28.097 49.0364 27.4816L45.3446 24.3279Z" fill="url(#paint7_linear_153_2998)" fill-opacity="0.501961"/>
<path d="M45.9542 18.4052C45.9542 19.0974 45.9542 19.7897 45.8789 20.482L49.646 23.6357V21.5589L45.9542 18.4052Z" fill="url(#paint8_linear_153_2998)" fill-opacity="0.501961"/>
<path d="M44.75 11.9439C45.1267 12.8669 45.3527 13.8669 45.5788 14.7899L49.2705 18.0206C49.0445 17.0206 48.8185 16.0976 48.5171 15.1745L44.75 11.9439Z" fill="url(#paint9_linear_153_2998)" fill-opacity="0.501961"/>
<path d="M28.1718 42.9426C27.5691 43.0964 26.891 43.2502 26.2129 43.4041L29.98 46.5578C30.5827 46.4809 31.2608 46.327 31.8636 46.0963L28.1718 42.9426Z" fill="url(#paint10_linear_153_2998)" fill-opacity="0.501961"/>
<path d="M22.8995 43.7886C22.0708 43.8655 21.1667 43.7886 20.3379 43.7117L24.0297 46.9423C24.9338 47.0192 25.7625 47.0192 26.6666 46.9423L22.8995 43.7886Z" fill="url(#paint11_linear_153_2998)" fill-opacity="0.501961"/>
<path d="M13.2533 36.02C12.8766 35.7893 12.8766 35.2508 13.178 34.9431C13.4793 34.5585 14.0067 34.5585 14.3081 34.8662C14.6848 35.1739 15.1369 35.4816 15.5136 35.7893C15.8903 36.02 16.041 36.4815 15.7396 36.8661C15.5136 37.2507 15.0615 37.4046 14.6848 37.0969C14.1574 36.7892 13.7054 36.4815 13.3286 36.0969L13.2533 36.02ZM10.2396 32.3279L10.0136 32.0971C9.78756 31.5587 9.48619 31.0202 9.26016 30.5587C9.10948 30.0972 9.33551 29.6357 9.71222 29.4049C10.0889 29.2511 10.6163 29.4818 10.767 29.8664L11.4451 31.251C11.6711 31.6356 11.5204 32.174 11.1437 32.4048C10.8424 32.5586 10.4656 32.4817 10.2396 32.3279ZM18.9793 39.0199C18.7533 38.7891 18.6026 38.4814 18.6779 38.1738C18.8286 37.7122 19.2053 37.4815 19.6574 37.5584C20.1848 37.6353 20.6368 37.7892 21.1642 37.7892C21.6163 37.8661 21.9177 38.2507 21.8423 38.7122C21.767 39.1737 21.3903 39.4814 20.9382 39.4814C20.4108 39.4045 19.8081 39.2506 19.2807 39.1737C19.2053 39.0968 19.0547 39.0968 18.9793 39.0199ZM8.35606 26.0974C8.20537 25.9435 8.13003 25.7897 8.13003 25.5589C8.05469 24.9436 8.05469 24.4051 8.05469 23.7898C8.05469 23.3283 8.4314 23.0206 8.88345 23.0206C9.33551 23.0206 9.63688 23.4052 9.63688 23.8667C9.63688 24.3282 9.63688 24.8667 9.71222 25.4051C9.71222 25.8666 9.41085 26.2512 8.95879 26.2512C8.73277 26.3281 8.50674 26.2512 8.35606 26.0974ZM25.3081 39.0968C25.1574 38.943 25.082 38.7891 25.0067 38.6353C24.9314 38.1738 25.2327 37.7122 25.6848 37.6353C26.1368 37.5584 26.6642 37.4046 27.1916 37.3276C27.5683 37.1738 28.0204 37.4046 28.1711 37.8661C28.3218 38.3276 28.0204 38.7122 27.6437 38.866C27.0409 39.0199 26.5135 39.1737 25.9861 39.2506C25.7601 39.3276 25.4588 39.2506 25.3081 39.0968ZM9.03414 19.6361C8.80811 19.4054 8.73277 19.0977 8.80811 18.79C8.95879 18.2516 9.18482 17.7131 9.33551 17.1747C9.48619 16.7132 10.0136 16.5593 10.3903 16.7132C10.8424 16.867 10.993 17.3285 10.8424 17.79C10.6917 18.2516 10.541 18.7131 10.3903 19.2515C10.2396 19.713 9.78756 19.9438 9.33551 19.79C9.26016 19.79 9.18482 19.713 9.03414 19.6361ZM31.2601 36.7892C31.1848 36.7123 31.1094 36.6354 31.1094 36.5584C30.8834 36.1738 30.9587 35.6354 31.3355 35.4047C31.7875 35.1739 32.2396 34.8662 32.6163 34.5585C32.993 34.2509 33.5204 34.4047 33.7464 34.7124C34.0478 35.097 33.8971 35.6354 33.5957 35.8662C33.1437 36.2508 32.6916 36.5584 32.1642 36.7892C31.8628 37.02 31.4861 36.943 31.2601 36.7892ZM11.8971 13.7902C11.5204 13.5595 11.5204 13.021 11.7465 12.7133C12.0478 12.2518 12.3492 11.7903 12.7259 11.4057V11.3288C13.0273 11.0211 13.5547 11.0211 13.856 11.2519C14.2328 11.5596 14.2328 12.098 13.9314 12.4826L13.0273 13.6364C12.8013 14.021 12.2739 14.0979 11.8971 13.8671V13.7902ZM36.082 32.4817C35.7053 32.2509 35.7053 31.7125 36.0067 31.3279C36.308 30.9433 36.6094 30.5587 36.9108 30.0972C37.2121 29.7126 37.6642 29.6357 38.0409 29.9434C38.4176 30.1741 38.493 30.7126 38.2669 31.0972C37.8902 31.5587 37.5889 31.9433 37.2121 32.4048C36.9108 32.7894 36.4587 32.7894 36.082 32.4817ZM16.3423 9.17504L16.1917 9.0212C15.9656 8.6366 16.041 8.17509 16.4177 7.86741L17.7738 6.94437C18.1506 6.71361 18.6779 6.86745 18.904 7.25205C19.13 7.63665 18.9793 8.09817 18.6026 8.32893C18.2259 8.6366 17.7738 8.94428 17.3218 9.25196C17.0204 9.48272 16.6437 9.4058 16.3423 9.17504ZM39.3217 26.9435C39.0957 26.7127 38.945 26.3281 39.0957 26.0205C39.3217 25.482 39.4724 25.0205 39.6231 24.559C39.6984 24.0975 40.1505 23.8667 40.6026 23.9436C41.0546 24.0975 41.2806 24.559 41.1299 25.0205C40.9793 25.5589 40.8286 26.0974 40.6026 26.6358C40.4519 27.0204 39.9998 27.2512 39.5478 27.0973C39.4724 27.0204 39.3971 27.0204 39.3217 26.9435ZM22.0684 6.32901C21.993 6.25209 21.8423 6.09825 21.8423 5.94441C21.6916 5.4829 21.9177 5.02138 22.3697 4.94446C22.8971 4.79062 23.4245 4.63678 24.0273 4.55986C24.4793 4.40602 24.856 4.7137 24.9314 5.17522C25.0067 5.63674 24.7053 6.09825 24.3286 6.17517C23.8012 6.25209 23.2738 6.32901 22.8218 6.48285C22.5204 6.55977 22.2944 6.48285 22.0684 6.32901ZM40.6026 20.5592C40.3765 20.4053 40.3012 20.1746 40.3012 19.9438C40.3012 19.4054 40.3012 18.8669 40.2258 18.4054C40.2258 17.9439 40.5272 17.4824 40.9793 17.4824C41.4313 17.4824 41.808 17.79 41.808 18.2516C41.8834 18.79 41.8834 19.4054 41.8834 19.9438C41.8834 20.4053 41.5067 20.7899 41.0546 20.7899C40.9039 20.7899 40.7532 20.713 40.6026 20.5592ZM28.3971 5.79058C28.2464 5.63674 28.0957 5.32906 28.0957 5.0983C28.1711 4.63678 28.5478 4.3291 28.9998 4.3291C29.6026 4.40602 30.13 4.48294 30.6574 4.63678C31.1094 4.79062 31.4108 5.17522 31.2601 5.63674C31.1848 6.09825 30.7327 6.32901 30.2807 6.25209C29.8286 6.17517 29.3012 6.02133 28.8492 6.02133L28.3971 5.79058ZM39.3971 14.1748C39.3217 14.0979 39.2464 14.021 39.171 13.8671L38.493 12.4826C38.2669 12.098 38.4176 11.6365 38.7943 11.4057C39.171 11.175 39.6984 11.3288 39.9245 11.7134C40.1505 12.1749 40.4519 12.7133 40.6779 13.2518C40.8286 13.6364 40.6026 14.1748 40.2258 14.3287C39.9245 14.4825 39.6231 14.4056 39.3971 14.1748ZM34.3491 8.02125C34.0478 7.71357 33.9724 7.25205 34.1985 6.94437C34.4245 6.55977 34.9519 6.40593 35.3286 6.71361C35.7806 7.02129 36.2327 7.32897 36.6848 7.71357C37.0615 8.02125 37.0615 8.48276 36.7601 8.86736C36.4587 9.25196 35.9313 9.25196 35.63 8.94428C35.2532 8.6366 34.8765 8.32893 34.4245 8.09817C34.4245 8.02125 34.4245 8.02125 34.3491 8.02125Z" fill="url(#paint12_linear_153_2998)"/>
<path fill-rule="evenodd" clip-rule="evenodd" d="M22.213 27.4051V27.482C22.1377 27.7897 21.9117 28.0205 21.6103 28.0205C21.3089 28.0205 21.0829 27.7897 21.1582 27.482L21.3843 26.2513L21.4596 25.7129L21.535 25.1745C21.6103 24.8668 21.3843 24.636 21.0829 24.636C20.7815 24.636 20.5555 24.8668 20.4802 25.1745L20.3295 26.3282C20.2541 26.559 19.9528 26.8667 19.6514 26.8667C19.4254 26.8667 19.1993 26.559 19.2747 26.3282L19.6514 23.7899L19.7267 23.4053L19.8021 22.8669C19.8774 22.5592 19.6514 22.3284 19.35 22.3284C19.0487 22.3284 18.8226 22.5592 18.7473 22.8669L18.4459 24.7899L18.0692 27.2513C17.9939 27.559 17.6925 27.7897 17.4665 27.7897C17.1651 27.7897 16.9391 27.559 17.0144 27.2513L17.5418 23.713L17.8432 22.0207L17.9185 21.6361C17.9939 21.3285 17.7678 21.0977 17.4665 21.0977C17.1651 21.0977 16.9391 21.3285 16.8637 21.6361L16.713 22.6361L16.6377 22.7899C16.6377 23.0976 16.3363 23.3284 16.035 23.3284C15.7336 23.3284 15.5829 23.0976 15.6583 22.7899L15.8089 21.5592L15.1309 20.7131L19.5007 16.8671L24.624 23.1745L31.7815 16.8671L34.8705 20.7131L33.8911 21.5592L33.6651 22.7899C33.6651 23.0976 33.3637 23.3284 33.0623 23.3284C32.7609 23.3284 32.6103 23.0976 32.6103 22.7899L32.6856 22.6361L32.8363 21.6361C32.8363 21.3285 32.6856 21.0977 32.3842 21.0977C32.0829 21.0977 31.8568 21.3285 31.7815 21.6361L31.7062 22.0207L31.4048 23.713L30.8774 27.2513C30.802 27.559 30.5007 27.7897 30.2747 27.7897C29.9733 27.7897 29.7473 27.559 29.8226 27.2513L30.1993 24.7899L30.5007 22.8669C30.576 22.5592 30.35 22.3284 30.0486 22.3284C29.8226 22.3284 29.5212 22.5592 29.4459 22.8669L29.3705 23.4053L29.2952 23.7899L28.9185 26.3282C28.8432 26.559 28.6171 26.8667 28.3158 26.8667C28.0144 26.8667 27.7884 26.559 27.8637 26.3282L28.0144 25.1745C28.0897 24.8668 27.8637 24.636 27.6377 24.636C27.3363 24.636 27.0349 24.8668 26.9596 25.1745L26.8843 25.7129L26.8089 26.2513L26.6582 27.482C26.5829 27.7897 26.2815 28.0205 25.9801 28.0205C25.7541 28.0205 25.5281 27.7897 25.6034 27.482V27.1744H25.5281V27.0205H25.4527L25.3774 26.9436H25.2267V26.8667H25.0007V26.9436H24.85V27.0205H24.6993V27.0974L24.624 27.1744V27.2513H24.5486V27.4051L24.0966 30.1742L23.3432 30.7896L22.8158 30.1742L23.2678 27.4051V27.1744H23.1925V27.0205H23.1171V26.9436H22.9665L22.8911 26.8667H22.7404V26.9436H22.5144V27.0205H22.4391V27.0974H22.3637V27.1744H22.2884V27.2513L22.213 27.3282V27.4051Z" fill="#FEFEFE"/>
<path fill-rule="evenodd" clip-rule="evenodd" d="M26.6631 10.6365L29.8275 14.5594L25.3823 18.4823L22.1426 14.5594L26.6631 10.6365Z" fill="#FEFEFE"/>
</g>
<defs>
<filter id="filter0_d_153_2998" x="0" y="0" width="53.6504" height="55" filterUnits="userSpaceOnUse" color-interpolation-filters="sRGB">
<feFlood flood-opacity="0" result="BackgroundImageFix"/>
<feColorMatrix in="SourceAlpha" type="matrix" values="0 0 0 0 0 0 0 0 0 0 0 0 0 0 0 0 0 0 127 0" result="hardAlpha"/>
<feOffset dy="4"/>
<feGaussianBlur stdDeviation="2"/>
<feComposite in2="hardAlpha" operator="out"/>
<feColorMatrix type="matrix" values="0 0 0 0 0 0 0 0 0 0 0 0 0 0 0 0 0 0 0.25 0"/>
<feBlend mode="normal" in2="BackgroundImageFix" result="effect1_dropShadow_153_2998"/>
<feBlend mode="normal" in="SourceGraphic" in2="effect1_dropShadow_153_2998" result="shape"/>
</filter>
<linearGradient id="paint0_linear_153_2998" x1="43.646" y1="10.3134" x2="2.21379" y2="34.9733" gradientUnits="userSpaceOnUse">
<stop stop-color="#1CE5A1"/>
<stop offset="0.490196" stop-color="#18CE9F"/>
<stop offset="1" stop-color="#13B79C"/>
</linearGradient>
<linearGradient id="paint1_linear_153_2998" x1="28.1949" y1="19.5592" x2="41.3986" y2="50.3857" gradientUnits="userSpaceOnUse">
<stop stop-color="#1CE5A1"/>
<stop offset="0.0784314" stop-color="#1CE5A1"/>
<stop offset="0.960784" stop-color="#2951DB"/>
<stop offset="0.968627" stop-color="#2951DB"/>
<stop offset="0.988235" stop-color="#2951DB"/>
<stop offset="1" stop-color="#2951DB"/>
</linearGradient>
<linearGradient id="paint2_linear_153_2998" x1="42.7755" y1="39.3118" x2="38.9287" y2="36.1443" gradientUnits="userSpaceOnUse">
<stop stop-color="#13C6A3"/>
<stop offset="0.490196" stop-color="#0006AF"/>
<stop offset="0.988235"/>
<stop offset="1"/>
</linearGradient>
<linearGradient id="paint3_linear_153_2998" x1="45.3425" y1="36.1351" x2="41.4574" y2="32.9376" gradientUnits="userSpaceOnUse">
<stop stop-color="#13C6A3"/>
<stop offset="0.490196" stop-color="#0006AF"/>
<stop offset="0.988235"/>
<stop offset="1"/>
</linearGradient>
<linearGradient id="paint4_linear_153_2998" x1="39.8489" y1="42.1734" x2="35.8028" y2="38.8407" gradientUnits="userSpaceOnUse">
<stop stop-color="#13C6A3"/>
<stop offset="0.490196" stop-color="#0006AF"/>
<stop offset="0.988235"/>
<stop offset="1"/>
</linearGradient>
<linearGradient id="paint5_linear_153_2998" x1="36.3947" y1="44.5886" x2="32.0959" y2="41.0534" gradientUnits="userSpaceOnUse">
<stop stop-color="#13C6A3"/>
<stop offset="0.490196" stop-color="#0006AF"/>
<stop offset="0.988235"/>
<stop offset="1"/>
</linearGradient>
<linearGradient id="paint6_linear_153_2998" x1="47.5029" y1="32.6046" x2="43.4033" y2="29.2345" gradientUnits="userSpaceOnUse">
<stop stop-color="#13C6A3"/>
<stop offset="0.490196" stop-color="#0006AF"/>
<stop offset="0.988235"/>
<stop offset="1"/>
</linearGradient>
<linearGradient id="paint7_linear_153_2998" x1="49.1042" y1="28.6124" x2="44.7517" y2="25.0321" gradientUnits="userSpaceOnUse">
<stop stop-color="#13C6A3"/>
<stop offset="0.490196" stop-color="#0006AF"/>
<stop offset="0.988235"/>
<stop offset="1"/>
</linearGradient>
<linearGradient id="paint8_linear_153_2998" x1="50.1433" y1="23.0434" x2="45.354" y2="19.1029" gradientUnits="userSpaceOnUse">
<stop stop-color="#13C6A3"/>
<stop offset="0.490196" stop-color="#0006AF"/>
<stop offset="0.988235"/>
<stop offset="1"/>
</linearGradient>
<linearGradient id="paint9_linear_153_2998" x1="49.7753" y1="17.3514" x2="44.1509" y2="12.7279" gradientUnits="userSpaceOnUse">
<stop stop-color="#13C6A3"/>
<stop offset="0.490196" stop-color="#0006AF"/>
<stop offset="0.988235"/>
<stop offset="1"/>
</linearGradient>
<linearGradient id="paint10_linear_153_2998" x1="31.3814" y1="46.7424" x2="26.6765" y2="42.877" gradientUnits="userSpaceOnUse">
<stop stop-color="#13C6A3"/>
<stop offset="0.490196" stop-color="#0006AF"/>
<stop offset="0.988235"/>
<stop offset="1"/>
</linearGradient>
<linearGradient id="paint11_linear_153_2998" x1="26.1242" y1="47.6192" x2="20.7601" y2="43.2058" gradientUnits="userSpaceOnUse">
<stop stop-color="#13C6A3"/>
<stop offset="0.490196" stop-color="#0006AF"/>
<stop offset="0.988235"/>
<stop offset="1"/>
</linearGradient>
<linearGradient id="paint12_linear_153_2998" x1="32.232" y1="-26.0234" x2="15.7256" y2="78.5995" gradientUnits="userSpaceOnUse">
<stop stop-color="#1CE5A1"/>
<stop offset="0.0784314" stop-color="#1CE5A1"/>
<stop offset="0.960784" stop-color="#2951DB"/>
<stop offset="0.968627" stop-color="#2951DB"/>
<stop offset="0.988235" stop-color="#2951DB"/>
<stop offset="1" stop-color="#2951DB"/>
</linearGradient>
</defs>
</svg>
