<svg width="22" height="22" viewBox="0 0 22 22" fill="none" xmlns="http://www.w3.org/2000/svg">
<g filter="url(#filter0_d_153_3016)">
<path d="M11.9454 13.4196C8.7832 13.4196 6.2207 10.4695 6.2207 6.74006C6.2207 3.06633 8.7832 0.0605469 11.9454 0.0605469C15.1076 0.0605469 17.6701 3.06633 17.6701 6.74006C17.6701 10.4695 15.1076 13.4196 11.9454 13.4196Z" fill="url(#paint0_linear_153_3016)"/>
<path d="M6.22028 6.74006C6.22028 3.34464 8.40113 0.56151 11.2362 0.116209C11.0181 0.116209 10.8001 0.0605469 10.5275 0.0605469C7.36523 0.0605469 4.80273 3.06633 4.80273 6.74006C4.80273 10.4695 7.36523 13.4196 10.5275 13.4196H11.2362C8.40113 12.9743 6.22028 10.1911 6.22028 6.74006Z" fill="url(#paint1_linear_153_3016)"/>
<path d="M6.22028 7.01837H4.80273C4.80273 7.18519 4.85726 7.2964 4.85726 7.46322H6.2748C6.22028 7.2964 6.22028 7.18519 6.22028 7.01837Z" fill="url(#paint2_linear_153_3016)"/>
<path d="M6.27302 5.79382H4.85547V6.29428H6.2185C6.2185 6.12746 6.27302 5.96064 6.27302 5.79382Z" fill="url(#paint3_linear_153_3016)"/>
<path d="M6.32787 8.18732H4.96484C4.96484 8.35413 5.01936 8.52095 5.07389 8.68777H6.43691C6.43691 8.52095 6.38239 8.35413 6.32787 8.18732Z" fill="url(#paint4_linear_153_3016)"/>
<path d="M6.65209 9.41187H5.28906C5.34358 9.57868 5.3981 9.68989 5.45263 9.85671H6.87018C6.81565 9.68989 6.76113 9.57868 6.65209 9.41187Z" fill="url(#paint5_linear_153_3016)"/>
<path d="M6.54612 4.62494H5.12857C5.07405 4.79176 5.01953 4.90297 5.01953 5.06979H6.38256C6.43708 4.95857 6.4916 4.79176 6.54612 4.62494Z" fill="url(#paint6_linear_153_3016)"/>
<path d="M6.9872 3.40027H5.56965C5.51513 3.56709 5.4606 3.7339 5.35156 3.90072H6.76911C6.82363 3.7339 6.93268 3.56709 6.9872 3.40027Z" fill="url(#paint7_linear_153_3016)"/>
<path d="M7.96131 2.00873H6.54376C6.38019 2.11994 6.27115 2.28676 6.16211 2.45357H7.57966C7.6887 2.28676 7.79774 2.11994 7.96131 2.00873Z" fill="url(#paint8_linear_153_3016)"/>
<path d="M9.38218 0.78418H7.96463C7.74655 0.950997 7.47394 1.11781 7.25586 1.28463H8.67341C8.89149 1.11781 9.10958 0.950997 9.38218 0.78418Z" fill="url(#paint9_linear_153_3016)"/>
<path d="M7.41755 10.8035H6L6.32713 11.3039H7.74468L7.41755 10.8035Z" fill="url(#paint10_linear_153_3016)"/>
<path d="M6.98633 12.0281C7.20441 12.1949 7.36798 12.3617 7.58606 12.4729H9.00361C8.78552 12.3617 8.62196 12.1949 8.40388 12.0281H6.98633Z" fill="url(#paint11_linear_153_3016)"/>
<path d="M12.1633 12.2506H12.4359L12.4904 12.195H12.9266V12.1393H13.1446L13.1992 12.0836H13.3627L13.4172 12.028H13.5263L13.5808 11.9723H13.6899V11.9167H13.7989L13.8534 11.861H13.9625V11.8053H14.0715V11.7497H14.1805V11.694H14.2896V11.6383H14.3986V11.5827H14.4531V11.527H14.5622V11.4714H14.6167L14.6712 11.4157H14.7258V11.36H14.7803V11.3044H14.8348L14.8893 11.2487L14.9438 11.193H14.9984V11.1374H15.0529V11.0817H15.1074L15.1619 11.0261L15.2164 10.9704L15.271 10.9147H15.3255V10.8591L15.38 10.8034L15.4345 10.7477L15.489 10.6921L15.5436 10.6364V10.5808H15.5981L15.6526 10.5251V10.4694H15.7071V10.4138H15.7617V10.3581L15.8162 10.3024V10.2468H15.8707V10.1911L15.9252 10.1355L15.9797 10.0798V10.0241H16.0343V9.96846L16.0888 9.9128V9.85714L16.1433 9.80148V9.74581H16.1978V9.63449H16.2523V9.57882L16.3069 9.52316V9.4675L16.3614 9.41184V9.35617L16.4159 9.30051V9.24485L16.4704 9.18919V9.07786L16.525 9.0222V8.96654L16.5795 8.91087V8.79955L16.634 8.74389V8.63256H16.6885V8.46557L16.743 8.40991V8.24292L16.7976 8.18726V7.96461L16.8521 7.90895V7.6863L16.9066 7.63063V7.01834H16.9611V6.74003H16.634V7.57497H16.5795V7.85328L16.525 7.90895V8.1316H16.4704V8.35425H16.4159V8.52123L16.3614 8.5769V8.68822L16.3069 8.74389V8.85521H16.2523V8.96654L16.1978 9.0222V9.07786L16.1433 9.13352V9.24485H16.0888V9.35617H16.0343V9.4675H15.9797V9.52316L15.9252 9.57882V9.63449L15.8707 9.69015V9.74581H15.8162V9.80148L15.7617 9.85714V9.9128H15.7071V9.96846L15.6526 10.0241V10.0798H15.5981V10.1355L15.5436 10.1911L15.489 10.2468V10.3024H15.4345V10.3581H15.38V10.4138H15.3255V10.4694L15.271 10.5251L15.2164 10.5808H15.1619V10.6364L15.1074 10.6921L15.0529 10.7477H14.9984V10.8034H14.9438V10.8591H14.8893V10.9147H14.8348V10.9704H14.7803L14.7258 11.0261H14.6712V11.0817H14.6167V11.1374H14.5622V11.193H14.4531V11.2487H14.3986V11.3044H14.2896V11.36H14.2351L14.1805 11.4157H14.126L14.0715 11.4714H14.017L13.9625 11.527H13.9079V11.5827H13.7989L13.7444 11.6383H13.6353V11.694H13.5263L13.4718 11.7497H13.3627L13.3082 11.8053H13.1446L13.0901 11.861H12.872V11.9167H12.3813L12.3268 11.9723H12.1633V12.2506ZM7.41992 6.74003V7.46365L7.47444 7.51931V7.85328H7.52896V8.07593L7.58349 8.1316V8.29858L7.63801 8.35425V8.52123H7.69253V8.68822L7.74705 8.74389V8.85521L7.80157 8.91087V9.0222H7.85609V9.13352H7.91061V9.24485L7.96513 9.30051V9.35617L8.01965 9.41184V9.4675L8.07418 9.52316V9.57882L8.1287 9.63449V9.69015L8.18322 9.74581V9.80148H8.23774V9.85714L8.29226 9.9128V9.96846L8.34678 10.0241V10.0798H8.4013V10.1355H8.45582V10.1911L8.51034 10.2468V10.3024H8.56487V10.3581L8.61939 10.4138L8.67391 10.4694V10.5251H8.72843V10.5808H8.78295V10.6364H8.83747V10.6921H8.89199V10.7477H8.94651V10.8034H9.00103V10.8591L9.05556 10.9147H9.11008V10.9704L9.1646 11.0261H9.21912V11.0817H9.27364V11.1374H9.32816L9.38268 11.193L9.4372 11.2487H9.49172V11.3044H9.54625L9.60077 11.36L9.65529 11.4157H9.70981V11.4714H9.76433L9.81885 11.527H9.87337V11.5827H9.92789L9.98241 11.6383H10.0369L10.0915 11.694H10.146L10.2005 11.7497H10.255L10.3095 11.8053H10.3641L10.4186 11.861H10.5276V11.9167H10.6367L10.6912 11.9723H10.8002V12.028H10.9638V12.0836H11.1274L11.1819 12.1393H11.4L11.4545 12.195H11.8907V12.2506H12.1633V11.9723H11.9997L11.9452 11.9167H11.509L11.4545 11.861H11.2364V11.8053H11.0183V11.7497H10.8548V11.694H10.6912V11.6383H10.5821V11.5827H10.4731L10.4186 11.527H10.3641L10.3095 11.4714H10.255V11.4157H10.146V11.36H10.0915L10.0369 11.3044H9.98241L9.92789 11.2487H9.87337V11.193H9.81885L9.76433 11.1374L9.70981 11.0817H9.65529V11.0261H9.60077V10.9704H9.49172V10.9147L9.4372 10.8591H9.38268V10.8034H9.32816V10.7477H9.27364V10.6921H9.21912V10.6364H9.1646V10.5808H9.11008V10.5251H9.05556V10.4694H9.00103V10.4138H8.94651V10.3581L8.89199 10.3024L8.83747 10.2468V10.1911H8.78295V10.1355H8.72843V10.0798L8.67391 10.0241V9.96846H8.61939V9.9128L8.56487 9.85714V9.80148H8.51034V9.74581L8.45582 9.69015V9.63449H8.4013V9.52316H8.34678V9.41184H8.29226V9.30051H8.23774V9.18919H8.18322V9.07786H8.1287V8.96654L8.07418 8.91087V8.79955H8.01965V8.68822L7.96513 8.63256V8.46557H7.91061V8.29858H7.85609V8.07593H7.80157V7.79762H7.74705V7.40798H7.69253V6.74003H7.41992ZM12.1633 1.2851H11.8361L11.7816 1.34076H11.4V1.39642H11.1274V1.45208H10.9638L10.9093 1.50775H10.8002L10.7457 1.56341H10.6367V1.61907H10.5276L10.4731 1.67473H10.4186L10.3641 1.7304H10.255V1.78606H10.146V1.84172H10.0369V1.89738H9.98241L9.92789 1.95305H9.87337L9.81885 2.00871L9.76433 2.06437H9.70981V2.12003H9.60077V2.1757H9.54625V2.23136H9.49172L9.4372 2.28702H9.38268V2.34268H9.32816V2.39835H9.27364V2.45401H9.21912V2.50967H9.1646L9.11008 2.56534V2.621H9.05556L9.00103 2.67666L8.94651 2.73232V2.78799H8.89199L8.83747 2.84365V2.89931H8.78295V2.95497H8.72843V3.01064H8.67391V3.0663L8.61939 3.12196L8.56487 3.17762V3.23329H8.51034V3.28895L8.45582 3.34461L8.4013 3.40027V3.45594H8.34678V3.5116L8.29226 3.56726V3.62293L8.23774 3.67859V3.73425H8.18322V3.78991L8.1287 3.84558V3.90124L8.07418 3.9569V4.01256L8.01965 4.06823V4.12389L7.96513 4.17955V4.23521L7.91061 4.29088V4.34654L7.85609 4.4022V4.51353H7.80157V4.62485L7.74705 4.68051V4.79184L7.69253 4.8475V4.95883L7.63801 5.01449V5.18148H7.58349V5.40413L7.52896 5.45979V5.68244H7.47444V6.01642L7.41992 6.07208V6.74003H7.69253V6.12774H7.74705V5.7381H7.80157V5.45979H7.85609V5.23714H7.91061V5.07015L7.96513 5.01449V4.90317L8.01965 4.8475V4.73618H8.07418V4.62485L8.1287 4.56919V4.45786L8.18322 4.4022V4.34654L8.23774 4.29088V4.23521L8.29226 4.17955V4.12389H8.34678V4.01256H8.4013V3.90124H8.45582V3.84558L8.51034 3.78991V3.73425H8.56487V3.67859L8.61939 3.62293V3.56726H8.67391V3.5116L8.72843 3.45594V3.40027H8.78295V3.34461H8.83747V3.28895L8.89199 3.23329V3.17762H8.94651V3.12196H9.00103V3.0663H9.05556V3.01064H9.11008V2.95497H9.1646V2.89931H9.21912V2.84365H9.27364V2.78799H9.32816V2.73232H9.38268V2.67666H9.4372V2.621H9.49172V2.56534H9.54625L9.60077 2.50967L9.65529 2.45401H9.70981L9.76433 2.39835L9.81885 2.34268H9.87337V2.28702H9.92789L9.98241 2.23136H10.0369V2.1757H10.0915L10.146 2.12003H10.2005L10.255 2.06437H10.3095L10.3641 2.00871H10.4186L10.4731 1.95305H10.5821V1.89738H10.6912V1.84172H10.8002L10.8548 1.78606H11.0183V1.7304H11.1819L11.2364 1.67473H11.4545V1.61907H11.8907V1.56341H12.1633V1.2851ZM16.9611 6.74003V6.51738L16.9066 6.46172V5.90509L16.8521 5.84943V5.62678L16.7976 5.57112V5.34847L16.743 5.2928V5.12582L16.6885 5.07015V4.90317H16.634V4.79184L16.5795 4.73618V4.62485L16.525 4.56919V4.51353L16.4704 4.45786V4.34654L16.4159 4.29088V4.23521L16.3614 4.17955V4.12389L16.3069 4.06823V4.01256L16.2523 3.9569V3.90124H16.1978V3.78991H16.1433V3.73425L16.0888 3.67859V3.62293L16.0343 3.56726V3.5116H15.9797V3.45594L15.9252 3.40027V3.34461H15.8707V3.28895H15.8162V3.23329L15.7617 3.17762V3.12196H15.7071V3.0663H15.6526V3.01064L15.5981 2.95497H15.5436V2.89931L15.489 2.84365V2.78799H15.4345L15.38 2.73232V2.67666H15.3255V2.621H15.271L15.2164 2.56534L15.1619 2.50967L15.1074 2.45401H15.0529V2.39835L14.9984 2.34268H14.9438V2.28702H14.8893V2.23136H14.8348L14.7803 2.1757H14.7258V2.12003H14.6712L14.6167 2.06437H14.5622V2.00871H14.5077L14.4531 1.95305H14.3986V1.89738H14.3441L14.2896 1.84172H14.2351L14.1805 1.78606H14.126L14.0715 1.7304H13.9625V1.67473H13.8534V1.61907H13.7444L13.6899 1.56341H13.5808V1.50775H13.4172V1.45208H13.1992V1.39642H12.9811L12.9266 1.34076H12.5449L12.4904 1.2851H12.1633V1.56341H12.4359V1.61907H12.872L12.9266 1.67473H13.1446V1.7304H13.3082L13.3627 1.78606H13.5263V1.84172H13.6353V1.89738H13.7444L13.7989 1.95305H13.9079V2.00871H13.9625L14.017 2.06437H14.126V2.12003H14.2351V2.1757H14.2896L14.3441 2.23136H14.3986V2.28702H14.4531L14.5077 2.34268H14.5622V2.39835H14.6167V2.45401H14.6712L14.7258 2.50967H14.7803V2.56534H14.8348V2.621H14.8893V2.67666H14.9438L14.9984 2.73232L15.0529 2.78799L15.1074 2.84365L15.1619 2.89931L15.2164 2.95497L15.271 3.01064L15.3255 3.0663L15.38 3.12196V3.17762H15.4345V3.23329H15.489V3.28895L15.5436 3.34461L15.5981 3.40027V3.45594H15.6526V3.5116H15.7071V3.62293H15.7617V3.67859L15.8162 3.73425L15.8707 3.78991V3.84558L15.9252 3.90124V3.9569L15.9797 4.01256V4.06823H16.0343V4.17955H16.0888V4.23521L16.1433 4.29088V4.4022H16.1978V4.51353H16.2523V4.68051H16.3069V4.79184L16.3614 4.8475V4.95883L16.4159 5.01449V5.18148H16.4704V5.34847L16.525 5.40413V5.62678H16.5795V5.96075H16.634V6.74003H16.9611Z" fill="url(#paint12_linear_153_3016)"/>
<path d="M12.2155 11.6384H12.8153V11.5828H13.0879L13.1424 11.5271H13.306V11.4714H13.4695V11.4158H13.5786L13.6331 11.3601H13.7421V11.3044H13.8512L13.9057 11.2488H13.9602V11.1931H14.0693V11.1375H14.1783V11.0818H14.2328L14.2873 11.0261H14.3419V10.9705H14.3964L14.4509 10.9148H14.5054V10.8591H14.5599V10.8035H14.669V10.7478H14.7235V10.6922H14.778V10.6365H14.8326V10.5808H14.8871V10.5252H14.9416V10.4695H14.9961L15.0506 10.4138L15.1052 10.3582L15.1597 10.3025V10.2469H15.2142V10.1912H15.2687V10.1355H15.3232V10.0799L15.3778 10.0242V9.96854H15.4323V9.91288H15.4868V9.85722H15.5413V9.74589H15.5958V9.69023H15.6504V9.5789H15.7049V9.52324L15.7594 9.46758V9.41192H15.8139V9.30059H15.8685V9.18926H15.923V9.1336L15.9775 9.07794V8.96661H16.032V8.85529L16.0865 8.79963V8.6883H16.1411V8.52131H16.1956V8.35433H16.2501V8.18734L16.3046 8.13167V7.96469L16.3591 7.90902V7.63071H16.4137V7.12975L16.4682 7.07409V6.79577H16.3591V7.40806L16.3046 7.46372V7.7977H16.2501V8.02035L16.1956 8.07601V8.243H16.1411V8.40999L16.0865 8.46565V8.57698L16.032 8.63264V8.74396H15.9775V8.85529L15.923 8.91095V8.96661L15.8685 9.02228V9.1336H15.8139V9.24493H15.7594V9.30059L15.7049 9.35625V9.41192L15.6504 9.46758V9.52324H15.5958V9.63457H15.5413V9.69023H15.4868V9.74589L15.4323 9.80155V9.85722H15.3778V9.91288L15.3232 9.96854L15.2687 10.0242L15.2142 10.0799V10.1355H15.1597V10.1912H15.1052V10.2469H15.0506V10.3025H14.9961V10.3582H14.9416V10.4138H14.8871V10.4695H14.8326V10.5252H14.778V10.5808H14.7235V10.6365H14.669L14.6145 10.6922L14.5599 10.7478L14.5054 10.8035H14.4509V10.8591H14.3419V10.9148H14.2873V10.9705H14.2328L14.1783 11.0261H14.1238V11.0818H14.0147L13.9602 11.1375H13.9057V11.1931H13.7967V11.2488H13.6876V11.3044H13.524V11.3601H13.415L13.3605 11.4158H13.1969V11.4714H12.9788L12.9243 11.5271H12.6517L12.5972 11.5828H12.2155V11.6384ZM7.96289 6.79577V7.29674L8.01741 7.3524V7.74204H8.07193V8.02035H8.12645V8.18734L8.18098 8.243V8.40999H8.2355V8.57698H8.29002V8.74396H8.34454V8.85529L8.39906 8.91095V8.96661L8.45358 9.02228V9.1336H8.5081V9.18926L8.56262 9.24493V9.30059L8.61714 9.35625V9.41192H8.67167V9.52324H8.72619V9.5789L8.78071 9.63457V9.69023L8.83523 9.74589L8.88975 9.80155V9.85722H8.94427V9.91288L8.99879 9.96854L9.05331 10.0242V10.0799H9.10783V10.1355L9.16236 10.1912L9.21688 10.2469L9.2714 10.3025V10.3582H9.32592V10.4138H9.38044L9.43496 10.4695L9.48948 10.5252L9.544 10.5808L9.59852 10.6365L9.65305 10.6922H9.70757V10.7478H9.76209V10.8035H9.81661L9.87113 10.8591L9.92565 10.9148H9.98017V10.9705H10.0347L10.0892 11.0261H10.1437V11.0818H10.2528V11.1375H10.3073L10.3618 11.1931H10.4163L10.4709 11.2488H10.5254L10.5799 11.3044H10.6344L10.6889 11.3601H10.798V11.4158H10.9616V11.4714H11.0706L11.1251 11.5271H11.2887L11.3432 11.5828H11.5613L11.6158 11.6384H12.2155V11.5828H11.8339L11.7794 11.5271H11.4522V11.4714H11.2342V11.4158H11.0706L11.0161 11.3601H10.907L10.8525 11.3044H10.7435V11.2488H10.6344V11.1931H10.5254L10.4709 11.1375H10.4163V11.0818H10.3073V11.0261H10.1983V10.9705H10.1437L10.0892 10.9148L10.0347 10.8591H9.98017V10.8035H9.92565L9.87113 10.7478H9.81661V10.6922H9.76209V10.6365H9.70757L9.65305 10.5808L9.59852 10.5252L9.544 10.4695L9.48948 10.4138L9.43496 10.3582L9.38044 10.3025L9.32592 10.2469V10.1912H9.2714V10.1355H9.21688V10.0799H9.16236V10.0242H9.10783V9.96854H9.05331V9.85722H8.99879V9.80155H8.94427V9.74589L8.88975 9.69023V9.63457H8.83523V9.5789L8.78071 9.52324V9.46758H8.72619V9.35625H8.67167V9.24493H8.61714V9.18926L8.56262 9.1336V9.02228H8.5081V8.96661L8.45358 8.91095V8.79963H8.39906V8.63264H8.34454V8.52131L8.29002 8.46565V8.29866H8.2355V8.13167L8.18098 8.07601V7.90902L8.12645 7.85336V7.57505L8.07193 7.51939V6.79577H7.96289ZM12.2155 1.89746H11.8339L11.7794 1.95312H11.4522V2.00879H11.2342L11.1796 2.06445H11.0706L11.0161 2.12011H10.907L10.8525 2.17577H10.7435V2.23144H10.6344L10.5799 2.2871H10.5254L10.4709 2.34276H10.4163L10.3618 2.39842H10.3073L10.2528 2.45409H10.1983V2.50975H10.0892V2.56541H10.0347V2.62108H9.98017L9.92565 2.67674H9.87113V2.7324H9.81661V2.78806H9.76209L9.70757 2.84373L9.65305 2.89939H9.59852V2.95505H9.544V3.01071H9.48948V3.06638H9.43496V3.12204H9.38044V3.1777H9.32592V3.23336H9.2714V3.28903H9.21688V3.34469H9.16236V3.40035H9.10783V3.45601L9.05331 3.51168V3.56734H8.99879V3.623H8.94427V3.67866H8.88975V3.78999H8.83523V3.84565H8.78071V3.95698H8.72619V4.01264L8.67167 4.0683V4.12397L8.61714 4.17963V4.23529H8.56262V4.34662H8.5081V4.45794H8.45358V4.56927H8.39906V4.68059H8.34454V4.79192L8.29002 4.84758V4.95891L8.2355 5.01457V5.12589L8.18098 5.18156V5.34854H8.12645V5.51553L8.07193 5.57119V5.79384L8.01741 5.84951V6.23915H7.96289V6.79577H8.01741L8.07193 6.74011V6.0165H8.12645V5.68252H8.18098V5.45987H8.2355V5.29288L8.29002 5.23722V5.07023H8.34454V4.95891L8.39906 4.90324V4.79192L8.45358 4.73625V4.62493H8.5081V4.56927L8.56262 4.5136V4.40228H8.61714V4.29095H8.67167V4.23529L8.72619 4.17963V4.12397H8.78071V4.01264H8.83523V3.95698L8.88975 3.90132V3.84565H8.94427V3.78999L8.99879 3.73433L9.05331 3.67866V3.623H9.10783V3.56734L9.16236 3.51168L9.21688 3.45601L9.2714 3.40035V3.34469H9.32592V3.28903H9.38044V3.23336H9.43496V3.1777H9.48948V3.12204H9.544V3.06638H9.59852V3.01071H9.65305V2.95505H9.70757L9.76209 2.89939L9.81661 2.84373H9.87113V2.78806H9.92565V2.7324H10.0347V2.67674H10.0892V2.62108H10.1437L10.1983 2.56541H10.2528V2.50975H10.3618V2.45409H10.4709V2.39842H10.5799V2.34276H10.6889V2.2871H10.798L10.8525 2.23144H10.9616V2.17577H11.1251V2.12011H11.3432V2.06445H11.6158V2.00879H12.2155V1.89746ZM16.4682 6.79577V6.4618H16.4137V5.96083L16.3591 5.90517V5.62686H16.3046V5.40421H16.2501V5.23722L16.1956 5.18156V5.07023L16.1411 5.01457V4.90324L16.0865 4.84758V4.73625H16.032V4.62493L15.9775 4.56927V4.45794H15.923V4.40228L15.8685 4.34662V4.29095L15.8139 4.23529V4.17963H15.7594V4.0683H15.7049V3.95698H15.6504V3.90132L15.5958 3.84565L15.5413 3.78999V3.73433L15.4868 3.67866L15.4323 3.623V3.56734H15.3778V3.51168H15.3232V3.45601L15.2687 3.40035L15.2142 3.34469V3.28903H15.1597V3.23336H15.1052V3.1777H15.0506V3.12204H14.9961L14.9416 3.06638V3.01071H14.8871V2.95505H14.8326L14.778 2.89939H14.7235V2.84373H14.669V2.78806H14.6145V2.7324H14.5599L14.5054 2.67674H14.4509V2.62108H14.3964L14.3419 2.56541L14.2873 2.50975H14.2328V2.45409H14.1238V2.39842H14.0147V2.34276H13.9057V2.2871H13.7967V2.23144H13.6876V2.17577H13.524V2.12011H13.415L13.3605 2.06445H13.1969V2.00879H12.9788V1.95312H12.5972V1.89746H12.2155V2.00879H12.8153V2.06445H13.0879V2.12011H13.2514L13.306 2.17577H13.4695V2.23144H13.5786L13.6331 2.2871H13.6876L13.7421 2.34276H13.8512V2.39842H13.9602V2.45409H14.0147L14.0693 2.50975H14.1238L14.1783 2.56541H14.2328V2.62108H14.2873L14.3419 2.67674H14.3964V2.7324H14.4509L14.5054 2.78806H14.5599V2.84373H14.6145V2.89939H14.669V2.95505H14.7235L14.778 3.01071L14.8326 3.06638L14.8871 3.12204L14.9416 3.1777L14.9961 3.23336L15.0506 3.28903L15.1052 3.34469L15.1597 3.40035V3.45601H15.2142V3.51168H15.2687V3.56734H15.3232V3.623H15.3778V3.73433H15.4323V3.78999H15.4868V3.84565L15.5413 3.90132V3.95698H15.5958V4.01264L15.6504 4.0683V4.12397H15.7049V4.23529H15.7594V4.29095L15.8139 4.34662V4.40228L15.8685 4.45794V4.56927H15.923V4.68059H15.9775V4.79192L16.032 4.84758V4.95891H16.0865V5.12589H16.1411V5.29288L16.1956 5.34854V5.51553H16.2501V5.73818L16.3046 5.79384V6.12782H16.3591V6.79577H16.4682Z" fill="url(#paint13_linear_153_3016)"/>
<path fill-rule="evenodd" clip-rule="evenodd" d="M11.7243 8.96652C11.7243 9.07785 11.6697 9.18917 11.5607 9.18917C11.4517 9.18917 11.3971 9.07785 11.3971 8.96652V8.24291C11.3971 8.13159 11.2881 8.07592 11.2336 8.07592C11.1245 8.07592 11.0155 8.13159 11.0155 8.24291V8.63255C11.0155 8.68821 10.961 8.79954 10.8519 8.79954C10.7974 8.79954 10.6884 8.68821 10.6884 8.63255V7.46363C10.6884 7.40797 10.6338 7.29665 10.5248 7.29665C10.4158 7.29665 10.3612 7.40797 10.3612 7.46363V8.91086C10.3612 9.02219 10.2522 9.07785 10.1977 9.07785C10.0886 9.07785 10.0341 9.02219 10.0341 8.91086V7.074C10.0341 6.96267 9.92507 6.90701 9.81603 6.90701C9.76151 6.90701 9.65247 6.96267 9.65247 7.074V7.46363C9.65247 7.57496 9.59795 7.63062 9.4889 7.63062C9.37986 7.63062 9.32534 7.57496 9.32534 7.46363V7.074L9.05273 6.79568L10.2522 5.51544L12.2695 7.57496L14.2868 5.51544L15.5407 6.79568L15.2681 7.074V7.46363C15.2681 7.57496 15.1591 7.63062 15.0501 7.63062C14.9955 7.63062 14.8865 7.57496 14.8865 7.46363V7.074C14.8865 6.96267 14.832 6.90701 14.7229 6.90701C14.6139 6.90701 14.5594 6.96267 14.5594 7.074V8.91086C14.5594 9.02219 14.5048 9.07785 14.3958 9.07785C14.2868 9.07785 14.2322 9.02219 14.2322 8.91086V7.46363C14.2322 7.40797 14.1232 7.29665 14.0142 7.29665C13.9596 7.29665 13.8506 7.40797 13.8506 7.46363V8.63255C13.8506 8.68821 13.7961 8.79954 13.687 8.79954C13.578 8.79954 13.5235 8.68821 13.5235 8.63255V8.24291C13.5235 8.13159 13.4689 8.07592 13.3599 8.07592C13.2509 8.07592 13.1963 8.13159 13.1963 8.24291V8.96652C13.1963 9.07785 13.0873 9.18917 13.0328 9.18917C12.9237 9.18917 12.8147 9.07785 12.8147 8.96652V8.8552H12.7602V8.79954H12.5966V8.8552H12.5421V8.91086H12.4876V9.85713L12.2695 10.0798L12.0514 9.85713V8.8552H11.9969V8.79954H11.8333V8.8552H11.7788V8.91086H11.7243V8.96652Z" fill="#FEFEFE"/>
<path fill-rule="evenodd" clip-rule="evenodd" d="M12.2716 3.45593L13.5255 4.73617L12.2716 6.01641L11.0176 4.73617L12.2716 3.45593Z" fill="#FEFEFE"/>
</g>
<defs>
<filter id="filter0_d_153_3016" x="0.802734" y="0.0605469" width="20.8672" height="21.359" filterUnits="userSpaceOnUse" color-interpolation-filters="sRGB">
<feFlood flood-opacity="0" result="BackgroundImageFix"/>
<feColorMatrix in="SourceAlpha" type="matrix" values="0 0 0 0 0 0 0 0 0 0 0 0 0 0 0 0 0 0 127 0" result="hardAlpha"/>
<feOffset dy="4"/>
<feGaussianBlur stdDeviation="2"/>
<feComposite in2="hardAlpha" operator="out"/>
<feColorMatrix type="matrix" values="0 0 0 0 0 0 0 0 0 0 0 0 0 0 0 0 0 0 0.25 0"/>
<feBlend mode="normal" in2="BackgroundImageFix" result="effect1_dropShadow_153_3016"/>
<feBlend mode="normal" in="SourceGraphic" in2="effect1_dropShadow_153_3016" result="shape"/>
</filter>
<linearGradient id="paint0_linear_153_3016" x1="9.92214" y1="0.636098" x2="14.5443" y2="14.0216" gradientUnits="userSpaceOnUse">
<stop stop-color="#1CE5A1"/>
<stop offset="0.490196" stop-color="#18CE9F"/>
<stop offset="1" stop-color="#13B79C"/>
</linearGradient>
<linearGradient id="paint1_linear_153_3016" x1="9.9299" y1="5.76819" x2="1.3628" y2="10.0824" gradientUnits="userSpaceOnUse">
<stop stop-color="#1CE5A1"/>
<stop offset="0.0784314" stop-color="#1CE5A1"/>
<stop offset="0.960784" stop-color="#2951DB"/>
<stop offset="0.968627" stop-color="#2951DB"/>
<stop offset="0.988235" stop-color="#2951DB"/>
<stop offset="1" stop-color="#2951DB"/>
</linearGradient>
<linearGradient id="paint2_linear_153_3016" x1="4.82127" y1="7.24024" x2="6.25245" y2="7.24024" gradientUnits="userSpaceOnUse">
<stop stop-color="#13C6A3"/>
<stop offset="0.490196" stop-color="#0006AF"/>
<stop offset="0.988235"/>
<stop offset="1"/>
</linearGradient>
<linearGradient id="paint3_linear_153_3016" x1="4.8293" y1="6.04627" x2="6.27465" y2="6.04627" gradientUnits="userSpaceOnUse">
<stop stop-color="#13C6A3"/>
<stop offset="0.490196" stop-color="#0006AF"/>
<stop offset="0.988235"/>
<stop offset="1"/>
</linearGradient>
<linearGradient id="paint4_linear_153_3016" x1="4.9474" y1="8.43365" x2="6.45545" y2="8.43365" gradientUnits="userSpaceOnUse">
<stop stop-color="#13C6A3"/>
<stop offset="0.490196" stop-color="#0006AF"/>
<stop offset="0.988235"/>
<stop offset="1"/>
</linearGradient>
<linearGradient id="paint5_linear_153_3016" x1="5.27053" y1="9.62706" x2="6.87018" y2="9.62706" gradientUnits="userSpaceOnUse">
<stop stop-color="#13C6A3"/>
<stop offset="0.490196" stop-color="#0006AF"/>
<stop offset="0.988235"/>
<stop offset="1"/>
</linearGradient>
<linearGradient id="paint6_linear_153_3016" x1="4.99445" y1="4.85292" x2="6.51941" y2="4.85292" gradientUnits="userSpaceOnUse">
<stop stop-color="#13C6A3"/>
<stop offset="0.490196" stop-color="#0006AF"/>
<stop offset="0.988235"/>
<stop offset="1"/>
</linearGradient>
<linearGradient id="paint7_linear_153_3016" x1="5.37119" y1="3.65995" x2="6.98992" y2="3.65995" gradientUnits="userSpaceOnUse">
<stop stop-color="#13C6A3"/>
<stop offset="0.490196" stop-color="#0006AF"/>
<stop offset="0.988235"/>
<stop offset="1"/>
</linearGradient>
<linearGradient id="paint8_linear_153_3016" x1="6.15339" y1="2.22781" x2="7.93677" y2="2.22781" gradientUnits="userSpaceOnUse">
<stop stop-color="#13C6A3"/>
<stop offset="0.490196" stop-color="#0006AF"/>
<stop offset="0.988235"/>
<stop offset="1"/>
</linearGradient>
<linearGradient id="paint9_linear_153_3016" x1="7.27712" y1="1.03385" x2="9.37019" y2="1.03385" gradientUnits="userSpaceOnUse">
<stop stop-color="#13C6A3"/>
<stop offset="0.490196" stop-color="#0006AF"/>
<stop offset="0.988235"/>
<stop offset="1"/>
</linearGradient>
<linearGradient id="paint10_linear_153_3016" x1="5.99182" y1="11.0593" x2="7.74031" y2="11.0593" gradientUnits="userSpaceOnUse">
<stop stop-color="#13C6A3"/>
<stop offset="0.490196" stop-color="#0006AF"/>
<stop offset="0.988235"/>
<stop offset="1"/>
</linearGradient>
<linearGradient id="paint11_linear_153_3016" x1="7.00541" y1="12.2527" x2="9.00252" y2="12.2527" gradientUnits="userSpaceOnUse">
<stop stop-color="#13C6A3"/>
<stop offset="0.490196" stop-color="#0006AF"/>
<stop offset="0.988235"/>
<stop offset="1"/>
</linearGradient>
<linearGradient id="paint12_linear_153_3016" x1="15.9029" y1="0.48745" x2="8.21515" y2="12.9014" gradientUnits="userSpaceOnUse">
<stop stop-color="#13C6A3"/>
<stop offset="0.490196" stop-color="#0006AF"/>
<stop offset="0.988235" stop-color="#000069"/>
<stop offset="1" stop-color="#000069"/>
</linearGradient>
<linearGradient id="paint13_linear_153_3016" x1="15.5337" y1="1.18275" x2="8.67699" y2="12.2561" gradientUnits="userSpaceOnUse">
<stop stop-color="#13C6A3"/>
<stop offset="0.490196" stop-color="#0006AF"/>
<stop offset="0.988235" stop-color="#000069"/>
<stop offset="1" stop-color="#000069"/>
</linearGradient>
</defs>
</svg>
