<svg width="128" height="132" viewBox="0 0 128 132" fill="none" xmlns="http://www.w3.org/2000/svg">
<g filter="url(#filter0_d_153_2962)">
<path d="M20.9509 103.475C-0.956926 84.753 -1.76833 48.9665 19.3281 23.4521C40.2623 -2.06236 74.9904 -7.69541 96.8982 11.1919C118.806 29.9135 119.455 65.7 98.521 91.2144C77.4246 116.729 42.6965 122.362 20.9509 103.475Z" fill="url(#paint0_linear_153_2962)"/>
<path d="M98.514 91.2146C79.0403 114.907 47.8825 121.368 25.9746 107.285C27.4351 108.942 28.8957 110.433 30.5185 111.924C52.4263 130.646 87.1544 125.179 108.251 99.6642C129.185 74.1497 128.374 38.1976 106.628 19.4759C105.005 17.9848 103.22 16.8251 101.435 15.6653C118.799 35.2154 117.825 67.6883 98.514 91.2146Z" fill="url(#paint1_linear_153_2962)"/>
<path d="M97.0734 92.8713C96.262 94.0311 95.2883 95.0252 94.1523 96.0192L103.889 104.303L106.81 101.321L97.0734 92.8713Z" fill="url(#paint2_linear_153_2962)" fill-opacity="0.501961"/>
<path d="M103.544 84.4218L101.109 87.9011L110.846 96.185L113.28 92.7057L103.544 84.4218Z" fill="url(#paint3_linear_153_2962)" fill-opacity="0.501961"/>
<path d="M89.443 100.493C88.3071 101.321 87.1711 102.315 86.0352 103.143L95.772 111.427C96.908 110.599 98.0439 109.605 99.1799 108.776L89.443 100.493Z" fill="url(#paint4_linear_153_2962)" fill-opacity="0.501961"/>
<path d="M80.348 106.788C79.0498 107.451 77.7515 108.279 76.291 108.942L86.0278 117.226C87.4884 116.563 88.7866 115.9 90.0849 115.072L80.348 106.788Z" fill="url(#paint5_linear_153_2962)" fill-opacity="0.501961"/>
<path d="M108.594 74.6467C108.107 75.9721 107.458 77.2975 106.809 78.6229L116.545 87.0725C117.195 85.7471 117.681 84.256 118.331 82.9306L108.594 74.6467Z" fill="url(#paint6_linear_153_2962)" fill-opacity="0.501961"/>
<path d="M112.163 63.7121C111.839 65.2032 111.514 66.6943 111.027 68.1854L120.764 76.635C121.089 74.9782 121.576 73.4871 121.9 71.996L112.163 63.7121Z" fill="url(#paint7_linear_153_2962)" fill-opacity="0.501961"/>
<path d="M113.789 48.1382C113.789 49.9606 113.789 51.7831 113.627 53.6056L123.364 62.0551C123.526 60.067 123.526 58.2446 123.526 56.4221L113.789 48.1382Z" fill="url(#paint8_linear_153_2962)" fill-opacity="0.501961"/>
<path d="M110.688 31.4047C111.499 33.7242 112.148 36.2094 112.635 38.6946L122.372 47.1441C121.885 44.4933 121.236 42.1738 120.424 39.6886L110.688 31.4047Z" fill="url(#paint9_linear_153_2962)" fill-opacity="0.501961"/>
<path d="M67.3707 112.422C65.5856 112.919 63.9628 113.25 62.1777 113.581L71.9146 122.031C73.5374 121.699 75.3225 121.202 76.9453 120.705L67.3707 112.422Z" fill="url(#paint10_linear_153_2962)" fill-opacity="0.501961"/>
<path d="M53.5716 114.575C51.2997 114.741 49.0278 114.741 46.7559 114.409L56.4927 122.693C58.6023 123.025 60.8743 123.025 63.3085 123.025L53.5716 114.575Z" fill="url(#paint11_linear_153_2962)" fill-opacity="0.501961"/>
<path d="M28.0923 94.3624C27.2809 93.534 27.2809 92.3743 27.93 91.3802C28.7415 90.5518 30.202 90.3861 31.0134 91.2145C31.9871 92.0429 33.123 92.8713 34.259 93.534C35.2327 94.3624 35.395 95.5221 34.7458 96.5162C34.0967 97.5103 32.7985 97.8416 31.8248 97.1789C30.6888 96.3505 29.3906 95.5221 28.2546 94.5281L28.0923 94.3624ZM20.3029 84.5874C19.9783 84.4217 19.816 84.256 19.816 83.9247C19.0046 82.5993 18.3555 81.2738 17.8687 79.9484C17.3818 78.7887 17.8687 77.4632 19.0046 77.1319C19.9783 76.6348 21.2765 77.1319 21.7634 78.2916C22.2502 79.4514 22.7371 80.6111 23.3862 81.7709C24.0353 82.9306 23.7108 84.256 22.5748 84.7531C21.7634 85.2501 20.952 85.0844 20.3029 84.5874ZM43.1844 101.984C42.5353 101.487 42.2107 100.658 42.373 99.8298C42.6976 98.67 43.8335 98.0073 44.9695 98.3387C46.2677 98.67 47.566 98.8357 48.8642 99.0014C50.0002 99.1671 50.8116 100.161 50.6493 101.321C50.6493 102.646 49.5134 103.475 48.3774 103.309C46.9169 103.143 45.4563 102.812 43.9958 102.481C43.6713 102.481 43.3467 102.315 43.1844 101.984ZM15.4344 68.3509C15.1099 68.0196 14.7853 67.3569 14.7853 66.8598C14.623 65.3687 14.623 63.8776 14.623 62.3865C14.623 61.2268 15.5967 60.2327 16.7327 60.2327C17.8687 60.2327 18.8423 61.2268 18.8423 62.3865C18.8423 63.7119 18.8423 65.203 19.0046 66.5285C19.0046 67.6882 18.1932 68.6823 17.0573 68.848C16.4081 68.848 15.9213 68.6823 15.4344 68.3509ZM59.737 102.315C59.4125 101.984 59.0879 101.652 59.0879 100.99C58.7634 99.8298 59.5748 98.8357 60.7107 98.5044C62.009 98.3387 63.3072 98.0073 64.6054 97.676C65.7414 97.3446 66.8774 98.0073 67.2019 99.1671C67.5265 100.161 66.8774 101.487 65.7414 101.818C64.2809 102.149 62.9826 102.481 61.5221 102.812C60.873 102.978 60.2239 102.646 59.737 102.315ZM17.2195 51.4518C16.5704 50.9547 16.4081 49.9607 16.5704 49.1323C17.0573 47.8068 17.5441 46.3157 18.0309 44.9903C18.3555 43.8306 19.6537 43.3335 20.7897 43.6649C21.7634 44.1619 22.4125 45.3217 21.9257 46.4814C21.4388 47.8068 20.952 49.1323 20.6274 50.292C20.3029 51.4518 19.1669 52.1145 18.0309 51.7831C17.7064 51.7831 17.5441 51.6174 17.2195 51.4518ZM75.316 96.1849L74.8291 95.6878C74.18 94.6938 74.5046 93.3683 75.6405 92.7056C76.7765 92.0429 77.7502 91.2145 78.8861 90.3861C79.8598 89.7234 81.1581 89.8891 81.8072 90.8832C82.4563 91.8772 82.294 93.2027 81.3203 93.8654C80.1844 94.8594 79.0484 95.6878 77.7502 96.3505C76.9388 96.8476 75.9651 96.8476 75.316 96.1849ZM24.5222 36.2094C23.7108 35.381 23.5485 34.2212 24.1976 33.2272C25.009 32.0674 25.9827 30.9077 26.7941 29.9136L26.9564 29.7479C27.6055 28.7538 28.9037 28.7538 29.8774 29.5822C30.6888 30.245 30.8511 31.7361 30.0397 32.5644C29.2283 33.5585 28.4169 34.7183 27.6055 35.7123C26.9564 36.7064 25.6581 36.8721 24.6844 36.2094H24.5222ZM87.9738 85.0844C87.0002 84.256 87.0002 82.9306 87.6493 82.1022C88.623 80.9425 89.4344 79.9484 90.0835 78.7887C90.8949 77.7946 92.1931 77.6289 93.0045 78.2916C93.9782 78.9543 94.3028 80.4454 93.6537 81.2738C92.68 82.5993 91.8686 83.759 90.8949 84.7531V84.9187C90.0835 85.7471 88.7852 85.9128 87.9738 85.0844ZM36.3686 24.1149C36.2064 23.9492 36.0441 23.7835 36.0441 23.6178C35.2327 22.7894 35.5572 21.2983 36.5309 20.6356C37.6669 19.8072 38.8028 18.9788 40.1011 18.1504C41.0748 17.6534 42.373 17.9848 43.0221 18.9788C43.6713 19.9729 43.3467 21.2983 42.2107 21.961C41.0748 22.6238 39.9388 23.4521 38.9651 24.1149C38.1537 24.7776 37.0178 24.6119 36.3686 24.1149ZM96.4124 70.5047C95.7633 70.0077 95.601 69.0136 95.9256 68.0196C96.4124 66.8598 96.737 65.5344 97.2238 64.209C97.5484 63.0492 98.6844 62.3865 99.8203 62.7179C100.956 63.0492 101.605 64.209 101.119 65.3687C100.794 66.8598 100.307 68.1853 99.8203 69.6764C99.3335 70.6704 98.1975 71.3331 97.0616 70.8361C96.8993 70.8361 96.5747 70.6704 96.4124 70.5047ZM51.2984 16.6593C50.9739 16.328 50.8116 15.9966 50.6493 15.4996C50.3248 14.3398 50.9739 13.1801 52.1098 12.8487C53.4081 12.5174 54.8686 12.186 56.3291 11.8547C57.4651 11.689 58.6011 12.3517 58.7634 13.5115C59.0879 14.8369 58.2765 15.8309 57.1405 16.1623C55.8423 16.328 54.5441 16.6593 53.2458 16.9907C52.5967 17.1564 51.7853 16.9907 51.2984 16.6593ZM99.658 53.7713C99.1712 53.4399 99.0089 52.7772 99.0089 52.1145C99.0089 50.789 99.0089 49.4636 98.8466 48.1382C98.6844 46.9784 99.658 45.8187 100.794 45.8187C101.93 45.653 102.904 46.4814 103.066 47.8068C103.228 49.1323 103.228 50.789 103.228 52.2801C103.228 53.4399 102.255 54.434 101.119 54.2683C100.469 54.2683 100.145 54.1026 99.658 53.7713ZM67.8511 15.1682C67.3642 14.6712 67.0397 14.0085 67.2019 13.3458C67.2019 12.186 68.3379 11.192 69.4739 11.3576C70.9344 11.5233 72.3949 11.8547 73.8554 12.186C74.9914 12.5174 75.6405 13.6771 75.4782 14.8369C75.1537 15.9966 74.0177 16.6593 72.8818 16.328C71.5835 16.1623 70.2853 15.8309 68.987 15.6653C68.5002 15.6653 68.1756 15.4996 67.8511 15.1682ZM96.5747 37.2034C96.4124 36.8721 96.0879 36.7064 96.0879 36.375C95.4388 35.0496 94.9519 33.8899 94.3028 32.7301C93.6537 31.7361 94.1405 30.4106 95.1142 29.7479C96.0879 29.2509 97.3861 29.5822 98.0352 30.5763C98.6844 31.9017 99.3335 33.2272 99.9826 34.7183C100.307 35.7123 99.8203 37.0378 98.8466 37.5348C98.0352 37.8661 97.2238 37.7005 96.5747 37.2034ZM83.43 20.967C82.6186 20.3043 82.4563 18.9788 83.1054 18.1504C83.7546 17.1564 85.0528 16.825 86.0265 17.4877C87.1624 18.3161 88.2984 19.1445 89.4344 20.1386L89.5966 20.3043C90.4081 20.967 90.5703 22.2924 89.7589 23.2865C88.9475 24.1149 87.6493 24.2805 86.6756 23.4521C85.7019 22.6238 84.7282 21.7954 83.5923 21.1327C83.5923 21.1327 83.5923 20.967 83.43 20.967Z" fill="url(#paint12_linear_153_2962)"/>
<path fill-rule="evenodd" clip-rule="evenodd" d="M51.6211 71.8301C51.4588 72.6584 50.8097 73.3212 49.9983 73.3212C49.3491 73.3212 48.7 72.6584 48.8623 71.8301L49.3491 68.8478L49.6737 67.3567L49.836 65.8656C49.9983 65.2029 49.5114 64.5402 48.7 64.5402C48.0509 64.5402 47.2395 65.2029 47.0772 65.8656L46.5904 68.8478C46.5904 69.6762 45.779 70.1733 45.1299 70.1733C44.3184 70.1733 43.8316 69.6762 43.8316 68.8478L44.9676 62.2207L45.1299 61.2267L45.4544 59.9012C45.4544 59.0728 44.9676 58.4101 44.1562 58.4101C43.507 58.4101 42.6956 59.0728 42.6956 59.9012L41.8842 64.8716L40.7483 71.333C40.586 72.1614 39.9369 72.8241 39.1255 72.8241C38.3141 72.8241 37.8272 72.1614 37.9895 71.333L39.45 62.055L40.2614 57.5817L40.4237 56.7533C40.586 55.925 40.0992 55.2622 39.2878 55.2622C38.4764 55.2622 37.8272 55.925 37.6649 56.7533L37.1781 59.2385V59.7355C37.0158 60.5639 36.3667 61.2267 35.5553 61.2267C34.7439 61.2267 34.2571 60.5639 34.4193 59.7355L34.9062 56.422L33.1211 54.2682L44.4807 44.1618L57.95 60.7296L76.6123 44.1618L84.8886 54.2682L82.1298 56.422L81.643 59.7355C81.4807 60.5639 80.8316 61.2267 80.0202 61.2267C79.371 61.2267 78.7219 60.5639 78.8842 59.7355L79.0465 59.2385L79.371 56.7533C79.5333 55.925 79.0465 55.2622 78.2351 55.2622C77.586 55.2622 76.7746 55.925 76.6123 56.7533L76.45 57.5817L75.8009 62.055L74.3403 71.333C74.1781 72.1614 73.3667 72.8241 72.7175 72.8241C71.9061 72.8241 71.4193 72.1614 71.5816 71.333L72.5553 64.8716L73.3667 59.9012C73.5289 59.0728 73.0421 58.4101 72.2307 58.4101C71.5816 58.4101 70.7702 59.0728 70.6079 59.9012L70.4456 61.2267L70.2833 62.2207L69.1474 68.8478C69.1474 69.6762 68.336 70.1733 67.5246 70.1733C66.8754 70.1733 66.3886 69.6762 66.3886 68.8478L66.8754 65.8656C67.0377 65.2029 66.5509 64.5402 65.7395 64.5402C65.0904 64.5402 64.279 65.2029 64.1167 65.8656L63.9544 67.3567L63.6298 68.8478L63.143 71.8301C63.143 72.6584 62.3316 73.3212 61.5202 73.3212C60.8711 73.3212 60.3842 72.6584 60.3842 71.8301H60.5465V71.333H60.3842V70.836H60.2219V70.6703H59.8974V70.5046H59.5728V70.339H59.086V70.5046H58.5991V70.6703H58.4369V70.836H58.2746C58.1123 70.836 58.1123 71.0017 58.1123 71.0017L57.95 71.1673V71.333H57.7877V71.8301L56.4895 78.9542L54.5421 80.611L53.2439 78.9542L54.3798 71.8301V71.0017H54.2176V70.836H54.0553V70.6703H53.893V70.5046H53.5684L53.4062 70.339H53.0816V70.5046H52.5948V70.6703H52.2702V70.836H52.1079V71.0017H51.9456V71.1673L51.7834 71.333V71.6644H51.6211V71.8301Z" fill="#FEFEFE"/>
<path fill-rule="evenodd" clip-rule="evenodd" d="M63.2936 27.7598L71.5699 38.0318L59.8857 48.3039L51.6094 38.0318L63.2936 27.7598Z" fill="#FEFEFE"/>
</g>
<defs>
<filter id="filter0_d_153_2962" x="0" y="0" width="127.525" height="131.045" filterUnits="userSpaceOnUse" color-interpolation-filters="sRGB">
<feFlood flood-opacity="0" result="BackgroundImageFix"/>
<feColorMatrix in="SourceAlpha" type="matrix" values="0 0 0 0 0 0 0 0 0 0 0 0 0 0 0 0 0 0 127 0" result="hardAlpha"/>
<feOffset dy="4"/>
<feGaussianBlur stdDeviation="2"/>
<feComposite in2="hardAlpha" operator="out"/>
<feColorMatrix type="matrix" values="0 0 0 0 0 0 0 0 0 0 0 0 0 0 0 0 0 0 0.25 0"/>
<feBlend mode="normal" in2="BackgroundImageFix" result="effect1_dropShadow_153_2962"/>
<feBlend mode="normal" in="SourceGraphic" in2="effect1_dropShadow_153_2962" result="shape"/>
</filter>
<linearGradient id="paint0_linear_153_2962" x1="107.755" y1="27.0075" x2="-0.683531" y2="91.5511" gradientUnits="userSpaceOnUse">
<stop stop-color="#1CE5A1"/>
<stop offset="0.490196" stop-color="#18CE9F"/>
<stop offset="1" stop-color="#13B79C"/>
</linearGradient>
<linearGradient id="paint1_linear_153_2962" x1="67.2912" y1="51.2083" x2="101.849" y2="131.871" gradientUnits="userSpaceOnUse">
<stop stop-color="#1CE5A1"/>
<stop offset="0.0784314" stop-color="#1CE5A1"/>
<stop offset="0.960784" stop-color="#2951DB"/>
<stop offset="0.968627" stop-color="#2951DB"/>
<stop offset="0.988235" stop-color="#2951DB"/>
<stop offset="1" stop-color="#2951DB"/>
</linearGradient>
<linearGradient id="paint2_linear_153_2962" x1="105.48" y1="102.9" x2="95.4114" y2="94.6209" gradientUnits="userSpaceOnUse">
<stop stop-color="#13C6A3"/>
<stop offset="0.490196" stop-color="#0006AF"/>
<stop offset="0.988235"/>
<stop offset="1"/>
</linearGradient>
<linearGradient id="paint3_linear_153_2962" x1="112.161" y1="94.5829" x2="102.01" y2="86.2229" gradientUnits="userSpaceOnUse">
<stop stop-color="#13C6A3"/>
<stop offset="0.490196" stop-color="#0006AF"/>
<stop offset="0.988235"/>
<stop offset="1"/>
</linearGradient>
<linearGradient id="paint4_linear_153_2962" x1="97.8005" y1="110.385" x2="87.204" y2="101.663" gradientUnits="userSpaceOnUse">
<stop stop-color="#13C6A3"/>
<stop offset="0.490196" stop-color="#0006AF"/>
<stop offset="0.988235"/>
<stop offset="1"/>
</linearGradient>
<linearGradient id="paint5_linear_153_2962" x1="88.7542" y1="116.702" x2="77.5141" y2="107.455" gradientUnits="userSpaceOnUse">
<stop stop-color="#13C6A3"/>
<stop offset="0.490196" stop-color="#0006AF"/>
<stop offset="0.988235"/>
<stop offset="1"/>
</linearGradient>
<linearGradient id="paint6_linear_153_2962" x1="117.827" y1="85.3561" x2="107.099" y2="76.5356" gradientUnits="userSpaceOnUse">
<stop stop-color="#13C6A3"/>
<stop offset="0.490196" stop-color="#0006AF"/>
<stop offset="0.988235"/>
<stop offset="1"/>
</linearGradient>
<linearGradient id="paint7_linear_153_2962" x1="122.046" y1="74.9037" x2="110.658" y2="65.5384" gradientUnits="userSpaceOnUse">
<stop stop-color="#13C6A3"/>
<stop offset="0.490196" stop-color="#0006AF"/>
<stop offset="0.988235"/>
<stop offset="1"/>
</linearGradient>
<linearGradient id="paint8_linear_153_2962" x1="124.759" y1="60.3238" x2="112.216" y2="50.0079" gradientUnits="userSpaceOnUse">
<stop stop-color="#13C6A3"/>
<stop offset="0.490196" stop-color="#0006AF"/>
<stop offset="0.988235"/>
<stop offset="1"/>
</linearGradient>
<linearGradient id="paint9_linear_153_2962" x1="123.767" y1="45.4294" x2="109.045" y2="33.3272" gradientUnits="userSpaceOnUse">
<stop stop-color="#13C6A3"/>
<stop offset="0.490196" stop-color="#0006AF"/>
<stop offset="0.988235"/>
<stop offset="1"/>
</linearGradient>
<linearGradient id="paint10_linear_153_2962" x1="75.647" y1="122.351" x2="63.3507" y2="112.235" gradientUnits="userSpaceOnUse">
<stop stop-color="#13C6A3"/>
<stop offset="0.490196" stop-color="#0006AF"/>
<stop offset="0.988235"/>
<stop offset="1"/>
</linearGradient>
<linearGradient id="paint11_linear_153_2962" x1="61.8804" y1="124.633" x2="47.8347" y2="113.087" gradientUnits="userSpaceOnUse">
<stop stop-color="#13C6A3"/>
<stop offset="0.490196" stop-color="#0006AF"/>
<stop offset="0.988235"/>
<stop offset="1"/>
</linearGradient>
<linearGradient id="paint12_linear_153_2962" x1="77.8638" y1="-68.0817" x2="34.6724" y2="205.716" gradientUnits="userSpaceOnUse">
<stop stop-color="#1CE5A1"/>
<stop offset="0.0784314" stop-color="#1CE5A1"/>
<stop offset="0.960784" stop-color="#2951DB"/>
<stop offset="0.968627" stop-color="#2951DB"/>
<stop offset="0.988235" stop-color="#2951DB"/>
<stop offset="1" stop-color="#2951DB"/>
</linearGradient>
</defs>
</svg>
