<svg width="113" height="116" viewBox="0 0 113 116" fill="none" xmlns="http://www.w3.org/2000/svg">
<g filter="url(#filter0_d_189_96)">
<path d="M18.7909 90.289C-0.32527 73.953 -1.03328 42.7268 17.3749 20.4636C35.6415 -1.79955 65.9441 -6.71479 85.0603 9.76572C104.176 26.1017 104.743 57.3279 86.4763 79.5911C68.0681 101.854 37.7655 106.769 18.7909 90.289Z" fill="url(#paint0_linear_189_96)"/>
<path d="M86.4696 79.5913C69.4774 100.264 42.29 105.902 23.1738 93.6142C24.4482 95.0598 25.7227 96.3609 27.1387 97.662C46.2548 113.998 76.5575 109.227 94.9657 86.9641C113.232 64.701 112.524 33.3302 93.5497 16.9942C92.1337 15.6931 90.576 14.6812 89.0184 13.6692C104.17 30.728 103.32 59.0629 86.4696 79.5913Z" fill="url(#paint1_linear_189_96)"/>
<path d="M85.2148 81.0369C84.5068 82.0488 83.6572 82.9162 82.666 83.7836L91.1621 91.0119L93.7109 88.4097L85.2148 81.0369Z" fill="url(#paint2_linear_189_96)" fill-opacity="0.501961"/>
<path d="M90.8603 73.6641L88.7363 76.6999L97.2324 83.9282L99.3564 80.8924L90.8603 73.6641Z" fill="url(#paint3_linear_189_96)" fill-opacity="0.501961"/>
<path d="M78.5557 87.687C77.5644 88.4098 76.5732 89.2772 75.582 90.0001L84.0781 97.2284C85.0693 96.5055 86.0605 95.6381 87.0517 94.9153L78.5557 87.687Z" fill="url(#paint4_linear_189_96)" fill-opacity="0.501961"/>
<path d="M70.6201 93.1802C69.4873 93.7584 68.3545 94.4813 67.0801 95.0595L75.5762 102.288C76.8506 101.71 77.9834 101.131 79.1162 100.408L70.6201 93.1802Z" fill="url(#paint5_linear_189_96)" fill-opacity="0.501961"/>
<path d="M95.2666 65.1345C94.8418 66.291 94.2754 67.4476 93.709 68.6041L102.205 75.977C102.771 74.8204 103.196 73.5193 103.763 72.3628L95.2666 65.1345Z" fill="url(#paint6_linear_189_96)" fill-opacity="0.501961"/>
<path d="M98.3818 55.5933C98.0986 56.8944 97.8154 58.1954 97.3906 59.4965L105.887 66.8694C106.17 65.4237 106.595 64.1227 106.878 62.8216L98.3818 55.5933Z" fill="url(#paint7_linear_189_96)" fill-opacity="0.501961"/>
<path d="M99.7998 42.0039C99.7998 43.5941 99.7998 45.1844 99.6582 46.7746L108.154 54.1474C108.296 52.4127 108.296 50.8224 108.296 49.2322L99.7998 42.0039Z" fill="url(#paint8_linear_189_96)" fill-opacity="0.501961"/>
<path d="M97.0938 27.4028C97.8018 29.4268 98.3682 31.5952 98.793 33.7637L107.289 41.1366C106.864 38.8235 106.298 36.7996 105.59 34.6311L97.0938 27.4028Z" fill="url(#paint9_linear_189_96)" fill-opacity="0.501961"/>
<path d="M59.2969 98.0957C57.7393 98.5294 56.3232 98.8185 54.7656 99.1077L63.2617 106.481C64.6777 106.191 66.2353 105.758 67.6513 105.324L59.2969 98.0957Z" fill="url(#paint10_linear_189_96)" fill-opacity="0.501961"/>
<path d="M47.2558 99.9749C45.2734 100.119 43.291 100.119 41.3086 99.8303L49.8047 107.059C51.6455 107.348 53.6279 107.348 55.7519 107.348L47.2558 99.9749Z" fill="url(#paint11_linear_189_96)" fill-opacity="0.501961"/>
<path d="M25.0224 82.3379C24.3144 81.6151 24.3144 80.6031 24.8808 79.7357C25.5888 79.0129 26.8633 78.8683 27.5713 79.5911C28.4209 80.314 29.4121 81.0368 30.4033 81.6151C31.2529 82.3379 31.3945 83.3499 30.8281 84.2173C30.2617 85.0847 29.1289 85.3738 28.2793 84.7955C27.2881 84.0727 26.1552 83.3499 25.164 82.4825L25.0224 82.3379ZM18.2256 73.8085C17.9424 73.6639 17.8008 73.5194 17.8008 73.2302C17.0928 72.0737 16.5264 70.9172 16.1016 69.7607C15.6768 68.7487 16.1016 67.5922 17.0928 67.303C17.9424 66.8693 19.0752 67.303 19.5 68.315C19.9248 69.327 20.3496 70.3389 20.916 71.3509C21.4824 72.3629 21.1992 73.5194 20.208 73.9531C19.5 74.3868 18.792 74.2422 18.2256 73.8085ZM38.1914 88.9879C37.625 88.5542 37.3418 87.8314 37.4834 87.1086C37.7666 86.0966 38.7578 85.5184 39.749 85.8075C40.8818 86.0966 42.0146 86.2412 43.1474 86.3857C44.1386 86.5303 44.8466 87.3977 44.705 88.4097C44.705 89.5662 43.7138 90.289 42.7226 90.1445C41.4482 89.9999 40.1738 89.7108 38.8994 89.4216C38.6162 89.4216 38.333 89.2771 38.1914 88.9879ZM13.9775 59.641C13.6943 59.3519 13.4111 58.7737 13.4111 58.34C13.2695 57.0389 13.2695 55.7378 13.2695 54.4367C13.2695 53.4247 14.1191 52.5573 15.1103 52.5573C16.1016 52.5573 16.9512 53.4247 16.9512 54.4367C16.9512 55.5932 16.9512 56.8943 17.0928 58.0508C17.0928 59.0628 16.3848 59.9302 15.3936 60.0747C14.8271 60.0747 14.4023 59.9302 13.9775 59.641ZM52.6347 89.2771C52.3515 88.9879 52.0683 88.6988 52.0683 88.1205C51.7851 87.1086 52.4931 86.2412 53.4843 85.952C54.6171 85.8075 55.7499 85.5184 56.8827 85.2292C57.8739 84.9401 58.8651 85.5184 59.1483 86.5303C59.4316 87.3977 58.8651 88.5542 57.8739 88.8434C56.5995 89.1325 55.4667 89.4216 54.1923 89.7108C53.6259 89.8553 53.0595 89.5662 52.6347 89.2771ZM15.5352 44.8953C14.9687 44.4616 14.8271 43.5942 14.9687 42.8714C15.3936 41.7149 15.8184 40.4138 16.2432 39.2572C16.5264 38.2453 17.6592 37.8116 18.6504 38.1007C19.5 38.5344 20.0664 39.5464 19.6416 40.5583C19.2168 41.7149 18.792 42.8714 18.5088 43.8834C18.2256 44.8953 17.2344 45.4736 16.2432 45.1844C15.96 45.1844 15.8184 45.0399 15.5352 44.8953ZM66.2284 83.9281L65.8036 83.4944C65.2372 82.627 65.5204 81.4705 66.5116 80.8922C67.5028 80.314 68.3524 79.5911 69.3436 78.8683C70.1933 78.2901 71.3261 78.4346 71.8925 79.302C72.4589 80.1694 72.3173 81.3259 71.4677 81.9042C70.4765 82.7716 69.4852 83.4944 68.3524 84.0727C67.6444 84.5064 66.7948 84.5064 66.2284 83.9281ZM21.9072 31.5952C21.1992 30.8724 21.0576 29.8605 21.624 28.9931C22.332 27.9811 23.1816 26.9691 23.8896 26.1017L24.0312 25.9572C24.5976 25.0898 25.7304 25.0898 26.5801 25.8126C27.2881 26.3909 27.4297 27.692 26.7217 28.4148C26.0136 29.2822 25.3056 30.2942 24.5976 31.1615C24.0312 32.0289 22.8984 32.1735 22.0488 31.5952H21.9072ZM77.2733 74.2422C76.4237 73.5194 76.4237 72.3629 76.9901 71.64C77.8397 70.6281 78.5477 69.7607 79.1141 68.7487C79.8221 67.8813 80.9549 67.7367 81.663 68.315C82.5126 68.8933 82.7958 70.1944 82.2294 70.9172C81.3798 72.0737 80.6717 73.0857 79.8221 73.9531V74.0976C79.1141 74.8205 77.9813 74.965 77.2733 74.2422ZM32.2441 21.0419C32.1025 20.8974 31.9609 20.7528 31.9609 20.6082C31.2529 19.8854 31.5361 18.5843 32.3857 18.006C33.3769 17.2832 34.3681 16.5604 35.5009 15.8376C36.3505 15.4039 37.4834 15.693 38.0498 16.5604C38.6162 17.4278 38.333 18.5843 37.3418 19.1626C36.3505 19.7408 35.3593 20.4637 34.5097 21.0419C33.8017 21.6202 32.8105 21.4756 32.2441 21.0419ZM84.6366 61.5204C84.0702 61.0867 83.9286 60.2193 84.2118 59.3519C84.6366 58.34 84.9198 57.1834 85.3446 56.0269C85.6278 55.0149 86.619 54.4367 87.6102 54.7258C88.6014 55.0149 89.1678 56.0269 88.743 57.0389C88.4598 58.34 88.035 59.4965 87.6102 60.7976C87.1854 61.665 86.1942 62.2432 85.203 61.8095C85.0614 61.8095 84.7782 61.665 84.6366 61.5204ZM45.2714 14.5365C44.9882 14.2473 44.8466 13.9582 44.705 13.5245C44.4218 12.5125 44.9882 11.5006 45.9794 11.2114C47.1122 10.9223 48.3867 10.6332 49.6611 10.344C50.6523 10.1995 51.6435 10.7777 51.7851 11.7897C52.0683 12.9462 51.3603 13.8136 50.3691 14.1028C49.2363 14.2473 48.1035 14.5365 46.9706 14.8256C46.4042 14.9702 45.6962 14.8256 45.2714 14.5365ZM87.4686 46.9192C87.0438 46.6301 86.9022 46.0518 86.9022 45.4736C86.9022 44.3171 86.9022 43.1605 86.7606 42.004C86.619 40.992 87.4686 39.9801 88.4598 39.9801C89.451 39.8355 90.3006 40.5583 90.4422 41.7149C90.5838 42.8714 90.5838 44.3171 90.5838 45.6181C90.5838 46.6301 89.7342 47.4975 88.743 47.3529C88.1766 47.3529 87.8934 47.2084 87.4686 46.9192ZM59.7148 13.2354C59.29 12.8017 59.0067 12.2234 59.1483 11.6451C59.1483 10.6332 60.1396 9.76579 61.1308 9.91035C62.4052 10.0549 63.6796 10.344 64.954 10.6332C65.9452 10.9223 66.5116 11.9343 66.37 12.9462C66.0868 13.9582 65.0956 14.5365 64.1044 14.2473C62.9716 14.1028 61.8388 13.8136 60.706 13.6691C60.2812 13.6691 59.998 13.5245 59.7148 13.2354ZM84.7782 32.4626C84.6366 32.1735 84.3534 32.0289 84.3534 31.7398C83.787 30.5833 83.3622 29.5713 82.7958 28.5594C82.2294 27.692 82.6542 26.5354 83.5038 25.9572C84.3534 25.5235 85.4862 25.8126 86.0526 26.68C86.619 27.8365 87.1854 28.9931 87.7518 30.2942C88.035 31.1615 87.6102 32.3181 86.7606 32.7518C86.0526 33.0409 85.3446 32.8963 84.7782 32.4626ZM73.3085 18.2952C72.6005 17.7169 72.4589 16.5604 73.0253 15.8376C73.5917 14.9702 74.7245 14.681 75.5741 15.2593C76.5653 15.9821 77.5565 16.705 78.5477 17.5723L78.6893 17.7169C79.3973 18.2952 79.5389 19.4517 78.8309 20.3191C78.1229 21.0419 76.9901 21.1865 76.1405 20.4637C75.2909 19.7408 74.4413 19.018 73.4501 18.4397C73.4501 18.4397 73.4501 18.2952 73.3085 18.2952Z" fill="url(#paint12_linear_189_96)"/>
<path fill-rule="evenodd" clip-rule="evenodd" d="M45.5527 62.6767C45.4111 63.3995 44.8447 63.9778 44.1367 63.9778C43.5703 63.9778 43.0039 63.3995 43.1455 62.6767L43.5703 60.0745L43.8535 58.7734L43.9951 57.4723C44.1367 56.8941 43.7119 56.3158 43.0039 56.3158C42.4375 56.3158 41.7295 56.8941 41.5879 57.4723L41.1631 60.0745C41.1631 60.7973 40.4551 61.231 39.8887 61.231C39.1806 61.231 38.7558 60.7973 38.7558 60.0745L39.747 54.2919L39.8887 53.4245L40.1719 52.2679C40.1719 51.5451 39.747 50.9669 39.039 50.9669C38.4726 50.9669 37.7646 51.5451 37.7646 52.2679L37.0566 56.6049L36.0654 62.243C35.9238 62.9658 35.3574 63.5441 34.6494 63.5441C33.9414 63.5441 33.5166 62.9658 33.6582 62.243L34.9326 54.1473L35.6406 50.244L35.7822 49.5212C35.9238 48.7984 35.499 48.2201 34.791 48.2201C34.083 48.2201 33.5166 48.7984 33.375 49.5212L32.9502 51.6897V52.1234C32.8086 52.8462 32.2422 53.4245 31.5342 53.4245C30.8262 53.4245 30.4014 52.8462 30.543 52.1234L30.9678 49.2321L29.4102 47.3527L39.3222 38.5342L51.0752 52.9908L67.3593 38.5342L74.581 47.3527L72.1737 49.2321L71.7489 52.1234C71.6073 52.8462 71.0409 53.4245 70.3329 53.4245C69.7665 53.4245 69.2001 52.8462 69.3417 52.1234L69.4833 51.6897L69.7665 49.5212C69.9081 48.7984 69.4833 48.2201 68.7753 48.2201C68.2089 48.2201 67.5009 48.7984 67.3593 49.5212L67.2177 50.244L66.6513 54.1473L65.3769 62.243C65.2353 62.9658 64.5273 63.5441 63.9609 63.5441C63.2529 63.5441 62.8281 62.9658 62.9697 62.243L63.8193 56.6049L64.5273 52.2679C64.6689 51.5451 64.2441 50.9669 63.5361 50.9669C62.9697 50.9669 62.2617 51.5451 62.1201 52.2679L61.9785 53.4245L61.8368 54.2919L60.8456 60.0745C60.8456 60.7973 60.1376 61.231 59.4296 61.231C58.8632 61.231 58.4384 60.7973 58.4384 60.0745L58.8632 57.4723C59.0048 56.8941 58.58 56.3158 57.872 56.3158C57.3056 56.3158 56.5976 56.8941 56.456 57.4723L56.3144 58.7734L56.0312 60.0745L55.6064 62.6767C55.6064 63.3995 54.8984 63.9778 54.1904 63.9778C53.624 63.9778 53.1992 63.3995 53.1992 62.6767H53.3408V62.243H53.1992V61.8093H53.0576V61.6647H52.7744V61.5202H52.4912V61.3756H52.0664V61.5202H51.6416V61.6647H51.5V61.8093H51.3584C51.2168 61.8093 51.2168 61.9539 51.2168 61.9539L51.0752 62.0984V62.243H50.9335V62.6767L49.8007 68.893L48.1015 70.3387L46.9687 68.893L47.9599 62.6767V61.9539H47.8183V61.8093H47.6767V61.6647H47.5351V61.5202H47.2519L47.1103 61.3756H46.8271V61.5202H46.4023V61.6647H46.1191V61.8093H45.9775V61.9539H45.8359V62.0984L45.6943 62.243V62.5321H45.5527V62.6767Z" fill="#FEFEFE"/>
<path fill-rule="evenodd" clip-rule="evenodd" d="M55.7383 24.2224L62.9599 33.1855L52.7646 42.1486L45.543 33.1855L55.7383 24.2224Z" fill="#FEFEFE"/>
</g>
<defs>
<filter id="filter0_d_189_96" x="0" y="0" width="112.295" height="115.365" filterUnits="userSpaceOnUse" color-interpolation-filters="sRGB">
<feFlood flood-opacity="0" result="BackgroundImageFix"/>
<feColorMatrix in="SourceAlpha" type="matrix" values="0 0 0 0 0 0 0 0 0 0 0 0 0 0 0 0 0 0 127 0" result="hardAlpha"/>
<feOffset dy="4"/>
<feGaussianBlur stdDeviation="2"/>
<feComposite in2="hardAlpha" operator="out"/>
<feColorMatrix type="matrix" values="0 0 0 0 0 0 0 0 0 0 0 0 0 0 0 0 0 0 0.25 0"/>
<feBlend mode="normal" in2="BackgroundImageFix" result="effect1_dropShadow_189_96"/>
<feBlend mode="normal" in="SourceGraphic" in2="effect1_dropShadow_189_96" result="shape"/>
</filter>
<linearGradient id="paint0_linear_189_96" x1="94.5334" y1="23.566" x2="-0.086712" y2="79.8848" gradientUnits="userSpaceOnUse">
<stop stop-color="#E11CE5"/>
<stop offset="0.9999" stop-color="#18CE9F"/>
<stop offset="1" stop-color="#13B79C"/>
</linearGradient>
<linearGradient id="paint1_linear_189_96" x1="59.2255" y1="44.6829" x2="89.3795" y2="115.067" gradientUnits="userSpaceOnUse">
<stop stop-color="#1CE5A1"/>
<stop offset="0.0784314" stop-color="#1CE5A1"/>
<stop offset="0.960784" stop-color="#2951DB"/>
<stop offset="0.968627" stop-color="#2951DB"/>
<stop offset="0.988235" stop-color="#2951DB"/>
<stop offset="1" stop-color="#2951DB"/>
</linearGradient>
<linearGradient id="paint2_linear_189_96" x1="92.5498" y1="89.7874" x2="83.7647" y2="82.5635" gradientUnits="userSpaceOnUse">
<stop stop-color="#13C6A3"/>
<stop offset="0.490196" stop-color="#0006AF"/>
<stop offset="0.988235"/>
<stop offset="1"/>
</linearGradient>
<linearGradient id="paint3_linear_189_96" x1="98.3794" y1="82.5303" x2="89.522" y2="75.2356" gradientUnits="userSpaceOnUse">
<stop stop-color="#13C6A3"/>
<stop offset="0.490196" stop-color="#0006AF"/>
<stop offset="0.988235"/>
<stop offset="1"/>
</linearGradient>
<linearGradient id="paint4_linear_189_96" x1="85.8481" y1="96.319" x2="76.602" y2="88.7084" gradientUnits="userSpaceOnUse">
<stop stop-color="#13C6A3"/>
<stop offset="0.490196" stop-color="#0006AF"/>
<stop offset="0.988235"/>
<stop offset="1"/>
</linearGradient>
<linearGradient id="paint5_linear_189_96" x1="77.9551" y1="101.831" x2="68.1473" y2="93.762" gradientUnits="userSpaceOnUse">
<stop stop-color="#13C6A3"/>
<stop offset="0.490196" stop-color="#0006AF"/>
<stop offset="0.988235"/>
<stop offset="1"/>
</linearGradient>
<linearGradient id="paint6_linear_189_96" x1="103.324" y1="74.4793" x2="93.9626" y2="66.7828" gradientUnits="userSpaceOnUse">
<stop stop-color="#13C6A3"/>
<stop offset="0.490196" stop-color="#0006AF"/>
<stop offset="0.988235"/>
<stop offset="1"/>
</linearGradient>
<linearGradient id="paint7_linear_189_96" x1="107.005" y1="65.3587" x2="97.0681" y2="57.1868" gradientUnits="userSpaceOnUse">
<stop stop-color="#13C6A3"/>
<stop offset="0.490196" stop-color="#0006AF"/>
<stop offset="0.988235"/>
<stop offset="1"/>
</linearGradient>
<linearGradient id="paint8_linear_189_96" x1="109.372" y1="52.6367" x2="98.4266" y2="43.6354" gradientUnits="userSpaceOnUse">
<stop stop-color="#13C6A3"/>
<stop offset="0.490196" stop-color="#0006AF"/>
<stop offset="0.988235"/>
<stop offset="1"/>
</linearGradient>
<linearGradient id="paint9_linear_189_96" x1="108.507" y1="39.6403" x2="95.6605" y2="29.0803" gradientUnits="userSpaceOnUse">
<stop stop-color="#13C6A3"/>
<stop offset="0.490196" stop-color="#0006AF"/>
<stop offset="0.988235"/>
<stop offset="1"/>
</linearGradient>
<linearGradient id="paint10_linear_189_96" x1="66.5185" y1="106.76" x2="55.7891" y2="97.933" gradientUnits="userSpaceOnUse">
<stop stop-color="#13C6A3"/>
<stop offset="0.490196" stop-color="#0006AF"/>
<stop offset="0.988235"/>
<stop offset="1"/>
</linearGradient>
<linearGradient id="paint11_linear_189_96" x1="54.5058" y1="108.751" x2="42.25" y2="98.6767" gradientUnits="userSpaceOnUse">
<stop stop-color="#13C6A3"/>
<stop offset="0.490196" stop-color="#0006AF"/>
<stop offset="0.988235"/>
<stop offset="1"/>
</linearGradient>
<linearGradient id="paint12_linear_189_96" x1="68.4516" y1="-59.4061" x2="30.7641" y2="179.502" gradientUnits="userSpaceOnUse">
<stop stop-color="#1CE5A1"/>
<stop offset="0.0784314" stop-color="#1CE5A1"/>
<stop offset="0.960784" stop-color="#2951DB"/>
<stop offset="0.968627" stop-color="#2951DB"/>
<stop offset="0.988235" stop-color="#2951DB"/>
<stop offset="1" stop-color="#2951DB"/>
</linearGradient>
</defs>
</svg>
