<svg width="42" height="43" viewBox="0 0 42 43" fill="none" xmlns="http://www.w3.org/2000/svg">
<g filter="url(#filter0_d_153_2980)">
<path d="M30.5378 31.6486C24.3891 37.0542 14.5683 35.6592 8.50499 28.5099C2.4417 21.3606 2.5271 11.1598 8.59039 5.75426C14.7391 0.348708 24.6453 1.74369 30.7086 8.89297C36.7719 16.0422 36.6865 26.2431 30.5378 31.6486Z" fill="url(#paint0_linear_153_2980)"/>
<path d="M30.7016 8.89299C36.2525 15.5192 36.6795 24.7609 31.8117 30.3408C32.3241 29.9921 32.8365 29.6433 33.2635 29.2074C39.4122 23.8019 39.4976 13.6882 33.4343 6.45178C27.371 -0.697503 17.4648 -2.09248 11.3161 3.31307L10.0352 4.62086C16.1838 0.523106 25.0653 2.26683 30.7016 8.89299Z" fill="url(#paint1_linear_153_2980)"/>
<path d="M31.0566 9.32892C31.3128 9.67766 31.569 10.0264 31.8252 10.288L34.558 7.93393C34.3018 7.58519 34.0456 7.23644 33.7894 6.97488L31.0566 9.32892Z" fill="url(#paint2_linear_153_2980)" fill-opacity="0.501961"/>
<path d="M28.9961 7.14926C29.3377 7.41082 29.5939 7.67237 29.8501 8.02112L32.5828 5.5799C32.3266 5.31834 32.0704 4.9696 31.7288 4.70804L28.9961 7.14926Z" fill="url(#paint3_linear_153_2980)" fill-opacity="0.501961"/>
<path d="M32.7598 11.8574C33.016 12.2933 33.1868 12.642 33.3576 12.9908L36.0903 10.6367C35.9195 10.2008 35.7487 9.85207 35.4925 9.50333L32.7598 11.8574Z" fill="url(#paint4_linear_153_2980)" fill-opacity="0.501961"/>
<path d="M34.123 14.7345C34.2938 15.1704 34.3792 15.6063 34.55 16.0423L37.2828 13.601C37.112 13.1651 37.0266 12.8164 36.8558 12.3804L34.123 14.7345Z" fill="url(#paint5_linear_153_2980)" fill-opacity="0.501961"/>
<path d="M26.6113 5.23114C26.9529 5.4927 27.2945 5.66707 27.6361 5.92863L30.3689 3.5746C30.0273 3.31304 29.6857 3.05148 29.3441 2.87711L26.6113 5.23114Z" fill="url(#paint6_linear_153_2980)" fill-opacity="0.501961"/>
<path d="M23.7109 3.74905C24.1379 3.92342 24.5649 4.09779 24.9065 4.27217L27.6393 1.83095C27.2977 1.65658 26.8707 1.4822 26.4437 1.30783L23.7109 3.74905Z" fill="url(#paint7_linear_153_2980)" fill-opacity="0.501961"/>
<path d="M19.5215 2.52844C20.0339 2.61563 20.5463 2.70281 21.0587 2.87718L23.7914 0.435967L22.2542 0.174408L19.5215 2.52844Z" fill="url(#paint8_linear_153_2980)" fill-opacity="0.501961"/>
<path d="M14.8262 2.70278C15.5094 2.5284 16.1925 2.44122 16.9611 2.44122L19.6085 0L17.5589 0.261559L14.8262 2.70278Z" fill="url(#paint9_linear_153_2980)" fill-opacity="0.501961"/>
<path d="M35.0586 18.7451C35.144 19.2682 35.144 19.7913 35.2294 20.3144L37.8767 17.8732C37.8767 17.3501 37.8767 16.9141 37.7913 16.391L35.0586 18.7451Z" fill="url(#paint10_linear_153_2980)" fill-opacity="0.501961"/>
<path d="M35.0682 22.8429C34.9828 23.4532 34.8974 24.1507 34.7266 24.761L37.4593 22.3197C37.6301 21.7094 37.7155 21.0991 37.8009 20.4016L35.0682 22.8429Z" fill="url(#paint11_linear_153_2980)" fill-opacity="0.501961"/>
<path d="M28.4037 29.1201C28.1476 29.3817 27.7206 29.2945 27.5498 29.0329C27.2936 28.7714 27.379 28.4226 27.6352 28.1611L28.4037 27.3764C28.6599 27.1148 29.0015 27.1148 29.2577 27.3764C29.5139 27.5508 29.5139 27.9867 29.3431 28.2483C29.0015 28.5098 28.7453 28.8586 28.4037 29.1201ZM25.3294 30.951C25.244 31.0382 25.1586 31.0382 25.1586 31.1254C24.7316 31.2126 24.3046 31.387 23.963 31.4742C23.6214 31.5613 23.2798 31.2998 23.1944 31.0382C23.109 30.6895 23.2798 30.3407 23.6214 30.2535C23.963 30.1664 24.39 30.0792 24.7316 29.9048C24.9878 29.8176 25.3294 29.992 25.5002 30.3407C25.5856 30.5151 25.5002 30.7767 25.3294 30.951ZM31.1365 25.1967C30.9657 25.3711 30.7095 25.3711 30.5387 25.2839C30.1971 25.1967 30.1117 24.848 30.1971 24.4992C30.3679 24.1505 30.4533 23.8018 30.5387 23.453C30.6241 23.1043 30.9657 22.9299 31.3073 23.0171C31.6489 23.1043 31.8197 23.453 31.7343 23.8018C31.6489 24.1505 31.4781 24.5864 31.3073 24.9352C31.3073 25.1095 31.2219 25.1095 31.1365 25.1967ZM20.6325 31.5613C20.5471 31.7357 20.3763 31.7357 20.2055 31.7357C19.7785 31.7357 19.3515 31.6485 18.9245 31.5613C18.6683 31.5613 18.4121 31.2126 18.4975 30.8638C18.4975 30.5151 18.8391 30.3407 19.1807 30.3407C19.5223 30.4279 19.9493 30.5151 20.2909 30.5151C20.6325 30.5151 20.8887 30.8638 20.8033 31.2126C20.8033 31.387 20.7179 31.4742 20.6325 31.5613ZM31.9905 20.4887C31.9051 20.5759 31.7343 20.5759 31.5635 20.5759C31.3073 20.663 30.9657 20.4015 30.9657 20.0527C30.9657 19.6168 30.9657 19.2681 30.8803 18.8321C30.8803 18.5706 31.1365 18.2218 31.3927 18.2218C31.7343 18.1346 32.0759 18.3962 32.0759 18.7449C32.1613 19.1809 32.1613 19.6168 32.1613 19.9656C32.1613 20.1399 32.0759 20.3143 31.9905 20.4887ZM16.1064 30.3407C15.9356 30.5151 15.6794 30.5151 15.4232 30.4279C15.0816 30.2535 14.6546 29.992 14.313 29.8176C14.0568 29.6432 13.9714 29.2945 14.1422 28.9457C14.313 28.6842 14.6546 28.597 14.9108 28.7714L15.9356 29.2945C16.2772 29.4689 16.3626 29.8176 16.1918 30.1664C16.1918 30.1664 16.1064 30.2535 16.1064 30.3407ZM30.9657 15.7806C30.9657 15.7806 30.8803 15.8678 30.7949 15.8678C30.5387 15.955 30.1971 15.8678 30.0263 15.519C29.9409 15.1703 29.7701 14.8216 29.5993 14.4728C29.4285 14.1241 29.5139 13.7753 29.8555 13.6009C30.1117 13.5138 30.5387 13.6009 30.6241 13.8625C30.8803 14.2984 31.0511 14.6472 31.1365 15.0831C31.2219 15.3447 31.2219 15.6062 30.9657 15.7806ZM12.2635 27.5508C12.0073 27.7251 11.6657 27.7251 11.4095 27.4636L10.5555 26.5917C10.3847 26.3302 10.3847 25.9814 10.6409 25.7199C10.8971 25.5455 11.3241 25.5455 11.4949 25.807C11.7511 26.0686 12.0073 26.4173 12.2635 26.6789C12.5196 26.8533 12.5196 27.2892 12.2635 27.4636V27.5508ZM28.4891 11.5957C28.3183 11.8572 27.8914 11.77 27.6352 11.5957C27.4644 11.2469 27.2082 10.9854 26.8666 10.7238C26.6958 10.4622 26.6958 10.1135 26.8666 9.85193C27.1228 9.59038 27.5498 9.59038 27.7206 9.85193C28.0622 10.1135 28.3183 10.4622 28.5745 10.7238C28.8307 10.9854 28.7453 11.4213 28.4891 11.5957ZM9.4453 23.6274C9.35991 23.6274 9.35991 23.7146 9.27451 23.7146C9.01831 23.8889 8.67672 23.7146 8.50592 23.453C8.33512 23.1043 8.16433 22.6683 7.99353 22.3196C7.90813 21.9708 7.99353 21.6221 8.33512 21.5349C8.67672 21.3605 9.01831 21.5349 9.10371 21.7965C9.27451 22.2324 9.4453 22.5811 9.6161 22.9299C9.7015 23.1043 9.6161 23.453 9.4453 23.6274ZM24.9024 8.54414C24.7316 8.71851 24.4754 8.71851 24.2192 8.63133C23.8776 8.36977 23.536 8.19539 23.1944 8.02102C22.9382 7.93384 22.7675 7.4979 22.9382 7.23634C23.109 6.8876 23.4506 6.80041 23.7068 6.97479C24.1338 7.14916 24.4754 7.32353 24.817 7.4979C25.0732 7.67228 25.1586 8.10821 24.9878 8.36977C24.9878 8.45695 24.9878 8.45695 24.9024 8.54414ZM8.07893 19.0065C7.99353 19.0937 7.90813 19.1809 7.73734 19.1809C7.39574 19.1809 7.13955 18.9193 7.05415 18.6578C7.05415 18.2218 6.96875 17.7859 6.96875 17.35C6.96875 17.0012 7.22495 16.7397 7.56654 16.7397C7.90813 16.7397 8.16433 17.0012 8.16433 17.35C8.16433 17.6987 8.24973 18.1346 8.24973 18.4834C8.33512 18.6578 8.24973 18.9193 8.07893 19.0065ZM20.4617 6.8876C20.3763 6.97479 20.2055 6.97479 19.9493 6.97479C19.6077 6.8876 19.2661 6.8876 18.8391 6.80041C18.4975 6.80041 18.2413 6.53885 18.3267 6.19011C18.3267 5.84136 18.5829 5.5798 18.9245 5.5798C19.3515 5.66699 19.7785 5.66699 20.2055 5.75418C20.5471 5.84136 20.7179 6.19011 20.6325 6.45167C20.6325 6.62604 20.5471 6.71323 20.4617 6.8876ZM8.42052 14.2113C8.24973 14.2984 8.07893 14.3856 7.90813 14.2984C7.56654 14.2113 7.39574 13.8625 7.48114 13.6009C7.56654 13.165 7.73734 12.7291 7.90813 12.3803C7.99353 12.0316 8.33512 11.9444 8.67672 12.0316C8.93291 12.1188 9.10371 12.5547 9.01831 12.8163C8.84751 13.165 8.67672 13.5138 8.59132 13.9497C8.59132 14.0369 8.50592 14.1241 8.42052 14.2113ZM15.7648 6.97479C15.6794 7.06197 15.594 7.06197 15.5086 7.14916L14.4838 7.41072C14.1422 7.58509 13.8006 7.41072 13.6298 7.06197C13.5444 6.80041 13.7152 6.45167 14.0568 6.27729C14.3984 6.10292 14.8254 6.01574 15.2524 5.92855C15.5086 5.84136 15.8502 6.01574 15.9356 6.36448C16.021 6.62604 15.9356 6.80041 15.7648 6.97479ZM10.7263 10.0263C10.4701 10.2007 10.1285 10.2007 9.95769 10.0263C9.7015 9.76475 9.7015 9.416 9.8723 9.15444C10.1285 8.8057 10.4701 8.54414 10.7263 8.28258L10.8117 8.19539C11.0679 8.02102 11.4095 8.02102 11.5803 8.28258C11.8365 8.54414 11.8365 8.98007 11.5803 9.15444C11.2387 9.416 10.9825 9.67756 10.7263 9.93912V10.0263Z" fill="url(#paint12_linear_153_2980)"/>
<path fill-rule="evenodd" clip-rule="evenodd" d="M18.4079 23.1915C18.4079 23.4531 18.2371 23.6274 18.0663 23.6274C17.8101 23.6274 17.6393 23.4531 17.6393 23.1915L17.5539 22.4068V21.535C17.5539 21.3606 17.2977 21.1862 17.1269 21.1862C16.8707 21.1862 16.7853 21.3606 16.7853 21.535V22.4068C16.7853 22.5812 16.6999 22.7556 16.4437 22.7556C16.273 22.7556 16.1022 22.5812 16.0168 22.4068L15.9314 20.5759V19.8784C15.9314 19.704 15.6752 19.5297 15.5044 19.5297C15.2482 19.5297 15.1628 19.704 15.1628 19.8784L15.2482 21.2734L15.3336 23.1043C15.3336 23.2787 15.1628 23.4531 14.992 23.4531C14.7358 23.4531 14.565 23.2787 14.565 23.1043L14.3942 20.4887L14.3088 19.2681V19.0066C14.3088 18.745 14.138 18.5706 13.8818 18.5706C13.711 18.5706 13.5402 18.745 13.5402 19.0066L13.6256 19.704V19.8784C13.6256 20.0528 13.4548 20.2272 13.284 20.2272C13.0278 20.2272 12.857 20.0528 12.857 19.8784L12.7716 18.9194L12.1738 18.3091L14.6504 15.5191L19.4327 20.14L23.6172 15.5191L26.5208 18.3091L25.923 18.9194L26.0084 19.8784C26.0084 20.0528 25.8376 20.2272 25.5814 20.2272C25.4106 20.2272 25.2398 20.0528 25.2398 19.8784L25.1544 19.704V19.0066C25.1544 18.745 24.9836 18.5706 24.7274 18.5706C24.5566 18.5706 24.3858 18.745 24.3858 19.0066V19.2681L24.4712 20.4887L24.642 23.1043C24.642 23.2787 24.4712 23.4531 24.3004 23.4531C24.0442 23.4531 23.8734 23.2787 23.8734 23.1043L23.788 21.2734L23.7026 19.8784C23.7026 19.704 23.4464 19.5297 23.2756 19.5297C23.1048 19.5297 22.934 19.704 22.934 19.8784V20.5759L23.1048 22.4068C23.1048 22.5812 22.934 22.7556 22.6778 22.7556C22.507 22.7556 22.3362 22.5812 22.3362 22.4068L22.2508 21.535C22.2508 21.3606 22.08 21.1862 21.8238 21.1862C21.653 21.1862 21.4823 21.3606 21.4823 21.535V21.9709L21.5677 22.4068V23.1915C21.5677 23.4531 21.4823 23.6274 21.2261 23.6274C21.0553 23.6274 20.8845 23.4531 20.7991 23.1915V23.0171H20.7137V22.9299H20.6283V22.8428H20.2013V22.9299H20.1159V23.1043H20.0305V23.1915L20.2013 25.1968L19.7743 25.6327L19.2619 25.1968L19.1765 23.1915V23.1043H19.0911V22.9299H19.0057V22.8428H18.4933V22.9299H18.4079V23.1915Z" fill="#FEFEFE"/>
<path fill-rule="evenodd" clip-rule="evenodd" d="M18.9227 10.9855L21.8263 13.8627L19.2643 16.6526L16.2754 13.8627L18.9227 10.9855Z" fill="#FEFEFE"/>
</g>
<defs>
<filter id="filter0_d_153_2980" x="0" y="0" width="41.9297" height="42.94" filterUnits="userSpaceOnUse" color-interpolation-filters="sRGB">
<feFlood flood-opacity="0" result="BackgroundImageFix"/>
<feColorMatrix in="SourceAlpha" type="matrix" values="0 0 0 0 0 0 0 0 0 0 0 0 0 0 0 0 0 0 127 0" result="hardAlpha"/>
<feOffset dy="4"/>
<feGaussianBlur stdDeviation="2"/>
<feComposite in2="hardAlpha" operator="out"/>
<feColorMatrix type="matrix" values="0 0 0 0 0 0 0 0 0 0 0 0 0 0 0 0 0 0 0.25 0"/>
<feBlend mode="normal" in2="BackgroundImageFix" result="effect1_dropShadow_153_2980"/>
<feBlend mode="normal" in="SourceGraphic" in2="effect1_dropShadow_153_2980" result="shape"/>
</filter>
<linearGradient id="paint0_linear_153_2980" x1="13.4735" y1="3.32874" x2="27.3721" y2="36.8227" gradientUnits="userSpaceOnUse">
<stop stop-color="#1CE5A1"/>
<stop offset="0.490196" stop-color="#18CE9F"/>
<stop offset="1" stop-color="#13B79C"/>
</linearGradient>
<linearGradient id="paint1_linear_153_2980" x1="18.6792" y1="16.5026" x2="42.5264" y2="10.8521" gradientUnits="userSpaceOnUse">
<stop stop-color="#1CE5A1"/>
<stop offset="0.0784314" stop-color="#1CE5A1"/>
<stop offset="0.960784" stop-color="#2951DB"/>
<stop offset="0.968627" stop-color="#2951DB"/>
<stop offset="0.988235" stop-color="#2951DB"/>
<stop offset="1" stop-color="#2951DB"/>
</linearGradient>
<linearGradient id="paint2_linear_153_2980" x1="34.2113" y1="7.41692" x2="31.3851" y2="9.80717" gradientUnits="userSpaceOnUse">
<stop stop-color="#13C6A3"/>
<stop offset="0.490196" stop-color="#0006AF"/>
<stop offset="0.988235"/>
<stop offset="1"/>
</linearGradient>
<linearGradient id="paint3_linear_153_2980" x1="32.2207" y1="5.12043" x2="29.3676" y2="7.53367" gradientUnits="userSpaceOnUse">
<stop stop-color="#13C6A3"/>
<stop offset="0.490196" stop-color="#0006AF"/>
<stop offset="0.988235"/>
<stop offset="1"/>
</linearGradient>
<linearGradient id="paint4_linear_153_2980" x1="35.9144" y1="9.95059" x2="32.937" y2="12.4685" gradientUnits="userSpaceOnUse">
<stop stop-color="#13C6A3"/>
<stop offset="0.490196" stop-color="#0006AF"/>
<stop offset="0.988235"/>
<stop offset="1"/>
</linearGradient>
<linearGradient id="paint5_linear_153_2980" x1="37.2358" y1="12.8242" x2="34.0794" y2="15.4937" gradientUnits="userSpaceOnUse">
<stop stop-color="#13C6A3"/>
<stop offset="0.490196" stop-color="#0006AF"/>
<stop offset="0.988235"/>
<stop offset="1"/>
</linearGradient>
<linearGradient id="paint6_linear_153_2980" x1="29.9496" y1="3.0881" x2="26.9392" y2="5.63413" gradientUnits="userSpaceOnUse">
<stop stop-color="#13C6A3"/>
<stop offset="0.490196" stop-color="#0006AF"/>
<stop offset="0.988235"/>
<stop offset="1"/>
</linearGradient>
<linearGradient id="paint7_linear_153_2980" x1="27.2746" y1="1.40722" x2="24.0783" y2="4.10986" gradientUnits="userSpaceOnUse">
<stop stop-color="#13C6A3"/>
<stop offset="0.490196" stop-color="#0006AF"/>
<stop offset="0.988235"/>
<stop offset="1"/>
</linearGradient>
<linearGradient id="paint8_linear_153_2980" x1="23.3883" y1="-0.0217614" x2="19.8669" y2="2.9567" gradientUnits="userSpaceOnUse">
<stop stop-color="#13C6A3"/>
<stop offset="0.490196" stop-color="#0006AF"/>
<stop offset="0.988235"/>
<stop offset="1"/>
</linearGradient>
<linearGradient id="paint9_linear_153_2980" x1="19.2583" y1="-0.42111" x2="15.1269" y2="3.07319" gradientUnits="userSpaceOnUse">
<stop stop-color="#13C6A3"/>
<stop offset="0.490196" stop-color="#0006AF"/>
<stop offset="0.988235"/>
<stop offset="1"/>
</linearGradient>
<linearGradient id="paint10_linear_153_2980" x1="38.1893" y1="16.8313" x2="34.7366" y2="19.751" gradientUnits="userSpaceOnUse">
<stop stop-color="#13C6A3"/>
<stop offset="0.490196" stop-color="#0006AF"/>
<stop offset="0.988235"/>
<stop offset="1"/>
</linearGradient>
<linearGradient id="paint11_linear_153_2980" x1="38.198" y1="20.8724" x2="34.2569" y2="24.205" gradientUnits="userSpaceOnUse">
<stop stop-color="#13C6A3"/>
<stop offset="0.490196" stop-color="#0006AF"/>
<stop offset="0.988235"/>
<stop offset="1"/>
</linearGradient>
<linearGradient id="paint12_linear_153_2980" x1="-13.9829" y1="7.57724" x2="59.6618" y2="30.9506" gradientUnits="userSpaceOnUse">
<stop stop-color="#1CE5A1"/>
<stop offset="0.0784314" stop-color="#1CE5A1"/>
<stop offset="0.960784" stop-color="#2951DB"/>
<stop offset="0.968627" stop-color="#2951DB"/>
<stop offset="0.988235" stop-color="#2951DB"/>
<stop offset="1" stop-color="#2951DB"/>
</linearGradient>
</defs>
</svg>
