<svg width="70" height="73" viewBox="0 0 70 73" fill="none" xmlns="http://www.w3.org/2000/svg">
<g filter="url(#filter0_d_153_3034)">
<path d="M52.5009 58.247C41.3097 68.0403 23.3239 65.4899 12.3326 52.4322C1.24128 39.3745 1.3412 20.8081 12.5324 11.0148C23.7236 1.11952 41.7094 3.66985 52.8007 16.7276C63.792 29.7853 63.6921 48.3517 52.5009 58.247Z" fill="url(#paint0_linear_153_3034)"/>
<path d="M52.8009 16.7273C62.9929 28.8669 63.6923 45.5971 54.8992 55.9004C55.7985 55.2883 56.5979 54.5742 57.4972 53.8601C68.6884 43.9648 68.7883 25.3984 57.7969 12.3407C46.7057 -0.614993 28.7198 -3.26734 17.5287 6.62796C16.7293 7.34205 15.9299 8.15816 15.2305 8.97426C26.4217 1.52729 42.6089 4.6897 52.8009 16.7273Z" fill="url(#paint1_linear_153_3034)"/>
<path d="M53.5078 17.6457C54.0074 18.1558 54.4071 18.7679 54.8068 19.38L59.8029 14.9934C59.4032 14.3813 58.9036 13.7692 58.5039 13.2592L53.5078 17.6457Z" fill="url(#paint2_linear_153_3034)" fill-opacity="0.501961"/>
<path d="M49.7168 13.565C50.3163 14.0751 50.8159 14.5852 51.3155 15.0952L56.3116 10.7087C55.812 10.1986 55.2125 9.68853 54.7129 9.17847L49.7168 13.565Z" fill="url(#paint3_linear_153_3034)" fill-opacity="0.501961"/>
<path d="M56.5977 22.236C56.9973 22.8481 57.397 23.5622 57.6968 24.2763L62.5929 19.8897C62.2932 19.1756 61.9934 18.4615 61.5937 17.8494L56.5977 22.236Z" fill="url(#paint4_linear_153_3034)" fill-opacity="0.501961"/>
<path d="M59.0059 27.4388C59.3056 28.2549 59.6054 28.969 59.8052 29.7851L64.7014 25.3986C64.5015 24.5824 64.3017 23.8684 64.0019 23.0522L59.0059 27.4388Z" fill="url(#paint5_linear_153_3034)" fill-opacity="0.501961"/>
<path d="M45.3105 10.0965C45.9101 10.5046 46.6095 10.9126 47.2091 11.4227L52.1052 7.03613C51.5057 6.52607 50.9061 6.11801 50.3066 5.70996L45.3105 10.0965Z" fill="url(#paint6_linear_153_3034)" fill-opacity="0.501961"/>
<path d="M40.1172 7.3422C40.8166 7.64824 41.616 7.95428 42.3155 8.36234L47.3115 3.97576C46.5122 3.56771 45.8127 3.26167 45.1133 2.95563L40.1172 7.3422Z" fill="url(#paint7_linear_153_3034)" fill-opacity="0.501961"/>
<path d="M32.4238 5.19962C33.423 5.40365 34.3223 5.50566 35.2216 5.70969L40.2177 1.32312C39.3184 1.11909 38.3192 1.01708 37.4199 0.813049L32.4238 5.19962Z" fill="url(#paint8_linear_153_3034)" fill-opacity="0.501961"/>
<path d="M23.8301 5.50589C25.1291 5.19985 26.428 5.09784 27.727 4.99583L32.6232 0.609253C31.3242 0.711266 30.0252 0.81328 28.8261 1.11932L23.8301 5.50589Z" fill="url(#paint9_linear_153_3034)" fill-opacity="0.501961"/>
<path d="M60.8027 34.7837C60.9027 35.7018 61.0026 36.62 61.0026 37.5381L65.9986 33.1515C65.8987 32.2334 65.8987 31.3153 65.6989 30.3972L60.8027 34.7837Z" fill="url(#paint10_linear_153_3034)" fill-opacity="0.501961"/>
<path d="M60.8049 42.1288C60.6051 43.3529 60.4052 44.4751 60.1055 45.6992L65.1015 41.3127C65.4013 40.0885 65.6011 38.9663 65.7011 37.7422L60.8049 42.1288Z" fill="url(#paint11_linear_153_3034)" fill-opacity="0.501961"/>
<path d="M48.5033 53.6561C48.1036 54.0641 47.4041 53.9621 47.0045 53.5541C46.6048 53.044 46.7047 52.3299 47.2043 51.9219C47.7039 51.5138 48.2035 51.0037 48.6032 50.4937C49.1028 49.9836 49.7023 49.9836 50.2019 50.3917C50.6016 50.7997 50.7016 51.5138 50.3019 52.0239C49.7023 52.5339 49.2027 53.146 48.6032 53.6561H48.5033ZM43.0076 57.0225C42.9077 57.1245 42.8078 57.1245 42.6079 57.2266C41.9085 57.4306 41.209 57.7366 40.4097 57.8386C39.8101 58.0427 39.3105 57.6346 39.1107 57.0225C39.0108 56.5125 39.3105 55.9004 39.91 55.6964C40.6095 55.5943 41.209 55.3903 41.9085 55.0843C42.4081 54.8803 43.1075 55.1863 43.3074 55.7984C43.4073 56.2064 43.3074 56.7165 43.0076 57.0225ZM53.5993 46.5152C53.2995 46.7192 52.8998 46.8212 52.5001 46.7192C51.9006 46.4131 51.7008 45.8011 51.9006 45.189C52.1005 44.5769 52.4002 43.9648 52.6001 43.2507C52.7 42.6387 53.2995 42.3326 53.899 42.5366C54.4986 42.6387 54.7983 43.2507 54.6984 43.8628C54.3986 44.5769 54.1988 45.393 53.899 46.1071C53.7991 46.2091 53.6992 46.4131 53.5993 46.5152ZM34.4144 58.1447C34.2145 58.3487 33.9148 58.4507 33.615 58.4507C32.9156 58.3487 32.1162 58.2467 31.4167 58.1447C30.8172 58.0427 30.4175 57.4306 30.5174 56.8185C30.6174 56.2064 31.2169 55.7984 31.8164 55.9004C32.416 56.0024 33.1154 56.1044 33.8148 56.2064C34.4144 56.2064 34.914 56.8185 34.8141 57.4306C34.8141 57.7366 34.6142 57.9407 34.4144 58.1447ZM55.0981 37.844C54.8982 38.048 54.6984 38.1501 54.3986 38.1501C53.7991 38.1501 53.2995 37.64 53.2995 37.0279C53.2995 36.3138 53.1996 35.5997 53.1996 34.9876C53.0997 34.3756 53.4994 33.7635 54.0989 33.6615C54.6984 33.6615 55.2979 34.0695 55.2979 34.6816C55.3979 35.4977 55.4978 36.2118 55.4978 37.0279C55.4978 37.334 55.3979 37.64 55.0981 37.844ZM26.1209 55.7984C25.8211 56.1044 25.3215 56.2064 24.9219 56.0024C24.3223 55.6964 23.6229 55.2883 22.9234 54.8803C22.4238 54.5742 22.3239 53.8601 22.6237 53.3501C22.9234 52.84 23.523 52.636 24.1225 52.942C24.722 53.3501 25.3215 53.6561 25.9211 53.9621C26.4207 54.2682 26.7204 54.8803 26.4207 55.4923L26.1209 55.7984ZM53.2995 29.2749C53.2995 29.3769 53.1996 29.3769 52.9997 29.4789C52.5001 29.683 51.8007 29.3769 51.6008 28.8668C51.401 28.1528 51.1012 27.5407 50.8015 26.9286C50.5017 26.3165 50.7016 25.7044 51.2012 25.3984C51.8007 25.0924 52.4002 25.2964 52.7 25.9085C52.9997 26.6226 53.3994 27.2346 53.5993 27.9487C53.7991 28.4588 53.6992 28.9689 53.2995 29.2749ZM19.1264 50.6977C18.7267 51.1058 18.0273 51.1058 17.6276 50.6977C17.128 50.1876 16.6284 49.5756 16.1288 49.0655V48.9635C15.7291 48.5554 15.829 47.8413 16.2287 47.4333C16.7283 47.0252 17.4278 47.1272 17.8274 47.6373C18.2271 48.1474 18.7267 48.6574 19.1264 49.0655C19.626 49.5756 19.626 50.1876 19.2263 50.6977H19.1264ZM48.803 21.7259C48.4034 22.134 47.7039 22.032 47.3042 21.6239C46.8046 21.1138 46.4049 20.6038 45.9053 20.0937C45.4057 19.6856 45.4057 18.9716 45.9053 18.4615C46.305 18.0534 47.0045 18.0534 47.4041 18.4615C47.9038 19.0736 48.5033 19.5836 48.903 20.1957C49.3027 20.6038 49.3027 21.3179 48.803 21.7259ZM14.0304 43.6588C13.9305 43.6588 13.9305 43.7608 13.8306 43.7608C13.331 44.0668 12.6315 43.8628 12.3318 43.2507C12.032 42.6387 11.7322 41.9246 11.4325 41.2105C11.2326 40.5984 11.4325 39.9863 12.032 39.6803C12.6315 39.4762 13.2311 39.7823 13.4309 40.2923C13.7307 41.0064 14.0304 41.6185 14.3302 42.2306C14.53 42.7407 14.4301 43.2507 14.0304 43.6588ZM42.2082 16.1152C41.9085 16.4212 41.4089 16.4212 41.0092 16.2172C40.4097 15.8091 39.7102 15.5031 39.1107 15.1971C38.6111 14.993 38.4112 14.2789 38.6111 13.7689C38.9108 13.1568 39.5104 12.9528 40.1099 13.1568C40.7094 13.5648 41.4089 13.8709 42.1083 14.2789C42.6079 14.585 42.8078 15.2991 42.508 15.8091L42.2082 16.1152ZM11.5324 35.1917C11.4325 35.2937 11.2326 35.3957 10.9329 35.4977C10.3333 35.4977 9.83373 35.0897 9.73381 34.4776C9.63389 33.7635 9.63389 32.9474 9.63389 32.1313C9.53397 31.5192 10.0336 31.0091 10.6331 31.0091C11.2326 31.0091 11.7322 31.5192 11.7322 32.1313C11.8322 32.8454 11.8322 33.5595 11.9321 34.2736C11.9321 34.5796 11.8322 34.9876 11.5324 35.1917ZM34.1146 13.0548C33.9148 13.2588 33.615 13.3608 33.2153 13.2588C32.6158 13.1568 31.9163 13.0548 31.2169 13.0548C30.6174 12.9528 30.1178 12.4427 30.2177 11.8306C30.2177 11.2185 30.8172 10.7085 31.4167 10.8105C32.1162 10.8105 32.9156 10.9125 33.615 11.1165C34.2145 11.2185 34.6142 11.7286 34.5143 12.3407C34.5143 12.6467 34.3145 12.8508 34.1146 13.0548ZM12.2318 26.4185C11.9321 26.7246 11.5324 26.8266 11.2326 26.6226C10.6331 26.5205 10.2334 25.9085 10.4333 25.2964C10.6331 24.5823 10.9329 23.7662 11.2326 23.0521C11.4325 22.542 12.032 22.236 12.6315 22.44C13.1311 22.746 13.4309 23.3581 13.2311 23.9702C12.9313 24.5823 12.7315 25.1944 12.5316 25.9085C12.4317 26.1125 12.3318 26.3165 12.2318 26.4185ZM25.5214 13.2588C25.4215 13.3608 25.3215 13.4628 25.1217 13.4628C24.4222 13.6669 23.8227 13.8709 23.1233 14.0749C22.6237 14.2789 21.9242 14.0749 21.7244 13.4628C21.5245 12.8508 21.8243 12.2387 22.4238 12.0346C23.1233 11.7286 23.8227 11.5246 24.6221 11.3206C25.2216 11.2185 25.7212 11.5246 25.9211 12.1367C26.021 12.5447 25.8211 12.9528 25.5214 13.2588ZM16.4285 18.7675C15.9289 19.1756 15.3294 19.1756 14.9297 18.7675C14.53 18.3595 14.4301 17.6454 14.8298 17.2373C15.3294 16.6252 15.9289 16.1152 16.4285 15.6051H16.5285C16.9281 15.1971 17.6276 15.1971 18.0273 15.7071C18.427 16.1152 18.327 16.9313 17.9274 17.2373C17.4278 17.7474 16.9281 18.1554 16.4285 18.6655V18.7675Z" fill="url(#paint12_linear_153_3034)"/>
<path fill-rule="evenodd" clip-rule="evenodd" d="M30.3185 42.8427C30.4184 43.2508 30.1186 43.5568 29.7189 43.5568C29.3192 43.5568 29.0195 43.2508 29.0195 42.8427L28.9196 41.3125L28.8196 40.5984V39.8843C28.8196 39.4763 28.4199 39.1702 28.0203 39.1702C27.7205 39.1702 27.4207 39.4763 27.4207 39.8843L27.5207 41.3125C27.5207 41.7206 27.2209 42.0266 26.8212 42.0266C26.4215 42.0266 26.1218 41.7206 26.1218 41.3125L25.9219 38.0481V37.538L25.822 36.8239C25.822 36.4159 25.5222 36.1098 25.1225 36.1098C24.7229 36.1098 24.4231 36.4159 24.4231 36.8239L24.6229 39.3743L24.8228 42.6387C24.8228 42.9447 24.523 43.3528 24.1233 43.3528C23.7236 43.3528 23.4239 42.9447 23.4239 42.6387L23.1241 37.9461L23.0242 35.7018L22.9243 35.1917C22.9243 34.7837 22.6245 34.4776 22.2248 34.4776C21.8251 34.4776 21.5254 34.7837 21.5254 35.1917L21.6253 36.5179V36.7219C21.7252 37.13 21.4255 37.436 21.0258 37.436C20.6261 37.436 20.3263 37.13 20.2264 36.7219V35.0897L19.0273 33.9675L23.6237 28.8669L32.217 37.232L39.9109 28.8669L45.1068 33.9675L44.1076 35.0897L44.2075 36.7219C44.2075 37.13 43.9078 37.436 43.5081 37.436C43.1084 37.436 42.8086 37.13 42.8086 36.7219V36.5179L42.7087 35.1917C42.7087 34.7837 42.309 34.4776 41.9093 34.4776C41.6096 34.4776 41.3098 34.7837 41.3098 35.1917V35.7018L41.5096 37.9461L41.7095 42.6387C41.8094 42.9447 41.5096 43.3528 41.11 43.3528C40.7103 43.3528 40.4105 42.9447 40.3106 42.6387L40.2107 39.3743L40.0108 36.8239C40.0108 36.4159 39.6111 36.1098 39.3114 36.1098C38.9117 36.1098 38.6119 36.4159 38.6119 36.8239L38.7118 37.538V38.0481L38.9117 41.3125C38.9117 41.7206 38.6119 42.0266 38.2122 42.0266C37.8126 42.0266 37.5128 41.7206 37.5128 41.3125L37.4129 39.8843C37.4129 39.4763 37.0132 39.1702 36.7134 39.1702C36.3137 39.1702 36.014 39.4763 36.014 39.8843L36.1139 40.5984V41.3125L36.2138 42.8427C36.2138 43.2508 35.914 43.5568 35.5144 43.5568C35.2146 43.5568 34.8149 43.2508 34.8149 42.8427V42.6387H34.715V42.4347H34.6151V42.3326H34.5152V42.2306H34.4152L34.3153 42.1286H33.8157V42.2306H33.6159V42.3326C33.5159 42.3326 33.5159 42.3326 33.5159 42.4347V42.5367H33.416V42.8427L33.6159 46.4132L32.8165 47.3313L31.9172 46.4132L31.7174 42.8427V42.5367H31.6174V42.4347L31.5175 42.3326H31.4176V42.2306H31.3177V42.1286H30.7181V42.2306H30.6182V42.3326H30.5183V42.4347H30.4184V42.6387H30.3185V42.8427Z" fill="#FEFEFE"/>
<path fill-rule="evenodd" clip-rule="evenodd" d="M31.3236 20.6039L36.6194 25.8066L31.9231 30.9073L26.5273 25.8066L31.3236 20.6039Z" fill="#FEFEFE"/>
</g>
<defs>
<filter id="filter0_d_153_3034" x="0.0761719" y="0.609253" width="69.9219" height="71.5852" filterUnits="userSpaceOnUse" color-interpolation-filters="sRGB">
<feFlood flood-opacity="0" result="BackgroundImageFix"/>
<feColorMatrix in="SourceAlpha" type="matrix" values="0 0 0 0 0 0 0 0 0 0 0 0 0 0 0 0 0 0 127 0" result="hardAlpha"/>
<feOffset dy="4"/>
<feGaussianBlur stdDeviation="2"/>
<feComposite in2="hardAlpha" operator="out"/>
<feColorMatrix type="matrix" values="0 0 0 0 0 0 0 0 0 0 0 0 0 0 0 0 0 0 0.25 0"/>
<feBlend mode="normal" in2="BackgroundImageFix" result="effect1_dropShadow_153_3034"/>
<feBlend mode="normal" in="SourceGraphic" in2="effect1_dropShadow_153_3034" result="shape"/>
</filter>
<linearGradient id="paint0_linear_153_3034" x1="21.4054" y1="6.61804" x2="46.7285" y2="67.6641" gradientUnits="userSpaceOnUse">
<stop stop-color="#1CE5A1"/>
<stop offset="0.490196" stop-color="#18CE9F"/>
<stop offset="1" stop-color="#13B79C"/>
</linearGradient>
<linearGradient id="paint1_linear_153_3034" x1="30.8981" y1="30.6317" x2="74.3615" y2="20.332" gradientUnits="userSpaceOnUse">
<stop stop-color="#1CE5A1"/>
<stop offset="0.0784314" stop-color="#1CE5A1"/>
<stop offset="0.960784" stop-color="#2951DB"/>
<stop offset="0.968627" stop-color="#2951DB"/>
<stop offset="0.988235" stop-color="#2951DB"/>
<stop offset="1" stop-color="#2951DB"/>
</linearGradient>
<linearGradient id="paint2_linear_153_3034" x1="59.1933" y1="14.0753" x2="54.0381" y2="18.4276" gradientUnits="userSpaceOnUse">
<stop stop-color="#13C6A3"/>
<stop offset="0.490196" stop-color="#0006AF"/>
<stop offset="0.988235"/>
<stop offset="1"/>
</linearGradient>
<linearGradient id="paint3_linear_153_3034" x1="55.5922" y1="9.89256" x2="50.3862" y2="14.2847" gradientUnits="userSpaceOnUse">
<stop stop-color="#13C6A3"/>
<stop offset="0.490196" stop-color="#0006AF"/>
<stop offset="0.988235"/>
<stop offset="1"/>
</linearGradient>
<linearGradient id="paint4_linear_153_3034" x1="62.2932" y1="18.6859" x2="56.8732" y2="23.2776" gradientUnits="userSpaceOnUse">
<stop stop-color="#13C6A3"/>
<stop offset="0.490196" stop-color="#0006AF"/>
<stop offset="0.988235"/>
<stop offset="1"/>
</linearGradient>
<linearGradient id="paint5_linear_153_3034" x1="64.7214" y1="23.9296" x2="58.9662" y2="28.7899" gradientUnits="userSpaceOnUse">
<stop stop-color="#13C6A3"/>
<stop offset="0.490196" stop-color="#0006AF"/>
<stop offset="0.988235"/>
<stop offset="1"/>
</linearGradient>
<linearGradient id="paint6_linear_153_3034" x1="51.4257" y1="6.17922" x2="45.9448" y2="10.8207" gradientUnits="userSpaceOnUse">
<stop stop-color="#13C6A3"/>
<stop offset="0.490196" stop-color="#0006AF"/>
<stop offset="0.988235"/>
<stop offset="1"/>
</linearGradient>
<linearGradient id="paint7_linear_153_3034" x1="46.5521" y1="3.11885" x2="40.7255" y2="8.04905" gradientUnits="userSpaceOnUse">
<stop stop-color="#13C6A3"/>
<stop offset="0.490196" stop-color="#0006AF"/>
<stop offset="0.988235"/>
<stop offset="1"/>
</linearGradient>
<linearGradient id="paint8_linear_153_3034" x1="39.4783" y1="0.51721" x2="33.062" y2="5.94539" gradientUnits="userSpaceOnUse">
<stop stop-color="#13C6A3"/>
<stop offset="0.490196" stop-color="#0006AF"/>
<stop offset="0.988235"/>
<stop offset="1"/>
</linearGradient>
<linearGradient id="paint9_linear_153_3034" x1="31.9437" y1="-0.206854" x2="24.419" y2="6.15754" gradientUnits="userSpaceOnUse">
<stop stop-color="#13C6A3"/>
<stop offset="0.490196" stop-color="#0006AF"/>
<stop offset="0.988235"/>
<stop offset="1"/>
</linearGradient>
<linearGradient id="paint10_linear_153_3034" x1="66.4583" y1="31.2235" x2="60.1739" y2="36.5523" gradientUnits="userSpaceOnUse">
<stop stop-color="#13C6A3"/>
<stop offset="0.490196" stop-color="#0006AF"/>
<stop offset="0.988235"/>
<stop offset="1"/>
</linearGradient>
<linearGradient id="paint11_linear_153_3034" x1="66.4605" y1="38.5889" x2="59.2815" y2="44.6645" gradientUnits="userSpaceOnUse">
<stop stop-color="#13C6A3"/>
<stop offset="0.490196" stop-color="#0006AF"/>
<stop offset="0.988235"/>
<stop offset="1"/>
</linearGradient>
<linearGradient id="paint12_linear_153_3034" x1="-28.636" y1="14.3606" x2="105.577" y2="56.9623" gradientUnits="userSpaceOnUse">
<stop stop-color="#1CE5A1"/>
<stop offset="0.0784314" stop-color="#1CE5A1"/>
<stop offset="0.960784" stop-color="#2951DB"/>
<stop offset="0.968627" stop-color="#2951DB"/>
<stop offset="0.988235" stop-color="#2951DB"/>
<stop offset="1" stop-color="#2951DB"/>
</linearGradient>
</defs>
</svg>
