<svg width="20" height="18" viewBox="0 0 20 18" fill="none" xmlns="http://www.w3.org/2000/svg">
<path d="M8.5228 13.1524C9.88942 13.1522 11.2167 12.7343 12.2932 11.9653L15.6778 15.0568L16.7665 14.0624L13.3819 10.971C14.2242 9.98757 14.682 8.775 14.6823 7.52642C14.6823 4.42438 11.919 1.90041 8.5228 1.90041C5.1266 1.90041 2.36328 4.42438 2.36328 7.52642C2.36328 10.6285 5.1266 13.1524 8.5228 13.1524ZM8.5228 3.30691C11.0705 3.30691 13.1424 5.19936 13.1424 7.52642C13.1424 9.85348 11.0705 11.7459 8.5228 11.7459C5.97507 11.7459 3.90316 9.85348 3.90316 7.52642C3.90316 5.19936 5.97507 3.30691 8.5228 3.30691Z" fill="#828282"/>
</svg>
