<svg width="20" height="32" viewBox="0 0 20 32" fill="none" xmlns="http://www.w3.org/2000/svg">
<ellipse cx="9.82451" cy="15.878" rx="9.69951" ry="15.8232" fill="#373943"/>
<path d="M11.4414 15.8781H12.2497V18.5152H11.4414V15.8781Z" fill="white"/>
<path d="M13.0578 12.5815V11.2629C13.0578 10.5357 12.6953 9.94435 12.2495 9.94435H6.99564C6.32718 9.94435 5.7832 10.8318 5.7832 11.9222V19.8338C5.7832 21.2849 6.50824 21.8117 6.99564 21.8117H13.0578C13.5036 21.8117 13.8661 21.2203 13.8661 20.4931V13.9001C13.8661 13.1729 13.5036 12.5815 13.0578 12.5815ZM6.99564 11.2629H12.2495V12.5815H6.99564C6.89158 12.574 6.79333 12.5012 6.72134 12.3784C6.64935 12.2556 6.60917 12.0922 6.60917 11.9222C6.60917 11.7523 6.64935 11.5889 6.72134 11.4661C6.79333 11.3433 6.89158 11.2705 6.99564 11.2629V11.2629ZM13.0578 20.4931H7.00049C6.81378 20.4852 6.5915 20.3646 6.5915 19.8338V13.7782C6.7184 13.8527 6.85298 13.9001 6.99564 13.9001H13.0578V20.4931Z" fill="white"/>
</svg>
