<svg width="28" height="32" viewBox="0 0 28 32" fill="none" xmlns="http://www.w3.org/2000/svg">
<ellipse cx="13.6773" cy="15.8781" rx="13.6856" ry="15.8232" fill="#373943"/>
<path d="M17.0987 13.9003C18.0435 13.9003 18.8094 13.0147 18.8094 11.9224C18.8094 10.83 18.0435 9.94446 17.0987 9.94446C16.1539 9.94446 15.388 10.83 15.388 11.9224C15.388 13.0147 16.1539 13.9003 17.0987 13.9003Z" fill="#38F2AF"/>
<path d="M17.0987 20.4932H9.68563V11.9224H14.2475C14.2475 11.4529 14.3348 11.0079 14.4881 10.6038H9.68563C9.05667 10.6038 8.54517 11.1952 8.54517 11.9224V20.4932C8.54517 21.2204 9.05667 21.8118 9.68563 21.8118H17.0987C17.7276 21.8118 18.2391 21.2204 18.2391 20.4932V14.9406C17.8798 15.1239 17.4914 15.2186 17.0987 15.2189V20.4932Z" fill="white"/>
</svg>
