<svg width="21" height="32" viewBox="0 0 21 32" fill="none" xmlns="http://www.w3.org/2000/svg">
<ellipse cx="10.5062" cy="15.878" rx="9.69951" ry="15.8232" fill="#373943"/>
<path d="M13.7395 10.6037H7.27314C6.82736 10.6037 6.46484 11.195 6.46484 11.9223V19.8338C6.46484 20.561 6.82736 21.1524 7.27314 21.1524H13.7395C14.1853 21.1524 14.5478 20.561 14.5478 19.8338V11.9223C14.5478 11.195 14.1853 10.6037 13.7395 10.6037ZM13.7395 11.9223V12.2592L10.5063 16.362L7.27314 12.2598V11.9223H13.7395ZM7.27314 19.8338V13.9292L10.2582 17.7168C10.3289 17.8075 10.4163 17.8568 10.5063 17.8568C10.5963 17.8568 10.6837 17.8075 10.7545 17.7168L13.7395 13.9292L13.7403 19.8338H7.27314Z" fill="white"/>
</svg>
