<svg width="23" height="32" viewBox="0 0 23 32" fill="none" xmlns="http://www.w3.org/2000/svg">
<ellipse cx="11.1236" cy="15.8781" rx="11.0282" ry="15.8232" fill="#373943"/>
<path d="M14.7996 10.6038H7.44746C6.94062 10.6038 6.52844 11.1952 6.52844 11.9224V19.8339C6.52844 20.5611 6.94062 21.1525 7.44746 21.1525H14.7996C15.3064 21.1525 15.7186 20.5611 15.7186 19.8339V11.9224C15.7186 11.1952 15.3064 10.6038 14.7996 10.6038ZM14.7996 11.9224V12.2593L11.1235 16.3621L7.44746 12.2599V11.9224H14.7996ZM7.44746 19.8339V13.9293L10.8414 17.7169C10.9219 17.8076 11.0212 17.8569 11.1235 17.8569C11.2259 17.8569 11.3252 17.8076 11.4057 17.7169L14.7996 13.9293L14.8005 19.8339H7.44746Z" fill="white"/>
</svg>
