<svg width="28" height="32" viewBox="0 0 28 32" fill="none" xmlns="http://www.w3.org/2000/svg">
<ellipse cx="13.9988" cy="15.8781" rx="13.6856" ry="15.8232" fill="#373943"/>
<path d="M16.2798 15.8782H17.4202V18.5154H16.2798V15.8782Z" fill="white"/>
<path d="M18.5607 12.5817V11.2631C18.5607 10.5358 18.0492 9.94446 17.4203 9.94446H10.0072C9.06404 9.94446 8.29651 10.8319 8.29651 11.9224V19.8339C8.29651 21.2851 9.31951 21.8118 10.0072 21.8118H18.5607C19.1897 21.8118 19.7012 21.2204 19.7012 20.4932V13.9003C19.7012 13.173 19.1897 12.5817 18.5607 12.5817ZM10.0072 11.2631H17.4203V12.5817H10.0072C9.86039 12.5741 9.72175 12.5013 9.62018 12.3785C9.5186 12.2557 9.46191 12.0923 9.46191 11.9224C9.46191 11.7524 9.5186 11.5891 9.62018 11.4662C9.72175 11.3434 9.86039 11.2706 10.0072 11.2631V11.2631ZM18.5607 20.4932H10.0141C9.75061 20.4853 9.43698 20.3647 9.43698 19.8339V13.7783C9.61603 13.8528 9.80592 13.9003 10.0072 13.9003H18.5607V20.4932Z" fill="white"/>
</svg>
