<svg width="29" height="32" viewBox="0 0 29 32" fill="none" xmlns="http://www.w3.org/2000/svg">
<ellipse cx="14.3582" cy="15.8781" rx="13.6856" ry="15.8232" fill="#373943"/>
<path d="M18.92 10.6038H9.79629C9.16732 10.6038 8.65582 11.1952 8.65582 11.9224V19.8339C8.65582 20.5611 9.16732 21.1525 9.79629 21.1525H18.92C19.549 21.1525 20.0605 20.5611 20.0605 19.8339V11.9224C20.0605 11.1952 19.549 10.6038 18.92 10.6038ZM18.92 11.9224V12.2593L14.3582 16.3621L9.79629 12.2599V11.9224H18.92ZM9.79629 19.8339V13.9293L14.008 17.7169C14.1079 17.8076 14.2312 17.8569 14.3582 17.8569C14.4851 17.8569 14.6084 17.8076 14.7083 17.7169L18.92 13.9293L18.9212 19.8339H9.79629Z" fill="white"/>
</svg>
