<svg width="21" height="32" viewBox="0 0 21 32" fill="none" xmlns="http://www.w3.org/2000/svg">
<ellipse cx="10.6644" cy="15.878" rx="9.69951" ry="15.8232" fill="#373943"/>
<path d="M13.0894 13.9001C13.759 13.9001 14.3018 13.0146 14.3018 11.9222C14.3018 10.8299 13.759 9.94435 13.0894 9.94435C12.4198 9.94435 11.877 10.8299 11.877 11.9222C11.877 13.0146 12.4198 13.9001 13.0894 13.9001Z" fill="#38F2AF"/>
<path d="M13.0895 20.4931H7.83564V11.9223H11.0688C11.0688 11.4528 11.1306 11.0078 11.2394 10.6037H7.83564C7.38986 10.6037 7.02734 11.195 7.02734 11.9223V20.4931C7.02734 21.2203 7.38986 21.8117 7.83564 21.8117H13.0895C13.5353 21.8117 13.8978 21.2203 13.8978 20.4931V14.9405C13.6432 15.1238 13.3679 15.2185 13.0895 15.2187V20.4931Z" fill="white"/>
</svg>
