<svg width="23" height="32" viewBox="0 0 23 32" fill="none" xmlns="http://www.w3.org/2000/svg">
<ellipse cx="11.8826" cy="15.8781" rx="11.0282" ry="15.8232" fill="#373943"/>
<path d="M13.7206 15.8782H14.6397V18.5154H13.7206V15.8782Z" fill="white"/>
<path d="M15.5586 12.5817V11.2631C15.5586 10.5358 15.1465 9.94446 14.6396 9.94446H8.666C7.90597 9.94446 7.28748 10.8319 7.28748 11.9224V19.8339C7.28748 21.2851 8.11183 21.8118 8.666 21.8118H15.5586C16.0655 21.8118 16.4777 21.2204 16.4777 20.4932V13.9003C16.4777 13.173 16.0655 12.5817 15.5586 12.5817ZM8.666 11.2631H14.6396V12.5817H8.666C8.54769 12.5741 8.43597 12.5013 8.35412 12.3785C8.27227 12.2557 8.22659 12.0923 8.22659 11.9224C8.22659 11.7524 8.27227 11.5891 8.35412 11.4662C8.43597 11.3434 8.54769 11.2706 8.666 11.2631V11.2631ZM15.5586 20.4932H8.67152C8.45922 20.4853 8.20649 20.3647 8.20649 19.8339V13.7783C8.35078 13.8528 8.5038 13.9003 8.666 13.9003H15.5586V20.4932Z" fill="white"/>
</svg>
