<svg width="24" height="32" viewBox="0 0 24 32" fill="none" xmlns="http://www.w3.org/2000/svg">
<ellipse cx="12.0021" cy="15.8781" rx="11.0282" ry="15.8232" fill="#373943"/>
<path d="M14.7591 13.9003C15.5205 13.9003 16.1377 13.0147 16.1377 11.9224C16.1377 10.83 15.5205 9.94446 14.7591 9.94446C13.9978 9.94446 13.3806 10.83 13.3806 11.9224C13.3806 13.0147 13.9978 13.9003 14.7591 13.9003Z" fill="#38F2AF"/>
<path d="M14.7591 20.4932H8.78553V11.9224H12.4616C12.4616 11.4529 12.5319 11.0079 12.6555 10.6038H8.78553C8.2787 10.6038 7.86652 11.1952 7.86652 11.9224V20.4932C7.86652 21.2204 8.2787 21.8118 8.78553 21.8118H14.7591C15.266 21.8118 15.6782 21.2204 15.6782 20.4932V14.9406C15.3886 15.1239 15.0756 15.2186 14.7591 15.2189V20.4932Z" fill="white"/>
</svg>
