<svg width="25" height="25" viewBox="0 0 25 25" fill="none" xmlns="http://www.w3.org/2000/svg">
<rect x="1" y="1" width="22.1687" height="22.1687" rx="11.0843" stroke="url(#paint0_linear_83_7151)" stroke-width="2"/>
<path d="M14.4999 9.29032C14.0905 6.76976 13.125 5 12.0014 5C10.8778 5 9.91228 6.76976 9.50292 9.29032H14.4999ZM9.29119 12C9.29119 12.6266 9.32507 13.2278 9.38435 13.8065H14.6156C14.6749 13.2278 14.7088 12.6266 14.7088 12C14.7088 11.3734 14.6749 10.7722 14.6156 10.1935H9.38435C9.32507 10.7722 9.29119 11.3734 9.29119 12ZM18.458 9.29032C17.6505 7.37379 16.0159 5.89194 13.9974 5.29355C14.6862 6.24758 15.1605 7.68427 15.409 9.29032H18.458ZM10.0026 5.29355C7.98689 5.89194 6.34947 7.37379 5.54487 9.29032H8.59387C8.83948 7.68427 9.31377 6.24758 10.0026 5.29355ZM18.76 10.1935H15.5219C15.5812 10.7863 15.615 11.3931 15.615 12C15.615 12.6069 15.5812 13.2137 15.5219 13.8065H18.7572C18.9125 13.2278 19 12.6266 19 12C19 11.3734 18.9125 10.7722 18.76 10.1935ZM8.38778 12C8.38778 11.3931 8.42166 10.7863 8.48094 10.1935H5.24279C5.09034 10.7722 5 11.3734 5 12C5 12.6266 5.09034 13.2278 5.24279 13.8065H8.47812C8.42166 13.2137 8.38778 12.6069 8.38778 12ZM9.50292 14.7097C9.91228 17.2302 10.8778 19 12.0014 19C13.125 19 14.0905 17.2302 14.4999 14.7097H9.50292ZM14.0002 18.7065C16.0159 18.1081 17.6534 16.6262 18.4608 14.7097H15.4118C15.1633 16.3157 14.689 17.7524 14.0002 18.7065ZM5.54487 14.7097C6.35229 16.6262 7.98689 18.1081 10.0054 18.7065C9.3166 17.7524 8.84231 16.3157 8.59387 14.7097H5.54487Z" fill="url(#paint1_linear_83_7151)"/>
<defs>
<linearGradient id="paint0_linear_83_7151" x1="12.0843" y1="0" x2="12.0843" y2="24.1687" gradientUnits="userSpaceOnUse">
<stop stop-color="#1CE3A1"/>
<stop offset="1" stop-color="#8D2EA9"/>
</linearGradient>
<linearGradient id="paint1_linear_83_7151" x1="12" y1="7.5" x2="12" y2="19" gradientUnits="userSpaceOnUse">
<stop stop-color="#8836A9"/>
<stop offset="1" stop-color="#1DE2A2"/>
</linearGradient>
</defs>
</svg>
