<svg width="32" height="33" viewBox="0 0 32 33" fill="none" xmlns="http://www.w3.org/2000/svg">
<path fill-rule="evenodd" clip-rule="evenodd" d="M15.8111 0.217041L23.7712 8.28812L31.6768 16.3592L23.7712 24.4859L15.8111 32.557L7.90556 24.4859L0 16.3592L7.90556 8.28812L15.8111 0.217041Z" fill="url(#paint0_linear_83_7112)"/>
<path fill-rule="evenodd" clip-rule="evenodd" d="M14.2816 22.5934C14.2816 22.8717 14.0635 23.0943 13.7909 23.0943C13.5183 23.0943 13.3002 22.8717 13.3002 22.5934V20.4782C13.3002 20.1999 13.0821 19.9772 12.8095 19.9772C12.5369 19.9772 12.3188 20.1999 12.3188 20.4782V21.5358C12.3188 21.8141 12.1007 22.0367 11.8826 22.0367C11.61 22.0367 11.3919 21.8141 11.3919 21.5358V18.363C11.3919 18.0847 11.1739 17.8621 10.9013 17.8621C10.6286 17.8621 10.4106 18.0847 10.4106 18.363V22.4264C10.4106 22.7047 10.1925 22.9273 9.91987 22.9273C9.64727 22.9273 9.42918 22.7047 9.42918 22.4264V17.2498C9.42918 16.9714 9.2111 16.7488 8.93849 16.7488C8.72041 16.7488 8.50232 16.9714 8.50232 17.2498V18.3074C8.50232 18.5857 8.28424 18.8083 8.01163 18.8083C7.73903 18.8083 7.52094 18.5857 7.52094 18.3074V17.1941L6.70312 16.3592L10.1925 12.8524L15.8082 18.6413L21.4783 12.8524L24.9132 16.3592L24.1499 17.1941V18.3074C24.1499 18.5857 23.9318 18.8083 23.6592 18.8083C23.3866 18.8083 23.1685 18.5857 23.1685 18.3074V17.2498C23.1685 16.9714 22.9504 16.7488 22.6778 16.7488C22.4052 16.7488 22.1871 16.9714 22.1871 17.2498V22.4264C22.1871 22.7047 21.969 22.9273 21.6964 22.9273C21.4783 22.9273 21.2603 22.7047 21.2603 22.4264V18.363C21.2603 18.0847 21.0422 17.8621 20.7696 17.8621C20.497 17.8621 20.2789 18.0847 20.2789 18.363V21.5358C20.2789 21.8141 20.0608 22.0367 19.7882 22.0367C19.5156 22.0367 19.2975 21.8141 19.2975 21.5358V20.4782C19.2975 20.1999 19.0794 19.9772 18.8068 19.9772C18.5342 19.9772 18.3161 20.1999 18.3161 20.4782V22.5934C18.3161 22.8717 18.098 23.0943 17.88 23.0943C17.6073 23.0943 17.3893 22.8717 17.3893 22.5934V22.482H17.3347V22.3151H17.2802V22.2594H17.2257V22.2037H17.1712V22.1481H17.0621V22.0924H16.6805V22.1481H16.626V22.2037H16.5169V22.3151H16.4624V22.4264H16.4079V25.0982L15.8082 25.6548L15.2629 25.0982V22.482H15.2084V22.3151H15.1539V22.2594H15.0994V22.2037H15.0449V22.1481H14.9358V22.0924H14.5542V22.1481H14.4996L14.4451 22.2037H14.3906V22.3151H14.3361V22.3707L14.2816 22.4264V22.5934Z" fill="#FEFEFE"/>
<path fill-rule="evenodd" clip-rule="evenodd" d="M17.8825 23.4841C17.6098 23.4841 17.3918 23.7067 17.3918 23.985V24.0407C17.3918 24.319 17.6098 24.5417 17.8825 24.5417C18.1005 24.5417 18.3186 24.319 18.3186 24.0407V23.985C18.3186 23.7067 18.1005 23.4841 17.8825 23.4841ZM13.7934 23.4841C14.066 23.4841 14.2841 23.7067 14.2841 23.985V24.0407C14.2841 24.319 14.066 24.5417 13.7934 24.5417C13.5208 24.5417 13.3027 24.319 13.3027 24.0407V23.985C13.3027 23.7067 13.5208 23.4841 13.7934 23.4841ZM23.6617 19.3094C23.3891 19.3094 23.171 19.532 23.171 19.8103V20.534C23.171 20.8123 23.3891 21.0349 23.6617 21.0349C23.9343 21.0349 24.1524 20.8123 24.1524 20.534V19.8103C24.1524 19.532 23.9343 19.3094 23.6617 19.3094ZM8.01413 19.3094C8.28673 19.3094 8.50482 19.532 8.50482 19.8103V20.534C8.50482 20.8123 8.28673 21.0349 8.01413 21.0349C7.74152 21.0349 7.52344 20.8123 7.52344 20.534V19.8103C7.52344 19.532 7.74152 19.3094 8.01413 19.3094ZM15.8106 7.11926L19.3545 10.6817L15.8106 14.2997L12.3213 10.6817L15.8106 7.11926Z" fill="#FEFEFE"/>
<defs>
<linearGradient id="paint0_linear_83_7112" x1="15.8275" y1="32.5709" x2="32.0101" y2="16.7201" gradientUnits="userSpaceOnUse">
<stop stop-color="#01C48C"/>
<stop offset="1" stop-color="#B600BC"/>
</linearGradient>
</defs>
</svg>
