<svg width="40" height="40" viewBox="0 0 40 40" fill="none" xmlns="http://www.w3.org/2000/svg">
<circle cx="20" cy="20" r="20" fill="#270B5B"/>
<path d="M12 13C27.9911 13 24.2746 23.6239 24.2913 25.2645L27 28H26.1295L23.7723 25.6161C22.4665 25.7567 19.6071 26.7712 16.5937 24.3772C13.5737 21.9833 13.7411 19.1172 12 13ZM14.6685 14.5402C13.0045 13.7533 14.4944 14.8482 14.4944 14.8482C16.0078 15.8929 16.7042 17.3158 17.5145 18.8627C18.5692 20.8783 20.1596 23.5402 22.3426 24.4777C24.519 25.4152 23.4877 24.8962 22.5435 24.1931C21.5993 23.4833 20.26 21.2801 19.4967 19.8337C18.4353 17.8248 17.4542 15.8627 14.6685 14.5402Z" fill="white"/>
</svg>
