<svg width="40" height="40" viewBox="0 0 40 40" fill="none" xmlns="http://www.w3.org/2000/svg">
<circle cx="20" cy="20" r="20" fill="#270B5B"/>
<path d="M12 16.6404V16.1204C12 15.6897 12.3358 15.3405 12.75 15.3405H24V13.7807C24 13.0863 24.8093 12.7394 25.2803 13.2292L27.7803 15.8289C28.0732 16.1335 28.0732 16.6273 27.7803 16.9319L25.2803 19.5316C24.8111 20.0194 24 19.6774 24 18.9801V17.4203H12.75C12.3358 17.4203 12 17.0711 12 16.6404ZM27.25 21.5799H16V20.02C16 19.3274 15.1918 18.9775 14.7197 19.4685L12.2197 22.0683C11.9268 22.3728 11.9268 22.8667 12.2197 23.1712L14.7197 25.7709C15.1893 26.2593 16 25.9161 16 25.2195V23.6596H27.25C27.6642 23.6596 28 23.3105 28 22.8797V22.3598C28 21.929 27.6642 21.5799 27.25 21.5799Z" fill="white"/>
</svg>
