<svg width="162" height="23" viewBox="0 0 162 23" fill="none" xmlns="http://www.w3.org/2000/svg">
<path d="M6.20656 13.8968H4.12531V21.7931H0.107422V1.29053H8.11738C12.1094 1.29053 14.6555 4.03798 14.6555 7.59624C14.6555 10.4573 12.9771 12.6264 10.2864 13.4113L14.6813 21.7983H10.2296L6.21172 13.902L6.20656 13.8968ZM7.36338 10.4573C9.38782 10.4573 10.5756 9.30049 10.5756 7.62206C10.5756 5.94364 9.38782 4.76099 7.36338 4.76099H4.12531V10.4573H7.36338Z" fill="white"/>
<path d="M20.4639 13.6072L23.9653 13.0856C24.7761 12.972 25.0343 12.564 25.0343 12.0734C25.0343 11.0612 24.2545 10.2246 22.6329 10.2246C21.0113 10.2246 20.0301 11.2936 19.9165 12.5382L16.5028 11.8152C16.7352 9.58935 18.7854 7.1311 22.6071 7.1311C27.1208 7.1311 28.794 9.67715 28.794 12.5382V19.536C28.794 20.29 28.8818 21.3022 28.9696 21.7928H25.4423C25.3545 21.4158 25.2977 20.636 25.2977 20.0885C24.5747 21.2144 23.2165 22.2008 21.1043 22.2008C18.0676 22.2008 16.2188 20.1454 16.2188 17.9195C16.2188 15.3735 18.0986 13.9584 20.469 13.6124L20.4639 13.6072ZM25.0343 16.0345V15.3993L21.8221 15.8899C20.8409 16.0345 20.0559 16.5819 20.0559 17.6819C20.0559 18.5186 20.6653 19.3294 21.9047 19.3294C23.5264 19.3294 25.0292 18.5496 25.0292 16.0345H25.0343Z" fill="white"/>
<path d="M35.9393 21.7928H32.0918V7.56495H35.8205V9.33117C36.6881 7.85416 38.3924 7.19312 39.9262 7.19312C43.4534 7.19312 45.0751 9.70817 45.0751 12.8326V21.798H41.2276V13.4988C41.2276 11.9082 40.4478 10.6636 38.5938 10.6636C36.9153 10.6636 35.9341 11.965 35.9341 13.6124V21.798L35.9393 21.7928Z" fill="white"/>
<path d="M61.9659 19.221C61.9659 20.1764 62.0227 21.2144 62.0796 21.7929H58.4077C58.3509 21.5037 58.2631 20.8116 58.2631 20.1454C57.6278 21.2713 56.1818 22.1389 54.271 22.1389C50.2221 22.1389 47.3301 18.9576 47.3301 14.6505C47.3301 10.3434 50.1343 7.21897 54.1574 7.21897C56.6156 7.21897 57.7725 8.23119 58.1753 8.98519V0.856445H61.9659V19.221ZM54.7358 18.6994C56.7034 18.6994 58.2373 17.1966 58.2373 14.6195C58.2373 12.0425 56.7034 10.6584 54.7358 10.6584C52.7682 10.6584 51.2085 12.1045 51.2085 14.6505C51.2085 17.1966 52.7114 18.6994 54.7358 18.6994Z" fill="white"/>
<path d="M79.4016 14.6763C79.4016 19.0454 76.1894 22.2266 71.9391 22.2266C67.6888 22.2266 64.4766 19.0454 64.4766 14.6763C64.4766 10.3072 67.6888 7.12598 71.9391 7.12598C76.1894 7.12598 79.4016 10.2762 79.4016 14.6763ZM75.5542 14.6763C75.5542 11.9857 73.8189 10.6274 71.9391 10.6274C70.0593 10.6274 68.324 11.9857 68.324 14.6763C68.324 17.3669 70.0593 18.7252 71.9391 18.7252C73.8189 18.7252 75.5542 17.3669 75.5542 14.6763Z" fill="white"/>
<path d="M81.8652 21.7931V7.56517H85.5371V9.30041C86.3169 7.91119 88.14 7.16235 89.6996 7.16235C91.6363 7.16235 93.2011 7.99898 93.9241 9.5328C95.0499 7.79757 96.5579 7.16235 98.4377 7.16235C101.072 7.16235 103.587 8.75298 103.587 12.5695V21.7931H99.8579V13.3493C99.8579 11.8155 99.1039 10.6586 97.3429 10.6586C95.6955 10.6586 94.7091 11.9291 94.7091 13.4629V21.7931H90.8926V13.3493C90.8926 11.8155 90.1127 10.6586 88.3775 10.6586C86.6423 10.6586 85.7179 11.9033 85.7179 13.4629V21.7931H81.8704H81.8652Z" fill="white"/>
<path d="M110.756 21.7928H106.908V7.56495H110.637V9.33117C111.505 7.85416 113.209 7.19312 114.743 7.19312C118.27 7.19312 119.891 9.70817 119.891 12.8326V21.798H116.044V13.4988C116.044 11.9082 115.264 10.6636 113.41 10.6636C111.732 10.6636 110.751 11.965 110.751 13.6124V21.798L110.756 21.7928Z" fill="white"/>
<path d="M135.972 17.7129C135.249 20.1712 132.992 22.2266 129.496 22.2266C125.592 22.2266 122.152 19.4223 122.152 14.6195C122.152 10.08 125.509 7.1311 129.15 7.1311C133.545 7.1311 136.179 9.93537 136.179 14.5058C136.179 15.0533 136.122 15.6317 136.122 15.6937H125.943C126.031 17.5735 127.621 18.9317 129.532 18.9317C131.324 18.9317 132.311 18.0331 132.77 16.7627L135.983 17.7181L135.972 17.7129ZM132.388 13.0547C132.331 11.6396 131.407 10.2504 129.207 10.2504C127.213 10.2504 126.113 11.7532 126.026 13.0547H132.388Z" fill="white"/>
<path d="M140.713 17.1087C140.801 18.2345 141.638 19.2777 143.316 19.2777C144.587 19.2777 145.196 18.6115 145.196 17.8627C145.196 17.2275 144.762 16.7059 143.662 16.4735L141.782 16.0397C139.035 15.4303 137.79 13.7828 137.79 11.7894C137.79 9.24334 140.047 7.1311 143.11 7.1311C147.159 7.1311 148.517 9.70297 148.692 11.2368L145.48 11.9598C145.367 11.1232 144.757 10.049 143.136 10.049C142.123 10.049 141.312 10.6584 141.312 11.464C141.312 12.1561 141.834 12.5899 142.614 12.7345L144.638 13.1683C147.443 13.7467 148.863 15.4509 148.863 17.5373C148.863 19.851 147.071 22.2214 143.337 22.2214C139.056 22.2214 137.584 19.443 137.408 17.8265L140.703 17.1035L140.713 17.1087Z" fill="white"/>
<path d="M153.47 17.1087C153.558 18.2345 154.394 19.2777 156.073 19.2777C157.343 19.2777 157.953 18.6115 157.953 17.8627C157.953 17.2275 157.519 16.7059 156.419 16.4735L154.539 16.0397C151.792 15.4303 150.547 13.7828 150.547 11.7894C150.547 9.24334 152.804 7.1311 155.866 7.1311C159.915 7.1311 161.273 9.70297 161.449 11.2368L158.242 11.9598C158.128 11.1232 157.519 10.049 155.897 10.049C154.885 10.049 154.074 10.6584 154.074 11.464C154.074 12.1561 154.596 12.5899 155.376 12.7345L157.4 13.1683C160.204 13.7467 161.625 15.4509 161.625 17.5373C161.625 19.851 159.832 22.2214 156.099 22.2214C151.817 22.2214 150.346 19.443 150.17 17.8265L153.465 17.1035L153.47 17.1087Z" fill="white"/>
</svg>
