<svg width="70" height="85" viewBox="0 0 70 85" fill="none" xmlns="http://www.w3.org/2000/svg">
<circle cx="35" cy="50" r="35" fill="#092A14"/>
<path fill-rule="evenodd" clip-rule="evenodd" d="M31.6828 65.1068C31.6828 65.7562 31.1739 66.2757 30.5378 66.2757C29.9017 66.2757 29.3929 65.7562 29.3929 65.1068V60.1714C29.3929 59.522 28.884 59.0025 28.2479 59.0025C27.6119 59.0025 27.103 59.522 27.103 60.1714V62.6391C27.103 63.2885 26.5941 63.808 26.0853 63.808C25.4492 63.808 24.9403 63.2885 24.9403 62.6391V55.236C24.9403 54.5866 24.4315 54.0671 23.7954 54.0671C23.1593 54.0671 22.6504 54.5866 22.6504 55.236V64.7172C22.6504 65.3666 22.1416 65.8861 21.5055 65.8861C20.8694 65.8861 20.3606 65.3666 20.3606 64.7172V52.6384C20.3606 51.989 19.8517 51.4695 19.2156 51.4695C18.7067 51.4695 18.1979 51.989 18.1979 52.6384V55.1061C18.1979 55.7555 17.689 56.275 17.0529 56.275C16.4169 56.275 15.908 55.7555 15.908 55.1061V52.5085L13.9998 50.5603L22.1416 42.3779L35.2448 55.8854L48.4753 42.3779L56.4899 50.5603L54.7089 52.5085V55.1061C54.7089 55.7555 54.2 56.275 53.5639 56.275C52.9278 56.275 52.419 55.7555 52.419 55.1061V52.6384C52.419 51.989 51.9101 51.4695 51.274 51.4695C50.638 51.4695 50.1291 51.989 50.1291 52.6384V64.7172C50.1291 65.3666 49.6202 65.8861 48.9841 65.8861C48.4753 65.8861 47.9664 65.3666 47.9664 64.7172V55.236C47.9664 54.5866 47.4576 54.0671 46.8215 54.0671C46.1854 54.0671 45.6765 54.5866 45.6765 55.236V62.6391C45.6765 63.2885 45.1677 63.808 44.5316 63.808C43.8955 63.808 43.3866 63.2885 43.3866 62.6391V60.1714C43.3866 59.522 42.8778 59.0025 42.2417 59.0025C41.6056 59.0025 41.0968 59.522 41.0968 60.1714V65.1068C41.0968 65.7562 40.5879 66.2757 40.079 66.2757C39.4429 66.2757 38.9341 65.7562 38.9341 65.1068V64.8471H38.8069V64.4574H38.6797V64.3276H38.5524V64.1977H38.4252V64.0678H38.1708V63.9379H37.2803V64.0678H37.1531V64.1977H36.8986V64.4574H36.7714V64.7172H36.6442V70.9514L35.2448 72.2502L33.9727 70.9514V64.8471H33.8454V64.4574H33.7182V64.3276H33.591V64.1977H33.4638V64.0678H33.2094V63.9379H32.3189V64.0678H32.1916L32.0644 64.1977H31.9372V64.4574H31.81V64.5873L31.6828 64.7172V65.1068Z" fill="#20DEA3"/>
<path fill-rule="evenodd" clip-rule="evenodd" d="M35.2509 29L43.5199 37.3123L35.2509 45.7544L27.1091 37.3123L35.2509 29Z" fill="#8738A9"/>
<path fill-rule="evenodd" clip-rule="evenodd" d="M40.0851 67.1845C39.449 67.1845 38.9401 67.7041 38.9401 68.3535V68.4833C38.9401 69.1327 39.449 69.6523 40.0851 69.6523C40.594 69.6523 41.1028 69.1327 41.1028 68.4833V68.3535C41.1028 67.7041 40.594 67.1845 40.0851 67.1845ZM30.5439 67.1845C31.18 67.1845 31.6888 67.7041 31.6888 68.3535V68.4833C31.6888 69.1327 31.18 69.6523 30.5439 69.6523C29.9078 69.6523 29.399 69.1327 29.399 68.4833V68.3535C29.399 67.7041 29.9078 67.1845 30.5439 67.1845ZM53.57 57.4436C52.9339 57.4436 52.425 57.9631 52.425 58.6125V60.3009C52.425 60.9503 52.9339 61.4699 53.57 61.4699C54.2061 61.4699 54.7149 60.9503 54.7149 60.3009V58.6125C54.7149 57.9631 54.2061 57.4436 53.57 57.4436ZM17.059 57.4436C17.6951 57.4436 18.2039 57.9631 18.2039 58.6125V60.3009C18.2039 60.9503 17.6951 61.4699 17.059 61.4699C16.4229 61.4699 15.9141 60.9503 15.9141 60.3009V58.6125C15.9141 57.9631 16.4229 57.4436 17.059 57.4436Z" fill="#20DEA3"/>
<path fill-rule="evenodd" clip-rule="evenodd" d="M30.2197 28.0484L30.0215 30.2421C30.1059 30.1368 30.5206 29.7868 30.6196 29.6901C30.9755 30.1283 30.8361 31.3375 30.726 31.9066C30.5426 32.854 30.205 33.1414 29.8711 33.8698C31.4195 33.2581 33.8339 31.2322 34.7256 29.7584C35.9034 27.8094 35.5108 26.2075 34.1899 24.4805L33.7018 23.8488C33.8083 21.5698 32.4836 19.8313 30.8324 18.3034C30.3151 17.8283 29.9004 17.2507 29.3207 16.7983C29.8748 17.9449 30.6857 18.7075 30.9572 20.4118L30.5059 20.0163C30.3628 19.8399 30.227 19.6777 30.0986 19.5269C29.3684 18.6562 28.4657 17.3816 28.3446 16.3032C28.2015 15.0627 29.5445 12.1264 29.7573 10.5843C28.873 11.1021 27.0567 13.475 26.5357 14.377C24.4258 18.0217 25.3945 20.756 27.5814 24.011C28.0217 24.6711 28.5428 25.2458 29.0161 25.9429L30.2197 28.0484ZM47.3187 35.6395L47.2636 35.742C46.8784 35.5257 45.8289 34.9311 45.3446 34.8372C46.0197 35.3692 46.805 36.3594 47.1976 37.0508C48.4231 39.2046 47.6489 40.7581 48.1333 43.3615C48.3387 44.4655 48.7093 45.2906 49.0066 46.2466C49.1864 46.1669 49.0616 46.2324 49.212 46.1328C49.2341 46.1157 49.3478 46.0304 49.3772 46.0048C52.4227 43.4782 51.6962 40.9516 51.8796 40.5533C54.4922 38.2002 52.0778 35.8159 55.6407 33.3406C56.1104 33.0134 57.3873 32.1228 58 31.9521C56.8552 35.5912 57.0717 34.729 57.4386 38.5531C57.6625 40.8349 57.5854 43.2506 57.046 45.541C56.7782 45.0374 56.2901 42.1779 55.4315 41.3528C55.3838 42.2661 55.4719 43.9733 54.6903 44.8183C54.4848 45.0374 54.628 44.9037 54.4665 44.9975C54.3124 44.2322 53.8721 43.0173 53.4721 42.3941L51.6191 46.6051C47.9131 47.49 45.2455 44.6163 44.3025 43.1311C42.9302 40.9687 42.5926 38.0381 43.3742 35.2782C44.3649 31.7899 47.326 28.8735 46.9738 23.5216C46.9077 22.4916 46.5738 20.4516 45.8913 19.837C45.2895 23.846 44.6144 26.1535 40.791 28.9077C40.5011 29.1154 39.8186 29.5791 39.4443 29.6048C40.1635 28.6089 40.9157 27.6927 41.0478 26.3128C41.1469 25.2458 40.5415 23.5529 39.7305 23.2001C39.2168 26.6912 35.1072 28.5463 34.3476 31.9236C33.1771 32.1968 29.8748 34.0889 28.8473 34.7547L27.2402 35.8842C27.0017 35.1729 26.8769 34.4872 26.6164 33.8072C26.455 33.3832 25.7321 32.1598 25.8532 31.898C26.7705 30.4242 27.486 29.5393 27.1998 27.5676C26.9907 26.1506 26.3669 24.8361 25.8238 23.5671C24.0038 19.322 22.7783 14.9546 25.8532 10.7607C26.7889 9.486 27.8383 8.65803 28.9464 7.77885C30.5609 6.50134 35.0081 4.13124 37.206 3.73291L35.6833 5.11286C34.0064 6.76025 32.8652 8.06053 31.7901 10.1518C30.9902 11.7138 30.8728 13.1052 32.3295 14.027C34.7219 15.5407 36.1236 13.5547 36.6887 13.3129C36.5199 14.6131 35.2613 15.572 36.4135 18.4542C38.494 23.6553 42.6623 21.9966 42.0716 17.4328C41.9615 16.5593 41.767 15.8252 41.4771 15.0314C41.1762 14.1977 40.5781 13.1991 40.4571 12.832C41.5762 13.2929 44.1484 15.6744 45.1024 16.6759C46.3683 18.0075 47.4361 19.7232 47.7627 21.8002C48.247 24.8902 46.9848 28.7939 47.0215 32.3504C47.0325 33.5397 47.2526 34.5413 47.3187 35.6395Z" fill="url(#paint0_linear_83_10604)"/>
<path fill-rule="evenodd" clip-rule="evenodd" d="M51.6186 46.6049L53.4716 42.3939C53.8715 43.017 54.3118 44.2319 54.4659 44.9973C54.7008 45.629 54.9283 47.1199 54.8402 47.8027C55.0494 49.1969 54.3962 51.3678 53.567 52.7051L53.1523 53.166C53.3174 51.5385 53.677 47.541 52.712 46.3943C52.1763 47.9507 51.5892 49.1343 50.4921 50.298C49.7142 51.1203 47.9529 52.6226 46.7457 52.9043C47.131 51.732 47.9309 51.0748 47.4832 49.6493C47.2301 48.8441 46.2247 47.8511 45.3257 47.5609C45.0578 48.7986 44.5515 49.3818 43.6892 50.0988C43.1571 50.5427 41.8178 51.3678 40.8748 51.5983L43.8983 46.9321C41.3958 46.1098 39.2823 44.4396 38.9044 42.2573C38.354 42.7353 38.0054 43.8734 37.9724 44.6388C37.8623 47.2166 40.684 50.1671 40.1116 51.5556C39.7703 52.3807 36.0643 54.7138 33.5912 50.4289C33.3967 50.0932 33.2536 49.7347 33.1289 49.3733C33.0005 48.9949 33.0041 48.46 32.8427 48.1413C32.1565 48.7559 31.3052 50.5626 31.0887 51.5357C30.6704 53.4221 31.5547 54.3383 28.6303 54.3269C26.5388 54.3183 25.2802 53.8062 24.3078 52.89C23.1153 51.7662 23.1814 51.1687 22.8181 49.5611C21.8017 50.7333 21.6513 53.5188 22.708 55.2032C22.8878 55.4877 22.9942 55.6357 23.2327 55.9174L23.9372 56.6657C23.4345 56.5405 23.3208 56.4551 22.719 56.3271C22.2934 56.236 21.8714 56.1165 21.5155 55.9743C20.9027 55.7267 20.4294 55.4195 19.8827 55.0866L19.6258 54.8874C19.9744 54.8134 19.446 54.8163 19.0534 53.8005C18.8919 53.3766 18.7635 52.7848 18.8516 52.3267C18.9837 51.53 19.0717 51.0065 19.4533 50.2895C19.8753 49.507 20.1982 49.231 20.1468 48.2181C20.0808 46.9093 19.435 45.9875 18.8479 44.9233L18.7415 44.7384C18.7342 44.7213 18.7195 44.6929 18.7048 44.6701C18.4773 44.5136 18.1397 43.9616 17.9746 43.734L18.9543 44.0214C19.9854 44.6587 21.7944 45.0457 23.0676 47.0772C23.8418 48.3092 23.996 50.5996 25.5811 51.2398C27.9331 52.1844 28.9899 49.1912 29.2944 47.9962C29.7494 46.198 30.9016 44.6104 32.8427 44.377C32.6042 46.3488 32.8647 46.7727 34.0829 47.9308C34.5085 48.3319 35.0956 48.7161 35.7965 49.0034C36.1451 49.1457 36.5707 49.2879 36.978 49.3562C39.1979 49.7261 37.8513 47.9393 37.6752 47.6377C37.3779 47.1341 37.2495 46.6106 36.978 46.1354C36.8386 44.8437 36.6037 44.2433 36.8789 42.7752C37.1027 41.5716 37.5761 40.7636 38.0274 39.7478C38.3723 39.2357 38.6879 38.6581 39.0989 38.2598C39.6419 39.3097 39.9024 42.9288 43.1901 44.7526C43.924 45.1566 44.6652 45.2676 45.5091 45.5834C49.1711 46.9435 48.6684 49.4217 49.1528 50.0619C50.0664 49.6095 51.2003 47.6861 51.6186 46.6049Z" fill="url(#paint1_linear_83_10604)" fill-opacity="0.68"/>
<path fill-rule="evenodd" clip-rule="evenodd" d="M51.619 46.6052C51.2007 47.6864 50.0669 49.6098 49.1532 50.0622C48.6689 49.422 49.1716 46.9438 45.5096 45.5838C44.6656 45.268 43.9244 45.157 43.1906 44.753C39.9029 42.9292 39.6423 39.31 39.0993 38.2601C38.6883 38.6585 38.3728 39.2361 38.0278 39.7482C37.7086 39.1109 39.4185 35.9669 39.7891 35.3722C40.2184 34.6865 40.6698 34.1032 41.1578 33.4887C41.6421 32.8741 42.2512 32.3164 42.6549 31.7872C42.0237 31.8982 33.3128 34.7349 32.4982 34.9938C30.326 35.688 25.5852 37.509 23.8459 38.8519C23.7836 38.9003 23.6955 38.98 23.6331 39.017C23.3506 39.1877 23.5781 39.1023 23.2662 39.1621L23.5414 38.2914C22.4223 38.9971 20.6757 41.2562 19.9418 42.437C19.7547 42.7357 19.252 43.871 18.9548 44.0218L17.975 43.7344C18.1402 43.962 18.4777 44.514 18.7052 44.6705C18.5071 46.1557 17.9053 46.5256 17.9677 48.8814C17.975 49.2656 18.0374 49.1859 17.8613 49.3708C17.5164 48.7619 17.0761 48.227 16.7275 47.4161C16.4156 46.6935 16.1587 45.8939 16.0743 45.1143C16.2982 44.9066 16.933 43.4328 18.0191 42.2719C18.797 41.4383 19.6262 40.744 20.4482 39.8421C21.5857 38.5987 23.8276 35.5458 24.0294 33.7077C24.7559 32.0831 24.2019 30.615 23.9524 29.3744C24.9211 30.2963 25.4201 31.7274 25.8531 31.8982C25.732 32.1599 26.4548 33.3834 26.6163 33.8073C26.8768 34.4873 27.0016 35.173 27.2401 35.8844L28.8472 34.7548C29.8746 34.089 33.177 32.1969 34.3475 31.9238C34.1054 32.4644 33.9476 33.244 33.9402 33.8329C34.3732 33.8272 34.8319 33.3521 35.463 32.968C36.5198 32.325 38.3544 30.8767 39.1066 29.9577C39.1213 29.9406 39.2277 29.8041 39.2277 29.8012C39.2461 29.7813 39.3084 29.7187 39.3268 29.7016L39.4442 29.6049C39.8185 29.5793 40.501 29.1155 40.7908 28.9078C44.6143 26.1536 45.2894 23.8461 45.8912 19.8372C46.5737 20.4517 46.9076 22.4918 46.9736 23.5218C47.3259 28.8737 44.3648 31.79 43.374 35.2783C42.5925 38.0382 42.9301 40.9688 44.3024 43.1312C45.2454 44.6164 47.913 47.4901 51.619 46.6052Z" fill="url(#paint2_linear_83_10604)"/>
<path fill-rule="evenodd" clip-rule="evenodd" d="M36.978 46.1358C37.2495 46.6109 37.378 47.1345 37.6752 47.6381C37.8513 47.9397 39.198 49.7265 36.978 49.3566C36.5707 49.2883 36.1451 49.146 35.7965 49.0038C35.0957 48.7164 34.5086 48.3323 34.0829 47.9311C32.8647 46.7731 32.6042 46.3492 32.8427 44.3774C30.9016 44.6107 29.7495 46.1984 29.2945 47.9966C28.9899 49.1916 27.9332 52.1848 25.5811 51.2401C23.996 50.6 23.8419 48.3095 23.0676 47.0775C21.7944 45.046 19.9854 44.6591 18.9543 44.0218C19.2516 43.871 19.7543 42.7357 19.9414 42.4369C20.6753 41.2562 22.4218 38.997 23.541 38.2914L23.2658 39.1621C22.5723 40.6217 22.5356 43.6633 23.2034 45.1086C24.0033 46.8414 26.1939 48.2242 28.2561 48.0051C28.4725 47.4474 28.1203 46.5284 28.0029 45.9167C27.3828 42.5963 28.1937 38.3853 32.2593 36.5786C33.5215 36.0152 35.6644 35.597 37.444 35.8388C37.1285 36.1575 36.6331 36.4562 36.2148 36.829C33.8114 38.9629 33.0408 41.3415 34.8498 43.9762C35.2424 44.551 36.3909 45.8 36.978 46.1358Z" fill="url(#paint3_linear_83_10604)"/>
<path fill-rule="evenodd" clip-rule="evenodd" d="M38.0287 39.7481C37.5774 40.7639 37.1041 41.5719 36.8802 42.7755C36.605 44.2436 36.8399 44.844 36.9793 46.1357C36.3922 45.8 35.2437 44.5509 34.8511 43.9762C33.0421 41.3415 33.8127 38.9628 36.2161 36.8289C36.6344 36.4562 37.1298 36.1574 37.4453 35.8387C35.6657 35.5969 33.5228 36.0151 32.2606 36.5785C28.195 38.3852 27.3841 42.5962 28.0042 45.9166C28.1216 46.5283 28.4738 47.4474 28.2574 48.005C26.1952 48.2241 24.0046 46.8413 23.2047 45.1086C22.5369 43.6632 22.5736 40.6216 23.2671 39.162C23.579 39.1022 23.3515 39.1876 23.634 39.0169C23.6964 38.9799 23.7845 38.9002 23.8468 38.8519C25.5861 37.5089 30.3269 35.6879 32.4991 34.9937C33.3137 34.7348 42.0246 31.8981 42.6557 31.7871C42.2521 32.3163 41.643 32.874 41.1587 33.4886C40.6706 34.1031 40.2193 34.6864 39.79 35.3721C39.4194 35.9668 37.7095 39.1108 38.0287 39.7481Z" fill="url(#paint4_linear_83_10604)"/>
<path fill-rule="evenodd" clip-rule="evenodd" d="M30.9565 20.4117C31.206 21.2255 30.3841 26.6969 30.219 28.0484L29.0155 25.9429C28.5421 25.2458 28.0211 24.6711 27.5808 24.011C25.3938 20.756 24.4251 18.0217 26.535 14.3769C27.056 13.475 28.8724 11.1021 29.7567 10.5842C29.5438 12.1264 28.2009 15.0626 28.344 16.3032C28.4651 17.3815 29.3677 18.6562 30.0979 19.5268C30.2263 19.6776 30.3621 19.8398 30.5052 20.0162L30.9565 20.4117Z" fill="#FA6D01"/>
<path fill-rule="evenodd" clip-rule="evenodd" d="M21.0167 29.4966C20.8149 31.2322 21.1598 32.2167 21.2662 33.7446C19.1123 32.6975 17.6226 30.2051 17.8868 27.963C18.0299 26.7254 18.5546 25.593 19.0683 24.4776C19.3105 23.9484 19.6003 23.3509 19.6187 22.7648C19.6444 21.8088 19.4279 21.4332 19.5893 21.0434L19.6627 20.9182C20.0297 21.6125 21.3616 22.7392 21.923 24.6597C22.5358 26.7624 21.2589 27.4452 21.0167 29.4966Z" fill="#FC0002"/>
<path fill-rule="evenodd" clip-rule="evenodd" d="M47.3185 35.6395C47.7001 36.0976 48.2541 36.3224 48.7201 36.6695C48.966 36.8516 49.2375 37.0365 49.4173 37.1959C50.3089 37.984 51.0355 38.7835 51.4795 39.7737L51.6923 40.3143C51.8831 40.6472 51.6996 40.3939 51.8794 40.5533C51.6959 40.9516 52.4225 43.4782 49.3769 46.0048C49.3476 46.0304 49.2338 46.1157 49.2118 46.1328C49.0614 46.2324 49.1861 46.1669 49.0063 46.2466C48.7091 45.2906 48.3385 44.4655 48.133 43.3615C47.6487 40.7581 48.4229 39.2046 47.1974 37.0508C46.8047 36.3594 46.0195 35.3692 45.3444 34.8372C45.8287 34.9311 46.8781 35.5257 47.2634 35.7419L47.3185 35.6395ZM57.1522 48.3663C56.9724 50.7336 57.5265 52.7224 55.2588 55.2717C53.8388 56.8679 50.8043 58.2166 48.4963 58.1682C48.7715 58.0259 49.1054 57.9434 49.3843 57.8353C51.7216 56.9277 52.9178 55.3372 53.1527 53.1662L53.5673 52.7053C54.3966 51.3681 55.0497 49.1971 54.8405 47.803C54.8626 47.7916 54.9029 47.7489 54.9103 47.766L55.1561 47.5953C55.2332 47.527 55.3176 47.416 55.3726 47.3477C55.5194 47.1628 55.6551 46.9636 55.7836 46.7388C56.0551 46.2694 56.1615 45.8511 56.3156 45.3304L56.4881 45.6349C56.7853 46.3803 56.9651 47.9822 57.1522 48.3663Z" fill="url(#paint5_linear_83_10604)"/>
<path fill-rule="evenodd" clip-rule="evenodd" d="M39.445 29.6051L39.3276 29.7018C39.3092 29.7189 39.2469 29.7815 39.2285 29.8014C39.2285 29.8043 39.1221 29.9408 39.1074 29.9579C38.3552 30.8769 36.5206 32.3251 35.4638 32.9682C34.8327 33.3523 34.374 33.8274 33.941 33.8331C33.9484 33.2442 34.1062 32.4646 34.3483 31.924C35.1079 28.5467 39.2175 26.6916 39.7312 23.2004C40.5421 23.5533 41.1476 25.2462 41.0485 26.3131C40.9164 27.6931 40.1642 28.6093 39.445 29.6051Z" fill="#EEA105"/>
<path fill-rule="evenodd" clip-rule="evenodd" d="M16.0756 45.1144C15.8187 43.521 15.9325 41.2135 16.7911 39.8194C17.5103 39.2076 18.0313 38.2374 20.1485 36.5815C20.831 36.0466 21.4548 35.6368 22.1043 35.1531L24.0307 33.7078C23.8289 35.5458 21.5869 38.5987 20.4494 39.8421C19.6275 40.7441 18.7982 41.4383 18.0203 42.272C16.9342 43.4328 16.2994 44.9067 16.0756 45.1144Z" fill="#FC0002"/>
<path fill-rule="evenodd" clip-rule="evenodd" d="M16.7898 39.8192C15.9312 41.2134 15.8175 43.5209 16.0743 45.1143C16.1587 45.8938 16.4156 46.6934 16.7274 47.4161C17.076 48.227 17.5163 48.7619 17.8613 49.3707L17.7475 49.4476C16.9109 49.1545 15.3184 47.9339 14.6763 47.3108L13.9534 46.5596C13.7883 46.406 13.9828 46.5426 13.759 46.3975L13.7223 46.9978C13.5828 46.7275 13.7259 46.4117 13.6489 46.1698C13.6012 46.0219 13.3407 45.6634 13.2563 45.45C13.0324 44.9037 12.9224 44.2721 13.0618 43.6148C13.2893 42.5336 14.0599 41.276 14.6616 40.4082C15.9312 38.5787 17.564 36.698 19.0868 35.2782C18.5878 36.2172 16.9916 38.4678 16.7605 39.5689C16.6834 39.9217 16.6908 39.6969 16.7898 39.8192ZM33.7017 23.8489C33.3201 26.7112 32.1386 27.6843 30.6195 29.6902C30.5204 29.7869 30.1058 30.1369 30.0214 30.2421L30.2195 28.0485C30.3846 26.697 31.2066 21.2255 30.957 20.4118C30.6855 18.7075 29.8746 17.945 29.3205 16.7983C29.9003 17.2507 30.3149 17.8283 30.8323 18.3035C32.4835 19.8314 33.8081 21.5698 33.7017 23.8489Z" fill="#FCE7B2"/>
<path fill-rule="evenodd" clip-rule="evenodd" d="M30.6194 29.6902C32.1385 27.6843 33.32 26.7112 33.7016 23.8489L34.1896 24.4805C35.5106 26.2076 35.9032 27.8095 34.7254 29.7585C33.8337 31.2323 31.4193 33.2581 29.8708 33.8698C30.2048 33.1415 30.5423 32.8541 30.7258 31.9066C30.8359 31.3376 30.9753 30.1283 30.6194 29.6902Z" fill="#FA6D01"/>
<path fill-rule="evenodd" clip-rule="evenodd" d="M42.3878 6.80583C42.274 7.77891 42.23 8.30528 42.3951 9.32957C42.5052 9.99251 42.762 10.5075 42.8941 11.0879C41.386 10.4165 39.001 8.31666 39.1331 6.56683C39.2285 5.32061 40.2192 4.78855 40.9053 4.02034C42.4868 2.25059 42.4685 1.66447 42.3657 0C42.9565 0.68286 43.7454 1.97176 43.5913 3.11555C43.4996 3.82401 42.6006 4.99057 42.3878 6.80583Z" fill="#FC0002"/>
<path fill-rule="evenodd" clip-rule="evenodd" d="M17.7479 49.4476C18.2396 49.9739 18.1882 51.5189 18.7423 52.2188L18.8524 52.327C18.7643 52.785 18.8927 53.3769 19.0542 53.8008C19.4468 54.8166 19.9752 54.8137 19.6266 54.8877C18.8854 54.3727 18.0708 54.017 17.3039 53.5106C16.3315 52.8676 16.016 52.546 15.3739 51.8233C14.3538 50.6796 13.5759 48.8472 13.7227 46.9978L13.7594 46.3975C13.9832 46.5426 13.7887 46.406 13.9538 46.5596L14.6767 47.3108C15.3188 47.9339 16.9113 49.1545 17.7479 49.4476Z" fill="#FB4301" fill-opacity="0.5"/>
<path fill-rule="evenodd" clip-rule="evenodd" d="M53.7615 25.5704C53.4496 28.2392 51.2003 29.2948 51.0792 29.4314L52.7414 21.533C53.013 21.7577 53.134 22.0906 53.2515 22.3865C53.6588 23.3966 53.8899 24.4721 53.7615 25.5704Z" fill="#FC0002"/>
<path fill-rule="evenodd" clip-rule="evenodd" d="M18.8523 52.327L18.7422 52.2189C18.1881 51.5189 18.2395 49.974 17.7478 49.4476L17.8616 49.3708C18.0377 49.1858 17.9753 49.2655 17.968 48.8814C17.9056 46.5255 18.5074 46.1556 18.7055 44.6704C18.7202 44.6932 18.7348 44.7216 18.7422 44.7387L18.8486 44.9236C19.4357 45.9878 20.0815 46.9096 20.1475 48.2184C20.1989 49.2313 19.876 49.5073 19.454 50.2898C19.0724 51.0068 18.9844 51.5303 18.8523 52.327Z" fill="#F9CF67"/>
<path fill-rule="evenodd" clip-rule="evenodd" d="M57.0463 45.541C57.0206 46.3889 57.1527 47.4189 57.1527 48.3663C56.9656 47.9822 56.7858 46.3803 56.4886 45.6349L56.3161 45.3304C56.162 45.8511 56.0556 46.2694 55.7841 46.7388C55.6557 46.9636 55.5199 47.1628 55.3731 47.3477C55.3181 47.416 55.2337 47.527 55.1566 47.5953L54.9108 47.766C54.9034 47.7489 54.8631 47.7916 54.8411 47.803C54.9291 47.1201 54.7016 45.6292 54.4668 44.9975C54.6282 44.9037 54.4851 45.0374 54.6906 44.8183C55.4722 43.9733 55.3841 42.2661 55.4318 41.3528C56.2904 42.1779 56.7785 45.0374 57.0463 45.541Z" fill="#FA6D01"/>
<defs>
<linearGradient id="paint0_linear_83_10604" x1="40.9882" y1="3.73291" x2="40.9882" y2="46.771" gradientUnits="userSpaceOnUse">
<stop stop-color="#FC0002"/>
<stop offset="1" stop-color="#FF0002" stop-opacity="0.5"/>
</linearGradient>
<linearGradient id="paint1_linear_83_10604" x1="36.4271" y1="38.2598" x2="36.4271" y2="56.6657" gradientUnits="userSpaceOnUse">
<stop stop-color="#FCE7B2"/>
<stop offset="1" stop-color="#FFB700" stop-opacity="0.2"/>
</linearGradient>
<linearGradient id="paint2_linear_83_10604" x1="33.8467" y1="19.8372" x2="33.8467" y2="50.0622" gradientUnits="userSpaceOnUse">
<stop stop-color="#FA6D01"/>
<stop offset="1" stop-color="#FF6F00" stop-opacity="0.5"/>
</linearGradient>
<linearGradient id="paint3_linear_83_10604" x1="28.5974" y1="35.7688" x2="28.5974" y2="51.4216" gradientUnits="userSpaceOnUse">
<stop stop-color="#F9CF67"/>
<stop offset="1" stop-color="#FFB600" stop-opacity="0.2"/>
</linearGradient>
<linearGradient id="paint4_linear_83_10604" x1="32.6902" y1="31.7871" x2="32.6902" y2="48.0279" gradientUnits="userSpaceOnUse">
<stop stop-color="#EEA105"/>
<stop offset="1" stop-color="#FFAB00" stop-opacity="0.2"/>
</linearGradient>
<linearGradient id="paint5_linear_83_10604" x1="51.2483" y1="34.8372" x2="51.2483" y2="58.1695" gradientUnits="userSpaceOnUse">
<stop stop-color="#F9CF67"/>
<stop offset="1" stop-color="#FFB600" stop-opacity="0.4"/>
</linearGradient>
</defs>
</svg>
