<svg width="25" height="25" viewBox="0 0 25 25" fill="none" xmlns="http://www.w3.org/2000/svg">
<path fill-rule="evenodd" clip-rule="evenodd" d="M10.0213 20.7383C10.0213 21.1064 9.73288 21.4008 9.37241 21.4008C9.01193 21.4008 8.72355 21.1064 8.72355 20.7383V17.9413C8.72355 17.5733 8.43516 17.2789 8.07469 17.2789C7.71421 17.2789 7.42583 17.5733 7.42583 17.9413V19.3398C7.42583 19.7079 7.13745 20.0023 6.84907 20.0023C6.48859 20.0023 6.20021 19.7079 6.20021 19.3398V15.1444C6.20021 14.7763 5.91182 14.4819 5.55135 14.4819C5.19087 14.4819 4.90249 14.7763 4.90249 15.1444V20.5175C4.90249 20.8855 4.61411 21.18 4.25363 21.18C3.89315 21.18 3.60477 20.8855 3.60477 20.5175V13.6723C3.60477 13.3042 3.31639 13.0098 2.95591 13.0098C2.66753 13.0098 2.37915 13.3042 2.37915 13.6723V15.0708C2.37915 15.4388 2.09077 15.7332 1.73029 15.7332C1.36981 15.7332 1.08143 15.4388 1.08143 15.0708V13.5987L0 12.4946L4.61411 7.85748L12.0399 15.5124L19.5379 7.85748L24.0799 12.4946L23.0705 13.5987V15.0708C23.0705 15.4388 22.7822 15.7332 22.4217 15.7332C22.0612 15.7332 21.7728 15.4388 21.7728 15.0708V13.6723C21.7728 13.3042 21.4844 13.0098 21.124 13.0098C20.7635 13.0098 20.4751 13.3042 20.4751 13.6723V20.5175C20.4751 20.8855 20.1867 21.18 19.8262 21.18C19.5379 21.18 19.2495 20.8855 19.2495 20.5175V15.1444C19.2495 14.7763 18.9611 14.4819 18.6006 14.4819C18.2401 14.4819 17.9518 14.7763 17.9518 15.1444V19.3398C17.9518 19.7079 17.6634 20.0023 17.3029 20.0023C16.9424 20.0023 16.654 19.7079 16.654 19.3398V17.9413C16.654 17.5733 16.3657 17.2789 16.0052 17.2789C15.6447 17.2789 15.3563 17.5733 15.3563 17.9413V20.7383C15.3563 21.1064 15.0679 21.4008 14.7796 21.4008C14.4191 21.4008 14.1307 21.1064 14.1307 20.7383V20.5911H14.0586V20.3703H13.9865V20.2967H13.9144V20.2231H13.8423V20.1495H13.6981V20.0759H13.1935V20.1495H13.1214V20.2231H12.9772V20.3703H12.9051V20.5175H12.833V24.0506L12.0399 24.7866L11.319 24.0506V20.5911H11.2469V20.3703H11.1748V20.2967H11.1027V20.2231H11.0306V20.1495H10.8864V20.0759H10.3817V20.1495H10.3096L10.2375 20.2231H10.1655V20.3703H10.0934V20.4439L10.0213 20.5175V20.7383Z" fill="#FEFEFE"/>
<path fill-rule="evenodd" clip-rule="evenodd" d="M14.7841 21.9158C14.4236 21.9158 14.1352 22.2102 14.1352 22.5783V22.6519C14.1352 23.0199 14.4236 23.3143 14.7841 23.3143C15.0724 23.3143 15.3608 23.0199 15.3608 22.6519V22.5783C15.3608 22.2102 15.0724 21.9158 14.7841 21.9158ZM9.37691 21.9158C9.73739 21.9158 10.0258 22.2102 10.0258 22.5783V22.6519C10.0258 23.0199 9.73739 23.3143 9.37691 23.3143C9.01643 23.3143 8.72805 23.0199 8.72805 22.6519V22.5783C8.72805 22.2102 9.01643 21.9158 9.37691 21.9158ZM22.4262 16.3955C22.0657 16.3955 21.7773 16.6899 21.7773 17.0579V18.0148C21.7773 18.3828 22.0657 18.6772 22.4262 18.6772C22.7867 18.6772 23.075 18.3828 23.075 18.0148V17.0579C23.075 16.6899 22.7867 16.3955 22.4262 16.3955ZM1.7348 16.3955C2.09527 16.3955 2.38366 16.6899 2.38366 17.0579V18.0148C2.38366 18.3828 2.09527 18.6772 1.7348 18.6772C1.37432 18.6772 1.08594 18.3828 1.08594 18.0148V17.0579C1.08594 16.6899 1.37432 16.3955 1.7348 16.3955ZM12.0444 0.276001L16.7306 4.98671L12.0444 9.77103L7.43034 4.98671L12.0444 0.276001Z" fill="#FEFEFE"/>
</svg>
