<svg width="70" height="70" viewBox="0 0 70 70" fill="none" xmlns="http://www.w3.org/2000/svg">
<circle cx="35" cy="35" r="35" fill="#092A14"/>
<path fill-rule="evenodd" clip-rule="evenodd" d="M34.9543 9.65527L48.2987 23.2095L61.5517 36.7637L48.2987 50.4114L34.9543 63.9656L21.7013 50.4114L8.44824 36.7637L21.7013 23.2095L34.9543 9.65527Z" fill="url(#paint0_linear_83_10778)"/>
<path fill-rule="evenodd" clip-rule="evenodd" d="M32.3694 46.7016C32.3694 47.1739 31.9936 47.5517 31.5238 47.5517C31.0541 47.5517 30.6783 47.1739 30.6783 46.7016V43.1124C30.6783 42.6401 30.3025 42.2623 29.8327 42.2623C29.363 42.2623 28.9872 42.6401 28.9872 43.1124V44.907C28.9872 45.3793 28.6114 45.7571 28.2356 45.7571C27.7658 45.7571 27.39 45.3793 27.39 44.907V39.5232C27.39 39.0509 27.0142 38.6731 26.5445 38.6731C26.0747 38.6731 25.6989 39.0509 25.6989 39.5232V46.4182C25.6989 46.8905 25.3231 47.2683 24.8534 47.2683C24.3836 47.2683 24.0078 46.8905 24.0078 46.4182V37.6341C24.0078 37.1619 23.632 36.7841 23.1623 36.7841C22.7865 36.7841 22.4107 37.1619 22.4107 37.6341V39.4287C22.4107 39.901 22.0349 40.2788 21.5651 40.2788C21.0954 40.2788 20.7196 39.901 20.7196 39.4287V37.5397L19.3103 36.1229L25.3231 30.1724L35 39.9955L44.7708 30.1724L50.6896 36.1229L49.3743 37.5397V39.4287C49.3743 39.901 48.9985 40.2788 48.5288 40.2788C48.059 40.2788 47.6832 39.901 47.6832 39.4287V37.6341C47.6832 37.1619 47.3074 36.7841 46.8377 36.7841C46.3679 36.7841 45.9921 37.1619 45.9921 37.6341V46.4182C45.9921 46.8905 45.6163 47.2683 45.1466 47.2683C44.7708 47.2683 44.395 46.8905 44.395 46.4182V39.5232C44.395 39.0509 44.0192 38.6731 43.5494 38.6731C43.0797 38.6731 42.7039 39.0509 42.7039 39.5232V44.907C42.7039 45.3793 42.3281 45.7571 41.8583 45.7571C41.3886 45.7571 41.0128 45.3793 41.0128 44.907V43.1124C41.0128 42.6401 40.637 42.2623 40.1672 42.2623C39.6975 42.2623 39.3217 42.6401 39.3217 43.1124V46.7016C39.3217 47.1739 38.9459 47.5517 38.5701 47.5517C38.1003 47.5517 37.7245 47.1739 37.7245 46.7016V46.5127H37.6306V46.2293H37.5366V46.1349H37.4427V46.0404H37.3487V45.946H37.1608V45.8515H36.5032V45.946H36.4092V46.0404H36.2213V46.2293H36.1274V46.4182H36.0334V50.952L35 51.8965L34.0605 50.952V46.5127H33.9665V46.2293H33.8726V46.1349H33.7786V46.0404H33.6847V45.946H33.4968V45.8515H32.8391V45.946H32.7452L32.6512 46.0404H32.5573V46.2293H32.4633V46.3238L32.3694 46.4182V46.7016Z" fill="#FEFEFE"/>
<path fill-rule="evenodd" clip-rule="evenodd" d="M37.8095 48.8582C37.3544 48.8582 36.9904 49.2438 36.9904 49.7258V49.8222C36.9904 50.3042 37.3544 50.6897 37.8095 50.6897C38.1735 50.6897 38.5376 50.3042 38.5376 49.8222V49.7258C38.5376 49.2438 38.1735 48.8582 37.8095 48.8582ZM30.9836 48.8582C31.4386 48.8582 31.8027 49.2438 31.8027 49.7258V49.8222C31.8027 50.3042 31.4386 50.6897 30.9836 50.6897C30.5285 50.6897 30.1645 50.3042 30.1645 49.8222V49.7258C30.1645 49.2438 30.5285 48.8582 30.9836 48.8582ZM47.4567 41.6284C47.0017 41.6284 46.6376 42.014 46.6376 42.496V43.7491C46.6376 44.2311 47.0017 44.6167 47.4567 44.6167C47.9118 44.6167 48.2758 44.2311 48.2758 43.7491V42.496C48.2758 42.014 47.9118 41.6284 47.4567 41.6284ZM21.3363 41.6284C21.7914 41.6284 22.1554 42.014 22.1554 42.496V43.7491C22.1554 44.2311 21.7914 44.6167 21.3363 44.6167C20.8813 44.6167 20.5172 44.2311 20.5172 43.7491V42.496C20.5172 42.014 20.8813 41.6284 21.3363 41.6284ZM34.351 20.5173L40.2668 26.6868L34.351 32.9526L28.5263 26.6868L34.351 20.5173Z" fill="#FEFEFE"/>
<defs>
<linearGradient id="paint0_linear_83_10778" x1="34.9817" y1="63.989" x2="62.1571" y2="37.4175" gradientUnits="userSpaceOnUse">
<stop stop-color="#01C48C"/>
<stop offset="1" stop-color="#B600BC"/>
</linearGradient>
</defs>
</svg>
