<svg width="227" height="49" viewBox="0 0 227 49" fill="none" xmlns="http://www.w3.org/2000/svg">
<path d="M4.95637 1.12195H221.204C223.541 1.12195 225.006 2.57624 225.006 3.90145V44.8663C225.006 46.1915 223.541 47.6458 221.204 47.6458H4.95637C2.62019 47.6458 1.1543 46.1915 1.1543 44.8663V3.90145C1.1543 2.57624 2.62019 1.12195 4.95637 1.12195Z" fill="url(#paint0_linear_200_311)" fill-opacity="0.5" stroke="url(#paint1_linear_200_311)" stroke-width="2"/>
<mask id="path-2-inside-1_200_311" fill="white">
<path d="M221.205 0.243839C223.767 0.243839 225.852 1.88487 225.852 3.90142V44.8663C225.852 46.8829 223.767 48.5239 221.205 48.5239H4.95697C2.39484 48.5239 0.309811 46.8829 0.309811 44.8663V3.90142C0.309811 1.88487 2.39484 0.243839 4.95697 0.243839H221.205ZM221.205 0H4.95697C2.21825 0 0 1.74588 0 3.90142V44.8663C0 47.0218 2.21825 48.7677 4.95697 48.7677H221.205C223.944 48.7677 226.162 47.0218 226.162 44.8663V3.90142C226.162 1.74588 223.944 0 221.205 0Z"/>
</mask>
<path d="M221.205 0.243839C223.767 0.243839 225.852 1.88487 225.852 3.90142V44.8663C225.852 46.8829 223.767 48.5239 221.205 48.5239H4.95697C2.39484 48.5239 0.309811 46.8829 0.309811 44.8663V3.90142C0.309811 1.88487 2.39484 0.243839 4.95697 0.243839H221.205ZM221.205 0H4.95697C2.21825 0 0 1.74588 0 3.90142V44.8663C0 47.0218 2.21825 48.7677 4.95697 48.7677H221.205C223.944 48.7677 226.162 47.0218 226.162 44.8663V3.90142C226.162 1.74588 223.944 0 221.205 0Z" fill="#DEE7FC"/>
<path d="M221.205 2.24384C223.135 2.24384 223.852 3.40917 223.852 3.90142H227.852C227.852 0.360575 224.399 -1.75616 221.205 -1.75616V2.24384ZM223.852 3.90142V44.8663H227.852V3.90142H223.852ZM223.852 44.8663C223.852 45.3586 223.135 46.5239 221.205 46.5239V50.5239C224.399 50.5239 227.852 48.4071 227.852 44.8663H223.852ZM221.205 46.5239H4.95697V50.5239H221.205V46.5239ZM4.95697 46.5239C3.0267 46.5239 2.30981 45.3586 2.30981 44.8663H-1.69019C-1.69019 48.4071 1.76298 50.5239 4.95697 50.5239V46.5239ZM2.30981 44.8663V3.90142H-1.69019V44.8663H2.30981ZM2.30981 3.90142C2.30981 3.40917 3.0267 2.24384 4.95697 2.24384V-1.75616C1.76298 -1.75616 -1.69019 0.360575 -1.69019 3.90142H2.30981ZM4.95697 2.24384H221.205V-1.75616H4.95697V2.24384ZM221.205 -2H4.95697V2H221.205V-2ZM4.95697 -2C1.58639 -2 -2 0.221587 -2 3.90142H2C2 3.27018 2.8501 2 4.95697 2V-2ZM-2 3.90142V44.8663H2V3.90142H-2ZM-2 44.8663C-2 48.5461 1.58639 50.7677 4.95697 50.7677V46.7677C2.8501 46.7677 2 45.4975 2 44.8663H-2ZM4.95697 50.7677H221.205V46.7677H4.95697V50.7677ZM221.205 50.7677C224.576 50.7677 228.162 48.5461 228.162 44.8663H224.162C224.162 45.4975 223.312 46.7677 221.205 46.7677V50.7677ZM228.162 44.8663V3.90142H224.162V44.8663H228.162ZM228.162 3.90142C228.162 0.221587 224.576 -2 221.205 -2V2C223.312 2 224.162 3.27018 224.162 3.90142H228.162Z" fill="url(#paint2_linear_200_311)" mask="url(#path-2-inside-1_200_311)"/>
<defs>
<linearGradient id="paint0_linear_200_311" x1="113.08" y1="0.121948" x2="113.08" y2="48.6458" gradientUnits="userSpaceOnUse">
<stop stop-color="#8203E5"/>
<stop offset="1" stop-color="#03AC81"/>
</linearGradient>
<linearGradient id="paint1_linear_200_311" x1="113.08" y1="0.121948" x2="113.08" y2="48.6458" gradientUnits="userSpaceOnUse">
<stop stop-color="#1EE4A3"/>
<stop offset="1" stop-color="#E134FE"/>
</linearGradient>
<linearGradient id="paint2_linear_200_311" x1="113.081" y1="0" x2="113.081" y2="48.7677" gradientUnits="userSpaceOnUse">
<stop stop-color="#1EE4A3"/>
<stop offset="1" stop-color="#E134FE"/>
</linearGradient>
</defs>
</svg>
