<svg width="32" height="32" viewBox="0 0 32 32" fill="none" xmlns="http://www.w3.org/2000/svg">
<circle cx="16" cy="16" r="15" fill="#270B5B" stroke="url(#paint0_linear_83_7217)" stroke-width="2"/>
<path d="M13.3604 22L12.8804 22C12.4828 22 12.1605 21.7062 12.1605 21.3437L12.1605 11.5L10.7206 11.5C10.0797 11.5 9.75948 10.7918 10.2116 10.3797L12.6113 8.1922C12.8925 7.93593 13.3483 7.93593 13.6294 8.1922L16.0292 10.3797C16.4795 10.7903 16.1637 11.5 15.5201 11.5L14.0803 11.5L14.0803 21.3437C14.0803 21.7062 13.758 22 13.3604 22ZM17.9199 8.65625L17.9199 18.5L16.48 18.5C15.8407 18.5 15.5177 19.2072 15.971 19.6203L18.3707 21.8078C18.6519 22.0641 19.1077 22.0641 19.3888 21.8078L21.7886 19.6203C22.2393 19.2094 21.9226 18.5 21.2795 18.5L19.8397 18.5L19.8397 8.65625C19.8397 8.29381 19.5174 8 19.1198 8L18.6398 8C18.2422 8 17.9199 8.29381 17.9199 8.65625Z" fill="url(#paint1_linear_83_7217)"/>
<defs>
<linearGradient id="paint0_linear_83_7217" x1="16" y1="0" x2="16" y2="32" gradientUnits="userSpaceOnUse">
<stop stop-color="#1EE1A2"/>
<stop offset="1" stop-color="#8A34A9"/>
</linearGradient>
<linearGradient id="paint1_linear_83_7217" x1="11.8071" y1="13.331" x2="18.0521" y2="20.1819" gradientUnits="userSpaceOnUse">
<stop stop-color="#8935A9"/>
<stop offset="1" stop-color="#19AE8A"/>
</linearGradient>
</defs>
</svg>
