<svg width="25" height="25" viewBox="0 0 25 25" fill="none" xmlns="http://www.w3.org/2000/svg">
<rect x="1" y="1" width="22.1687" height="22.1687" rx="11.0843" stroke="url(#paint0_linear_83_7143)" stroke-width="2"/>
<path d="M19.0112 14.2335L17.7357 13.4932C17.8644 12.7949 17.8644 12.0787 17.7357 11.3804L19.0112 10.6401C19.1579 10.5558 19.2238 10.3812 19.1759 10.2187C18.8435 9.1473 18.2776 8.17821 17.5381 7.37163C17.4243 7.24824 17.2386 7.21814 17.0949 7.30241L15.8194 8.04277C15.2835 7.57929 14.6667 7.22115 13.999 6.9864V5.50868C13.999 5.34014 13.8822 5.19267 13.7175 5.15656C12.6187 4.90977 11.4929 4.92181 10.4479 5.15656C10.2832 5.19267 10.1664 5.34014 10.1664 5.50868V6.98941C9.50174 7.22717 8.88495 7.58531 8.346 8.04578L7.07348 7.30542C6.92677 7.22115 6.74412 7.24824 6.63035 7.37464C5.89079 8.17821 5.32489 9.1473 4.99254 10.2217C4.94164 10.3842 5.01051 10.5588 5.15722 10.6431L6.43273 11.3834C6.30398 12.0817 6.30398 12.798 6.43273 13.4962L5.15722 14.2366C5.01051 14.3208 4.94464 14.4954 4.99254 14.6579C5.32489 15.7293 5.89079 16.6984 6.63035 17.505C6.74412 17.6284 6.92976 17.6585 7.07348 17.5742L8.34899 16.8338C8.88495 17.2973 9.50174 17.6555 10.1694 17.8902V19.3709C10.1694 19.5395 10.2862 19.687 10.4509 19.7231C11.5497 19.9699 12.6755 19.9578 13.7205 19.7231C13.8852 19.687 14.002 19.5395 14.002 19.3709V17.8902C14.6667 17.6525 15.2835 17.2943 15.8224 16.8338L17.0979 17.5742C17.2446 17.6585 17.4273 17.6314 17.541 17.505C18.2806 16.7014 18.8465 15.7323 19.1789 14.6579C19.2238 14.4924 19.1579 14.3178 19.0112 14.2335ZM12.0827 14.8445C10.7623 14.8445 9.68738 13.764 9.68738 12.4368C9.68738 11.1096 10.7623 10.0291 12.0827 10.0291C13.4031 10.0291 14.478 11.1096 14.478 12.4368C14.478 13.764 13.4031 14.8445 12.0827 14.8445Z" fill="url(#paint1_linear_83_7143)"/>
<defs>
<linearGradient id="paint0_linear_83_7143" x1="12.0843" y1="0" x2="12.0843" y2="24.1687" gradientUnits="userSpaceOnUse">
<stop stop-color="#1CE3A1"/>
<stop offset="1" stop-color="#8D2EA9"/>
</linearGradient>
<linearGradient id="paint1_linear_83_7143" x1="12.0843" y1="4.97595" x2="12.0843" y2="19.9037" gradientUnits="userSpaceOnUse">
<stop offset="0.197674" stop-color="#8B33A9"/>
<stop offset="1" stop-color="#1EE1A2"/>
</linearGradient>
</defs>
</svg>
