<svg width="25" height="26" viewBox="0 0 25 26" fill="none" xmlns="http://www.w3.org/2000/svg">
<path fill-rule="evenodd" clip-rule="evenodd" d="M12.8175 0.970825L18.9297 7.16826L25 13.3657L18.9297 19.6059L12.8175 25.8033L6.74711 19.6059L0.676773 13.3657L6.74711 7.16826L12.8175 0.970825Z" fill="url(#paint0_linear_83_7251)"/>
<path fill-rule="evenodd" clip-rule="evenodd" d="M11.643 18.1526C11.643 18.3663 11.4755 18.5373 11.2662 18.5373C11.0569 18.5373 10.8894 18.3663 10.8894 18.1526V16.5285C10.8894 16.3148 10.722 16.1438 10.5126 16.1438C10.3033 16.1438 10.1358 16.3148 10.1358 16.5285V17.3406C10.1358 17.5543 9.96839 17.7252 9.80093 17.7252C9.59161 17.7252 9.42415 17.5543 9.42415 17.3406V14.9043C9.42415 14.6906 9.2567 14.5197 9.04737 14.5197C8.83805 14.5197 8.67059 14.6906 8.67059 14.9043V18.0244C8.67059 18.2381 8.50314 18.4091 8.29382 18.4091C8.08449 18.4091 7.91704 18.2381 7.91704 18.0244V14.0495C7.91704 13.8358 7.74958 13.6648 7.54026 13.6648C7.3728 13.6648 7.20534 13.8358 7.20534 14.0495V14.8616C7.20534 15.0753 7.03788 15.2463 6.82856 15.2463C6.61924 15.2463 6.45178 15.0753 6.45178 14.8616V14.0068L5.82381 13.3657L8.50314 10.673L12.8152 15.118L17.1691 10.673L19.8065 13.3657L19.2204 14.0068V14.8616C19.2204 15.0753 19.053 15.2463 18.8436 15.2463C18.6343 15.2463 18.4669 15.0753 18.4669 14.8616V14.0495C18.4669 13.8358 18.2994 13.6648 18.0901 13.6648C17.8808 13.6648 17.7133 13.8358 17.7133 14.0495V18.0244C17.7133 18.2381 17.5459 18.4091 17.3365 18.4091C17.1691 18.4091 17.0016 18.2381 17.0016 18.0244V14.9043C17.0016 14.6906 16.8342 14.5197 16.6248 14.5197C16.4155 14.5197 16.2481 14.6906 16.2481 14.9043V17.3406C16.2481 17.5543 16.0806 17.7252 15.8713 17.7252C15.662 17.7252 15.4945 17.5543 15.4945 17.3406V16.5285C15.4945 16.3148 15.327 16.1438 15.1177 16.1438C14.9084 16.1438 14.7409 16.3148 14.7409 16.5285V18.1526C14.7409 18.3663 14.5735 18.5373 14.406 18.5373C14.1967 18.5373 14.0292 18.3663 14.0292 18.1526V18.0672H13.9874V17.9389H13.9455V17.8962H13.9036V17.8534H13.8618V17.8107H13.7781V17.768H13.485V17.8107H13.4431V17.8534H13.3594V17.9389H13.3175V18.0244H13.2757V20.076L12.8152 20.5034L12.3965 20.076V18.0672H12.3547V17.9389H12.3128V17.8962H12.2709V17.8534H12.2291V17.8107H12.1453V17.768H11.8523V17.8107H11.8104L11.7686 17.8534H11.7267V17.9389H11.6848V17.9817L11.643 18.0244V18.1526Z" fill="#FEFEFE"/>
<path fill-rule="evenodd" clip-rule="evenodd" d="M14.4079 18.8366C14.1986 18.8366 14.0312 19.0075 14.0312 19.2213V19.264C14.0312 19.4777 14.1986 19.6487 14.4079 19.6487C14.5754 19.6487 14.7429 19.4777 14.7429 19.264V19.2213C14.7429 19.0075 14.5754 18.8366 14.4079 18.8366ZM11.2681 18.8366C11.4774 18.8366 11.6449 19.0075 11.6449 19.2213V19.264C11.6449 19.4777 11.4774 19.6487 11.2681 19.6487C11.0588 19.6487 10.8913 19.4777 10.8913 19.264V19.2213C10.8913 19.0075 11.0588 18.8366 11.2681 18.8366ZM18.8456 15.631C18.6362 15.631 18.4688 15.802 18.4688 16.0157V16.5713C18.4688 16.785 18.6362 16.956 18.8456 16.956C19.0549 16.956 19.2223 16.785 19.2223 16.5713V16.0157C19.2223 15.802 19.0549 15.631 18.8456 15.631ZM6.83048 15.631C7.0398 15.631 7.20726 15.802 7.20726 16.0157V16.5713C7.20726 16.785 7.0398 16.956 6.83048 16.956C6.62115 16.956 6.4537 16.785 6.4537 16.5713V16.0157C6.4537 15.802 6.62115 15.631 6.83048 15.631ZM12.8171 6.27075L15.5383 9.00617L12.8171 11.7843L10.1378 9.00617L12.8171 6.27075Z" fill="#FEFEFE"/>
<defs>
<linearGradient id="paint0_linear_83_7251" x1="12.83" y1="25.814" x2="25.256" y2="13.6428" gradientUnits="userSpaceOnUse">
<stop stop-color="#01C48C"/>
<stop offset="1" stop-color="#B600BC"/>
</linearGradient>
</defs>
</svg>
