<svg width="426" height="100" viewBox="0 0 426 100" fill="none" xmlns="http://www.w3.org/2000/svg">
<path d="M9.33622 2.75H416.662C420.653 2.75 423.207 5.44901 423.207 8V92C423.207 94.551 420.653 97.25 416.662 97.25H9.33622C5.34499 97.25 2.79102 94.551 2.79102 92V8C2.79102 5.44901 5.34499 2.75 9.33622 2.75Z" fill="url(#paint0_linear_194_240)" stroke="url(#paint1_linear_194_240)" stroke-width="5"/>
<mask id="path-2-inside-1_194_240" fill="white">
<path d="M416.663 0.5C421.489 0.5 425.416 3.865 425.416 8V92C425.416 96.135 421.489 99.5 416.663 99.5H9.33699C4.51093 99.5 0.583562 96.135 0.583562 92V8C0.583562 3.865 4.51093 0.5 9.33699 0.5H416.663ZM416.663 0H9.33699C4.1783 0 0 3.58 0 8V92C0 96.42 4.1783 100 9.33699 100H416.663C421.822 100 426 96.42 426 92V8C426 3.58 421.822 0 416.663 0Z"/>
</mask>
<path d="M416.663 0.5C421.489 0.5 425.416 3.865 425.416 8V92C425.416 96.135 421.489 99.5 416.663 99.5H9.33699C4.51093 99.5 0.583562 96.135 0.583562 92V8C0.583562 3.865 4.51093 0.5 9.33699 0.5H416.663ZM416.663 0H9.33699C4.1783 0 0 3.58 0 8V92C0 96.42 4.1783 100 9.33699 100H416.663C421.822 100 426 96.42 426 92V8C426 3.58 421.822 0 416.663 0Z" fill="#DEE7FC"/>
<path d="M416.663 5.5C417.925 5.5 418.949 5.94182 419.596 6.49629C420.234 7.04277 420.416 7.59238 420.416 8H430.416C430.416 0.406567 423.498 -4.5 416.663 -4.5V5.5ZM420.416 8V92H430.416V8H420.416ZM420.416 92C420.416 92.4076 420.234 92.9572 419.596 93.5037C418.949 94.0582 417.925 94.5 416.663 94.5V104.5C423.498 104.5 430.416 99.5934 430.416 92H420.416ZM416.663 94.5H9.33699V104.5H416.663V94.5ZM9.33699 94.5C8.07456 94.5 7.05086 94.0582 6.40373 93.5037C5.76591 92.9572 5.58356 92.4076 5.58356 92H-4.41644C-4.41644 99.5934 2.50234 104.5 9.33699 104.5V94.5ZM5.58356 92V8H-4.41644V92H5.58356ZM5.58356 8C5.58356 7.59238 5.76591 7.04277 6.40373 6.49629C7.05086 5.94182 8.07456 5.5 9.33699 5.5V-4.5C2.50234 -4.5 -4.41644 0.406567 -4.41644 8H5.58356ZM9.33699 5.5H416.663V-4.5H9.33699V5.5ZM416.663 -5H9.33699V5H416.663V-5ZM9.33699 -5C2.16971 -5 -5 0.121568 -5 8H5C5 7.03843 6.1869 5 9.33699 5V-5ZM-5 8V92H5V8H-5ZM-5 92C-5 99.8784 2.16971 105 9.33699 105V95C6.1869 95 5 92.9616 5 92H-5ZM9.33699 105H416.663V95H9.33699V105ZM416.663 105C423.83 105 431 99.8784 431 92H421C421 92.9616 419.813 95 416.663 95V105ZM431 92V8H421V92H431ZM431 8C431 0.121568 423.83 -5 416.663 -5V5C419.813 5 421 7.03843 421 8H431Z" fill="url(#paint2_linear_194_240)" mask="url(#path-2-inside-1_194_240)"/>
<defs>
<linearGradient id="paint0_linear_194_240" x1="212.999" y1="0.25" x2="212.999" y2="99.75" gradientUnits="userSpaceOnUse">
<stop stop-color="#8203E5"/>
<stop offset="1" stop-color="#03AC81"/>
</linearGradient>
<linearGradient id="paint1_linear_194_240" x1="212.999" y1="0.25" x2="212.999" y2="99.75" gradientUnits="userSpaceOnUse">
<stop stop-color="#1EE4A3"/>
<stop offset="1" stop-color="#E134FE"/>
</linearGradient>
<linearGradient id="paint2_linear_194_240" x1="213" y1="0" x2="213" y2="100" gradientUnits="userSpaceOnUse">
<stop stop-color="#1EE4A3"/>
<stop offset="1" stop-color="#E134FE"/>
</linearGradient>
</defs>
</svg>
