<svg width="377" height="104" viewBox="0 0 377 104" fill="none" xmlns="http://www.w3.org/2000/svg">
<path d="M8.26261 2.75854H368.737C371.777 2.75854 374.241 5.22314 374.241 8.26334V95.025C374.241 98.0652 371.777 100.53 368.737 100.53H8.26261C5.22239 100.53 2.75781 98.0652 2.75781 95.025V8.26334C2.75781 5.22313 5.22239 2.75854 8.26261 2.75854Z" fill="url(#paint0_linear_176_7058)" stroke="url(#paint1_linear_176_7058)" stroke-width="5"/>
<mask id="path-2-inside-1_176_7058" fill="white">
<path d="M368.737 0.516438C373.008 0.516438 376.484 3.99207 376.484 8.26301V95.0247C376.484 99.2956 373.008 102.771 368.737 102.771H8.26301C3.99207 102.771 0.516438 99.2956 0.516438 95.0247V8.26301C0.516438 3.99207 3.99207 0.516438 8.26301 0.516438H368.737ZM368.737 0H8.26301C3.6977 0 0 3.6977 0 8.26301V95.0247C0 99.59 3.6977 103.288 8.26301 103.288H368.737C373.302 103.288 377 99.59 377 95.0247V8.26301C377 3.6977 373.302 0 368.737 0Z"/>
</mask>
<path d="M368.737 0.516438C373.008 0.516438 376.484 3.99207 376.484 8.26301V95.0247C376.484 99.2956 373.008 102.771 368.737 102.771H8.26301C3.99207 102.771 0.516438 99.2956 0.516438 95.0247V8.26301C0.516438 3.99207 3.99207 0.516438 8.26301 0.516438H368.737ZM368.737 0H8.26301C3.6977 0 0 3.6977 0 8.26301V95.0247C0 99.59 3.6977 103.288 8.26301 103.288H368.737C373.302 103.288 377 99.59 377 95.0247V8.26301C377 3.6977 373.302 0 368.737 0Z" fill="#DEE7FC"/>
<path d="M368.737 5.51644C370.247 5.51644 371.484 6.75349 371.484 8.26301H381.484C381.484 1.23064 375.769 -4.48356 368.737 -4.48356V5.51644ZM371.484 8.26301V95.0247H381.484V8.26301H371.484ZM371.484 95.0247C371.484 96.5342 370.247 97.7712 368.737 97.7712V107.771C375.769 107.771 381.484 102.057 381.484 95.0247H371.484ZM368.737 97.7712H8.26301V107.771H368.737V97.7712ZM8.26301 97.7712C6.75349 97.7712 5.51644 96.5342 5.51644 95.0247H-4.48356C-4.48356 102.057 1.23064 107.771 8.26301 107.771V97.7712ZM5.51644 95.0247V8.26301H-4.48356V95.0247H5.51644ZM5.51644 8.26301C5.51644 6.75349 6.75349 5.51644 8.26301 5.51644V-4.48356C1.23064 -4.48356 -4.48356 1.23064 -4.48356 8.26301H5.51644ZM8.26301 5.51644H368.737V-4.48356H8.26301V5.51644ZM368.737 -5H8.26301V5H368.737V-5ZM8.26301 -5C0.936275 -5 -5 0.936275 -5 8.26301H5C5 6.45912 6.45912 5 8.26301 5V-5ZM-5 8.26301V95.0247H5V8.26301H-5ZM-5 95.0247C-5 102.351 0.936275 108.288 8.26301 108.288V98.2877C6.45912 98.2877 5 96.8286 5 95.0247H-5ZM8.26301 108.288H368.737V98.2877H8.26301V108.288ZM368.737 108.288C376.064 108.288 382 102.351 382 95.0247H372C372 96.8286 370.541 98.2877 368.737 98.2877V108.288ZM382 95.0247V8.26301H372V95.0247H382ZM382 8.26301C382 0.936275 376.064 -5 368.737 -5V5C370.541 5 372 6.45912 372 8.26301H382Z" fill="url(#paint2_linear_176_7058)" mask="url(#path-2-inside-1_176_7058)"/>
<defs>
<linearGradient id="paint0_linear_176_7058" x1="188.5" y1="0.258545" x2="188.5" y2="103.03" gradientUnits="userSpaceOnUse">
<stop stop-color="#8203E5"/>
<stop offset="1" stop-color="#03AC81"/>
</linearGradient>
<linearGradient id="paint1_linear_176_7058" x1="188.5" y1="0.258545" x2="188.5" y2="103.03" gradientUnits="userSpaceOnUse">
<stop stop-color="#1EE4A3"/>
<stop offset="1" stop-color="#E134FE"/>
</linearGradient>
<linearGradient id="paint2_linear_176_7058" x1="188.5" y1="0" x2="188.5" y2="103.288" gradientUnits="userSpaceOnUse">
<stop stop-color="#1EE4A3"/>
<stop offset="1" stop-color="#E134FE"/>
</linearGradient>
</defs>
</svg>
