<svg width="15" height="15" viewBox="0 0 15 15" fill="none" xmlns="http://www.w3.org/2000/svg">
<circle cx="7.5" cy="7.5" r="7" stroke="white"/>
<path d="M7.97502 3.75C6.91181 3.75 6.22316 4.22905 5.6825 5.08339C5.58442 5.23837 5.61466 5.45086 5.75147 5.56494L6.32609 6.04408C6.46426 6.15929 6.66085 6.13235 6.76903 5.98332C7.10269 5.52363 7.35019 5.25896 7.87138 5.25896C8.28116 5.25896 8.78803 5.54899 8.78803 5.98598C8.78803 6.31633 8.54004 6.48599 8.13543 6.73545C7.66358 7.02637 7.03918 7.38842 7.03918 8.29412V8.4375C7.03918 8.63167 7.1823 8.78906 7.35886 8.78906H8.3242C8.50076 8.78906 8.64389 8.63167 8.64389 8.4375V8.35293C8.64389 7.7251 10.3125 7.69896 10.3125 6C10.3125 4.72055 9.10567 3.75 7.97502 3.75ZM7.84154 9.22059C7.33276 9.22059 6.91883 9.67579 6.91883 10.2353C6.91883 10.7948 7.33276 11.25 7.84154 11.25C8.35032 11.25 8.76425 10.7948 8.76425 10.2353C8.76425 9.67578 8.35032 9.22059 7.84154 9.22059Z" fill="white"/>
</svg>
