<svg width="70" height="70" viewBox="0 0 70 70" fill="none" xmlns="http://www.w3.org/2000/svg">
<circle cx="35" cy="35" r="35" fill="#092A14"/>
<path fill-rule="evenodd" clip-rule="evenodd" d="M31.6828 50.1068C31.6828 50.7562 31.1739 51.2757 30.5378 51.2757C29.9017 51.2757 29.3929 50.7562 29.3929 50.1068V45.1714C29.3929 44.522 28.884 44.0025 28.2479 44.0025C27.6119 44.0025 27.103 44.522 27.103 45.1714V47.6391C27.103 48.2885 26.5941 48.808 26.0853 48.808C25.4492 48.808 24.9403 48.2885 24.9403 47.6391V40.236C24.9403 39.5866 24.4315 39.0671 23.7954 39.0671C23.1593 39.0671 22.6504 39.5866 22.6504 40.236V49.7172C22.6504 50.3666 22.1416 50.8861 21.5055 50.8861C20.8694 50.8861 20.3606 50.3666 20.3606 49.7172V37.6384C20.3606 36.989 19.8517 36.4695 19.2156 36.4695C18.7067 36.4695 18.1979 36.989 18.1979 37.6384V40.1061C18.1979 40.7555 17.689 41.275 17.0529 41.275C16.4169 41.275 15.908 40.7555 15.908 40.1061V37.5085L13.9998 35.5603L22.1416 27.3779L35.2448 40.8854L48.4753 27.3779L56.4899 35.5603L54.7089 37.5085V40.1061C54.7089 40.7555 54.2 41.275 53.5639 41.275C52.9278 41.275 52.419 40.7555 52.419 40.1061V37.6384C52.419 36.989 51.9101 36.4695 51.274 36.4695C50.638 36.4695 50.1291 36.989 50.1291 37.6384V49.7172C50.1291 50.3666 49.6202 50.8861 48.9841 50.8861C48.4753 50.8861 47.9664 50.3666 47.9664 49.7172V40.236C47.9664 39.5866 47.4576 39.0671 46.8215 39.0671C46.1854 39.0671 45.6765 39.5866 45.6765 40.236V47.6391C45.6765 48.2885 45.1677 48.808 44.5316 48.808C43.8955 48.808 43.3866 48.2885 43.3866 47.6391V45.1714C43.3866 44.522 42.8778 44.0025 42.2417 44.0025C41.6056 44.0025 41.0968 44.522 41.0968 45.1714V50.1068C41.0968 50.7562 40.5879 51.2757 40.079 51.2757C39.4429 51.2757 38.9341 50.7562 38.9341 50.1068V49.8471H38.8069V49.4574H38.6797V49.3276H38.5524V49.1977H38.4252V49.0678H38.1708V48.9379H37.2803V49.0678H37.1531V49.1977H36.8986V49.4574H36.7714V49.7172H36.6442V55.9514L35.2448 57.2502L33.9727 55.9514V49.8471H33.8454V49.4574H33.7182V49.3276H33.591V49.1977H33.4638V49.0678H33.2094V48.9379H32.3189V49.0678H32.1916L32.0644 49.1977H31.9372V49.4574H31.81V49.5873L31.6828 49.7172V50.1068Z" fill="#20DEA3"/>
<path fill-rule="evenodd" clip-rule="evenodd" d="M35.2509 14L43.5199 22.3123L35.2509 30.7544L27.1091 22.3123L35.2509 14Z" fill="#8738A9"/>
<path fill-rule="evenodd" clip-rule="evenodd" d="M40.0851 52.1845C39.449 52.1845 38.9401 52.7041 38.9401 53.3535V53.4833C38.9401 54.1327 39.449 54.6523 40.0851 54.6523C40.594 54.6523 41.1028 54.1327 41.1028 53.4833V53.3535C41.1028 52.7041 40.594 52.1845 40.0851 52.1845ZM30.5439 52.1845C31.18 52.1845 31.6888 52.7041 31.6888 53.3535V53.4833C31.6888 54.1327 31.18 54.6523 30.5439 54.6523C29.9078 54.6523 29.399 54.1327 29.399 53.4833V53.3535C29.399 52.7041 29.9078 52.1845 30.5439 52.1845ZM53.57 42.4436C52.9339 42.4436 52.425 42.9631 52.425 43.6125V45.3009C52.425 45.9503 52.9339 46.4699 53.57 46.4699C54.2061 46.4699 54.7149 45.9503 54.7149 45.3009V43.6125C54.7149 42.9631 54.2061 42.4436 53.57 42.4436ZM17.059 42.4436C17.6951 42.4436 18.2039 42.9631 18.2039 43.6125V45.3009C18.2039 45.9503 17.6951 46.4699 17.059 46.4699C16.4229 46.4699 15.9141 45.9503 15.9141 45.3009V43.6125C15.9141 42.9631 16.4229 42.4436 17.059 42.4436Z" fill="#20DEA3"/>
</svg>
