<svg width="137" height="18" viewBox="0 0 137 18" fill="none" xmlns="http://www.w3.org/2000/svg">
<path d="M0.341797 9.17006C0.341797 4.17246 4.12253 0.983887 8.32624 0.983887C12.5299 0.983887 14.8986 3.63886 15.5168 6.18321L12.6406 7.08772C12.2632 5.58453 11.0463 3.92518 8.32624 3.92518C5.98361 3.92518 3.50433 5.60406 3.50433 9.17006C3.50433 12.5083 5.84696 14.3499 8.37179 14.3499C11.0463 14.3499 12.3542 12.5994 12.7772 11.1418L15.6274 12.0072C15.0287 14.4214 12.7772 17.3367 8.37179 17.3367C3.96636 17.3367 0.341797 14.1742 0.341797 9.17656V9.17006Z" fill="white"/>
<path d="M29.615 16.9985V10.4912H22.7824V16.9985H19.7305V1.31592H22.7824V7.62148H29.615V1.31592H32.693V16.9985H29.615Z" fill="white"/>
<path d="M47.1581 13.413H40.7875L39.4795 16.9985H36.252L42.2712 1.31592H45.8111L51.7849 16.9985H48.4661L47.1581 13.413ZM41.8027 10.6278H46.1365L43.9696 4.69971L41.8027 10.6278Z" fill="white"/>
<path d="M55.3438 16.9985V1.31592H58.4412V16.9985H55.3438Z" fill="white"/>
<path d="M73.7535 16.9985L66.6281 5.87102V16.9985H63.5762V1.31592H67.3829L73.9098 11.6885V1.31592H76.9617V16.9985H73.7535Z" fill="white"/>
<path d="M82.0938 16.9985V1.31592H85.1457V14.0832H92.1345V17.005H82.0938V16.9985Z" fill="white"/>
<path d="M96.0332 16.9985V1.31592H99.1306V16.9985H96.0332Z" fill="white"/>
<path d="M114.441 16.9985L107.316 5.87102V16.9985H104.264V1.31592H108.07L114.597 11.6885V1.31592H117.649V16.9985H114.441Z" fill="white"/>
<path d="M127.781 10.4975L125.835 12.645V17.0048H122.783V1.32227H125.835V8.42172L132.121 1.32227H136.123L129.909 8.15492L136.169 17.0048H132.342L127.787 10.4975H127.781Z" fill="white"/>
</svg>
