<svg width="38" height="39" viewBox="0 0 38 39" fill="none" xmlns="http://www.w3.org/2000/svg">
<path fill-rule="evenodd" clip-rule="evenodd" d="M18.8544 0L28.3466 9.62458L37.7738 19.2492L28.3466 28.9401L18.8544 38.5647L9.42721 28.9401L0 19.2492L9.42721 9.62458L18.8544 0Z" fill="url(#paint0_linear_210_478)"/>
<path fill-rule="evenodd" clip-rule="evenodd" d="M17.0313 26.6833C17.0313 27.0151 16.7712 27.2806 16.4461 27.2806C16.121 27.2806 15.861 27.0151 15.861 26.6833V24.161C15.861 23.8291 15.6009 23.5636 15.2758 23.5636C14.9508 23.5636 14.6907 23.8291 14.6907 24.161V25.4221C14.6907 25.754 14.4306 26.0195 14.1706 26.0195C13.8455 26.0195 13.5855 25.754 13.5855 25.4221V21.6386C13.5855 21.3068 13.3254 21.0413 13.0003 21.0413C12.6752 21.0413 12.4152 21.3068 12.4152 21.6386V26.4841C12.4152 26.816 12.1551 27.0815 11.83 27.0815C11.505 27.0815 11.2449 26.816 11.2449 26.4841V20.3111C11.2449 19.9792 10.9848 19.7137 10.6598 19.7137C10.3997 19.7137 10.1396 19.9792 10.1396 20.3111V21.5723C10.1396 21.9042 9.87958 22.1697 9.55451 22.1697C9.22943 22.1697 8.96937 21.9042 8.96937 21.5723V20.2447L7.99414 19.2491L12.1551 15.0674L18.8517 21.9705L25.6133 15.0674L29.7092 19.2491L28.799 20.2447V21.5723C28.799 21.9042 28.539 22.1697 28.2139 22.1697C27.8888 22.1697 27.6287 21.9042 27.6287 21.5723V20.3111C27.6287 19.9792 27.3687 19.7137 27.0436 19.7137C26.7185 19.7137 26.4585 19.9792 26.4585 20.3111V26.4841C26.4585 26.816 26.1984 27.0815 25.8733 27.0815C25.6133 27.0815 25.3532 26.816 25.3532 26.4841V21.6386C25.3532 21.3068 25.0931 21.0413 24.7681 21.0413C24.443 21.0413 24.1829 21.3068 24.1829 21.6386V25.4221C24.1829 25.754 23.9229 26.0195 23.5978 26.0195C23.2727 26.0195 23.0127 25.754 23.0127 25.4221V24.161C23.0127 23.8291 22.7526 23.5636 22.4275 23.5636C22.1024 23.5636 21.8424 23.8291 21.8424 24.161V26.6833C21.8424 27.0151 21.5823 27.2806 21.3223 27.2806C20.9972 27.2806 20.7371 27.0151 20.7371 26.6833V26.5505H20.6721V26.3514H20.6071V26.285H20.5421V26.2186H20.4771V26.1522H20.347V26.0859H19.8919V26.1522H19.8269V26.2186H19.6969V26.3514H19.6319V26.4841H19.5669V29.6702L18.8517 30.334L18.2015 29.6702V26.5505H18.1365V26.3514H18.0715V26.285H18.0065V26.2186H17.9415V26.1522H17.8114V26.0859H17.3563V26.1522H17.2913L17.2263 26.2186H17.1613V26.3514H17.0963V26.4178L17.0313 26.4841V26.6833Z" fill="#FEFEFE"/>
<path fill-rule="evenodd" clip-rule="evenodd" d="M21.3236 27.7456C20.9985 27.7456 20.7385 28.0111 20.7385 28.343V28.4094C20.7385 28.7413 20.9985 29.0068 21.3236 29.0068C21.5837 29.0068 21.8437 28.7413 21.8437 28.4094V28.343C21.8437 28.0111 21.5837 27.7456 21.3236 27.7456ZM16.4475 27.7456C16.7725 27.7456 17.0326 28.0111 17.0326 28.343V28.4094C17.0326 28.7413 16.7725 29.0068 16.4475 29.0068C16.1224 29.0068 15.8623 28.7413 15.8623 28.4094V28.343C15.8623 28.0111 16.1224 27.7456 16.4475 27.7456ZM28.2152 22.7674C27.8901 22.7674 27.6301 23.0329 27.6301 23.3648V24.2277C27.6301 24.5596 27.8901 24.8251 28.2152 24.8251C28.5403 24.8251 28.8003 24.5596 28.8003 24.2277V23.3648C28.8003 23.0329 28.5403 22.7674 28.2152 22.7674ZM9.55584 22.7674C9.88092 22.7674 10.141 23.0329 10.141 23.3648V24.2277C10.141 24.5596 9.88092 24.8251 9.55584 24.8251C9.23076 24.8251 8.9707 24.5596 8.9707 24.2277V23.3648C8.9707 23.0329 9.23076 22.7674 9.55584 22.7674ZM18.853 8.23096L23.079 12.479L18.853 16.7935L14.692 12.479L18.853 8.23096Z" fill="#FEFEFE"/>
<defs>
<linearGradient id="paint0_linear_210_478" x1="18.8739" y1="38.5813" x2="38.1714" y2="19.6796" gradientUnits="userSpaceOnUse">
<stop stop-color="#01C48C"/>
<stop offset="1" stop-color="#B600BC"/>
</linearGradient>
</defs>
</svg>
