<svg width="40" height="40" viewBox="0 0 40 40" fill="none" xmlns="http://www.w3.org/2000/svg">
<circle cx="20" cy="20" r="20" fill="#270B5B"/>
<path d="M20 11C15.0292 11 11 15.0292 11 20C11 24.9708 15.0292 29 20 29C24.9708 29 29 24.9708 29 20C29 15.0292 24.9708 11 20 11ZM20.9 24.4933V25.4C20.9 25.6486 20.6986 25.85 20.45 25.85H19.55C19.3014 25.85 19.1 25.6486 19.1 25.4V24.4837C18.4649 24.4511 17.8473 24.2294 17.3354 23.8452C17.1161 23.6804 17.1048 23.3519 17.3034 23.1624L17.9643 22.5318C18.1201 22.3833 18.3519 22.3766 18.5341 22.4908C18.7518 22.6269 18.9987 22.7 19.2552 22.7H20.8364C21.2021 22.7 21.5002 22.367 21.5002 21.9581C21.5002 21.6234 21.2971 21.3286 21.0069 21.242L18.4756 20.4826C17.4299 20.1687 16.6993 19.1652 16.6993 18.0419C16.6993 16.6627 17.7708 15.5422 19.0994 15.5067V14.6C19.0994 14.3514 19.3008 14.15 19.5494 14.15H20.4494C20.6981 14.15 20.8994 14.3514 20.8994 14.6V15.5163C21.5345 15.5489 22.1521 15.77 22.664 16.1548C22.8834 16.3196 22.8946 16.6481 22.6961 16.8376L22.0351 17.4682C21.8793 17.6167 21.6476 17.6234 21.4653 17.5092C21.2476 17.3726 21.0007 17.3 20.7442 17.3H19.163C18.7974 17.3 18.4993 17.633 18.4993 18.0419C18.4993 18.3766 18.7023 18.6714 18.9926 18.758L21.5238 19.5174C22.5695 19.8313 23.3002 20.8347 23.3002 21.9581C23.3002 23.3379 22.2292 24.4578 20.9 24.4933Z" fill="white"/>
</svg>
