<svg width="40" height="40" viewBox="0 0 40 40" fill="none" xmlns="http://www.w3.org/2000/svg">
<circle cx="20" cy="20" r="20" fill="#270B5B"/>
<path d="M28.3525 22.0599L26.8144 21.2097C26.9697 20.4078 26.9697 19.5853 26.8144 18.7834L28.3525 17.9332C28.5294 17.8364 28.6088 17.636 28.551 17.4493C28.1503 16.2189 27.4679 15.106 26.5762 14.1798C26.439 14.0381 26.2151 14.0035 26.0418 14.1003L24.5038 14.9505C23.8575 14.4182 23.1138 14.007 22.3087 13.7374V12.0404C22.3087 11.8468 22.1679 11.6775 21.9693 11.636C20.6443 11.3526 19.2868 11.3664 18.0268 11.636C17.8282 11.6775 17.6874 11.8468 17.6874 12.0404V13.7408C16.8859 14.0139 16.1422 14.4252 15.4923 14.954L13.9579 14.1037C13.781 14.007 13.5607 14.0381 13.4235 14.1832C12.5318 15.106 11.8494 16.2189 11.4487 17.4528C11.3873 17.6394 11.4703 17.8399 11.6472 17.9367L13.1852 18.7869C13.03 19.5887 13.03 20.4113 13.1852 21.2131L11.6472 22.0634C11.4703 22.1601 11.3909 22.3606 11.4487 22.5472C11.8494 23.7777 12.5318 24.8906 13.4235 25.8168C13.5607 25.9585 13.7846 25.9931 13.9579 25.8963L15.4959 25.0461C16.1422 25.5783 16.8859 25.9896 17.691 26.2592V27.9597C17.691 28.1532 17.8318 28.3226 18.0304 28.364C19.3554 28.6474 20.7129 28.6336 21.9729 28.364C22.1715 28.3226 22.3123 28.1532 22.3123 27.9597V26.2592C23.1138 25.9862 23.8575 25.5749 24.5074 25.0461L26.0454 25.8963C26.2223 25.9931 26.4426 25.962 26.5798 25.8168C27.4715 24.894 28.1539 23.7811 28.5546 22.5472C28.6088 22.3572 28.5294 22.1567 28.3525 22.0599ZM19.998 22.7615C18.4059 22.7615 17.1097 21.5207 17.1097 19.9966C17.1097 18.4724 18.4059 17.2316 19.998 17.2316C21.5902 17.2316 22.8863 18.4724 22.8863 19.9966C22.8863 21.5207 21.5902 22.7615 19.998 22.7615Z" fill="white"/>
</svg>
