<svg width="261" height="14" viewBox="0 0 261 14" fill="none" xmlns="http://www.w3.org/2000/svg">
<path d="M7.19686 4.34149C7.07292 3.65463 6.51 2.5856 4.93486 2.5856C3.75738 2.5856 2.98789 3.3396 2.98789 4.1659C2.98789 4.85276 3.42686 5.39502 4.34096 5.57061L6.08135 5.9063C8.34852 6.34527 9.55699 7.82229 9.55699 9.57818C9.55699 11.4942 7.96119 13.4256 5.06397 13.4256C1.76393 13.4256 0.307575 11.3031 0.111328 9.52653L2.35784 8.92746C2.46113 10.1566 3.32357 11.2618 5.07946 11.2618C6.38089 11.2618 7.09874 10.611 7.09874 9.7331C7.09874 9.01525 6.55648 8.45234 5.59074 8.25609L3.85034 7.90491C1.86722 7.50209 0.58645 6.22133 0.58645 4.34149C0.58645 2.13114 2.56958 0.442383 4.92454 0.442383C7.9457 0.442383 9.10252 2.27057 9.38656 3.67012L7.20719 4.33632L7.19686 4.34149Z" fill="white"/>
<path d="M12.832 13.152V0.705811H20.6251V2.98847H15.2541V5.83405H20.119V7.99276H15.2541V10.8745H20.6251V13.1571H12.832V13.152Z" fill="white"/>
<path d="M23.5117 6.93918C23.5117 2.97293 26.5122 0.442383 29.8484 0.442383C33.1846 0.442383 35.0644 2.54945 35.5551 4.56872L33.2724 5.28657C32.9729 4.0936 32.0071 2.77668 29.8484 2.77668C27.9892 2.77668 26.0216 4.1091 26.0216 6.93918C26.0216 9.58851 27.8808 11.05 29.8846 11.05C32.0071 11.05 33.0452 9.66081 33.3809 8.50399L35.6429 9.19085C35.1677 11.1068 33.3809 13.4205 29.8846 13.4205C26.3883 13.4205 23.5117 10.9106 23.5117 6.94434V6.93918Z" fill="white"/>
<path d="M38.6641 8.74676V0.705811H41.0862V8.57116C41.0862 10.2031 42.0003 11.0656 43.4411 11.0656C44.882 11.0656 45.8116 10.2031 45.8116 8.57116V0.705811H48.2337V8.74676C48.2337 11.8041 46.1111 13.436 43.4411 13.436C40.7711 13.436 38.6641 11.8041 38.6641 8.74676Z" fill="white"/>
<path d="M55.8865 8.35943H54.6212V13.152H52.1836V0.705811H57.0484C59.4705 0.705811 61.0147 2.37391 61.0147 4.53262C61.0147 6.27302 59.9973 7.58994 58.3654 8.0599L61.0354 13.152H58.3292L55.8865 8.35943ZM56.5888 6.26785C57.8179 6.26785 58.5358 5.5655 58.5358 4.54811C58.5358 3.53073 57.8179 2.80771 56.5888 2.80771H54.6212V6.26785H56.5888Z" fill="white"/>
<path d="M64.3867 13.152V0.705811H72.1798V2.98847H66.8088V5.83405H71.6737V7.99276H66.8088V10.8745H72.1798V13.1571H64.3867V13.152Z" fill="white"/>
<path d="M75.832 13.152V0.705811H80.2889C83.8368 0.705811 86.4345 3.00397 86.4345 6.93923C86.4345 10.8745 83.8213 13.1571 80.2734 13.1571H75.832V13.152ZM80.1856 10.9055C82.2204 10.9055 83.9246 9.6402 83.9246 6.93923C83.9246 4.23825 82.241 2.95232 80.2011 2.95232H78.2541V10.9055H80.1856Z" fill="white"/>
<path d="M109.265 0.705811H111.739L108.299 13.152H105.805L102.959 4.28473L100.114 13.152H97.5832L94.123 0.705811H96.6846L98.9672 9.27352L101.725 0.705811H104.235L107.008 9.30967L109.255 0.705811H109.265Z" fill="white"/>
<path d="M114.605 13.152V0.705811H117.064V13.152H114.605Z" fill="white"/>
<path d="M126.365 3.00396V13.152H123.927V3.00396H119.992V0.705811H130.3V3.00396H126.365Z" fill="white"/>
<path d="M141.083 13.152V7.98759H135.66V13.152H133.238V0.705811H135.66V5.7101H141.083V0.705811H143.526V13.152H141.083Z" fill="white"/>
<path d="M152.424 6.93918C152.424 2.97293 155.424 0.442383 158.761 0.442383C162.097 0.442383 163.977 2.54945 164.467 4.56872L162.185 5.28657C161.885 4.0936 160.919 2.77668 158.761 2.77668C156.901 2.77668 154.934 4.1091 154.934 6.93918C154.934 9.58851 156.793 11.05 158.797 11.05C160.919 11.05 161.957 9.66081 162.293 8.50399L164.555 9.19085C164.08 11.1068 162.293 13.4205 158.797 13.4205C155.3 13.4205 152.424 10.9106 152.424 6.94434V6.93918Z" fill="white"/>
<path d="M175.655 13.152V7.98759H170.233V13.152H167.811V0.705811H170.233V5.7101H175.655V0.705811H178.098V13.152H175.655Z" fill="white"/>
<path d="M189.577 10.3064H184.521L183.483 13.152H180.922L185.699 0.705811H188.508L193.249 13.152H190.615L189.577 10.3064ZM185.327 8.09604H188.767L187.047 3.39129L185.327 8.09604Z" fill="white"/>
<path d="M196.074 13.152V0.705811H198.532V13.152H196.074Z" fill="white"/>
<path d="M210.684 13.152L205.03 4.32088V13.152H202.607V0.705811H205.629L210.808 8.93784V0.705811H213.231V13.152H210.684Z" fill="white"/>
<path d="M217.305 13.152V0.705811H219.727V10.8383H225.273V13.1571H217.305V13.152Z" fill="white"/>
<path d="M228.367 13.152V0.705811H230.825V13.152H228.367Z" fill="white"/>
<path d="M242.977 13.152L237.322 4.32088V13.152H234.9V0.705811H237.922L243.101 8.93784V0.705811H245.524V13.152H242.977Z" fill="white"/>
<path d="M253.564 7.99272L252.02 9.69697V13.1571H249.598V0.710938H252.02V6.34528L257.009 0.710938H260.185L255.253 6.13354L260.221 13.1571H257.184L253.569 7.99272H253.564Z" fill="white"/>
</svg>
