<svg width="48" height="49" viewBox="0 0 48 49" fill="none" xmlns="http://www.w3.org/2000/svg">
<path fill-rule="evenodd" clip-rule="evenodd" d="M19.976 40.7888C19.976 41.5224 19.4012 42.1093 18.6826 42.1093C17.9641 42.1093 17.3892 41.5224 17.3892 40.7888V35.2134C17.3892 34.4798 16.8144 33.8929 16.0958 33.8929C15.3772 33.8929 14.8024 34.4798 14.8024 35.2134V38.0011C14.8024 38.7347 14.2275 39.3216 13.6527 39.3216C12.9341 39.3216 12.3593 38.7347 12.3593 38.0011V29.638C12.3593 28.9044 11.7844 28.3175 11.0659 28.3175C10.3473 28.3175 9.77246 28.9044 9.77246 29.638V40.3486C9.77246 41.0822 9.19761 41.6691 8.47904 41.6691C7.76048 41.6691 7.18563 41.0822 7.18563 40.3486V26.7035C7.18563 25.9699 6.61078 25.383 5.89222 25.383C5.31737 25.383 4.74252 25.9699 4.74252 26.7035V29.4913C4.74252 30.2249 4.16767 30.8117 3.4491 30.8117C2.73054 30.8117 2.15569 30.2249 2.15569 29.4913V26.5568L0 24.356L9.19761 15.1125L24 30.3716L38.9461 15.1125L48 24.356L45.988 26.5568V29.4913C45.988 30.2249 45.4132 30.8117 44.6946 30.8117C43.9761 30.8117 43.4012 30.2249 43.4012 29.4913V26.7035C43.4012 25.9699 42.8263 25.383 42.1078 25.383C41.3892 25.383 40.8144 25.9699 40.8144 26.7035V40.3486C40.8144 41.0822 40.2395 41.6691 39.521 41.6691C38.9461 41.6691 38.3713 41.0822 38.3713 40.3486V29.638C38.3713 28.9044 37.7964 28.3175 37.0778 28.3175C36.3593 28.3175 35.7844 28.9044 35.7844 29.638V38.0011C35.7844 38.7347 35.2096 39.3216 34.491 39.3216C33.7725 39.3216 33.1976 38.7347 33.1976 38.0011V35.2134C33.1976 34.4798 32.6228 33.8929 31.9042 33.8929C31.1856 33.8929 30.6108 34.4798 30.6108 35.2134V40.7888C30.6108 41.5224 30.0359 42.1093 29.4611 42.1093C28.7425 42.1093 28.1677 41.5224 28.1677 40.7888V40.4954H28.024V40.0552H27.8802V39.9085H27.7365V39.7618H27.5928V39.615H27.3054V39.4683H26.2994V39.615H26.1557V39.7618H25.8683V40.0552H25.7246V40.3486H25.5808V47.3913L24 48.8585L22.5629 47.3913V40.4954H22.4192V40.0552H22.2754V39.9085H22.1317V39.7618H21.988V39.615H21.7006V39.4683H20.6946V39.615H20.5509L20.4072 39.7618H20.2635V40.0552H20.1198V40.2019L19.976 40.3486V40.7888Z" fill="#FEFEFE"/>
<path fill-rule="evenodd" clip-rule="evenodd" d="M29.4675 43.1361C28.7489 43.1361 28.1741 43.723 28.1741 44.4566V44.6033C28.1741 45.3369 28.7489 45.9238 29.4675 45.9238C30.0424 45.9238 30.6172 45.3369 30.6172 44.6033V44.4566C30.6172 43.723 30.0424 43.1361 29.4675 43.1361ZM18.6891 43.1361C19.4076 43.1361 19.9825 43.723 19.9825 44.4566V44.6033C19.9825 45.3369 19.4076 45.9238 18.6891 45.9238C17.9705 45.9238 17.3956 45.3369 17.3956 44.6033V44.4566C17.3956 43.723 17.9705 43.1361 18.6891 43.1361ZM44.701 32.132C43.9825 32.132 43.4076 32.7189 43.4076 33.4525V35.3599C43.4076 36.0935 43.9825 36.6804 44.701 36.6804C45.4196 36.6804 45.9944 36.0935 45.9944 35.3599V33.4525C45.9944 32.7189 45.4196 32.132 44.701 32.132ZM3.45552 32.132C4.17409 32.132 4.74894 32.7189 4.74894 33.4525V35.3599C4.74894 36.0935 4.17409 36.6804 3.45552 36.6804C2.73696 36.6804 2.16211 36.0935 2.16211 35.3599V33.4525C2.16211 32.7189 2.73696 32.132 3.45552 32.132ZM24.0064 0L33.3477 9.39017L24.0064 18.9271L14.8088 9.39017L24.0064 0Z" fill="#FEFEFE"/>
</svg>
