<svg width="40" height="40" viewBox="0 0 40 40" fill="none" xmlns="http://www.w3.org/2000/svg">
<circle cx="20" cy="20" r="20" fill="#270B5B"/>
<path d="M20.1319 13C18.2226 13.0034 16.4892 13.7558 15.2093 14.9789L14.1804 13.9499C13.7448 13.5143 13 13.8228 13 14.4388V18.3011C13 18.683 13.3096 18.9926 13.6915 18.9926H17.5538C18.1698 18.9926 18.4783 18.2478 18.0427 17.8122L16.8399 16.6094C17.7291 15.7768 18.8797 15.3156 20.1021 15.305C22.7641 15.282 25.008 17.4363 24.985 20.1867C24.9632 22.7958 22.8479 24.9852 20.145 24.9852C18.9601 24.9852 17.8402 24.5623 16.9577 23.7879C16.821 23.668 16.6147 23.6753 16.4861 23.8038L15.3434 24.9465C15.2031 25.0869 15.21 25.3157 15.3573 25.4488C16.6243 26.5932 18.3033 27.29 20.145 27.29C24.0911 27.29 27.29 24.0911 27.29 20.1451C27.29 16.2035 24.0734 12.993 20.1319 13Z" fill="white"/>
</svg>
