<svg width="40" height="40" viewBox="0 0 40 40" fill="none" xmlns="http://www.w3.org/2000/svg">
<circle cx="20" cy="20" r="20" fill="#270B5B"/>
<path d="M20.0131 12.8572C21.9218 12.8606 23.6547 13.6127 24.9342 14.8354L25.9628 13.8068C26.3983 13.3713 27.1429 13.6797 27.1429 14.2956V18.1567C27.1429 18.5385 26.8334 18.848 26.4516 18.848H22.5905C21.9746 18.848 21.6662 18.1034 22.1017 17.6679L23.3042 16.4655C22.4152 15.6331 21.265 15.172 20.0429 15.1615C17.3817 15.1385 15.1385 17.2922 15.1615 20.0417C15.1833 22.6501 17.2979 24.8387 20 24.8387C21.1845 24.8387 22.3041 24.416 23.1863 23.6419C23.3229 23.522 23.5292 23.5293 23.6578 23.6578L24.8001 24.8001C24.9404 24.9404 24.9335 25.1692 24.7862 25.3022C23.5196 26.4463 21.8412 27.1429 20 27.1429C16.0551 27.1429 12.8572 23.9449 12.8571 20.0001C12.8571 16.0598 16.0728 12.8501 20.0131 12.8572Z" fill="white"/>
</svg>
