<svg width="128" height="258" viewBox="0 0 128 258" fill="none" xmlns="http://www.w3.org/2000/svg">
<path d="M71.5622 257.279C40.387 257.279 15.1094 230.549 15.1094 197.58C15.1094 164.611 40.387 137.88 71.5622 137.88C102.737 137.88 128.005 164.611 128.005 197.58C128.005 230.549 102.737 257.279 71.5622 257.279Z" fill="url(#paint0_linear_158_3298)"/>
<path d="M15.1074 197.58C15.1074 167.088 36.7379 141.947 64.6442 138.347C62.3745 138.051 60.0756 137.88 57.738 137.88C26.5628 137.88 1.28516 164.611 1.28516 197.58C1.28516 230.549 26.5628 257.279 57.738 257.279C60.0756 257.279 62.3745 257.109 64.6442 256.822C36.7379 253.204 15.1074 228.072 15.1074 197.58Z" fill="url(#paint1_linear_158_3298)"/>
<path d="M15.1074 199.716H1.28516C1.33366 201.152 1.42095 202.571 1.56645 203.98H15.3887C15.2529 202.571 15.1559 201.152 15.1074 199.716Z" fill="url(#paint2_linear_158_3298)"/>
<path d="M15.6299 189.053H1.81742C1.62342 190.462 1.48762 191.88 1.39062 193.316H15.2128C15.3098 191.889 15.4456 190.462 15.6299 189.053Z" fill="url(#paint3_linear_158_3298)"/>
<path d="M16.3768 210.371H2.54492C2.84562 211.816 3.19481 213.234 3.5828 214.634H17.405C17.017 213.243 16.6678 211.816 16.3768 210.371Z" fill="url(#paint4_linear_158_3298)"/>
<path d="M19.5956 221.034H5.76367C6.34566 222.488 6.99555 223.907 7.69393 225.298H21.5161C20.8275 223.907 20.1873 222.488 19.5956 221.034Z" fill="url(#paint5_linear_158_3298)"/>
<path d="M18.0444 178.389H4.23194C3.78575 179.79 3.35896 181.208 3.00977 182.653H16.8514C17.2006 181.217 17.5886 179.79 18.0444 178.389Z" fill="url(#paint6_linear_158_3298)"/>
<path d="M22.6339 167.735H8.80199C8.04541 169.126 7.32762 170.544 6.67773 171.998H20.5096C21.1595 170.544 21.8676 169.117 22.6339 167.735Z" fill="url(#paint7_linear_158_3298)"/>
<path d="M32.037 154.944H18.1954C16.8859 156.299 15.6346 157.718 14.4609 159.208H28.2928C29.4762 157.718 30.7275 156.299 32.037 154.944Z" fill="url(#paint8_linear_158_3298)"/>
<path d="M46.1179 144.28H32.2665C29.9095 145.537 27.6494 146.964 25.4961 148.544H39.3474C41.5008 146.964 43.7608 145.537 46.1179 144.28Z" fill="url(#paint9_linear_158_3298)"/>
<path d="M26.6679 233.825H12.8457C13.9127 235.306 15.0379 236.724 16.2406 238.089H30.0822C28.8795 236.724 27.7446 235.306 26.6679 233.825Z" fill="url(#paint10_linear_158_3298)"/>
<path d="M22.791 244.489C24.6437 246.033 26.5836 247.46 28.6109 248.753H42.4622C40.4252 247.46 38.4756 246.033 36.6132 244.489H22.791Z" fill="url(#paint11_linear_158_3298)"/>
<path d="M73.734 246.436H74.0444L74.3451 246.427H74.6458L74.9562 246.419L75.2569 246.41L75.5575 246.401L75.8582 246.383L76.1589 246.374L76.4596 246.356L76.7603 246.338L77.061 246.311L77.3617 246.293L77.6624 246.266L77.9631 246.239L78.2541 246.212L78.5548 246.185L78.8555 246.149L79.1465 246.113L79.4472 246.077L79.7382 246.042L80.0291 245.997L80.3298 245.961L80.6208 245.916L80.9118 245.871L81.2028 245.817L81.4938 245.772L81.7848 245.718L82.0758 245.665L82.3668 245.611L82.6578 245.557L82.9488 245.494L83.2301 245.44L83.5211 245.377L83.8121 245.305L84.0934 245.243L84.3844 245.171L84.6656 245.108L84.9469 245.036L85.2282 244.964L85.5192 244.884L85.8005 244.812L86.0818 244.731L86.3534 244.65L86.6347 244.569L86.916 244.489L87.1973 244.399L87.4689 244.318L87.7502 244.228L88.0218 244.139L88.3031 244.04L88.5747 243.95L88.856 243.851L89.1276 243.753L89.3992 243.654L89.6707 243.555L89.9423 243.456L90.2042 243.349L90.4758 243.241L90.7474 243.133L91.0093 243.026L91.2809 242.918L91.5428 242.801L91.8144 242.693L92.0763 242.577L92.3382 242.451L92.6001 242.334L92.862 242.218L93.1239 242.092L93.3858 241.975L93.6477 241.85L93.8999 241.724L94.1618 241.589L94.4139 241.464L94.6758 241.329L94.928 241.194L95.1802 241.06L95.4324 240.925L95.6846 240.791L95.9368 240.647L96.189 240.512L96.4412 240.369L96.6837 240.216L96.9359 240.072L97.1784 239.929L97.4209 239.776L97.6731 239.633L97.9156 239.48L98.1581 239.327L98.4006 239.175L98.6334 239.013L98.8758 238.861L99.1183 238.699L99.3511 238.547L99.5936 238.376L99.8264 238.214L100.059 238.053L100.292 237.891L100.525 237.721L100.758 237.55L100.99 237.38L101.223 237.209L101.446 237.039L101.679 236.859L101.902 236.689L102.125 236.509L102.348 236.329L102.571 236.15L102.795 235.97L103.018 235.791L103.241 235.602L103.454 235.423L103.677 235.234L103.891 235.046L104.104 234.857L104.317 234.669L104.531 234.471L104.744 234.283L104.958 234.085L105.171 233.888L105.375 233.691L105.578 233.502L105.792 233.296L105.995 233.098L106.199 232.892L106.403 232.694L106.607 232.488L106.801 232.281L107.004 232.075L107.198 231.868L107.402 231.662L107.596 231.447L107.79 231.24L107.984 231.025L108.178 230.809L108.362 230.594L108.556 230.378L108.741 230.163L108.935 229.939L109.119 229.723L109.303 229.499L109.487 229.283L109.662 229.059L109.846 228.835L110.031 228.61L110.205 228.377L110.38 228.152L110.554 227.919L110.729 227.695L110.904 227.461L111.078 227.228L111.243 226.994L111.418 226.761L111.583 226.528L111.747 226.285L111.912 226.052L112.077 225.81L112.242 225.576L112.407 225.334L112.562 225.092L112.717 224.849L112.882 224.607L113.038 224.355L113.183 224.113L113.338 223.862L113.493 223.619L113.639 223.368L113.794 223.117L113.94 222.865L114.085 222.614L114.231 222.363L114.376 222.111L114.512 221.851L114.648 221.6L114.793 221.34L114.929 221.079L115.065 220.819L115.201 220.568L115.327 220.307L115.463 220.038L115.589 219.778L115.724 219.517L115.85 219.248L115.977 218.988L116.093 218.719L116.219 218.458L116.335 218.189L116.462 217.92L116.578 217.65L116.694 217.372L116.811 217.103L116.917 216.834L117.034 216.564L117.141 216.286L117.247 216.008L117.354 215.738L117.461 215.46L117.567 215.182L117.674 214.904L117.771 214.625L117.868 214.347L117.965 214.069L118.062 213.782L118.159 213.503L118.246 213.225L118.343 212.938L118.431 212.651L118.518 212.372L118.605 212.085L118.693 211.798L118.77 211.511L118.848 211.224L118.935 210.936L119.013 210.64L119.081 210.353L119.158 210.057L119.236 209.769L119.304 209.473L119.372 209.186L119.439 208.89L119.507 208.594L119.575 208.297L119.633 208.01L119.692 207.714L119.75 207.409L119.808 207.113L119.866 206.816L119.924 206.52L119.973 206.215L120.021 205.919L120.07 205.614L120.118 205.317L120.167 205.012L120.206 204.716L120.254 204.411L120.293 204.106L120.332 203.8L120.361 203.495L120.4 203.19L120.429 202.885L120.458 202.58L120.487 202.274L120.516 201.96L120.545 201.655L120.565 201.341L120.584 201.036L120.613 200.731L120.623 200.416L120.642 200.102L120.652 199.797L120.671 199.483L120.681 199.169L120.691 198.855V198.54L120.7 198.226V197.598H117.965V197.903L117.955 198.199V198.496L117.946 198.801L117.936 199.097L117.926 199.393L117.917 199.689L117.907 199.995L117.887 200.291L117.868 200.578L117.849 200.883L117.829 201.17L117.81 201.467L117.79 201.763L117.761 202.059L117.732 202.346L117.703 202.642L117.674 202.939L117.635 203.226L117.606 203.513L117.567 203.809L117.529 204.097L117.49 204.384L117.451 204.671L117.412 204.958L117.364 205.246L117.315 205.533L117.267 205.82L117.218 206.107L117.17 206.394L117.111 206.673L117.053 206.96L117.005 207.238L116.947 207.525L116.879 207.804L116.82 208.082L116.762 208.369L116.694 208.647L116.626 208.926L116.559 209.204L116.491 209.482L116.423 209.76L116.345 210.039L116.277 210.308L116.2 210.586L116.122 210.865L116.044 211.134L115.957 211.412L115.88 211.681L115.792 211.951L115.715 212.22L115.627 212.489L115.54 212.758L115.443 213.028L115.356 213.297L115.259 213.566L115.172 213.827L115.075 214.096L114.978 214.356L114.881 214.625L114.774 214.886L114.677 215.146L114.57 215.406L114.463 215.667L114.357 215.927L114.25 216.187L114.143 216.448L114.037 216.708L113.92 216.959L113.804 217.22L113.697 217.471L113.581 217.722L113.464 217.974L113.338 218.225L113.222 218.476L113.096 218.728L112.97 218.979L112.853 219.23L112.727 219.473L112.591 219.724L112.465 219.966L112.339 220.218L112.203 220.46L112.068 220.702L111.932 220.945L111.806 221.187L111.66 221.42L111.524 221.663L111.389 221.905L111.243 222.138L111.098 222.372L110.962 222.614L110.816 222.848L110.671 223.081L110.525 223.314L110.37 223.539L110.225 223.772L110.069 224.005L109.914 224.23L109.759 224.454L109.604 224.688L109.449 224.912L109.293 225.136L109.129 225.361L108.973 225.585L108.808 225.801L108.644 226.025L108.488 226.24L108.323 226.456L108.149 226.68L107.984 226.896L107.819 227.111L107.644 227.318L107.47 227.533L107.305 227.748L107.13 227.955L106.956 228.161L106.781 228.377L106.597 228.583L106.422 228.79L106.238 228.987L106.063 229.194L105.879 229.4L105.695 229.597L105.511 229.795L105.326 230.001L105.142 230.199L104.958 230.396L104.764 230.585L104.579 230.782L104.385 230.98L104.191 231.168L103.997 231.357L103.803 231.545L103.609 231.734L103.415 231.922L103.221 232.111L103.018 232.299L102.824 232.479L102.62 232.658L102.416 232.838L102.213 233.017L102.009 233.197L101.805 233.376L101.601 233.547L101.398 233.726L101.184 233.897L100.981 234.076L100.767 234.247L100.564 234.409L100.35 234.579L100.137 234.75L99.9234 234.911L99.71 235.082L99.4966 235.243L99.2735 235.405L99.0601 235.567L98.8371 235.719L98.6237 235.881L98.4006 236.033L98.1775 236.195L97.9544 236.347L97.7313 236.491L97.5082 236.644L97.2851 236.796L97.062 236.94L96.8389 237.092L96.6061 237.236L96.3733 237.38L96.1502 237.523L95.9174 237.667L95.6846 237.802L95.4615 237.936L95.2287 238.08L94.9862 238.214L94.7534 238.34L94.5206 238.475L94.2878 238.609L94.0453 238.735L93.8126 238.861L93.5701 238.995L93.3276 239.112L93.0948 239.238L92.8523 239.363L92.6098 239.48L92.3673 239.606L92.1248 239.722L91.8823 239.839L91.6398 239.947L91.3876 240.063L91.1451 240.171L90.8929 240.288L90.6504 240.396L90.3982 240.503L90.146 240.602L89.9035 240.71L89.6513 240.809L89.3992 240.916L89.147 241.006L88.8948 241.105L88.6426 241.203L88.3807 241.302L88.1285 241.392L87.8763 241.482L87.6144 241.571L87.3622 241.661L87.1003 241.751L86.8384 241.832L86.5862 241.913L86.3243 241.993L86.0624 242.074L85.8005 242.155L85.5386 242.236L85.2767 242.308L85.0148 242.379L84.7529 242.451L84.4911 242.523L84.2195 242.595L83.9576 242.658L83.686 242.72L83.4241 242.783L83.1525 242.846L82.8906 242.909L82.619 242.963L82.3474 243.026L82.0855 243.079L81.8139 243.133L81.5423 243.178L81.2707 243.232L80.9991 243.277L80.7275 243.322L80.4462 243.367L80.1746 243.412L79.9031 243.456L79.6315 243.492L79.3502 243.528L79.0786 243.564L78.7973 243.6L78.5257 243.627L78.2444 243.663L77.9631 243.69L77.6915 243.717L77.4102 243.744L77.1289 243.762L76.8476 243.789L76.5663 243.807L76.285 243.824L76.0037 243.842L75.7224 243.851L75.4411 243.869L75.1599 243.878L74.8786 243.887H74.5973L74.3063 243.896H73.734V246.436ZM26.7676 197.598L26.7773 197.912V198.226L26.787 198.54V198.855L26.7967 199.169L26.8064 199.483L26.8161 199.797L26.8355 200.102L26.8549 200.416L26.8646 200.731L26.884 201.036L26.9131 201.341L26.9325 201.655L26.9616 201.96L26.981 202.274L27.0198 202.58L27.0489 202.885L27.078 203.19L27.1168 203.495L27.1459 203.8L27.1847 204.106L27.2235 204.411L27.272 204.716L27.3108 205.012L27.3593 205.317L27.4078 205.614L27.4563 205.919L27.5048 206.215L27.5533 206.52L27.6115 206.816L27.6697 207.113L27.7182 207.409L27.7764 207.714L27.8443 208.01L27.9025 208.297L27.9704 208.594L28.0383 208.89L28.1061 209.186L28.174 209.473L28.2419 209.769L28.3195 210.057L28.3874 210.353L28.465 210.64L28.5426 210.936L28.6202 211.224L28.7075 211.511L28.7851 211.798L28.8724 212.085L28.9597 212.372L29.047 212.651L29.1343 212.938L29.2313 213.225L29.3186 213.503L29.4156 213.782L29.5126 214.069L29.6096 214.347L29.7066 214.625L29.8036 214.904L29.9103 215.182L30.017 215.46L30.114 215.738L30.2207 216.008L30.3371 216.286L30.4438 216.564L30.5602 216.834L30.6669 217.103L30.7833 217.381L30.8997 217.65L31.0161 217.92L31.1325 218.189L31.2586 218.449L31.3847 218.719L31.5011 218.988L31.6272 219.248L31.7533 219.517L31.8794 219.778L32.0152 220.038L32.1413 220.307L32.2771 220.568L32.4129 220.819L32.5487 221.079L32.6845 221.34L32.8203 221.6L32.9657 221.851L33.1015 222.111L33.247 222.363L33.3925 222.614L33.538 222.865L33.6835 223.117L33.829 223.368L33.9842 223.619L34.1394 223.862L34.2849 224.113L34.4401 224.355L34.5953 224.607L34.7505 224.849L34.9154 225.092L35.0706 225.334L35.2355 225.576L35.4004 225.81L35.5653 226.052L35.7302 226.285L35.8951 226.528L36.06 226.761L36.2249 226.994L36.3995 227.228L36.5741 227.461L36.7487 227.695L36.9136 227.919L37.0979 228.152L37.2725 228.377L37.4471 228.61L37.6313 228.835L37.8156 229.059L37.9902 229.283L38.1745 229.499L38.3588 229.723L38.5431 229.939L38.7371 230.163L38.9214 230.378L39.1057 230.594L39.2997 230.809L39.4937 231.025L39.6877 231.24L39.8817 231.447L40.0757 231.662L40.2697 231.868L40.4734 232.075L40.6674 232.281L40.8711 232.488L41.0748 232.694L41.2785 232.892L41.4822 233.098L41.6859 233.296L41.8896 233.502L42.103 233.691L42.3066 233.897L42.52 234.085L42.7334 234.283L42.9468 234.471L43.1505 234.669L43.3736 234.857L43.587 235.046L43.8004 235.234L44.0235 235.423L44.2369 235.602L44.46 235.791L44.6831 235.97L44.9062 236.15L45.1293 236.329L45.3524 236.509L45.5755 236.689L45.7986 236.859L46.0314 237.039L46.2545 237.209L46.4873 237.38L46.7201 237.55L46.9529 237.721L47.1856 237.882L47.4184 238.053L47.6512 238.214L47.884 238.376L48.1265 238.547L48.3593 238.699L48.6018 238.861L48.8443 239.013L49.0771 239.175L49.3196 239.327L49.5621 239.48L49.8046 239.633L50.0568 239.776L50.2993 239.929L50.5418 240.072L50.794 240.216L51.0365 240.369L51.2887 240.512L51.5409 240.647L51.793 240.791L52.0452 240.925L52.2974 241.06L52.5496 241.194L52.8018 241.329L53.0637 241.464L53.3159 241.589L53.5778 241.724L53.83 241.85L54.0919 241.975L54.3538 242.092L54.6157 242.218L54.8776 242.334L55.1395 242.451L55.4014 242.577L55.6633 242.693L55.9252 242.801L56.1968 242.918L56.4586 243.026L56.7302 243.133L57.0018 243.241L57.2637 243.349L57.5353 243.456L57.8069 243.555L58.0785 243.654L58.3501 243.753L58.6217 243.851L58.903 243.95L59.1746 244.04L59.4462 244.139L59.7275 244.228L60.0088 244.318L60.2804 244.399L60.5617 244.489L60.8333 244.569L61.1146 244.65L61.3958 244.731L61.6771 244.812L61.9584 244.884L62.2494 244.964L62.5307 245.036L62.812 245.108L63.0933 245.171L63.3843 245.243L63.6656 245.305L63.9566 245.377L64.2379 245.44L64.5289 245.494L64.8199 245.557L65.1109 245.611L65.3922 245.665L65.6832 245.718L65.9741 245.772L66.2748 245.817L66.5658 245.871L66.8568 245.916L67.1478 245.961L67.4485 245.997L67.7395 246.042L68.0305 246.077L68.3312 246.113L68.6222 246.149L68.9229 246.185L69.2139 246.212L69.5146 246.239L69.8153 246.266L70.116 246.293L70.4167 246.311L70.7076 246.338L71.0083 246.356L71.309 246.374L71.6097 246.383L71.9201 246.401L72.2208 246.41L72.5215 246.419L72.8222 246.427H73.1326L73.4333 246.436H73.734V243.896H73.1714L72.8804 243.887H72.5991L72.3178 243.878L72.0365 243.869L71.7552 243.851L71.4739 243.842L71.1829 243.824L70.9113 243.807L70.63 243.789L70.3488 243.762L70.0675 243.744L69.7862 243.717L69.5146 243.69L69.2333 243.663L68.952 243.627L68.6804 243.6L68.3991 243.564L68.1275 243.528L67.8462 243.492L67.5746 243.456L67.303 243.412L67.0314 243.367L66.7598 243.322L66.4785 243.277L66.2069 243.232L65.9353 243.178L65.6638 243.133L65.3922 243.079L65.1303 243.026L64.8587 242.963L64.5871 242.909L64.3155 242.846L64.0536 242.783L63.7917 242.72L63.5201 242.658L63.2582 242.595L62.9866 242.523L62.7247 242.451L62.4628 242.379L62.2009 242.308L61.939 242.236L61.6771 242.155L61.4152 242.074L61.1534 241.993L60.8915 241.913L60.6296 241.832L60.3774 241.751L60.1155 241.661L59.8633 241.571L59.6014 241.482L59.3492 241.392L59.097 241.302L58.8351 241.203L58.5829 241.105L58.3307 241.006L58.0785 240.916L57.8263 240.809L57.5741 240.71L57.3219 240.602L57.0794 240.503L56.8272 240.396L56.5847 240.288L56.3326 240.171L56.0901 240.063L55.8379 239.947L55.5954 239.839L55.3529 239.722L55.1104 239.606L54.8679 239.48L54.6254 239.363L54.3829 239.238L54.1404 239.112L53.9076 238.995L53.6651 238.861L53.4323 238.735L53.1898 238.609L52.957 238.475L52.7242 238.34L52.4817 238.214L52.2489 238.08L52.0161 237.936L51.793 237.802L51.5603 237.667L51.3275 237.523L51.0947 237.38L50.8716 237.236L50.6388 237.092L50.4157 236.94L50.1926 236.796L49.9695 236.644L49.7367 236.491L49.5233 236.347L49.3002 236.195L49.0771 236.033L48.854 235.881L48.6406 235.719L48.4175 235.567L48.2041 235.405L47.981 235.243L47.7676 235.082L47.5542 234.911L47.3408 234.75L47.1274 234.579L46.9141 234.409L46.7104 234.247L46.497 234.076L46.2933 233.897L46.0799 233.726L45.8762 233.547L45.6725 233.376L45.4591 233.197L45.2651 233.017L45.0614 232.838L44.8577 232.658L44.654 232.479L44.46 232.299L44.2563 232.111L44.0623 231.922L43.8683 231.734L43.6743 231.545L43.4803 231.357L43.2863 231.168L43.0923 230.98L42.8983 230.782L42.714 230.585L42.52 230.396L42.3357 230.199L42.1515 230.001L41.9672 229.795L41.7829 229.597L41.5986 229.4L41.4143 229.194L41.2397 228.996L41.0554 228.79L40.8808 228.583L40.6965 228.377L40.5219 228.161L40.3473 227.955L40.1727 227.748L39.9981 227.533L39.8332 227.318L39.6586 227.111L39.4937 226.896L39.3191 226.68L39.1542 226.465L38.9893 226.24L38.8244 226.025L38.6692 225.801L38.5043 225.585L38.3394 225.361L38.1842 225.136L38.029 224.912L37.8641 224.688L37.7186 224.454L37.5634 224.23L37.4083 224.005L37.2531 223.772L37.1076 223.539L36.9524 223.314L36.8069 223.081L36.6614 222.848L36.5159 222.614L36.3704 222.372L36.2346 222.138L36.0891 221.905L35.9533 221.663L35.8078 221.42L35.672 221.187L35.5362 220.945L35.4101 220.702L35.2743 220.46L35.1385 220.209L35.0124 219.966L34.8766 219.724L34.7505 219.473L34.6244 219.23L34.4983 218.979L34.3819 218.728L34.2558 218.476L34.1394 218.225L34.0133 217.974L33.8969 217.722L33.7805 217.471L33.6738 217.22L33.5574 216.959L33.441 216.708L33.3343 216.448L33.2276 216.187L33.1112 215.927L33.0142 215.667L32.9075 215.406L32.8009 215.146L32.7039 214.886L32.5972 214.625L32.5002 214.356L32.4032 214.096L32.3062 213.827L32.2092 213.566L32.1219 213.297L32.0249 213.028L31.9376 212.758L31.8503 212.489L31.763 212.22L31.6757 211.951L31.5981 211.681L31.5108 211.412L31.4332 211.134L31.3556 210.865L31.278 210.586L31.2004 210.308L31.1325 210.039L31.0549 209.76L30.987 209.482L30.9094 209.204L30.8512 208.926L30.7833 208.647L30.7154 208.369L30.6572 208.082L30.5893 207.804L30.5311 207.525L30.4729 207.238L30.4147 206.96L30.3662 206.673L30.308 206.394L30.2595 206.107L30.211 205.82L30.1625 205.533L30.114 205.246L30.0655 204.958L30.0267 204.671L29.9879 204.384L29.9491 204.097L29.9103 203.809L29.8715 203.513L29.8327 203.226L29.8036 202.939L29.7745 202.642L29.7454 202.346L29.7163 202.059L29.6872 201.763L29.6678 201.467L29.6387 201.17L29.6193 200.883L29.5999 200.578L29.5902 200.291L29.5708 199.995L29.5611 199.689L29.5417 199.393L29.532 199.097V198.801L29.5223 198.496V198.199L29.5126 197.903V197.598H26.7676ZM73.734 148.768H73.1326L72.8222 148.777H72.5215L72.2208 148.786L71.9201 148.804L71.6097 148.813L71.309 148.831L71.0083 148.849L70.7076 148.867L70.4167 148.885L70.116 148.912L69.8153 148.93L69.5146 148.957L69.2139 148.984L68.9229 149.02L68.6222 149.056L68.3312 149.083L68.0305 149.118L67.7395 149.163L67.4485 149.199L67.1478 149.244L66.8568 149.289L66.5658 149.334L66.2748 149.379L65.9741 149.433L65.6832 149.478L65.3922 149.531L65.1109 149.585L64.8199 149.648L64.5289 149.702L64.2379 149.765L63.9566 149.828L63.6656 149.89L63.3843 149.953L63.0933 150.025L62.812 150.097L62.5307 150.16L62.2494 150.24L61.9584 150.312L61.6771 150.393L61.3958 150.465L61.1146 150.546L60.8333 150.626L60.5617 150.716L60.2804 150.797L60.0088 150.887L59.7275 150.977L59.4462 151.066L59.1746 151.156L58.903 151.255L58.6217 151.345L58.3501 151.443L58.0785 151.542L57.8069 151.641L57.5353 151.748L57.2637 151.847L57.0018 151.955L56.7302 152.063L56.4586 152.17L56.1968 152.287L55.9252 152.395L55.6633 152.511L55.4014 152.628L55.1395 152.745L54.8776 152.861L54.6157 152.987L54.3538 153.104L54.0919 153.23L53.83 153.355L53.5778 153.481L53.3159 153.607L53.0637 153.741L52.8018 153.867L52.5496 154.001L52.2974 154.136L52.0452 154.28L51.793 154.414L51.5409 154.549L51.2887 154.693L51.0365 154.836L50.794 154.98L50.5418 155.123L50.2993 155.276L50.0568 155.42L49.8046 155.563L49.5621 155.716L49.3196 155.877L49.0771 156.03L48.8443 156.183L48.6018 156.344L48.3593 156.497L48.1265 156.658L47.884 156.82L47.6512 156.981L47.4184 157.152L47.1856 157.314L46.9529 157.484L46.7201 157.646L46.4873 157.816L46.2545 157.987L46.0314 158.166L45.7986 158.337L45.5755 158.516L45.3524 158.687L45.1293 158.866L44.9062 159.046L44.6831 159.225L44.46 159.414L44.2369 159.594L44.0235 159.782L43.8004 159.971L43.587 160.15L43.3736 160.339L43.1505 160.536L42.9468 160.724L42.7334 160.913L42.52 161.11L42.3066 161.308L42.103 161.505L41.8896 161.703L41.6859 161.9L41.4822 162.107L41.2785 162.304L41.0748 162.511L40.8711 162.708L40.6771 162.915L40.4734 163.121L40.2697 163.328L40.0757 163.543L39.8817 163.749L39.6877 163.965L39.4937 164.171L39.2997 164.387L39.1057 164.602L38.9214 164.818L38.7371 165.042L38.5431 165.257L38.3588 165.473L38.1745 165.697L37.9902 165.922L37.8156 166.146L37.6313 166.37L37.4471 166.595L37.2725 166.819L37.0979 167.044L36.9136 167.277L36.7487 167.51L36.5741 167.735L36.3995 167.968L36.2249 168.202L36.06 168.435L35.8951 168.677L35.7302 168.911L35.5653 169.153L35.4004 169.386L35.2355 169.629L35.0706 169.871L34.9154 170.113L34.7505 170.356L34.5953 170.598L34.4401 170.84L34.2849 171.083L34.1394 171.334L33.9842 171.585L33.829 171.828L33.6835 172.079L33.538 172.33L33.3925 172.582L33.247 172.842L33.1015 173.093L32.9657 173.345L32.8203 173.596L32.6845 173.856L32.5487 174.117L32.4129 174.377L32.2771 174.637L32.1413 174.898L32.0152 175.158L31.8794 175.418L31.7533 175.679L31.6272 175.948L31.5011 176.217L31.3847 176.477L31.2586 176.747L31.1325 177.016L31.0161 177.285L30.8997 177.555L30.7833 177.824L30.6669 178.093L30.5602 178.362L30.4438 178.641L30.3371 178.91L30.2207 179.188L30.114 179.466L30.017 179.736L29.9103 180.014L29.8036 180.292L29.7066 180.57L29.6096 180.858L29.5126 181.136L29.4156 181.414L29.3186 181.692L29.2313 181.98L29.1343 182.258L29.047 182.545L28.9597 182.832L28.8724 183.12L28.7851 183.407L28.7075 183.694L28.6202 183.981L28.5426 184.269L28.465 184.556L28.3874 184.843L28.3195 185.139L28.2419 185.426L28.174 185.723L28.1061 186.019L28.0383 186.306L27.9704 186.602L27.9025 186.899L27.8443 187.195L27.7764 187.491L27.7182 187.787L27.6697 188.083L27.6115 188.38L27.5533 188.685L27.5048 188.981L27.4563 189.286L27.4078 189.582L27.3593 189.888L27.3108 190.184L27.272 190.489L27.2235 190.794L27.1847 191.09L27.1459 191.396L27.1168 191.701L27.078 192.006L27.0489 192.32L27.0198 192.625L26.981 192.93L26.9616 193.236L26.9325 193.55L26.9131 193.855L26.884 194.16L26.8646 194.474L26.8549 194.788L26.8355 195.094L26.8161 195.408L26.8064 195.722L26.7967 196.027L26.787 196.341V196.655L26.7773 196.97V197.284L26.7676 197.598H29.5126V197.302L29.5223 196.997V196.7L29.532 196.395V196.099L29.5417 195.803L29.5611 195.507L29.5708 195.21L29.5902 194.914L29.5999 194.618L29.6193 194.322L29.6387 194.026L29.6678 193.729L29.6872 193.433L29.7163 193.146L29.7454 192.85L29.7745 192.553L29.8036 192.266L29.8327 191.97L29.8715 191.683L29.9103 191.396L29.9491 191.108L29.9879 190.812L30.0267 190.525L30.0655 190.238L30.114 189.95L30.1625 189.663L30.211 189.376L30.2595 189.089L30.308 188.81L30.3662 188.523L30.4147 188.236L30.4729 187.958L30.5311 187.67L30.5893 187.392L30.6572 187.114L30.7154 186.827L30.7833 186.548L30.8512 186.27L30.9094 185.992L30.987 185.714L31.0549 185.435L31.1325 185.166L31.2004 184.888L31.278 184.61L31.3556 184.34L31.4332 184.062L31.5108 183.793L31.5981 183.524L31.6757 183.245L31.763 182.976L31.8503 182.707L31.9376 182.437L32.0249 182.168L32.1219 181.899L32.2092 181.639L32.3062 181.369L32.4032 181.109L32.5002 180.84L32.5972 180.579L32.7039 180.31L32.8009 180.05L32.9075 179.79L33.0142 179.529L33.1112 179.269L33.2276 179.009L33.3343 178.748L33.441 178.497L33.5574 178.237L33.6738 177.985L33.7805 177.725L33.8969 177.474L34.0133 177.222L34.1394 176.971L34.2558 176.72L34.3819 176.468L34.4983 176.217L34.6244 175.975L34.7505 175.723L34.8766 175.472L35.0124 175.23L35.1385 174.987L35.2743 174.745L35.4101 174.503L35.5362 174.26L35.672 174.018L35.8078 173.776L35.9533 173.533L36.0891 173.3L36.2346 173.058L36.3704 172.824L36.5159 172.591L36.6614 172.357L36.8069 172.115L36.9524 171.891L37.1076 171.657L37.2531 171.424L37.4083 171.199L37.5634 170.966L37.7186 170.742L37.8641 170.517L38.029 170.293L38.1842 170.06L38.3394 169.844L38.5043 169.62L38.6692 169.395L38.8244 169.18L38.9893 168.955L39.1542 168.74L39.3191 168.525L39.4937 168.309L39.6586 168.094L39.8332 167.878L39.9981 167.663L40.1727 167.457L40.3473 167.241L40.5219 167.035L40.6965 166.828L40.8808 166.622L41.0554 166.415L41.2397 166.209L41.4143 166.002L41.5986 165.805L41.7829 165.598L41.9672 165.401L42.1515 165.204L42.3357 165.006L42.52 164.809L42.714 164.611L42.8983 164.414L43.0923 164.225L43.2863 164.028L43.4803 163.839L43.6743 163.651L43.8683 163.462L44.0623 163.274L44.2563 163.085L44.46 162.906L44.654 162.717L44.8577 162.538L45.0614 162.358L45.2651 162.179L45.4591 161.999L45.6725 161.82L45.8762 161.649L46.0799 161.469L46.2933 161.299L46.497 161.128L46.7104 160.958L46.9141 160.787L47.1274 160.617L47.3408 160.455L47.5542 160.285L47.7676 160.123L47.981 159.962L48.2041 159.8L48.4175 159.638L48.6406 159.477L48.854 159.324L49.0771 159.163L49.3002 159.01L49.5233 158.857L49.7367 158.705L49.9695 158.552L50.1926 158.409L50.4157 158.256L50.6485 158.112L50.8716 157.969L51.0947 157.825L51.3275 157.682L51.5603 157.538L51.793 157.403L52.0161 157.26L52.2489 157.125L52.4817 156.99L52.7242 156.856L52.957 156.721L53.1898 156.596L53.4323 156.461L53.6651 156.335L53.9076 156.21L54.1404 156.084L54.3829 155.958L54.6254 155.842L54.8679 155.716L55.1104 155.599L55.3529 155.482L55.5954 155.366L55.8379 155.249L56.0901 155.132L56.3326 155.025L56.5847 154.917L56.8272 154.809L57.0794 154.702L57.3219 154.594L57.5741 154.495L57.8263 154.387L58.0785 154.289L58.3307 154.19L58.5829 154.091L58.8351 153.992L59.097 153.903L59.3492 153.804L59.6014 153.714L59.8633 153.624L60.1155 153.535L60.3774 153.454L60.6296 153.364L60.8915 153.283L61.1534 153.203L61.4152 153.122L61.6771 153.041L61.939 152.969L62.2009 152.897L62.4628 152.817L62.7247 152.745L62.9866 152.682L63.2582 152.61L63.5201 152.547L63.7917 152.476L64.0536 152.413L64.3155 152.35L64.5871 152.296L64.8587 152.233L65.1303 152.179L65.3922 152.125L65.6638 152.072L65.9353 152.018L66.2069 151.973L66.4785 151.919L66.7598 151.874L67.0314 151.829L67.303 151.784L67.5746 151.748L67.8462 151.713L68.1275 151.668L68.3991 151.632L68.6804 151.605L68.952 151.569L69.2333 151.542L69.5146 151.506L69.7862 151.479L70.0675 151.461L70.3488 151.434L70.63 151.416L70.9113 151.389L71.1829 151.38L71.4739 151.363L71.7552 151.345L72.0365 151.336L72.3178 151.327L72.5991 151.318L72.8804 151.309H73.1714L73.4527 151.3H73.734V148.768ZM120.7 197.598V196.97L120.691 196.655V196.341L120.681 196.027L120.671 195.722L120.652 195.408L120.642 195.094L120.623 194.788L120.613 194.474L120.584 194.16L120.565 193.855L120.545 193.55L120.516 193.236L120.487 192.93L120.458 192.625L120.429 192.32L120.4 192.006L120.361 191.701L120.332 191.396L120.293 191.09L120.254 190.794L120.206 190.489L120.167 190.184L120.118 189.888L120.07 189.582L120.021 189.286L119.973 188.981L119.924 188.685L119.866 188.38L119.808 188.083L119.75 187.787L119.692 187.491L119.633 187.195L119.575 186.899L119.507 186.602L119.439 186.306L119.372 186.019L119.304 185.723L119.236 185.426L119.158 185.139L119.081 184.843L119.013 184.556L118.935 184.269L118.848 183.981L118.77 183.694L118.693 183.407L118.605 183.12L118.518 182.832L118.431 182.545L118.343 182.258L118.246 181.98L118.159 181.692L118.062 181.414L117.965 181.136L117.868 180.858L117.771 180.57L117.674 180.292L117.567 180.014L117.461 179.736L117.354 179.466L117.247 179.188L117.141 178.91L117.034 178.641L116.917 178.362L116.811 178.093L116.694 177.824L116.578 177.555L116.462 177.285L116.335 177.016L116.219 176.747L116.093 176.477L115.977 176.217L115.85 175.948L115.724 175.679L115.589 175.418L115.463 175.158L115.327 174.898L115.201 174.637L115.065 174.377L114.929 174.117L114.793 173.856L114.648 173.596L114.512 173.345L114.376 173.093L114.231 172.842L114.085 172.582L113.94 172.33L113.794 172.079L113.639 171.828L113.493 171.585L113.338 171.334L113.183 171.083L113.038 170.84L112.882 170.598L112.717 170.356L112.562 170.113L112.397 169.871L112.242 169.629L112.077 169.386L111.912 169.144L111.747 168.911L111.583 168.677L111.418 168.435L111.243 168.202L111.078 167.968L110.904 167.744L110.729 167.51L110.554 167.277L110.38 167.044L110.205 166.819L110.031 166.595L109.846 166.37L109.662 166.146L109.487 165.922L109.303 165.697L109.119 165.473L108.935 165.257L108.741 165.042L108.556 164.827L108.362 164.602L108.178 164.387L107.984 164.171L107.79 163.965L107.596 163.749L107.402 163.543L107.198 163.328L107.004 163.121L106.801 162.915L106.607 162.708L106.403 162.502L106.199 162.304L105.995 162.107L105.792 161.9L105.578 161.703L105.375 161.505L105.171 161.308L104.958 161.11L104.744 160.913L104.531 160.724L104.317 160.536L104.104 160.339L103.891 160.15L103.677 159.971L103.454 159.782L103.241 159.594L103.018 159.414L102.795 159.234L102.571 159.046L102.348 158.866L102.125 158.687L101.902 158.516L101.679 158.337L101.446 158.166L101.223 157.996L100.99 157.816L100.758 157.646L100.525 157.484L100.292 157.314L100.059 157.152L99.8264 156.981L99.5936 156.82L99.3511 156.658L99.1183 156.497L98.8758 156.344L98.6334 156.183L98.4006 156.03L98.1581 155.868L97.9156 155.716L97.6731 155.572L97.4209 155.42L97.1784 155.276L96.9359 155.123L96.6837 154.98L96.4412 154.836L96.189 154.693L95.9368 154.549L95.6846 154.414L95.4324 154.28L95.1802 154.136L94.928 154.001L94.6758 153.867L94.4139 153.741L94.1618 153.607L93.8999 153.481L93.6477 153.355L93.3858 153.23L93.1239 153.104L92.862 152.987L92.6001 152.861L92.3382 152.745L92.0763 152.628L91.8144 152.511L91.5428 152.395L91.2809 152.287L91.0093 152.17L90.7474 152.063L90.4758 151.955L90.2042 151.847L89.9423 151.748L89.6707 151.641L89.3992 151.542L89.1276 151.443L88.856 151.345L88.5747 151.255L88.3031 151.156L88.0218 151.066L87.7502 150.977L87.4689 150.887L87.1973 150.797L86.916 150.716L86.6347 150.626L86.3534 150.546L86.0818 150.465L85.8005 150.393L85.5192 150.312L85.2282 150.24L84.9469 150.16L84.6656 150.097L84.3844 150.025L84.0934 149.953L83.8121 149.89L83.5211 149.828L83.2301 149.765L82.9488 149.702L82.6578 149.648L82.3668 149.585L82.0758 149.531L81.7848 149.478L81.4938 149.433L81.2028 149.379L80.9118 149.334L80.6208 149.289L80.3298 149.244L80.0291 149.199L79.7382 149.163L79.4472 149.118L79.1465 149.083L78.8555 149.056L78.5548 149.02L78.2541 148.984L77.9631 148.957L77.6624 148.93L77.3617 148.912L77.061 148.885L76.7603 148.867L76.4596 148.849L76.1589 148.831L75.8582 148.813L75.5575 148.804L75.2569 148.786L74.9562 148.777H74.6458L74.3451 148.768H73.734V151.3H74.025L74.3063 151.309H74.5973L74.8786 151.318L75.1599 151.327L75.4411 151.336L75.7224 151.345L76.0037 151.363L76.285 151.38L76.5663 151.389L76.8476 151.416L77.1289 151.434L77.4102 151.461L77.6915 151.479L77.9631 151.506L78.2444 151.542L78.5257 151.569L78.7973 151.605L79.0786 151.632L79.3502 151.668L79.6315 151.713L79.9031 151.748L80.1746 151.784L80.4462 151.829L80.7275 151.874L80.9991 151.919L81.2707 151.973L81.5423 152.018L81.8139 152.072L82.0855 152.125L82.3474 152.179L82.619 152.233L82.8906 152.296L83.1525 152.35L83.4241 152.413L83.686 152.476L83.9576 152.547L84.2195 152.61L84.4911 152.682L84.7529 152.745L85.0148 152.817L85.2767 152.897L85.5386 152.969L85.8005 153.041L86.0624 153.122L86.3243 153.203L86.5862 153.283L86.8384 153.364L87.1003 153.454L87.3622 153.535L87.6144 153.624L87.8763 153.714L88.1285 153.804L88.3807 153.903L88.6426 153.992L88.8948 154.091L89.147 154.19L89.3992 154.289L89.6513 154.387L89.9035 154.495L90.146 154.594L90.3982 154.702L90.6504 154.809L90.8929 154.917L91.1451 155.025L91.3876 155.132L91.6398 155.249L91.8823 155.366L92.1248 155.482L92.3673 155.599L92.6098 155.716L92.8523 155.842L93.0948 155.958L93.3276 156.084L93.5701 156.21L93.8126 156.335L94.0453 156.461L94.2878 156.596L94.5206 156.721L94.7534 156.856L94.9862 156.99L95.2287 157.125L95.4615 157.26L95.6846 157.403L95.9174 157.538L96.1502 157.682L96.3733 157.825L96.6061 157.969L96.8292 158.112L97.062 158.256L97.2851 158.409L97.5082 158.552L97.7313 158.705L97.9544 158.857L98.1775 159.01L98.4006 159.163L98.6237 159.324L98.8371 159.477L99.0601 159.638L99.2735 159.8L99.4966 159.962L99.71 160.123L99.9234 160.285L100.137 160.455L100.35 160.617L100.554 160.787L100.767 160.958L100.981 161.128L101.184 161.299L101.398 161.469L101.601 161.649L101.805 161.82L102.009 161.999L102.213 162.179L102.416 162.358L102.62 162.538L102.824 162.717L103.018 162.906L103.221 163.085L103.415 163.274L103.609 163.462L103.803 163.651L103.997 163.839L104.191 164.028L104.385 164.225L104.579 164.414L104.764 164.611L104.958 164.809L105.142 165.006L105.326 165.204L105.511 165.401L105.695 165.598L105.879 165.805L106.063 166.002L106.238 166.209L106.422 166.415L106.597 166.622L106.781 166.828L106.956 167.035L107.13 167.241L107.305 167.457L107.47 167.663L107.644 167.878L107.819 168.094L107.984 168.309L108.149 168.525L108.323 168.74L108.488 168.955L108.644 169.18L108.808 169.395L108.973 169.62L109.129 169.844L109.293 170.06L109.449 170.284L109.604 170.517L109.759 170.742L109.914 170.966L110.069 171.199L110.225 171.424L110.37 171.657L110.525 171.891L110.671 172.115L110.816 172.357L110.962 172.591L111.098 172.824L111.243 173.058L111.389 173.3L111.524 173.533L111.67 173.776L111.806 174.018L111.932 174.26L112.068 174.503L112.203 174.745L112.339 174.987L112.465 175.23L112.591 175.472L112.727 175.723L112.853 175.975L112.97 176.217L113.096 176.468L113.222 176.72L113.338 176.971L113.464 177.222L113.581 177.474L113.697 177.734L113.804 177.985L113.92 178.237L114.037 178.497L114.143 178.748L114.25 179.009L114.357 179.269L114.463 179.529L114.57 179.79L114.677 180.05L114.774 180.31L114.881 180.579L114.978 180.84L115.075 181.109L115.172 181.369L115.259 181.639L115.356 181.899L115.443 182.168L115.54 182.437L115.627 182.707L115.715 182.976L115.792 183.245L115.88 183.524L115.957 183.793L116.044 184.062L116.122 184.34L116.2 184.61L116.277 184.888L116.345 185.166L116.423 185.435L116.491 185.714L116.559 185.992L116.626 186.27L116.694 186.548L116.762 186.827L116.82 187.114L116.879 187.392L116.947 187.67L117.005 187.958L117.053 188.236L117.111 188.523L117.17 188.81L117.218 189.089L117.267 189.376L117.315 189.663L117.364 189.95L117.412 190.238L117.451 190.525L117.49 190.812L117.529 191.108L117.567 191.396L117.606 191.683L117.635 191.97L117.674 192.266L117.703 192.553L117.732 192.85L117.761 193.146L117.79 193.433L117.81 193.729L117.829 194.026L117.849 194.322L117.868 194.618L117.887 194.914L117.907 195.21L117.917 195.507L117.926 195.803L117.936 196.099L117.946 196.395L117.955 196.7V196.997L117.965 197.302V197.598H120.7Z" fill="url(#paint12_linear_158_3298)"/>
<path d="M74.0912 241.338H74.6344L74.906 241.329L75.1679 241.32L75.4395 241.311L75.7111 241.302L75.9827 241.293L76.2446 241.275L76.5162 241.266L76.778 241.248L77.0496 241.23L77.3115 241.212L77.5831 241.185L77.845 241.167L78.1069 241.141L78.3785 241.114L78.6404 241.087L78.9023 241.051L79.1642 241.024L79.4261 240.988L79.688 240.952L79.9499 240.916L80.2118 240.871L80.464 240.835L80.7259 240.79L80.9878 240.746L81.2497 240.701L81.5018 240.656L81.7637 240.602L82.0159 240.557L82.2778 240.503L82.53 240.449L82.7822 240.396L83.0441 240.342L83.2963 240.279L83.5485 240.216L83.8007 240.153L84.0529 240.09L84.3051 240.027L84.5573 239.965L84.8095 239.893L85.052 239.821L85.3042 239.749L85.5564 239.677L85.7989 239.606L86.0511 239.534L86.2935 239.453L86.5457 239.372L86.7882 239.291L87.0307 239.211L87.2732 239.13L87.5157 239.04L87.7582 238.959L88.0104 238.87L88.2432 238.78L88.4857 238.69L88.7282 238.6L88.9707 238.502L89.2035 238.403L89.446 238.304L89.6788 238.205L89.9116 238.107L90.1541 238.008L90.3869 237.909L90.6197 237.801L90.8524 237.694L91.0852 237.586L91.318 237.478L91.5508 237.371L91.7836 237.254L92.0067 237.146L92.2395 237.029L92.4723 236.913L92.6954 236.796L92.9185 236.679L93.1513 236.563L93.3744 236.437L93.5975 236.32L93.8206 236.195L94.0437 236.069L94.2668 235.943L94.4899 235.809L94.7033 235.683L94.9264 235.548L95.1398 235.423L95.3629 235.288L95.5762 235.154L95.7993 235.019L96.0127 234.875L96.2261 234.741L96.4395 234.597L96.6529 234.462L96.8663 234.319L97.0797 234.175L97.2834 234.032L97.4968 233.879L97.7005 233.735L97.9042 233.583L98.1176 233.439L98.3213 233.286L98.525 233.134L98.7287 232.972L98.9324 232.82L99.1361 232.667L99.3301 232.506L99.5338 232.353L99.7278 232.191L99.9315 232.03L100.125 231.868L100.319 231.698L100.513 231.536L100.707 231.375L100.901 231.204L101.095 231.034L101.289 230.863L101.483 230.692L101.668 230.522L101.852 230.351L102.036 230.172L102.23 230.001L102.415 229.822L102.599 229.642L102.783 229.463L102.958 229.283L103.142 229.104L103.326 228.924L103.501 228.745L103.676 228.556L103.85 228.368L104.034 228.188L104.209 228L104.384 227.811L104.549 227.623L104.723 227.425L104.898 227.237L105.063 227.039L105.228 226.851L105.402 226.653L105.567 226.456L105.732 226.258L105.897 226.061L106.052 225.863L106.217 225.666L106.382 225.459L106.537 225.262L106.692 225.055L106.847 224.849L107.003 224.643L107.158 224.436L107.313 224.23L107.468 224.023L107.614 223.817L107.769 223.601L107.914 223.395L108.06 223.18L108.205 222.964L108.351 222.758L108.496 222.542L108.642 222.327L108.778 222.111L108.923 221.887L109.059 221.672L109.195 221.447L109.331 221.232L109.466 221.007L109.602 220.783L109.738 220.559L109.864 220.334L110 220.11L110.126 219.885L110.252 219.661L110.378 219.437L110.504 219.203L110.63 218.979L110.756 218.745L110.873 218.512L110.989 218.279L111.115 218.045L111.232 217.812L111.348 217.578L111.455 217.345L111.571 217.112L111.688 216.869L111.794 216.636L111.901 216.403L112.008 216.16L112.124 215.918L112.221 215.676L112.328 215.433L112.434 215.191L112.531 214.948L112.628 214.706L112.725 214.464L112.822 214.212L112.919 213.97L113.016 213.719L113.113 213.476L113.201 213.225L113.288 212.974L113.375 212.731L113.463 212.48L113.55 212.229L113.637 211.977L113.715 211.726L113.802 211.466L113.88 211.214L113.957 210.963L114.035 210.703L114.113 210.452L114.18 210.191L114.258 209.931L114.326 209.68L114.394 209.419L114.462 209.159L114.53 208.899L114.598 208.638L114.656 208.378L114.724 208.118L114.782 207.857L114.84 207.588L114.898 207.328L114.956 207.059L115.015 206.798L115.063 206.529L115.112 206.269L115.16 205.999L115.209 205.73L115.257 205.461L115.306 205.192L115.344 204.931L115.393 204.653L115.432 204.384L115.471 204.114L115.509 203.845L115.538 203.576L115.577 203.298L115.606 203.028L115.635 202.759L115.665 202.481L115.694 202.212L115.723 201.933L115.742 201.655L115.771 201.377L115.791 201.107L115.81 200.829L115.829 200.551L115.839 200.273L115.859 199.994L115.868 199.716L115.878 199.438L115.888 199.16L115.897 198.881V198.603L115.907 198.316V197.759H115.112V198.307L115.102 198.585V198.863L115.092 199.142L115.083 199.411L115.073 199.689L115.063 199.959L115.044 200.237L115.034 200.506L115.015 200.784L114.995 201.054L114.976 201.332L114.947 201.601L114.927 201.87L114.898 202.14L114.869 202.409L114.84 202.678L114.811 202.948L114.782 203.217L114.753 203.486L114.714 203.755L114.675 204.025L114.636 204.285L114.598 204.554L114.559 204.815L114.51 205.084L114.471 205.344L114.423 205.613L114.374 205.874L114.326 206.134L114.277 206.394L114.229 206.664L114.171 206.924L114.122 207.184L114.064 207.445L114.006 207.696L113.938 207.956L113.88 208.216L113.822 208.477L113.754 208.728L113.686 208.988L113.618 209.24L113.55 209.491L113.482 209.751L113.414 210.003L113.337 210.254L113.269 210.505L113.191 210.757L113.113 211.008L113.036 211.259L112.949 211.511L112.871 211.762L112.793 212.004L112.706 212.256L112.619 212.498L112.531 212.749L112.444 212.992L112.357 213.234L112.26 213.476L112.173 213.719L112.076 213.961L111.979 214.203L111.882 214.446L111.785 214.688L111.688 214.931L111.581 215.164L111.484 215.406L111.377 215.64L111.271 215.873L111.164 216.106L111.057 216.349L110.95 216.573L110.844 216.816L110.727 217.04L110.621 217.273L110.504 217.507L110.388 217.74L110.271 217.964L110.155 218.198L110.039 218.422L109.913 218.647L109.786 218.871L109.67 219.095L109.544 219.32L109.418 219.544L109.292 219.769L109.166 219.984L109.04 220.208L108.904 220.424L108.768 220.648L108.642 220.864L108.506 221.079L108.37 221.295L108.234 221.51L108.099 221.725L107.953 221.941L107.817 222.156L107.672 222.363L107.536 222.569L107.391 222.785L107.245 222.991L107.1 223.197L106.954 223.404L106.799 223.61L106.653 223.817L106.498 224.023L106.353 224.221L106.198 224.427L106.042 224.625L105.887 224.831L105.732 225.029L105.577 225.226L105.412 225.424L105.257 225.612L105.092 225.809L104.937 226.007L104.772 226.195L104.607 226.384L104.442 226.581L104.277 226.77L104.112 226.958L103.937 227.147L103.773 227.335L103.598 227.515L103.433 227.703L103.258 227.883L103.084 228.062L102.909 228.251L102.735 228.43L102.56 228.61L102.376 228.781L102.201 228.96L102.017 229.14L101.842 229.31L101.658 229.481L101.474 229.651L101.289 229.831L101.105 230.001L100.921 230.163L100.737 230.333L100.543 230.495L100.358 230.666L100.164 230.827L99.98 230.989L99.786 231.15L99.592 231.312L99.398 231.473L99.204 231.635L99.01 231.788L98.816 231.949L98.622 232.102L98.4183 232.254L98.2243 232.407L98.0206 232.559L97.8169 232.703L97.6229 232.856L97.4192 232.999L97.2155 233.152L97.0118 233.295L96.7984 233.439L96.5947 233.583L96.391 233.717L96.1873 233.861L95.9739 233.996L95.7702 234.139L95.5569 234.274L95.3435 234.409L95.1301 234.543L94.9167 234.669L94.7033 234.803L94.4899 234.929L94.2765 235.064L94.0631 235.189L93.8497 235.315L93.6266 235.441L93.4132 235.557L93.1901 235.683L92.967 235.8L92.7439 235.916L92.5305 236.042L92.3074 236.159L92.0843 236.267L91.8612 236.383L91.6381 236.491L91.4053 236.608L91.1822 236.715L90.9591 236.823L90.7264 236.931L90.5033 237.029L90.2705 237.137L90.0474 237.236L89.8146 237.335L89.5818 237.433L89.349 237.532L89.1162 237.631L88.8834 237.73L88.6506 237.819L88.4178 237.909L88.185 238.008L87.9425 238.098L87.7097 238.178L87.4672 238.268L87.2344 238.349L86.9919 238.439L86.7591 238.52L86.5166 238.6L86.2741 238.672L86.0317 238.753L85.7989 238.834L85.5564 238.905L85.3139 238.977L85.0617 239.049L84.8192 239.121L84.5767 239.184L84.3342 239.256L84.082 239.318L83.8395 239.381L83.597 239.444L83.3448 239.507L83.1023 239.561L82.8501 239.624L82.5979 239.677L82.3457 239.731L82.1032 239.785L81.851 239.839L81.5988 239.884L81.3466 239.929L81.0945 239.974L80.8423 240.019L80.5901 240.063L80.3379 240.108L80.076 240.144L79.8238 240.18L79.5716 240.216L79.3097 240.252L79.0575 240.288L78.7956 240.324L78.5434 240.351L78.2815 240.378L78.0196 240.404L77.7674 240.431L77.5055 240.449L77.2436 240.476L76.9817 240.494L76.7198 240.512L76.4677 240.53L76.2058 240.539L75.9342 240.557L75.6723 240.566L75.4104 240.575L75.1485 240.584L74.8866 240.593H74.6247L74.3628 240.602H74.0912V241.338ZM32.2754 197.759V198.316L32.2851 198.603V198.881L32.2948 199.16L32.3045 199.438L32.3142 199.716L32.3336 199.994L32.3433 200.273L32.3627 200.551L32.3724 200.829L32.3918 201.107L32.4112 201.377L32.4403 201.655L32.4597 201.933L32.4888 202.212L32.5179 202.481L32.547 202.759L32.5761 203.028L32.6052 203.298L32.644 203.576L32.6828 203.845L32.7216 204.114L32.7604 204.384L32.7895 204.653L32.838 204.931L32.8768 205.192L32.9253 205.461L32.9738 205.73L33.0223 205.999L33.0708 206.269L33.1193 206.529L33.1775 206.798L33.226 207.059L33.2842 207.328L33.3424 207.588L33.4006 207.857L33.4588 208.118L33.5267 208.378L33.5849 208.638L33.6528 208.899L33.7207 209.159L33.7886 209.419L33.8565 209.68L33.9244 209.931L34.002 210.191L34.0796 210.452L34.1475 210.703L34.225 210.963L34.3026 211.214L34.3899 211.466L34.4675 211.726L34.5548 211.977L34.6324 212.229L34.7197 212.48L34.807 212.731L34.8943 212.974L34.9816 213.225L35.0786 213.476L35.1659 213.719L35.2629 213.97L35.3599 214.212L35.4569 214.464L35.5539 214.706L35.6509 214.948L35.7576 215.191L35.8546 215.433L35.9613 215.676L36.068 215.918L36.1747 216.16L36.2814 216.403L36.3881 216.636L36.5045 216.869L36.6112 217.112L36.7276 217.345L36.844 217.578L36.9604 217.812L37.0768 218.045L37.1932 218.279L37.3096 218.512L37.4357 218.745L37.5521 218.979L37.6782 219.203L37.8043 219.437L37.9304 219.661L38.0565 219.885L38.1923 220.11L38.3184 220.334L38.4542 220.559L38.5803 220.783L38.7161 221.007L38.8519 221.232L38.9876 221.447L39.1234 221.672L39.2592 221.887L39.4047 222.111L39.5502 222.327L39.686 222.542L39.8315 222.758L39.977 222.964L40.1225 223.18L40.268 223.395L40.4232 223.601L40.5687 223.817L40.7239 224.023L40.8694 224.23L41.0246 224.436L41.1798 224.643L41.335 224.849L41.4902 225.055L41.6454 225.262L41.8103 225.459L41.9655 225.666L42.1304 225.863L42.2953 226.061L42.4602 226.258L42.6251 226.456L42.79 226.653L42.9549 226.851L43.1198 227.039L43.2944 227.237L43.4593 227.425L43.6339 227.623L43.8084 227.811L43.983 228L44.1576 228.188L44.3322 228.368L44.5068 228.556L44.6814 228.745L44.8657 228.924L45.0403 229.104L45.2246 229.283L45.4089 229.463L45.5932 229.642L45.7775 229.822L45.9618 230.001L46.1461 230.172L46.3304 230.351L46.5244 230.522L46.7087 230.692L46.893 230.863L47.087 231.034L47.281 231.204L47.475 231.375L47.669 231.536L47.863 231.698L48.057 231.868L48.2607 232.03L48.4546 232.191L48.6486 232.353L48.8523 232.506L49.056 232.667L49.25 232.82L49.4537 232.972L49.6574 233.134L49.8708 233.286L50.0745 233.439L50.2782 233.583L50.4819 233.735L50.6953 233.879L50.899 234.032L51.1124 234.175L51.3258 234.319L51.5295 234.462L51.7429 234.597L51.9563 234.741L52.1697 234.875L52.3928 235.019L52.6062 235.154L52.8196 235.288L53.0427 235.423L53.256 235.548L53.4791 235.683L53.7022 235.809L53.9156 235.943L54.1387 236.069L54.3618 236.195L54.5849 236.32L54.808 236.437L55.0311 236.563L55.2639 236.679L55.487 236.796L55.7198 236.913L55.9429 237.029L56.1757 237.146L56.3988 237.254L56.6316 237.371L56.8644 237.478L57.0972 237.586L57.33 237.694L57.5628 237.801L57.7955 237.909L58.0283 238.008L58.2708 238.107L58.5036 238.205L58.7461 238.304L58.9789 238.403L59.2214 238.502L59.4542 238.591L59.6967 238.69L59.9392 238.78L60.1817 238.87L60.4242 238.959L60.6667 239.04L60.9092 239.13L61.1517 239.211L61.3942 239.291L61.6464 239.372L61.8889 239.453L62.1314 239.534L62.3836 239.606L62.6357 239.677L62.8782 239.749L63.1304 239.821L63.3826 239.893L63.6348 239.965L63.8773 240.027L64.1295 240.09L64.3817 240.153L64.6339 240.216L64.8861 240.279L65.148 240.342L65.4002 240.396L65.6524 240.449L65.9143 240.503L66.1665 240.557L66.4284 240.602L66.6806 240.656L66.9425 240.701L67.1947 240.746L67.4565 240.79L67.7184 240.835L67.9803 240.871L68.2325 240.916L68.4944 240.952L68.7563 240.988L69.0182 241.024L69.2898 241.051L69.5517 241.087L69.8136 241.114L70.0755 241.141L70.3374 241.167L70.609 241.185L70.8709 241.212L71.1425 241.23L71.4044 241.248L71.6663 241.266L71.9379 241.275L72.2094 241.293L72.4713 241.302L72.7429 241.311L73.0145 241.32L73.2861 241.329L73.548 241.338H74.0912V240.602H73.8293L73.5674 240.593H73.2958L73.0339 240.584L72.772 240.575L72.5101 240.566L72.2482 240.557L71.9864 240.539L71.7245 240.53L71.4626 240.512L71.2007 240.494L70.9388 240.476L70.6769 240.449L70.4247 240.431L70.1628 240.404L69.9009 240.378L69.6487 240.351L69.3868 240.324L69.1249 240.288L68.8727 240.252L68.6205 240.216L68.3586 240.18L68.1064 240.144L67.8542 240.108L67.602 240.063L67.3498 240.019L67.0977 239.974L66.8358 239.929L66.5836 239.884L66.3411 239.839L66.0889 239.785L65.8367 239.731L65.5845 239.677L65.3323 239.624L65.0898 239.561L64.8376 239.507L64.5951 239.444L64.3429 239.381L64.1004 239.318L63.8482 239.256L63.6057 239.184L63.3632 239.121L63.1207 239.049L62.8782 238.977L62.6357 238.905L62.3933 238.834L62.1508 238.753L61.9083 238.672L61.6658 238.6L61.4233 238.52L61.1905 238.439L60.948 238.349L60.7152 238.268L60.4727 238.178L60.2399 238.098L60.0071 238.008L59.7743 237.918L59.5318 237.819L59.299 237.73L59.0662 237.631L58.8334 237.532L58.6006 237.433L58.3775 237.335L58.1447 237.236L57.9119 237.137L57.6889 237.029L57.4561 236.931L57.233 236.823L57.0002 236.715L56.7771 236.608L56.554 236.491L56.3212 236.383L56.1078 236.267L55.875 236.159L55.6616 236.042L55.4385 235.916L55.2154 235.8L54.9923 235.683L54.7789 235.557L54.5558 235.441L54.3424 235.315L54.129 235.189L53.9059 235.064L53.6925 234.929L53.4791 234.803L53.2657 234.669L53.0524 234.543L52.839 234.409L52.6256 234.274L52.4219 234.139L52.2085 233.996L52.0048 233.861L51.7914 233.717L51.5877 233.583L51.384 233.439L51.1803 233.295L50.9766 233.152L50.7729 232.999L50.5692 232.856L50.3655 232.703L50.1618 232.559L49.9678 232.407L49.7641 232.254L49.5701 232.102L49.3761 231.949L49.1724 231.788L48.9784 231.635L48.7844 231.473L48.5904 231.312L48.3964 231.15L48.2122 230.989L48.0182 230.827L47.8339 230.666L47.6399 230.495L47.4556 230.333L47.2616 230.163L47.0773 230.001L46.893 229.831L46.7087 229.651L46.5341 229.481L46.3498 229.31L46.1655 229.14L45.9909 228.96L45.8066 228.781L45.632 228.61L45.4574 228.43L45.2731 228.251L45.0985 228.062L44.9336 227.883L44.759 227.703L44.5844 227.515L44.4098 227.335L44.2449 227.147L44.08 226.958L43.9151 226.77L43.7405 226.581L43.5757 226.384L43.4108 226.195L43.2556 226.007L43.0907 225.809L42.9258 225.612L42.7706 225.424L42.6154 225.226L42.4505 225.02L42.2953 224.822L42.1401 224.625L41.9849 224.427L41.8394 224.221L41.6842 224.023L41.529 223.817L41.3835 223.61L41.238 223.404L41.0828 223.197L40.9373 222.991L40.7918 222.785L40.656 222.569L40.5105 222.363L40.365 222.156L40.2292 221.941L40.0934 221.725L39.9479 221.51L39.8121 221.295L39.6763 221.079L39.5502 220.864L39.4144 220.648L39.2786 220.424L39.1525 220.208L39.0167 219.984L38.8907 219.769L38.7646 219.544L38.6385 219.32L38.5124 219.095L38.396 218.871L38.2699 218.647L38.1535 218.422L38.0274 218.198L37.911 217.964L37.7946 217.74L37.6782 217.507L37.5715 217.273L37.4551 217.04L37.3484 216.816L37.232 216.582L37.1253 216.349L37.0186 216.106L36.9119 215.873L36.8052 215.64L36.6985 215.406L36.6015 215.164L36.5045 214.922L36.3978 214.688L36.3008 214.446L36.2038 214.203L36.1068 213.961L36.0195 213.719L35.9225 213.476L35.8352 213.234L35.7382 212.992L35.6509 212.749L35.5636 212.498L35.4763 212.256L35.3987 212.004L35.3114 211.762L35.2338 211.511L35.1562 211.259L35.0689 211.008L34.9913 210.757L34.9234 210.505L34.8458 210.254L34.7779 210.003L34.7003 209.751L34.6324 209.491L34.5645 209.24L34.4966 208.988L34.4287 208.728L34.3705 208.477L34.3026 208.216L34.2444 207.956L34.1863 207.696L34.1281 207.445L34.0699 207.184L34.0117 206.924L33.9632 206.664L33.905 206.394L33.8565 206.134L33.808 205.874L33.7595 205.613L33.711 205.344L33.6722 205.084L33.6237 204.815L33.5849 204.554L33.5461 204.285L33.5073 204.025L33.4685 203.755L33.4394 203.486L33.4006 203.217L33.3715 202.948L33.3424 202.678L33.3133 202.409L33.2842 202.14L33.2551 201.87L33.2357 201.601L33.2163 201.332L33.1969 201.054L33.1775 200.784L33.1581 200.506L33.1387 200.237L33.129 199.959L33.1193 199.689L33.0999 199.411L33.0902 199.142V198.863L33.0805 198.585V198.307L33.0708 198.038V197.759H32.2754ZM74.0912 154.172H73.8196L73.548 154.181H73.2861L73.0145 154.19L72.7429 154.199L72.4713 154.208L72.2094 154.217L71.9379 154.235L71.6663 154.244L71.4044 154.262L71.1425 154.28L70.8709 154.307L70.609 154.324L70.3374 154.351L70.0755 154.378L69.8136 154.405L69.5517 154.432L69.2898 154.459L69.0182 154.495L68.7563 154.531L68.4944 154.558L68.2325 154.603L67.9803 154.639L67.7184 154.675L67.4565 154.719L67.1947 154.764L66.9425 154.809L66.6806 154.863L66.4284 154.908L66.1665 154.953L65.9143 155.007L65.6524 155.061L65.4002 155.114L65.148 155.177L64.8861 155.231L64.6339 155.294L64.3817 155.357L64.1295 155.42L63.8773 155.482L63.6348 155.554L63.3826 155.617L63.1304 155.689L62.8782 155.761L62.6357 155.832L62.3836 155.904L62.1314 155.985L61.8889 156.057L61.6464 156.138L61.3942 156.218L61.1517 156.299L60.9092 156.38L60.6667 156.47L60.4242 156.559L60.1817 156.649L59.9392 156.739L59.6967 156.829L59.4542 156.919L59.2214 157.008L58.9789 157.107L58.7461 157.206L58.5036 157.305L58.2708 157.403L58.0283 157.502L57.7955 157.61L57.5628 157.708L57.33 157.816L57.0972 157.924L56.8644 158.032L56.6316 158.139L56.3988 158.256L56.1757 158.364L55.9429 158.48L55.7198 158.597L55.487 158.714L55.2639 158.83L55.0311 158.956L54.808 159.073L54.5849 159.198L54.3618 159.324L54.1387 159.45L53.9156 159.575L53.7022 159.701L53.4791 159.827L53.256 159.961L53.0427 160.096L52.8196 160.222L52.6062 160.365L52.3928 160.491L52.1697 160.635L51.9563 160.769L51.7429 160.913L51.5295 161.056L51.3258 161.2L51.1124 161.335L50.899 161.487L50.6953 161.631L50.4819 161.775L50.2782 161.927L50.0745 162.08L49.8708 162.232L49.6574 162.385L49.4537 162.538L49.25 162.69L49.056 162.852L48.8523 163.004L48.6486 163.166L48.4546 163.327L48.2607 163.48L48.057 163.651L47.863 163.812L47.669 163.974L47.475 164.144L47.281 164.315L47.087 164.476L46.893 164.647L46.7087 164.817L46.5244 164.988L46.3304 165.167L46.1461 165.338L45.9618 165.518L45.7775 165.688L45.5932 165.868L45.4089 166.047L45.2246 166.227L45.0403 166.406L44.8657 166.586L44.6814 166.774L44.5068 166.954L44.3322 167.142L44.1576 167.331L43.983 167.519L43.8084 167.708L43.6339 167.896L43.4593 168.085L43.2944 168.273L43.1198 168.471L42.9549 168.668L42.79 168.857L42.6251 169.054L42.4602 169.252L42.2953 169.449L42.1304 169.647L41.9655 169.853L41.8103 170.05L41.6454 170.257L41.4902 170.454L41.335 170.661L41.1798 170.867L41.0246 171.074L40.8694 171.28L40.7239 171.487L40.5687 171.693L40.4232 171.908L40.268 172.115L40.1225 172.33L39.977 172.546L39.8315 172.761L39.686 172.977L39.5502 173.192L39.4047 173.407L39.2592 173.623L39.1234 173.838L38.9876 174.063L38.8519 174.278L38.7161 174.503L38.5803 174.727L38.4542 174.951L38.3184 175.176L38.1923 175.4L38.0565 175.625L37.9304 175.849L37.8043 176.082L37.6782 176.307L37.5521 176.54L37.4357 176.765L37.3096 176.998L37.1932 177.231L37.0768 177.465L36.9604 177.698L36.844 177.931L36.7276 178.165L36.6112 178.398L36.5045 178.641L36.3881 178.874L36.2814 179.116L36.1747 179.359L36.068 179.592L35.9613 179.834L35.8546 180.077L35.7576 180.319L35.6509 180.561L35.5539 180.804L35.4569 181.055L35.3599 181.297L35.2629 181.54L35.1659 181.791L35.0786 182.033L34.9816 182.285L34.8943 182.536L34.807 182.787L34.7197 183.039L34.6324 183.29L34.5548 183.541L34.4675 183.793L34.3899 184.044L34.3026 184.295L34.225 184.556L34.1475 184.807L34.0796 185.067L34.002 185.319L33.9244 185.579L33.8565 185.839L33.7886 186.091L33.7207 186.351L33.6528 186.611L33.5849 186.872L33.5267 187.141L33.4588 187.401L33.4006 187.661L33.3424 187.922L33.2842 188.182L33.226 188.451L33.1775 188.721L33.1193 188.981L33.0708 189.25L33.0223 189.51L32.9738 189.78L32.9253 190.049L32.8768 190.318L32.838 190.588L32.7895 190.857L32.7604 191.126L32.7216 191.395L32.6828 191.665L32.644 191.943L32.6052 192.212L32.5761 192.482L32.547 192.76L32.5179 193.029L32.4888 193.307L32.4597 193.577L32.4403 193.855L32.4112 194.133L32.3918 194.402L32.3724 194.681L32.3627 194.959L32.3433 195.237L32.3336 195.515L32.3142 195.794L32.3045 196.072L32.2948 196.35L32.2851 196.637V196.916L32.2754 197.194V197.759H33.0708V197.481L33.0805 197.203V196.925L33.0902 196.646V196.368L33.0999 196.099L33.1193 195.821L33.129 195.551L33.1387 195.273L33.1581 195.004L33.1775 194.726L33.1969 194.456L33.2163 194.187L33.2357 193.918L33.2551 193.639L33.2842 193.37L33.3133 193.101L33.3424 192.832L33.3715 192.562L33.4006 192.293L33.4394 192.024L33.4685 191.763L33.5073 191.494L33.5461 191.225L33.5849 190.956L33.6237 190.695L33.6722 190.426L33.711 190.166L33.7595 189.896L33.808 189.636L33.8565 189.376L33.905 189.116L33.9632 188.855L34.0117 188.595L34.0699 188.335L34.1281 188.074L34.1863 187.814L34.2444 187.554L34.3026 187.293L34.3705 187.042L34.4287 186.782L34.4966 186.53L34.5645 186.27L34.6324 186.019L34.7003 185.758L34.7779 185.507L34.8458 185.256L34.9234 185.004L34.9913 184.753L35.0689 184.502L35.1562 184.251L35.2338 183.999L35.3114 183.757L35.3987 183.506L35.4763 183.263L35.5636 183.012L35.6509 182.769L35.7382 182.518L35.8352 182.276L35.9225 182.033L36.0195 181.791L36.1068 181.549L36.2038 181.306L36.3008 181.064L36.3978 180.831L36.5045 180.588L36.6015 180.346L36.6985 180.113L36.8052 179.87L36.9119 179.637L37.0186 179.403L37.1253 179.17L37.232 178.937L37.3484 178.703L37.4551 178.47L37.5715 178.237L37.6782 178.003L37.7946 177.779L37.911 177.545L38.0274 177.321L38.1535 177.097L38.2699 176.863L38.396 176.639L38.5124 176.414L38.6385 176.19L38.7646 175.966L38.8907 175.741L39.0167 175.526L39.1525 175.301L39.2786 175.086L39.4144 174.862L39.5502 174.646L39.6763 174.431L39.8121 174.215L39.9479 174L40.0934 173.784L40.2292 173.578L40.365 173.363L40.5105 173.147L40.656 172.941L40.7918 172.734L40.9373 172.519L41.0828 172.312L41.238 172.106L41.3835 171.9L41.529 171.693L41.6842 171.496L41.8394 171.289L41.9849 171.083L42.1401 170.885L42.2953 170.688L42.4505 170.49L42.6154 170.293L42.7706 170.095L42.9258 169.898L43.0907 169.7L43.2556 169.512L43.4108 169.314L43.5757 169.126L43.7405 168.937L43.9151 168.749L44.08 168.551L44.2449 168.372L44.4098 168.183L44.5844 167.995L44.759 167.815L44.9336 167.627L45.0985 167.447L45.2731 167.268L45.4574 167.088L45.632 166.909L45.8066 166.729L45.9909 166.55L46.1655 166.379L46.3498 166.2L46.5341 166.029L46.7087 165.859L46.893 165.688L47.0773 165.518L47.2616 165.347L47.4556 165.176L47.6399 165.015L47.8339 164.844L48.0182 164.683L48.2122 164.521L48.3964 164.36L48.5904 164.198L48.7844 164.037L48.9784 163.884L49.1724 163.722L49.3761 163.57L49.5701 163.408L49.7641 163.256L49.9678 163.103L50.1618 162.959L50.3655 162.807L50.5692 162.654L50.7729 162.511L50.9766 162.367L51.1803 162.223L51.384 162.08L51.5877 161.936L51.7914 161.793L52.0048 161.649L52.2085 161.514L52.4219 161.38L52.6256 161.245L52.839 161.11L53.0524 160.976L53.2657 160.841L53.4791 160.706L53.6925 160.581L53.9059 160.455L54.129 160.329L54.3424 160.204L54.5558 160.078L54.7789 159.952L54.9923 159.827L55.2154 159.71L55.4385 159.593L55.6616 159.477L55.875 159.36L56.1078 159.243L56.3212 159.127L56.554 159.019L56.7771 158.911L57.0002 158.795L57.233 158.696L57.4561 158.588L57.6889 158.48L57.9119 158.373L58.1447 158.274L58.3775 158.175L58.6006 158.076L58.8334 157.978L59.0662 157.879L59.299 157.789L59.5318 157.69L59.7743 157.601L60.0071 157.511L60.2399 157.421L60.4727 157.331L60.7152 157.242L60.948 157.161L61.1905 157.08L61.4233 156.999L61.6658 156.919L61.9083 156.838L62.1508 156.757L62.3933 156.685L62.6357 156.613L62.8782 156.533L63.1207 156.47L63.3632 156.398L63.6057 156.326L63.8482 156.263L64.1004 156.191L64.3429 156.129L64.5951 156.066L64.8376 156.012L65.0898 155.949L65.3323 155.895L65.5845 155.832L65.8367 155.779L66.0889 155.734L66.3411 155.68L66.5836 155.626L66.8358 155.581L67.0977 155.536L67.3498 155.491L67.602 155.446L67.8542 155.411L68.1064 155.366L68.3586 155.33L68.6205 155.294L68.8727 155.258L69.1249 155.222L69.3868 155.195L69.6487 155.168L69.9009 155.132L70.1628 155.105L70.4247 155.087L70.6769 155.061L70.9388 155.043L71.2007 155.016L71.4626 155.007L71.7245 154.989L71.9864 154.971L72.2482 154.953L72.5101 154.944L72.772 154.935L73.0339 154.926H73.2958L73.5674 154.917H74.0912V154.172ZM115.907 197.759V197.194L115.897 196.916V196.637L115.888 196.35L115.878 196.072L115.868 195.794L115.859 195.515L115.839 195.237L115.829 194.959L115.81 194.681L115.791 194.402L115.771 194.133L115.742 193.855L115.723 193.577L115.694 193.307L115.665 193.029L115.635 192.76L115.606 192.482L115.577 192.212L115.538 191.943L115.509 191.665L115.471 191.395L115.432 191.126L115.393 190.857L115.344 190.588L115.306 190.318L115.257 190.049L115.209 189.78L115.16 189.51L115.112 189.25L115.063 188.981L115.015 188.721L114.956 188.451L114.898 188.182L114.84 187.922L114.782 187.661L114.724 187.401L114.656 187.141L114.598 186.872L114.53 186.611L114.462 186.351L114.394 186.091L114.326 185.839L114.258 185.579L114.18 185.319L114.113 185.067L114.035 184.807L113.957 184.556L113.88 184.295L113.802 184.044L113.715 183.793L113.637 183.541L113.55 183.29L113.463 183.039L113.375 182.787L113.288 182.536L113.201 182.285L113.113 182.033L113.016 181.791L112.919 181.54L112.822 181.297L112.725 181.055L112.628 180.804L112.531 180.561L112.434 180.319L112.328 180.077L112.221 179.834L112.124 179.592L112.008 179.359L111.901 179.116L111.794 178.874L111.688 178.641L111.571 178.398L111.455 178.165L111.348 177.931L111.232 177.698L111.115 177.465L110.989 177.231L110.873 176.998L110.756 176.765L110.63 176.54L110.504 176.307L110.378 176.082L110.252 175.849L110.126 175.625L110 175.4L109.864 175.176L109.738 174.951L109.602 174.727L109.466 174.503L109.331 174.278L109.195 174.063L109.059 173.838L108.923 173.623L108.778 173.407L108.642 173.192L108.496 172.977L108.351 172.761L108.205 172.546L108.06 172.33L107.914 172.115L107.769 171.908L107.614 171.693L107.468 171.487L107.313 171.28L107.158 171.074L107.003 170.867L106.847 170.661L106.692 170.454L106.537 170.257L106.382 170.05L106.217 169.853L106.052 169.647L105.897 169.449L105.732 169.252L105.567 169.054L105.402 168.857L105.228 168.668L105.063 168.471L104.898 168.273L104.723 168.085L104.549 167.896L104.384 167.708L104.209 167.519L104.034 167.331L103.85 167.142L103.676 166.954L103.501 166.774L103.326 166.586L103.142 166.406L102.958 166.227L102.783 166.047L102.599 165.868L102.415 165.688L102.23 165.518L102.036 165.338L101.852 165.167L101.668 164.988L101.483 164.817L101.289 164.647L101.095 164.476L100.901 164.306L100.707 164.144L100.513 163.974L100.319 163.812L100.125 163.651L99.9315 163.48L99.7278 163.318L99.5338 163.166L99.3301 163.004L99.1361 162.852L98.9324 162.69L98.7287 162.538L98.525 162.385L98.3213 162.232L98.1176 162.08L97.9042 161.927L97.7005 161.775L97.4968 161.631L97.2834 161.487L97.0797 161.344L96.8663 161.2L96.6529 161.056L96.4395 160.913L96.2261 160.769L96.0127 160.635L95.7993 160.491L95.5762 160.365L95.3629 160.222L95.1398 160.096L94.9264 159.961L94.7033 159.827L94.4899 159.701L94.2668 159.575L94.0437 159.45L93.8206 159.324L93.5975 159.198L93.3744 159.073L93.1513 158.956L92.9185 158.83L92.6954 158.714L92.4723 158.597L92.2395 158.48L92.0067 158.364L91.7836 158.256L91.5508 158.139L91.318 158.032L91.0852 157.924L90.8524 157.816L90.6197 157.708L90.3869 157.61L90.1541 157.502L89.9116 157.403L89.6788 157.305L89.446 157.206L89.2035 157.107L88.9707 157.008L88.7282 156.919L88.4857 156.829L88.2432 156.739L88.0104 156.649L87.7582 156.559L87.5157 156.47L87.2732 156.38L87.0307 156.299L86.7882 156.218L86.5457 156.138L86.2935 156.057L86.0511 155.985L85.7989 155.904L85.5564 155.832L85.3042 155.761L85.052 155.689L84.8095 155.617L84.5573 155.554L84.3051 155.482L84.0529 155.42L83.8007 155.357L83.5485 155.294L83.2963 155.231L83.0441 155.177L82.7822 155.114L82.53 155.061L82.2778 155.007L82.0159 154.953L81.7637 154.908L81.5018 154.863L81.2497 154.809L80.9878 154.764L80.7259 154.719L80.464 154.675L80.2118 154.639L79.9499 154.603L79.688 154.558L79.4261 154.531L79.1642 154.495L78.9023 154.459L78.6404 154.432L78.3785 154.405L78.1069 154.378L77.845 154.351L77.5831 154.324L77.3115 154.307L77.0496 154.28L76.778 154.262L76.5162 154.244L76.2446 154.235L75.9827 154.217L75.7111 154.208L75.4395 154.199L75.1679 154.19L74.906 154.181H74.6344L74.3628 154.172H74.0912V154.917H74.6247L74.8866 154.926H75.1485L75.4104 154.935L75.6723 154.944L75.9342 154.953L76.2058 154.971L76.4677 154.989L76.7198 155.007L76.9817 155.016L77.2436 155.043L77.5055 155.061L77.7674 155.087L78.0196 155.105L78.2815 155.132L78.5434 155.168L78.7956 155.195L79.0575 155.222L79.3097 155.258L79.5716 155.294L79.8238 155.33L80.076 155.366L80.3379 155.411L80.5901 155.446L80.8423 155.491L81.0945 155.536L81.3466 155.581L81.5988 155.626L81.851 155.68L82.1032 155.734L82.3457 155.779L82.5979 155.832L82.8501 155.895L83.1023 155.949L83.3448 156.012L83.597 156.066L83.8395 156.129L84.082 156.191L84.3342 156.263L84.5767 156.326L84.8192 156.398L85.0617 156.47L85.3139 156.533L85.5564 156.613L85.7989 156.685L86.0317 156.757L86.2741 156.838L86.5166 156.919L86.7591 156.999L86.9919 157.08L87.2344 157.161L87.4672 157.242L87.7097 157.331L87.9425 157.421L88.185 157.511L88.4178 157.601L88.6506 157.69L88.8834 157.789L89.1162 157.879L89.349 157.978L89.5818 158.076L89.8146 158.175L90.0474 158.274L90.2705 158.373L90.5033 158.48L90.7264 158.588L90.9591 158.696L91.1822 158.795L91.4053 158.911L91.6381 159.019L91.8612 159.127L92.0843 159.243L92.3074 159.36L92.5305 159.477L92.7439 159.593L92.967 159.71L93.1901 159.827L93.4132 159.952L93.6266 160.078L93.8497 160.204L94.0631 160.329L94.2765 160.455L94.4899 160.581L94.7033 160.706L94.9167 160.841L95.1301 160.976L95.3435 161.11L95.5569 161.245L95.7702 161.38L95.9739 161.514L96.1873 161.649L96.391 161.793L96.5947 161.936L96.7984 162.08L97.0118 162.223L97.2155 162.367L97.4192 162.511L97.6229 162.654L97.8169 162.807L98.0206 162.959L98.2243 163.103L98.4183 163.256L98.622 163.408L98.816 163.57L99.01 163.722L99.204 163.884L99.398 164.037L99.592 164.198L99.786 164.36L99.98 164.521L100.164 164.683L100.358 164.844L100.543 165.015L100.737 165.176L100.921 165.347L101.105 165.518L101.289 165.688L101.474 165.859L101.658 166.029L101.842 166.2L102.017 166.379L102.201 166.55L102.376 166.729L102.56 166.909L102.735 167.088L102.909 167.268L103.084 167.447L103.258 167.627L103.433 167.815L103.598 167.995L103.773 168.183L103.937 168.372L104.112 168.551L104.277 168.749L104.442 168.937L104.607 169.126L104.772 169.314L104.937 169.512L105.092 169.7L105.257 169.898L105.412 170.095L105.577 170.293L105.732 170.49L105.887 170.688L106.042 170.885L106.198 171.092L106.353 171.289L106.498 171.496L106.653 171.693L106.799 171.9L106.954 172.106L107.1 172.312L107.245 172.519L107.391 172.734L107.536 172.941L107.672 173.147L107.817 173.363L107.953 173.578L108.099 173.784L108.234 174L108.37 174.215L108.506 174.431L108.642 174.646L108.768 174.862L108.904 175.086L109.04 175.301L109.166 175.526L109.292 175.741L109.418 175.966L109.544 176.19L109.67 176.414L109.786 176.639L109.913 176.863L110.039 177.097L110.155 177.321L110.271 177.545L110.388 177.779L110.504 178.003L110.621 178.237L110.727 178.47L110.844 178.703L110.95 178.937L111.057 179.17L111.164 179.403L111.271 179.637L111.377 179.87L111.484 180.113L111.581 180.346L111.688 180.588L111.785 180.831L111.882 181.064L111.979 181.306L112.076 181.549L112.173 181.791L112.26 182.033L112.357 182.276L112.444 182.518L112.531 182.769L112.619 183.012L112.706 183.263L112.793 183.506L112.871 183.757L112.949 183.999L113.036 184.251L113.113 184.502L113.191 184.753L113.269 185.004L113.337 185.256L113.414 185.507L113.482 185.758L113.55 186.019L113.618 186.27L113.686 186.53L113.754 186.782L113.822 187.042L113.88 187.293L113.938 187.554L114.006 187.814L114.064 188.074L114.122 188.335L114.171 188.595L114.229 188.855L114.277 189.116L114.326 189.376L114.374 189.636L114.423 189.896L114.471 190.166L114.51 190.426L114.559 190.695L114.598 190.956L114.636 191.225L114.675 191.494L114.714 191.763L114.753 192.024L114.782 192.293L114.811 192.562L114.84 192.832L114.869 193.101L114.898 193.37L114.927 193.639L114.947 193.918L114.976 194.187L114.995 194.456L115.015 194.726L115.034 195.004L115.044 195.273L115.063 195.551L115.073 195.821L115.083 196.099L115.092 196.368L115.102 196.646V196.925L115.112 197.203V197.759H115.907Z" fill="url(#paint13_linear_158_3298)"/>
<path fill-rule="evenodd" clip-rule="evenodd" d="M69.3922 217.381V217.462C69.3922 218.324 68.6259 219.033 67.6948 219.033C66.7636 219.033 65.9973 218.324 65.9973 217.462V210.757C65.9973 209.895 65.231 209.186 64.2998 209.186C63.3686 209.186 62.6024 209.895 62.6024 210.757V214.069C62.6024 214.931 61.8361 215.64 60.9049 215.64C59.964 215.64 59.2074 214.931 59.2074 214.069V204.016C59.2074 203.154 58.4412 202.445 57.51 202.445C56.5691 202.445 55.8125 203.154 55.8125 204.016V216.869C55.8125 217.731 55.0462 218.44 54.115 218.44C53.1742 218.44 52.4176 217.731 52.4176 216.869V200.434C52.4176 199.573 51.6513 198.864 50.7201 198.864C49.7792 198.864 49.0227 199.573 49.0227 200.434V203.872C49.0227 204.734 48.2564 205.443 47.3252 205.443C46.3843 205.443 45.6277 204.734 45.6277 203.872V200.219L42.8633 197.67L54.9395 186.495L74.8338 204.904L94.7184 186.495L106.795 197.67L104.04 200.219V203.872C104.04 204.734 103.274 205.443 102.342 205.443C101.411 205.443 100.645 204.734 100.645 203.872V200.434C100.645 199.573 99.8787 198.864 98.9475 198.864C98.0163 198.864 97.25 199.573 97.25 200.434V216.869C97.25 217.731 96.4837 218.44 95.5526 218.44C94.6214 218.44 93.8551 217.731 93.8551 216.869V204.016C93.8551 203.154 93.0888 202.445 92.1576 202.445C91.2265 202.445 90.4602 203.154 90.4602 204.016V214.069C90.4602 214.931 89.6939 215.64 88.7627 215.64C87.8315 215.64 87.0652 214.931 87.0652 214.069V210.757C87.0652 209.895 86.299 209.186 85.3678 209.186C84.4366 209.186 83.6703 209.895 83.6703 210.757V217.462C83.6703 218.324 82.904 219.033 81.9729 219.033C81.0417 219.033 80.2754 218.324 80.2754 217.462V217.3L80.2657 217.255V217.22L80.256 217.184V217.139L80.2463 217.103L80.2366 217.067L80.2269 217.022L80.2172 216.986L80.2075 216.95L80.1978 216.914L80.1881 216.878L80.1687 216.843L80.159 216.807L80.1396 216.771L80.1202 216.735L80.1105 216.699L80.0911 216.663L80.0717 216.636L80.0523 216.6L80.0232 216.564L80.0038 216.537L79.9844 216.501L79.965 216.475L79.9359 216.439L79.9068 216.412V216.403H79.8971V216.394L79.8874 216.385L79.8777 216.376V216.367H79.868V216.358H79.8583V216.349L79.8292 216.322L79.8001 216.295V216.286H79.7904V216.277H79.7807L79.771 216.268V216.259H79.7613V216.25H79.7516V216.241H79.7419L79.7128 216.214L79.6837 216.196V216.187H79.674V216.178H79.6643V216.169H79.6546L79.6449 216.16H79.6352V216.151H79.6255V216.142L79.5867 216.124L79.5576 216.098L79.5285 216.08L79.4897 216.053L79.4509 216.035L79.4218 216.017L79.383 215.999L79.3442 215.981L79.3151 215.963L79.2763 215.945L79.2375 215.936L79.1987 215.918L79.1599 215.9L79.1211 215.891L79.0823 215.882L79.0435 215.864L78.995 215.855L78.9562 215.846L78.9174 215.837H78.8786L78.8301 215.828L78.7913 215.819H78.7525L78.704 215.81H78.4421L78.4033 215.819H78.3645L78.316 215.828L78.2772 215.837H78.2384L78.1899 215.846L78.1511 215.855L78.1123 215.864L78.0735 215.882L78.0347 215.891L77.9959 215.9L77.9571 215.918L77.9183 215.936L77.8795 215.945L77.8407 215.963L77.8019 215.981L77.7728 215.999C77.7437 216.008 77.7243 216.026 77.6952 216.035V216.044H77.6758V216.053H77.6661L77.6564 216.062H77.6467V216.071H77.637V216.08H77.6176V216.089H77.6079V216.098H77.5982L77.5885 216.107H77.5788V216.115H77.5691V216.124H77.5497V216.133H77.54V216.142H77.5303V216.151H77.5206L77.5109 216.16H77.5012V216.169H77.4915V216.178H77.4818V216.187H77.4721V216.196H77.4527V216.205L77.4431 216.214H77.4333V216.223H77.4236V216.232H77.4139V216.241H77.4043V216.25H77.3946V216.259H77.3848V216.268L77.3751 216.277H77.3655V216.286H77.3558V216.295H77.3461L77.317 216.322L77.2976 216.349C77.2782 216.376 77.2588 216.394 77.2394 216.412L77.22 216.439L77.2103 216.448V216.457H77.2006V216.466H77.1909V216.484H77.1812V216.492H77.1715V216.501L77.1424 216.537L77.123 216.564L77.1036 216.6L77.0842 216.636L77.0745 216.645V216.654L77.0648 216.663V216.672H77.0551V216.69L77.0454 216.699L77.026 216.735L77.0163 216.771L76.9969 216.807L76.9872 216.843L76.9678 216.878L76.9581 216.914L76.9484 216.95L76.929 216.986L76.9193 217.022L76.9096 217.067V217.103L76.8999 217.139L76.8902 217.184V217.22L76.8805 217.255V225.361L74.8338 227.255L72.7871 225.361V217.3L72.7774 217.255V217.22L72.7677 217.184V217.139L72.758 217.103L72.7483 217.067L72.7386 217.022L72.7289 216.986L72.7192 216.95L72.7095 216.914L72.6998 216.878L72.6804 216.843L72.6707 216.807L72.6514 216.771L72.632 216.735L72.6223 216.699L72.6029 216.663L72.5835 216.636L72.5641 216.6L72.535 216.564L72.5156 216.537L72.4962 216.501L72.4865 216.492V216.484H72.4768V216.475L72.4671 216.466V216.457H72.4574V216.448H72.4477V216.439L72.4186 216.412V216.403H72.4089V216.394L72.3992 216.385L72.3895 216.376V216.367H72.3798V216.358H72.3701V216.349L72.341 216.322L72.3119 216.295V216.286H72.3022V216.277H72.2925V216.268H72.2828V216.259H72.2731V216.25H72.2634V216.241H72.2537L72.2246 216.214L72.1955 216.196V216.187H72.1858V216.178H72.1761V216.169H72.1664L72.1567 216.16H72.147V216.151H72.1373V216.142L72.0985 216.124L72.0694 216.098L72.0403 216.08H72.0306V216.071H72.0209V216.062H72.0015V216.053H71.9918L71.9821 216.044H71.9724V216.035H71.9627L71.9336 216.017L71.8948 215.999L71.856 215.981L71.8269 215.963L71.7881 215.945L71.7493 215.936L71.7105 215.918L71.6717 215.9L71.6329 215.891L71.5941 215.882L71.5553 215.864L71.5068 215.855L71.468 215.846L71.4292 215.837H71.3904L71.3419 215.828L71.3031 215.819H71.2643L71.2158 215.81H70.9539L70.9151 215.819H70.8763L70.8278 215.828L70.789 215.837H70.7502L70.7017 215.846L70.6629 215.855L70.6241 215.864L70.5853 215.882L70.5465 215.891L70.5077 215.9L70.4689 215.918L70.4301 215.936L70.3913 215.945L70.3525 215.963L70.3137 215.981L70.2846 215.999L70.2458 216.017L70.207 216.035V216.044H70.1876V216.053H70.1779L70.1682 216.062H70.1585V216.071H70.1488L70.1391 216.08L70.11 216.098L70.0712 216.124L70.0421 216.142V216.151H70.0324L70.0227 216.16H70.013V216.169H70.0033V216.178H69.9936V216.187H69.9839L69.9742 216.196L69.9451 216.214L69.916 216.241V216.25H69.9063V216.259H69.8966V216.268H69.8869V216.277H69.8772V216.286H69.8675V216.295H69.8578L69.8287 216.322L69.8093 216.349L69.7996 216.358V216.367H69.7899V216.376H69.7802V216.385H69.7705V216.394H69.7608V216.412H69.7511L69.7317 216.439L69.722 216.448V216.457H69.7123V216.466L69.7026 216.475V216.484H69.6929V216.492H69.6832V216.501L69.6638 216.537L69.6347 216.564L69.6153 216.6L69.5959 216.636L69.5765 216.663L69.5571 216.699L69.5377 216.735L69.528 216.771L69.5086 216.807L69.4989 216.843L69.4795 216.878L69.4698 216.914L69.4601 216.95L69.4407 216.986L69.431 217.022L69.4213 217.067V217.103L69.4116 217.139L69.4019 217.184V217.22L69.3922 217.255V217.381Z" fill="#FEFEFE"/>
<path fill-rule="evenodd" clip-rule="evenodd" d="M74.8337 168.094L87.2494 179.583L74.8337 191.063L62.418 179.583L74.8337 168.094Z" fill="#FEFEFE"/>
<path fill-rule="evenodd" clip-rule="evenodd" d="M45.5199 88.4858L44.9961 95.4063C45.2192 95.0742 46.3152 93.9701 46.5771 93.665C47.518 95.0473 47.1494 98.8621 46.8584 100.657C46.3734 103.646 45.4811 104.553 44.5984 106.851C48.6917 104.921 55.0742 98.53 57.4312 93.8804C60.5448 87.7318 59.507 82.6783 56.015 77.2299L54.725 75.2372C55.0063 68.0474 51.5046 62.563 47.1397 57.7429C45.772 56.2439 44.676 54.4218 43.1434 52.9946C44.6081 56.6119 46.7517 59.0175 47.4695 64.3942L46.2764 63.1465C45.8981 62.59 45.5393 62.0783 45.1998 61.6026C43.2695 58.856 40.8834 54.8347 40.5633 51.4328C40.185 47.5192 43.7351 38.256 44.2977 33.391C41.96 35.0246 37.1586 42.5106 35.7813 45.356C30.2039 56.8543 32.7646 65.4803 38.5457 75.7488C39.7097 77.8313 41.087 79.6444 42.3383 81.8435L45.5199 88.4858ZM90.7209 112.434L90.5754 112.757C89.5569 112.075 86.7828 110.199 85.5024 109.903C87.2872 111.581 89.3629 114.705 90.4008 116.886C93.6405 123.681 91.5939 128.582 92.8742 136.795C93.4174 140.277 94.3971 142.88 95.1828 145.896C95.6581 145.645 95.3283 145.852 95.726 145.537C95.7842 145.484 96.0849 145.214 96.1625 145.133C104.213 137.163 102.293 129.192 102.778 127.935C109.684 120.512 103.302 112.99 112.72 105.181C113.962 104.149 117.337 101.339 118.957 100.801C115.931 112.281 116.503 109.561 117.473 121.625C118.065 128.824 117.861 136.445 116.435 143.67C115.727 142.082 114.437 133.061 112.167 130.458C112.041 133.339 112.274 138.725 110.208 141.39C109.665 142.082 110.043 141.66 109.616 141.956C109.209 139.541 108.045 135.709 106.987 133.743L102.089 147.027C92.2923 149.819 85.2405 140.753 82.7477 136.068C79.1199 129.246 78.2276 120.001 80.2936 111.294C82.9126 100.289 90.7403 91.0888 89.8091 74.2049C89.6345 70.9556 88.7518 64.5198 86.9477 62.581C85.3569 75.2282 83.5721 82.5078 73.465 91.1965C72.6987 91.8518 70.8945 93.3149 69.9051 93.3957C71.8063 90.2541 73.7948 87.3638 74.1439 83.0104C74.4058 79.6444 72.8054 74.3037 70.6617 73.1907C69.3037 84.2042 58.44 90.0566 56.4321 100.711C53.3379 101.573 44.6081 107.542 41.8921 109.642L37.6436 113.206C37.0131 110.962 36.6833 108.799 35.9947 106.653C35.5679 105.316 33.657 101.456 33.9771 100.63C36.402 95.9808 38.2935 93.1892 37.5369 86.9688C36.984 82.4988 35.3351 78.3519 33.8995 74.3486C29.0884 60.9563 25.8487 47.1782 33.9771 33.9475C36.4505 29.9262 39.2247 27.3142 42.154 24.5406C46.4219 20.5104 58.1781 13.0334 63.9883 11.7767L59.9628 16.1301C55.53 21.3272 52.5134 25.4293 49.6714 32.0266C47.5568 36.9545 47.2464 41.3437 51.0972 44.252C57.4215 49.0272 61.1268 42.762 62.6206 41.999C62.1744 46.101 58.8474 49.1259 61.8931 58.2187C67.3929 74.6268 78.4119 69.3938 76.8502 54.9963C76.5592 52.2406 76.0451 49.9248 75.2788 47.4205C74.4834 44.7905 72.9024 41.6399 72.5823 40.482C75.5407 41.9362 82.3403 49.4491 84.8622 52.6086C88.2086 56.8094 91.0313 62.222 91.8946 68.7745C93.1749 78.5224 89.8382 90.8375 89.9352 102.058C89.9643 105.81 90.5463 108.969 90.7209 112.434Z" fill="#FC0002"/>
<path fill-rule="evenodd" clip-rule="evenodd" d="M102.088 147.027L106.986 133.743C108.043 135.708 109.207 139.541 109.615 141.956C110.236 143.948 110.837 148.652 110.604 150.806C111.157 155.204 109.431 162.053 107.238 166.272L106.142 167.726C106.579 162.592 107.529 149.98 104.978 146.363C103.562 151.273 102.01 155.007 99.11 158.678C97.0536 161.272 92.3977 166.012 89.2065 166.9C90.225 163.202 92.3395 161.129 91.1561 156.632C90.4869 154.091 87.8291 150.959 85.4527 150.043C84.7446 153.948 83.406 155.788 81.1265 158.05C79.7201 159.45 76.1797 162.053 73.6868 162.78L81.6794 148.059C75.0642 145.465 69.4771 140.196 68.478 133.312C67.023 134.82 66.1016 138.41 66.0143 140.825C65.7233 148.957 73.1824 158.265 71.6693 162.645C70.7672 165.249 60.9704 172.609 54.4327 159.091C53.9186 158.032 53.5403 156.901 53.2105 155.761C52.871 154.567 52.8807 152.88 52.454 151.874C50.6401 153.813 48.3897 159.513 47.8175 162.583C46.7117 168.534 49.0493 171.424 41.3186 171.388C35.7897 171.361 32.4627 169.746 29.8922 166.855C26.7398 163.31 26.9144 161.425 25.9541 156.353C23.2673 160.051 22.8696 168.839 25.6631 174.153C26.1384 175.05 26.4197 175.517 27.0502 176.406L28.9126 178.766C27.5837 178.371 27.283 178.102 25.6922 177.698C24.567 177.411 23.4516 177.034 22.5107 176.585C20.8908 175.804 19.6396 174.835 18.1943 173.785L17.5153 173.156C18.4368 172.923 17.04 172.932 16.0021 169.728C15.5753 168.39 15.2358 166.523 15.4686 165.078C15.8178 162.565 16.0506 160.913 17.0594 158.651C18.1749 156.183 19.0285 155.312 18.8927 152.117C18.7181 147.988 17.0109 145.079 15.4589 141.722L15.1776 141.139C15.1582 141.085 15.1194 140.995 15.0806 140.924C14.4793 140.43 13.5869 138.689 13.1504 137.97L15.7402 138.877C18.4659 140.888 23.2479 142.108 26.6137 148.517C28.6604 152.404 29.0678 159.63 33.2581 161.649C39.4756 164.629 42.2692 155.186 43.0743 151.416C44.277 145.744 47.3228 140.735 52.454 139.999C51.8235 146.219 52.5122 147.557 55.7325 151.21C56.8577 152.476 58.4096 153.687 60.2623 154.594C61.1838 155.043 62.3089 155.492 63.3856 155.707C69.254 156.874 65.6942 151.237 65.2286 150.286C64.4429 148.697 64.1034 147.045 63.3856 145.546C63.017 141.471 62.3962 139.577 63.1237 134.946C63.7154 131.149 64.9667 128.599 66.1598 125.395C67.0715 123.779 67.9057 121.957 68.9921 120.701C70.4277 124.013 71.1164 135.43 79.8074 141.184C81.7473 142.458 83.7067 142.808 85.9376 143.805C95.618 148.095 94.2892 155.913 95.5695 157.933C97.9848 156.506 100.982 150.438 102.088 147.027Z" fill="#FCE7B2"/>
<path fill-rule="evenodd" clip-rule="evenodd" d="M102.089 147.027C100.983 150.438 97.9858 156.506 95.5706 157.933C94.2902 155.914 95.6191 148.096 85.9387 143.805C83.7077 142.809 81.7484 142.459 79.8084 141.184C71.1174 135.43 70.4287 124.013 68.9932 120.701C67.9068 121.957 67.0726 123.78 66.1608 125.395C65.3169 123.385 69.837 113.466 70.8167 111.59C71.9516 109.427 73.1447 107.587 74.4347 105.648C75.7151 103.709 77.3253 101.95 78.3923 100.28C76.7239 100.63 53.6966 109.579 51.5432 110.396C45.801 112.586 33.2688 118.331 28.6711 122.568C28.5062 122.72 28.2734 122.972 28.1085 123.088C27.3616 123.627 27.963 123.358 27.1385 123.546L27.866 120.8C24.9076 123.026 20.2905 130.153 18.3505 133.878C17.8558 134.82 16.527 138.401 15.7413 138.877L13.1514 137.971C13.5879 138.689 14.4803 140.43 15.0817 140.924C14.5579 145.609 12.9672 146.776 13.132 154.208C13.1514 155.42 13.3163 155.169 12.8508 155.752C11.939 153.831 10.775 152.144 9.85352 149.586C9.02903 147.306 8.35005 144.783 8.12695 142.324C8.71864 141.669 10.3967 137.019 13.2678 133.357C15.3242 130.727 17.5164 128.537 19.6891 125.691C22.696 121.769 28.6226 112.138 29.1561 106.339C31.0767 101.214 29.612 96.5822 28.9524 92.6687C31.5132 95.5769 32.8323 100.092 33.9769 100.63C33.6568 101.456 35.5677 105.316 35.9945 106.653C36.6831 108.799 37.0129 110.962 37.6434 113.206L41.8919 109.642C44.6079 107.542 53.3377 101.573 56.4319 100.711C55.7917 102.417 55.3746 104.876 55.3552 106.734C56.4998 106.716 57.7123 105.217 59.3807 104.005C62.1742 101.977 67.0241 97.408 69.0126 94.5087C69.0514 94.4549 69.3326 94.024 69.3326 94.0151C69.3811 93.9522 69.546 93.7548 69.5945 93.7009L69.9049 93.3957C70.8943 93.3149 72.6985 91.8518 73.4648 91.1966C83.5719 82.5078 85.3567 75.2283 86.9475 62.5811C88.7516 64.5199 89.6343 70.9557 89.8089 74.205C90.7401 91.0889 82.9124 100.289 80.2934 111.294C78.2274 120.001 79.1197 129.246 82.7475 136.068C85.2403 140.753 92.2921 149.819 102.089 147.027Z" fill="#FA6D01"/>
<path fill-rule="evenodd" clip-rule="evenodd" d="M63.3856 145.546C64.1034 147.045 64.4429 148.697 65.2286 150.286C65.6942 151.237 69.254 156.874 63.3856 155.707C62.3089 155.492 61.1838 155.043 60.2623 154.594C58.4096 153.687 56.8577 152.476 55.7325 151.21C52.5121 147.557 51.8235 146.219 52.454 139.999C47.3228 140.735 44.277 145.744 43.0743 151.416C42.2692 155.186 39.4756 164.629 33.2581 161.649C29.0678 159.63 28.6604 152.404 26.6137 148.517C23.2479 142.108 18.4659 140.888 15.7402 138.877C16.5259 138.401 17.8548 134.82 18.3495 133.877C20.2894 130.152 24.9065 123.025 27.865 120.799L27.1375 123.546C25.3042 128.151 25.2072 137.746 26.9726 142.306C29.0872 147.772 34.8779 152.135 40.3292 151.443C40.9015 149.684 39.9703 146.785 39.6599 144.855C38.0207 134.38 40.1643 121.095 50.9117 115.396C54.2484 113.618 59.9131 112.299 64.6175 113.062C63.7833 114.067 62.4738 115.01 61.3681 116.186C55.0147 122.918 52.9777 130.422 57.7597 138.733C58.7976 140.547 61.8337 144.487 63.3856 145.546Z" fill="#F9CF67"/>
<path fill-rule="evenodd" clip-rule="evenodd" d="M66.163 125.395C64.9699 128.599 63.7187 131.149 63.127 134.946C62.3995 139.577 63.0203 141.471 63.3889 145.546C61.8369 144.487 58.8009 140.547 57.763 138.733C52.981 130.422 55.018 122.918 61.3713 116.186C62.4771 115.01 63.7866 114.067 64.6208 113.062C59.9164 112.299 54.2517 113.619 50.9149 115.396C40.1676 121.096 38.0239 134.38 39.6632 144.855C39.9736 146.785 40.9048 149.684 40.3325 151.443C34.8812 152.135 29.0904 147.772 26.9759 142.306C25.2105 137.746 25.3075 128.151 27.1407 123.546C27.9652 123.357 27.3638 123.627 28.1107 123.088C28.2756 122.972 28.5084 122.72 28.6733 122.568C33.271 118.331 45.8032 112.586 51.5454 110.396C53.6988 109.579 76.7261 100.63 78.3945 100.28C77.3275 101.95 75.7173 103.709 74.4369 105.648C73.1469 107.587 71.9538 109.427 70.8189 111.59C69.8392 113.466 65.3191 123.384 66.163 125.395Z" fill="#EEA105"/>
<path fill-rule="evenodd" clip-rule="evenodd" d="M47.4679 64.394C48.1275 66.9612 45.9548 84.2221 45.5183 88.4857L42.3367 81.8434C41.0855 79.6443 39.7081 77.8311 38.5441 75.7487C32.763 65.4801 30.2023 56.8542 35.7797 45.3559C37.157 42.5105 41.9584 35.0245 44.2961 33.3909C43.7335 38.2559 40.1834 47.5191 40.5617 51.4327C40.8818 54.8346 43.2679 58.8558 45.1982 61.6025C45.5377 62.0782 45.8966 62.5899 46.2748 63.1464L47.4679 64.394Z" fill="#FA6D01"/>
<path fill-rule="evenodd" clip-rule="evenodd" d="M21.192 93.0544C20.6585 98.5298 21.5703 101.635 21.8516 106.456C16.1578 103.152 12.2197 95.2894 12.9181 88.2163C13.2964 84.3118 14.6834 80.7393 16.0414 77.2207C16.6816 75.5512 17.4479 73.6662 17.4964 71.8171C17.5643 68.8012 16.992 67.6164 17.4188 66.3866L17.6128 65.9917C18.5827 68.1818 22.1038 71.7364 23.5878 77.7952C25.2077 84.4284 21.8322 86.5827 21.192 93.0544Z" fill="#FC0002"/>
<path fill-rule="evenodd" clip-rule="evenodd" d="M90.7204 112.434C91.7292 113.879 93.1939 114.588 94.4258 115.683C95.0756 116.257 95.7934 116.841 96.2687 117.343C98.6258 119.83 100.546 122.352 101.72 125.476L102.283 127.181C102.787 128.231 102.302 127.433 102.777 127.935C102.292 129.192 104.213 137.163 96.162 145.133C96.0844 145.214 95.7837 145.483 95.7255 145.537C95.3278 145.851 95.6576 145.645 95.1823 145.896C94.3967 142.88 93.417 140.277 92.8738 136.794C91.5934 128.581 93.6401 123.681 90.4003 116.886C89.3625 114.705 87.2867 111.581 85.502 109.902C86.7823 110.199 89.5565 112.075 90.5749 112.757L90.7204 112.434ZM116.716 152.583C116.241 160.051 117.705 166.326 111.711 174.368C107.957 179.404 99.9352 183.658 93.8341 183.506C94.5616 183.057 95.4442 182.797 96.1814 182.455C102.36 179.592 105.522 174.575 106.143 167.726L107.239 166.272C109.431 162.053 111.158 155.204 110.605 150.806C110.663 150.77 110.77 150.636 110.789 150.689L111.439 150.151C111.643 149.935 111.866 149.585 112.011 149.37C112.399 148.786 112.758 148.158 113.098 147.449C113.816 145.968 114.097 144.649 114.504 143.006L114.96 143.966C115.746 146.318 116.221 151.372 116.716 152.583Z" fill="#F9CF67"/>
<path fill-rule="evenodd" clip-rule="evenodd" d="M69.9071 93.3956L69.5967 93.7008C69.5482 93.7546 69.3833 93.9521 69.3348 94.0149C69.3348 94.0239 69.0535 94.4547 69.0147 94.5086C67.0263 97.4078 62.1764 101.977 59.3828 104.005C57.7145 105.217 56.502 106.716 55.3574 106.734C55.3768 104.876 55.7939 102.416 56.4341 100.711C58.442 90.0565 69.3057 84.2041 70.6637 73.1906C72.8074 74.3036 74.4078 79.6443 74.1459 83.0103C73.7967 87.3637 71.8083 90.254 69.9071 93.3956Z" fill="#EEA105"/>
<path fill-rule="evenodd" clip-rule="evenodd" d="M8.13041 142.324C7.45142 137.297 7.75212 130.018 10.0219 125.619C11.923 123.69 13.3004 120.629 18.8972 115.405C20.7013 113.717 22.3503 112.425 24.0672 110.899L29.1596 106.339C28.6261 112.137 22.6995 121.769 19.6926 125.691C17.5198 128.537 15.3277 130.727 13.2713 133.357C10.4002 137.019 8.7221 141.668 8.13041 142.324Z" fill="#FC0002"/>
<path fill-rule="evenodd" clip-rule="evenodd" d="M10.0184 125.619C7.74861 130.017 7.44792 137.297 8.1269 142.324C8.35 144.783 9.02898 147.305 9.85346 149.585C10.7749 152.143 11.9389 153.831 12.8507 155.752L12.55 155.994C10.3385 155.07 6.12874 151.219 4.43128 149.253L2.52042 146.883C2.08393 146.399 2.59802 146.83 2.00633 146.372L1.90933 148.266C1.54074 147.413 1.91903 146.417 1.71534 145.654C1.58924 145.187 0.900555 144.056 0.67746 143.383C0.0857724 141.659 -0.205221 139.667 0.163371 137.593C0.764758 134.182 2.80171 130.215 4.39248 127.477C7.74861 121.706 12.065 115.773 16.0904 111.293C14.7713 114.256 10.5518 121.356 9.94076 124.829C9.73707 125.942 9.75647 125.233 10.0184 125.619ZM54.7247 75.2368C53.7159 84.2667 50.5926 87.3365 46.5769 93.6646C46.315 93.9698 45.2189 95.0738 44.9958 95.4059L45.5196 88.4854C45.9561 84.2218 48.1288 66.9609 47.4693 64.3938C46.7515 59.0172 44.6078 56.6116 43.1432 52.9943C44.6757 54.4214 45.7718 56.2436 47.1395 57.7426C51.5044 62.5627 55.006 68.047 54.7247 75.2368Z" fill="#FCE7B2"/>
<path fill-rule="evenodd" clip-rule="evenodd" d="M46.5764 93.6648C50.5921 87.3367 53.7155 84.2669 54.7242 75.2371L56.0143 77.2297C59.5062 82.6782 60.5441 87.7317 57.4305 93.8803C55.0734 98.5298 48.691 104.921 44.5977 106.851C45.4803 104.553 46.3727 103.646 46.8577 100.657C47.1487 98.8619 47.5173 95.0471 46.5764 93.6648Z" fill="#FA6D01"/>
<path fill-rule="evenodd" clip-rule="evenodd" d="M77.686 21.4706C77.3853 24.5404 77.2689 26.201 77.7054 29.4324C77.9964 31.5238 78.6754 33.1484 79.0246 34.9795C75.0379 32.8612 68.7331 26.2369 69.0823 20.7167C69.3345 16.7852 71.9534 15.1066 73.7673 12.6831C77.9479 7.10003 77.8994 5.25097 77.6278 0C79.1895 2.15424 81.2749 6.22038 80.8675 9.82874C80.625 12.0638 78.2486 15.7439 77.686 21.4706Z" fill="#FC0002"/>
<path fill-rule="evenodd" clip-rule="evenodd" d="M12.5511 155.994C13.8509 157.655 13.7151 162.529 15.1797 164.737L15.4707 165.078C15.2379 166.523 15.5774 168.39 16.0042 169.728C17.0421 172.932 18.4389 172.923 17.5174 173.156C15.558 171.532 13.4047 170.41 11.3774 168.812C8.80697 166.783 7.97279 165.769 6.27532 163.489C3.57878 159.881 1.52242 154.1 1.91041 148.266L2.00741 146.372C2.5991 146.83 2.08501 146.399 2.5215 146.884L4.43236 149.253C6.12983 151.219 10.3395 155.07 12.5511 155.994Z" fill="#FB4301"/>
<path fill-rule="evenodd" clip-rule="evenodd" d="M107.753 80.6676C106.928 89.0871 100.982 92.4172 100.662 92.8481L105.056 67.9307C105.774 68.6398 106.094 69.69 106.404 70.6235C107.481 73.81 108.092 77.2029 107.753 80.6676Z" fill="#FC0002"/>
<path fill-rule="evenodd" clip-rule="evenodd" d="M15.4704 165.078L15.1794 164.737C13.7148 162.529 13.8506 157.655 12.5508 155.994L12.8515 155.752C13.3171 155.168 13.1522 155.42 13.1328 154.208C12.9679 146.776 14.5586 145.609 15.0824 140.923C15.1212 140.995 15.16 141.085 15.1794 141.139L15.4607 141.722C17.0127 145.079 18.7199 147.988 18.8944 152.117C19.0302 155.312 18.1767 156.183 17.0612 158.651C16.0524 160.913 15.8196 162.565 15.4704 165.078Z" fill="#F9CF67"/>
<path fill-rule="evenodd" clip-rule="evenodd" d="M116.436 143.67C116.368 146.345 116.717 149.594 116.717 152.583C116.223 151.372 115.747 146.318 114.962 143.966L114.506 143.006C114.098 144.649 113.817 145.968 113.099 147.449C112.76 148.158 112.401 148.787 112.013 149.37C111.868 149.585 111.644 149.935 111.441 150.151L110.791 150.689C110.771 150.636 110.665 150.77 110.607 150.806C110.839 148.652 110.238 143.948 109.617 141.956C110.044 141.66 109.666 142.081 110.209 141.39C112.275 138.724 112.042 133.339 112.168 130.458C114.438 133.061 115.728 142.081 116.436 143.67Z" fill="#FA6D01"/>
<defs>
<linearGradient id="paint0_linear_158_3298" x1="51.5585" y1="142.858" x2="89.7042" y2="264.732" gradientUnits="userSpaceOnUse">
<stop stop-color="#1CE5A1"/>
<stop offset="0.490196" stop-color="#18CE9F"/>
<stop offset="1" stop-color="#13B79C"/>
</linearGradient>
<linearGradient id="paint1_linear_158_3298" x1="51.6364" y1="188.696" x2="-29.2361" y2="233.628" gradientUnits="userSpaceOnUse">
<stop stop-color="#1CE5A1"/>
<stop offset="0.0784314" stop-color="#1CE5A1"/>
<stop offset="0.960784" stop-color="#2951DB"/>
<stop offset="0.968627" stop-color="#2951DB"/>
<stop offset="0.988235" stop-color="#2951DB"/>
<stop offset="1" stop-color="#2951DB"/>
</linearGradient>
<linearGradient id="paint2_linear_158_3298" x1="1.28845" y1="201.845" x2="15.3939" y2="201.845" gradientUnits="userSpaceOnUse">
<stop stop-color="#13C6A3"/>
<stop offset="0.490196" stop-color="#0006AF"/>
<stop offset="0.988235"/>
<stop offset="1"/>
</linearGradient>
<linearGradient id="paint3_linear_158_3298" x1="1.39101" y1="191.185" x2="15.6308" y2="191.185" gradientUnits="userSpaceOnUse">
<stop stop-color="#13C6A3"/>
<stop offset="0.490196" stop-color="#0006AF"/>
<stop offset="0.988235"/>
<stop offset="1"/>
</linearGradient>
<linearGradient id="paint4_linear_158_3298" x1="2.54764" y1="212.505" x2="17.4083" y2="212.505" gradientUnits="userSpaceOnUse">
<stop stop-color="#13C6A3"/>
<stop offset="0.490196" stop-color="#0006AF"/>
<stop offset="0.988235"/>
<stop offset="1"/>
</linearGradient>
<linearGradient id="paint5_linear_158_3298" x1="5.76241" y1="223.166" x2="21.5194" y2="223.166" gradientUnits="userSpaceOnUse">
<stop stop-color="#13C6A3"/>
<stop offset="0.490196" stop-color="#0006AF"/>
<stop offset="0.988235"/>
<stop offset="1"/>
</linearGradient>
<linearGradient id="paint6_linear_158_3298" x1="3.01297" y1="180.525" x2="18.0419" y2="180.525" gradientUnits="userSpaceOnUse">
<stop stop-color="#13C6A3"/>
<stop offset="0.490196" stop-color="#0006AF"/>
<stop offset="0.988235"/>
<stop offset="1"/>
</linearGradient>
<linearGradient id="paint7_linear_158_3298" x1="6.67473" y1="169.867" x2="22.6307" y2="169.867" gradientUnits="userSpaceOnUse">
<stop stop-color="#13C6A3"/>
<stop offset="0.490196" stop-color="#0006AF"/>
<stop offset="0.988235"/>
<stop offset="1"/>
</linearGradient>
<linearGradient id="paint8_linear_158_3298" x1="14.4602" y1="157.074" x2="32.0355" y2="157.074" gradientUnits="userSpaceOnUse">
<stop stop-color="#13C6A3"/>
<stop offset="0.490196" stop-color="#0006AF"/>
<stop offset="0.988235"/>
<stop offset="1"/>
</linearGradient>
<linearGradient id="paint9_linear_158_3298" x1="25.4992" y1="146.411" x2="46.119" y2="146.411" gradientUnits="userSpaceOnUse">
<stop stop-color="#13C6A3"/>
<stop offset="0.490196" stop-color="#0006AF"/>
<stop offset="0.988235"/>
<stop offset="1"/>
</linearGradient>
<linearGradient id="paint10_linear_158_3298" x1="12.8427" y1="235.958" x2="30.0778" y2="235.958" gradientUnits="userSpaceOnUse">
<stop stop-color="#13C6A3"/>
<stop offset="0.490196" stop-color="#0006AF"/>
<stop offset="0.988235"/>
<stop offset="1"/>
</linearGradient>
<linearGradient id="paint11_linear_158_3298" x1="22.7925" y1="246.619" x2="42.4667" y2="246.619" gradientUnits="userSpaceOnUse">
<stop stop-color="#13C6A3"/>
<stop offset="0.490196" stop-color="#0006AF"/>
<stop offset="0.988235"/>
<stop offset="1"/>
</linearGradient>
<linearGradient id="paint12_linear_158_3298" x1="110.491" y1="141.527" x2="45.0149" y2="258.179" gradientUnits="userSpaceOnUse">
<stop stop-color="#13C6A3"/>
<stop offset="0.490196" stop-color="#0006AF"/>
<stop offset="0.988235" stop-color="#000069"/>
<stop offset="1" stop-color="#000069"/>
</linearGradient>
<linearGradient id="paint13_linear_158_3298" x1="106.874" y1="147.743" x2="48.4724" y2="251.79" gradientUnits="userSpaceOnUse">
<stop stop-color="#13C6A3"/>
<stop offset="0.490196" stop-color="#0006AF"/>
<stop offset="0.988235" stop-color="#000069"/>
<stop offset="1" stop-color="#000069"/>
</linearGradient>
</defs>
</svg>
