<svg width="252" height="28" viewBox="0 0 252 28" fill="none" xmlns="http://www.w3.org/2000/svg">
<g clip-path="url(#clip0_200_351)">
<path d="M22.4596 11.2539C24.1667 13.5417 19.1674 17.9669 20.2903 16.1399H9.64131C8.48931 14.6256 7.69731 12.9712 7.31641 11.2539H22.4596Z" fill="white"/>
<path d="M19.3726 24.4417C17.8595 25.6542 16.2235 26.7034 14.4917 27.5718L13.644 28L12.7916 27.573C4.77987 23.534 0 16.576 0 8.953V0H4.88671V8.95183C4.88671 9.5235 4.92387 10.0928 5.00168 10.6587C5.61716 15.2903 8.72942 19.5638 13.6254 22.442C13.6303 22.4463 13.6358 22.4498 13.6417 22.4525L13.6545 22.4443L13.6754 22.4315C15.4452 23.426 17.3726 24.1052 19.3726 24.4417Z" fill="white"/>
<path d="M27.1367 11.2536C26.9103 13.0228 26.4271 14.7491 25.7025 16.3776C24.3636 19.4016 22.2105 22.1538 19.3747 24.4439C17.3754 24.1073 15.4488 23.4269 13.6797 22.4326C14.3184 22.0534 14.9385 21.6428 15.5366 21.2018C15.5958 21.1633 15.6527 21.1201 15.7085 21.0758C19.0186 18.6811 21.4034 15.2108 22.459 11.2524L27.1367 11.2536Z" fill="url(#paint0_linear_200_351)"/>
<path d="M27.288 0.000976562H4.88672V4.90798H27.288V0.000976562Z" fill="white"/>
<path d="M27.2893 4.90918V8.95168C27.2893 9.11851 27.2835 9.28651 27.2777 9.45335H22.3887C22.3945 9.28651 22.3968 9.11851 22.3968 8.95168V4.90918H27.2893Z" fill="url(#paint1_linear_200_351)"/>
<path d="M78.162 13.1602C78.162 14.8227 77.9762 16.1818 77.6023 17.2342C77.0984 18.7463 76.106 20.046 74.7827 20.9267C73.4423 21.7743 71.8823 22.2046 70.299 22.1633C67.4886 22.1633 65.3344 21.2043 63.8329 19.284C62.6861 17.794 62.0846 15.953 62.1293 14.0702C62.1293 11.8325 62.7947 9.953 64.1244 8.42933C65.634 6.69916 67.7406 5.8335 70.4464 5.8335C72.2534 5.8335 73.784 6.30016 75.0405 7.23116C75.937 7.88916 76.7023 8.8645 77.3375 10.156L73.5773 11.7217C73.3264 11.1068 72.9432 10.555 72.4531 10.1093C71.8362 9.60066 71.0586 9.33007 70.2606 9.34633C68.5303 9.34633 67.3226 10.2412 66.6421 12.0308C66.3876 12.6823 66.2576 13.3761 66.2588 14.076C66.2381 14.7471 66.3497 15.4156 66.5873 16.0431C66.8249 16.6706 67.1837 17.2447 67.6431 17.7323C68.3259 18.4603 69.2375 18.8232 70.3756 18.8208C71.3859 18.8208 72.1872 18.5257 72.7795 17.9353C73.2126 17.457 73.4809 16.8527 73.5459 16.2098H70.2722V13.159L78.162 13.1602ZM98.6228 15.1855C98.6321 15.9788 98.5531 16.7698 98.3871 17.5457C98.1297 18.619 97.5558 19.5892 96.7404 20.3293C95.499 21.5077 93.8395 22.098 91.7619 22.098C89.6484 22.098 87.9982 21.4972 86.8102 20.2967C86.1689 19.6408 85.7225 18.8181 85.5211 17.9213C85.3349 17.0258 85.2519 16.1117 85.2738 15.1972V6.3235H89.2524V14.636C89.2524 15.3057 89.264 15.8027 89.2872 16.1305C89.3592 17.1747 89.8295 17.9027 90.6982 18.3145C91.0698 18.4895 91.4762 18.577 91.8873 18.5712C92.857 18.5712 93.5886 18.2317 94.0822 17.5492C94.4491 17.0475 94.6315 16.0768 94.6315 14.636V6.32466H98.6112L98.6228 15.1855ZM119.576 21.692H115.327L114.342 19.0122H108.85L107.797 21.692H103.595L109.472 6.32466H113.816L119.576 21.692ZM113.267 15.9742L111.621 11.0742L109.95 15.9742H113.267ZM138.648 21.692H133.712L129.913 15.7887V21.692H125.924V6.32466H132.112C133.92 6.32466 135.257 6.86833 136.123 7.95566C136.825 8.83208 137.198 9.92851 137.176 11.0532C137.176 12.4123 136.774 13.4962 135.966 14.307C135.374 14.8647 134.636 15.2403 133.837 15.3885L138.648 21.692ZM133.054 11.2737C133.059 11.014 133.009 10.7562 132.907 10.5179C132.804 10.2795 132.651 10.0661 132.459 9.89233C132.084 9.53883 131.48 9.36383 130.648 9.365H129.906V13.1917H130.648C131.49 13.1917 132.091 13.0155 132.459 12.6632C132.65 12.4869 132.802 12.2719 132.904 12.0323C133.006 11.7928 133.056 11.5342 133.052 11.2737H133.054ZM158.321 14.0025C158.298 15.5927 157.797 17.1386 156.882 18.4367C155.967 19.7348 154.683 20.7241 153.198 21.2743C152.42 21.5485 151.601 21.6889 150.776 21.6897H144.901V6.3235H150.776C152.198 6.3179 153.589 6.73698 154.772 7.5275C155.96 8.29435 156.916 9.37376 157.536 10.6483C158.05 11.6908 158.319 12.8392 158.321 14.0025ZM154.196 14.0025C154.216 13.0034 153.904 12.0262 153.308 11.2258C152.524 10.1793 151.35 9.65666 149.782 9.65783H148.873V18.3612H149.782C151.35 18.3612 152.524 17.8373 153.308 16.7908C153.901 15.9858 154.213 15.0047 154.192 14.0025H154.196ZM178.142 21.692H173.895L172.908 19.0122H167.416L166.363 21.692H162.16L168.037 6.32466H172.382L178.142 21.692ZM171.832 15.9742L170.187 11.0742L168.528 15.9742H171.832ZM197.214 21.692H192.265L188.466 15.7887V21.692H184.492V6.32466H190.678C192.485 6.32466 193.823 6.86833 194.689 7.95566C195.391 8.833 195.764 9.9285 195.743 11.0532C195.743 12.4123 195.339 13.4962 194.531 14.307C193.94 14.8653 193.201 15.2408 192.403 15.3885L197.214 21.692ZM191.622 11.2737C191.626 11.014 191.575 10.7565 191.472 10.5183C191.369 10.2801 191.217 10.0667 191.026 9.89233C190.649 9.54 190.048 9.365 189.216 9.365H188.473V13.1917H189.209C190.049 13.1917 190.652 13.0167 191.019 12.6632C191.21 12.487 191.363 12.2722 191.467 12.0328C191.57 11.7934 191.623 11.5347 191.62 11.2737H191.622ZM207.453 21.692H203.472V6.32466H207.451L207.453 21.692ZM229.794 21.692H225.545L224.558 19.0122H219.067L218.015 21.692H213.81L219.686 6.32466H224.021L229.794 21.692ZM223.486 15.9742L221.84 11.0742L220.169 15.9742H223.486ZM251.417 21.692H247.439L240.12 12.2817V21.692H236.142V6.32466H240.12L247.439 15.7257V6.32466H251.417V21.692Z" fill="url(#paint2_linear_200_351)"/>
</g>
<defs>
<linearGradient id="paint0_linear_200_351" x1="27.1367" y1="11.2536" x2="11.0934" y2="16.431" gradientUnits="userSpaceOnUse">
<stop stop-color="white"/>
<stop offset="1" stop-color="white"/>
</linearGradient>
<linearGradient id="paint1_linear_200_351" x1="27.2893" y1="4.90918" x2="21.511" y2="6.87965" gradientUnits="userSpaceOnUse">
<stop stop-color="white"/>
<stop offset="1" stop-color="white"/>
</linearGradient>
<linearGradient id="paint2_linear_200_351" x1="251.417" y1="5.8335" x2="234.168" y2="69.0837" gradientUnits="userSpaceOnUse">
<stop stop-color="white"/>
<stop offset="1" stop-color="white"/>
</linearGradient>
<clipPath id="clip0_200_351">
<rect width="252" height="28" fill="white"/>
</clipPath>
</defs>
</svg>
