<svg width="1443" height="553" viewBox="0 0 1443 553" fill="none" xmlns="http://www.w3.org/2000/svg">
<mask id="mask0_153_2437" style="mask-type:luminance" maskUnits="userSpaceOnUse" x="0" y="0" width="1443" height="553">
<path fill-rule="evenodd" clip-rule="evenodd" d="M0 0H1442.6V552.507H0V0Z" fill="url(#paint0_linear_153_2437)"/>
</mask>
<g mask="url(#mask0_153_2437)">
<path d="M0.214844 524.286V0.222183H1442.37V152.96L1429.16 147.227L1415.03 141.605L1395.27 131.029L1384.24 125.574L1369.23 118.505L1358.86 116L1346.47 114.72L1340.63 116.39L1330.75 118.283L1326.6 121.066L1315.3 128.636L1299.3 143.442L1281.51 159.863L1268.79 174.112L1265.79 177.341L1263 179.511L1261.8 179.122L1251.38 186.024L1241.44 196.6L1233.64 208.512L1224.79 220.59L1220.81 228.383L1214.1 237.289L1203.18 247.309L1194.77 251.984L1183.47 255.491L1178.18 258.33L1163.71 265.399L1155.58 269.128L1150.56 269.351L1144.01 269.462L1128.01 268.405L1116.66 267.236L1103.94 269.128L1094.93 272.357L1089.48 276.142L1084.67 278.257L1077.74 278.981L1069.28 281.986L1061.31 286.885L1050.06 299.409L1044.11 294.9L1039.75 292.952L1035.49 290.447L1031.29 289.946L1028.45 290.447L1024.46 289.167L1022.5 290.28L1019.77 290.057L1018.73 291.171L1014.97 291.616L1010.82 291.56L1006.56 290.781L994.005 289.389L989.638 290.057L979.813 289.445L968.623 291.95L958.251 298.351L951.756 302.248L940.183 312.211L925.445 320.728L917.203 322.898H904.976L896.187 322.008L889.746 320.728L882.322 318.557H876.154L874.189 318L871.132 318.056L866.11 318.278L861.798 318.557L858.25 317.889L847.497 317.61L844.822 318.835L842.966 318.501L834.942 319.336L823.916 322.843L812.398 325.904L801.917 331.916L797.059 335.868L792.638 340.432L783.795 349.95L777.791 358.912L771.568 366.204L768.62 370.713L766.491 376.056L764.253 379.73L758.085 388.859L746.24 408.507L741.382 416.133L736.087 420.586L716.654 433.611L711.742 438.176L701.862 443.352L687.505 450.31L685.595 451.423L682.702 450.978L676.042 448.251L671.676 448.306L665.453 450.143L660.868 451.034L657.483 449.753L652.953 450.199L644.546 451.145L637.559 453.093L631.391 456.823L624.404 464.114L622.876 464.727L611.085 464.838L604.48 468.011L599.622 470.627L588.159 476.082L576.751 472.241L567.853 468.623L562.504 468.233L556.117 468.512L553.333 468.901L550.55 470.404L544.218 474.245L538.595 476.861L531.554 479.143L521.783 482.817L513.813 487.047L499.621 492.558L491.87 496.9L489.304 499.739L482.699 502.633L477.022 504.581L471.4 507.364L466.324 510.648L456.88 519.443L452.186 523.061L449.347 526.29L442.742 533.47L435.21 541.931L422.655 542.821L411.41 543.656L390.395 544.213L345.143 546.773L340.012 546.885L334.99 546.773L314.793 548.276L310.863 548.722L305.404 549.334L297.435 549.223L294.542 549.779L290.339 549.612L274.236 550.225L270.688 550.67L267.686 551.004L267.031 550.837L265.884 551.004L264.028 550.336L257.696 550.67L257.314 551.338L251.637 551.004L251.31 551.449L249.236 551.56L238.81 551.672L238.537 552.117L237.609 552.006L232.587 552.061L231.441 552.284L229.312 551.505L227.565 551.282L219.104 550.169L211.135 548.165L198.689 545.215L170.25 536.977L123.579 532.858L101.144 533.748L94.43 533.526L93.5567 533.971L92.6833 533.86L90.9366 534.082L86.8426 533.637L86.4059 534.194L84.1679 533.915L81.5478 533.47L78.8185 533.136L77.4538 532.746L73.087 532.079L68.4472 531.188L63.589 530.576L59.4951 529.852L57.4208 529.629L54.5824 529.351L54.1457 529.24L50.2155 528.683L45.139 528.349L44.484 528.238L40.9905 527.737L31.6563 526.902L29.0362 527.403L22.9771 526.457L17.7369 526.011L9.60361 525.343L0.214844 524.286Z" fill="url(#paint1_linear_153_2437)"/>
</g>
<defs>
<linearGradient id="paint0_linear_153_2437" x1="797.592" y1="-34.4986" x2="780.695" y2="450.176" gradientUnits="userSpaceOnUse">
<stop stop-color="white" stop-opacity="0"/>
<stop offset="1" stop-color="white"/>
</linearGradient>
<linearGradient id="paint1_linear_153_2437" x1="-0.674906" y1="403.292" x2="1443.28" y2="429.695" gradientUnits="userSpaceOnUse">
<stop stop-color="#04C18E"/>
<stop offset="0.188235" stop-color="#8F03FD"/>
<stop offset="0.4" stop-color="#03C28D"/>
<stop offset="0.6" stop-color="#8F03FD"/>
<stop offset="0.768627" stop-color="#01C48C"/>
<stop offset="1" stop-color="#9100FF"/>
</linearGradient>
</defs>
</svg>
