<svg width="1448" height="579" viewBox="0 0 1448 579" fill="none" xmlns="http://www.w3.org/2000/svg">
<g filter="url(#filter0_d_184_23)">
<path d="M4 146C4 65.3666 69.3664 0 150 0H1298C1378.63 0 1444 65.3664 1444 146V393.274L759.729 565.982C736.278 571.901 711.722 571.901 688.271 565.982L4 393.274V146Z" fill="url(#paint0_linear_184_23)"/>
<path d="M5 146C5 65.9189 69.9187 1 150 1H1298C1378.08 1 1443 65.9187 1443 146V392.495L759.485 565.012C736.193 570.891 711.807 570.891 688.515 565.012L5 392.495V146Z" stroke="url(#paint1_linear_184_23)" stroke-width="2"/>
</g>
<defs>
<filter id="filter0_d_184_23" x="0" y="0" width="1448" height="578.421" filterUnits="userSpaceOnUse" color-interpolation-filters="sRGB">
<feFlood flood-opacity="0" result="BackgroundImageFix"/>
<feColorMatrix in="SourceAlpha" type="matrix" values="0 0 0 0 0 0 0 0 0 0 0 0 0 0 0 0 0 0 127 0" result="hardAlpha"/>
<feOffset dy="4"/>
<feGaussianBlur stdDeviation="2"/>
<feComposite in2="hardAlpha" operator="out"/>
<feColorMatrix type="matrix" values="0 0 0 0 0 0 0 0 0 0 0 0 0 0 0 0 0 0 0.25 0"/>
<feBlend mode="normal" in2="BackgroundImageFix" result="effect1_dropShadow_184_23"/>
<feBlend mode="normal" in="SourceGraphic" in2="effect1_dropShadow_184_23" result="shape"/>
</filter>
<linearGradient id="paint0_linear_184_23" x1="724" y1="0" x2="724" y2="575" gradientUnits="userSpaceOnUse">
<stop stop-color="#8D00FF"/>
<stop offset="1" stop-color="#410075"/>
</linearGradient>
<linearGradient id="paint1_linear_184_23" x1="724" y1="0" x2="724" y2="575" gradientUnits="userSpaceOnUse">
<stop stop-color="#21E2A5"/>
<stop offset="1" stop-color="#DD38FD"/>
</linearGradient>
</defs>
</svg>
