<svg width="32" height="27" viewBox="0 0 32 27" fill="none" xmlns="http://www.w3.org/2000/svg">
<path d="M31.4049 3.96809C30.25 4.46628 28.9932 4.82482 27.6987 4.96447C29.0427 4.16599 30.0492 2.90452 30.5293 1.41674C29.2681 2.16701 27.8864 2.69311 26.4456 2.9717C25.8434 2.32793 25.1151 1.81507 24.3061 1.46508C23.497 1.11509 22.6245 0.935477 21.743 0.937424C18.1764 0.937424 15.308 3.82844 15.308 7.37617C15.308 7.87436 15.3684 8.37255 15.4666 8.85187C10.1261 8.57258 5.3631 6.02124 2.19657 2.11497C1.61959 3.10046 1.31724 4.22256 1.32096 5.36453C1.32096 7.59884 2.45699 9.56896 4.18933 10.7276C3.16844 10.6874 2.17144 10.4068 1.27944 9.90864V9.98789C1.27944 13.1167 3.49111 15.7095 6.43874 16.3059C5.88529 16.4496 5.31595 16.5232 4.74414 16.5248C4.3252 16.5248 3.92891 16.4833 3.52885 16.4266C4.34407 18.978 6.71803 20.8311 9.54489 20.8915C7.33322 22.6238 4.56298 23.6429 1.55496 23.6429C1.01525 23.6429 0.517062 23.624 0 23.5636C2.85328 25.3941 6.23871 26.4508 9.88456 26.4508C21.7204 26.4508 28.1969 16.6455 28.1969 8.13477C28.1969 7.85549 28.1969 7.5762 28.178 7.29691C29.431 6.37978 30.5293 5.24376 31.4049 3.96809Z" fill="url(#paint0_linear_155_3207)"/>
<defs>
<linearGradient id="paint0_linear_155_3207" x1="15.7024" y1="4.75001" x2="15.7024" y2="26.4508" gradientUnits="userSpaceOnUse">
<stop stop-color="#8C2EA8"/>
<stop offset="1" stop-color="#1BDB9C"/>
</linearGradient>
</defs>
</svg>
