<svg width="22" height="18" viewBox="0 0 22 18" fill="none" xmlns="http://www.w3.org/2000/svg">
<path d="M21.2086 2.07997C20.4309 2.41546 19.5845 2.65692 18.7127 2.75096C19.6178 2.21324 20.2956 1.36374 20.6189 0.361829C19.7696 0.867076 18.8392 1.22136 17.8689 1.40898C17.4634 0.975444 16.9729 0.630071 16.4281 0.39438C15.8832 0.15869 15.2957 0.0377312 14.702 0.0390425C12.3002 0.0390425 10.3686 1.98593 10.3686 4.37505C10.3686 4.71055 10.4092 5.04604 10.4753 5.36883C6.87893 5.18075 3.6714 3.46261 1.53898 0.832029C1.15043 1.49569 0.946815 2.25134 0.949322 3.02037C0.949322 4.52501 1.71435 5.85174 2.88096 6.63202C2.19346 6.60494 1.52206 6.41597 0.921364 6.08048V6.13386C0.921364 8.24086 2.41076 9.98696 4.39576 10.3885C4.02306 10.4853 3.63965 10.5349 3.25457 10.536C2.97245 10.536 2.70558 10.508 2.43617 10.4699C2.98516 12.188 4.58384 13.4359 6.48752 13.4766C4.99813 14.6432 3.13258 15.3295 1.1069 15.3295C0.74345 15.3295 0.407956 15.3167 0.0597534 15.2761C1.98122 16.5088 4.26106 17.2204 6.71627 17.2204C14.6868 17.2204 19.0482 10.6173 19.0482 4.88592C19.0482 4.69784 19.0482 4.50976 19.0355 4.32168C19.8793 3.70406 20.6189 2.93904 21.2086 2.07997Z" fill="url(#paint0_linear_83_7289)"/>
<defs>
<linearGradient id="paint0_linear_83_7289" x1="10.6342" y1="2.60653" x2="10.6342" y2="17.2204" gradientUnits="userSpaceOnUse">
<stop stop-color="#8C2EA8"/>
<stop offset="1" stop-color="#1BDB9C"/>
</linearGradient>
</defs>
</svg>
