<svg width="28" height="22" viewBox="0 0 28 22" fill="none" xmlns="http://www.w3.org/2000/svg">
<path d="M27.2191 2.67715C26.241 3.09909 25.1766 3.40275 24.0802 3.52103C25.2185 2.84476 26.0709 1.77638 26.4775 0.51632C25.4094 1.15175 24.2392 1.59732 23.0189 1.83328C22.5089 1.28804 21.8921 0.853677 21.2068 0.557259C20.5216 0.26084 19.7827 0.108716 19.0361 0.110365C16.0154 0.110365 13.5861 2.55888 13.5861 5.56358C13.5861 5.98552 13.6372 6.40746 13.7203 6.81341C9.19729 6.57687 5.16331 4.41604 2.48145 1.10767C1.99279 1.94233 1.73671 2.89268 1.73987 3.85985C1.73987 5.75218 2.70201 7.42075 4.1692 8.40207C3.30456 8.36802 2.46017 8.13036 1.70471 7.70843V7.77556C1.70471 10.4255 3.57785 12.6214 6.07431 13.1265C5.60557 13.2482 5.12338 13.3105 4.63909 13.3119C4.28428 13.3119 3.94864 13.2767 3.60982 13.2288C4.30026 15.3896 6.31085 16.9591 8.70503 17.0102C6.83188 18.4774 4.48565 19.3405 1.93805 19.3405C1.48095 19.3405 1.05901 19.3245 0.621094 19.2734C3.03764 20.8237 5.9049 21.7187 8.99271 21.7187C19.0169 21.7187 24.5021 13.4142 24.5021 6.20608C24.5021 5.96954 24.5021 5.733 24.4861 5.49646C25.5474 4.71971 26.4775 3.75757 27.2191 2.67715Z" fill="url(#paint0_linear_210_523)"/>
<defs>
<linearGradient id="paint0_linear_210_523" x1="13.9201" y1="3.33939" x2="13.9201" y2="21.7187" gradientUnits="userSpaceOnUse">
<stop stop-color="#8C2EA8"/>
<stop offset="1" stop-color="#1BDB9C"/>
</linearGradient>
</defs>
</svg>
