<svg width="94" height="94" viewBox="0 0 94 94" fill="none" xmlns="http://www.w3.org/2000/svg">
<path fill-rule="evenodd" clip-rule="evenodd" d="M0 74.4105V82.25C0 88.7309 15.7891 94 35.25 94C54.7109 94 70.5 88.7309 70.5 82.25V74.4105C62.9176 79.7531 49.0562 82.25 35.25 82.25C21.4438 82.25 7.58242 79.7531 0 74.4105ZM58.75 23.5C78.2109 23.5 94 18.2309 94 11.75C94 5.26914 78.2109 0 58.75 0C39.2891 0 23.5 5.26914 23.5 11.75C23.5 18.2309 39.2891 23.5 58.75 23.5ZM0 55.1516V64.625C0 71.1059 15.7891 76.375 35.25 76.375C54.7109 76.375 70.5 71.1059 70.5 64.625V55.1516C62.9176 61.3937 49.0379 64.625 35.25 64.625C21.4621 64.625 7.58242 61.3937 0 55.1516ZM76.375 57.1711C86.8949 55.1332 94 51.3512 94 47V39.1605C89.7406 42.1715 83.4801 44.2277 76.375 45.4945V57.1711ZM35.25 29.375C15.7891 29.375 0 35.9477 0 44.0625C0 52.1773 15.7891 58.75 35.25 58.75C54.7109 58.75 70.5 52.1773 70.5 44.0625C70.5 35.9477 54.7109 29.375 35.25 29.375ZM75.5121 39.7113C86.5277 37.7285 94 33.8363 94 29.375V21.5355C87.4824 26.1438 76.2832 28.6223 64.4965 29.2098C69.9125 31.8352 73.8965 35.3602 75.5121 39.7113ZM54.0261 18.0095C54.0261 18.273 53.5582 18.4839 52.9734 18.4839C52.3886 18.4839 51.9207 18.273 51.9207 18.0095V16.0067C51.9207 15.7431 51.4528 15.5323 50.868 15.5323C50.2831 15.5323 49.8153 15.7431 49.8153 16.0067V17.0081C49.8153 17.2716 49.3474 17.4824 48.8795 17.4824C48.2947 17.4824 47.8268 17.2716 47.8268 17.0081V14.0038C47.8268 13.7403 47.3589 13.5295 46.7741 13.5295C46.1893 13.5295 45.7214 13.7403 45.7214 14.0038V17.8514C45.7214 18.1149 45.2535 18.3257 44.6687 18.3257C44.0838 18.3257 43.616 18.1149 43.616 17.8514V12.9497C43.616 12.6862 43.1481 12.4753 42.5633 12.4753C42.0954 12.4753 41.6275 12.6862 41.6275 12.9497V13.9511C41.6275 14.2146 41.1596 14.4255 40.5748 14.4255C39.99 14.4255 39.5221 14.2146 39.5221 13.9511V12.897L37.7676 12.1064L45.2535 8.7859L57.3012 14.2674L69.4659 8.7859L76.8348 12.1064L75.1973 12.897V13.9511C75.1973 14.2146 74.7294 14.4255 74.1446 14.4255C73.5597 14.4255 73.0919 14.2146 73.0919 13.9511V12.9497C73.0919 12.6862 72.624 12.4753 72.0391 12.4753C71.4543 12.4753 70.9864 12.6862 70.9864 12.9497V17.8514C70.9864 18.1149 70.5186 18.3257 69.9337 18.3257C69.4659 18.3257 68.998 18.1149 68.998 17.8514V14.0038C68.998 13.7403 68.5301 13.5295 67.9453 13.5295C67.3604 13.5295 66.8926 13.7403 66.8926 14.0038V17.0081C66.8926 17.2716 66.4247 17.4824 65.8399 17.4824C65.255 17.4824 64.7871 17.2716 64.7871 17.0081V16.0067C64.7871 15.7431 64.3193 15.5323 63.7344 15.5323C63.1496 15.5323 62.6817 15.7431 62.6817 16.0067V18.0095C62.6817 18.273 62.2138 18.4839 61.746 18.4839C61.1611 18.4839 60.6933 18.273 60.6933 18.0095V17.9041H60.5763V17.746H60.4593V17.6933H60.3424V17.6406H60.2254V17.5879H59.9915V17.5351H59.1727V17.5879H59.0557V17.6406H58.8218V17.746H58.7048V17.8514H58.5878V20.3813L57.3012 20.9083L56.1315 20.3813V17.9041H56.0146V17.746H55.8976V17.6933H55.7806V17.6406H55.6637V17.5879H55.4297V17.5351H54.6109V17.5879H54.494L54.377 17.6406H54.26V17.746H54.1431V17.7987L54.0261 17.8514V18.0095ZM60.6985 19.3272C60.6985 19.0637 61.1664 18.8528 61.7512 18.8528C62.2191 18.8528 62.687 19.0637 62.687 19.3272V19.3799C62.687 19.6434 62.2191 19.8543 61.7512 19.8543C61.1664 19.8543 60.6985 19.6434 60.6985 19.3799V19.3272ZM54.0313 19.3272C54.0313 19.0637 53.5635 18.8528 52.9786 18.8528C52.3938 18.8528 51.9259 19.0637 51.9259 19.3272V19.3799C51.9259 19.6434 52.3938 19.8543 52.9786 19.8543C53.5635 19.8543 54.0313 19.6434 54.0313 19.3799V19.3272ZM73.0971 15.3742C73.0971 15.1107 73.565 14.8999 74.1498 14.8999C74.7346 14.8999 75.2025 15.1107 75.2025 15.3742V16.0594C75.2025 16.3229 74.7346 16.5338 74.1498 16.5338C73.565 16.5338 73.0971 16.3229 73.0971 16.0594V15.3742ZM41.6328 15.3742C41.6328 15.1107 41.1649 14.8999 40.5801 14.8999C39.9952 14.8999 39.5273 15.1107 39.5273 15.3742V16.0594C39.5273 16.3229 39.9952 16.5338 40.5801 16.5338C41.1649 16.5338 41.6328 16.3229 41.6328 16.0594V15.3742ZM64.9094 6.73038L57.3064 3.35718L49.8205 6.73038L57.3064 10.1563L64.9094 6.73038ZM32.081 50.4646C32.081 50.7533 31.5684 50.9843 30.9277 50.9843C30.2869 50.9843 29.7743 50.7533 29.7743 50.4646V48.2702C29.7743 47.9814 29.2616 47.7505 28.6209 47.7505C27.9801 47.7505 27.4675 47.9814 27.4675 48.2702V49.3674C27.4675 49.6561 26.9549 49.8871 26.4422 49.8871C25.8015 49.8871 25.2889 49.6561 25.2889 49.3674V46.0758C25.2889 45.7871 24.7762 45.5561 24.1355 45.5561C23.4947 45.5561 22.9821 45.7871 22.9821 46.0758V50.2913C22.9821 50.5801 22.4695 50.8111 21.8287 50.8111C21.1879 50.8111 20.6753 50.5801 20.6753 50.2913V44.9209C20.6753 44.6321 20.1627 44.4011 19.5219 44.4011C19.0093 44.4011 18.4967 44.6321 18.4967 44.9209V46.018C18.4967 46.3068 17.9841 46.5378 17.3433 46.5378C16.7025 46.5378 16.1899 46.3068 16.1899 46.018V44.8631L14.2676 43.9969L22.4695 40.3588L35.6694 46.3645L48.9974 40.3588L57.0711 43.9969L55.277 44.8631V46.018C55.277 46.3068 54.7644 46.5378 54.1236 46.5378C53.4828 46.5378 52.9702 46.3068 52.9702 46.018V44.9209C52.9702 44.6321 52.4576 44.4011 51.8168 44.4011C51.176 44.4011 50.6634 44.6321 50.6634 44.9209V50.2913C50.6634 50.5801 50.1508 50.8111 49.51 50.8111C48.9974 50.8111 48.4848 50.5801 48.4848 50.2913V46.0758C48.4848 45.7871 47.9722 45.5561 47.3314 45.5561C46.6906 45.5561 46.178 45.7871 46.178 46.0758V49.3674C46.178 49.6561 45.6654 49.8871 45.0246 49.8871C44.3839 49.8871 43.8712 49.6561 43.8712 49.3674V48.2702C43.8712 47.9814 43.3586 47.7505 42.7179 47.7505C42.0771 47.7505 41.5645 47.9814 41.5645 48.2702V50.4646C41.5645 50.7533 41.0518 50.9843 40.5392 50.9843C39.8985 50.9843 39.3858 50.7533 39.3858 50.4646V50.3491H39.2577V50.1758H39.1295V50.1181H39.0014V50.0603H38.8732V50.0026H38.6169V49.9448H37.7198V50.0026H37.5917V50.0603H37.3354V50.1758H37.2072V50.2913H37.0791V53.0632L35.6694 53.6407L34.3878 53.0632V50.3491H34.2597V50.1758H34.1315V50.1181H34.0034V50.0603H33.8752V50.0026H33.6189V49.9448H32.7218V50.0026H32.5937L32.4655 50.0603H32.3373V50.1758H32.2092V50.2336L32.081 50.2913V50.4646ZM39.3913 51.9082C39.3913 51.6195 39.9039 51.3885 40.5446 51.3885C41.0573 51.3885 41.5699 51.6195 41.5699 51.9082V51.966C41.5699 52.2547 41.0573 52.4857 40.5446 52.4857C39.9039 52.4857 39.3913 52.2547 39.3913 51.966V51.9082ZM32.0865 51.9082C32.0865 51.6195 31.5738 51.3885 30.9331 51.3885C30.2923 51.3885 29.7797 51.6195 29.7797 51.9082V51.966C29.7797 52.2547 30.2923 52.4857 30.9331 52.4857C31.5738 52.4857 32.0865 52.2547 32.0865 51.966V51.9082ZM52.9756 47.5772C52.9756 47.2885 53.4882 47.0575 54.129 47.0575C54.7698 47.0575 55.2824 47.2885 55.2824 47.5772V48.3279C55.2824 48.6167 54.7698 48.8477 54.129 48.8477C53.4882 48.8477 52.9756 48.6167 52.9756 48.3279V47.5772ZM18.5021 47.5772C18.5021 47.2885 17.9895 47.0575 17.3487 47.0575C16.7079 47.0575 16.1953 47.2885 16.1953 47.5772V48.3279C16.1953 48.6167 16.7079 48.8477 17.3487 48.8477C17.9895 48.8477 18.5021 48.6167 18.5021 48.3279V47.5772ZM44.0048 38.1067L35.6748 34.4109L27.4729 38.1067L35.6748 41.8603L44.0048 38.1067Z" fill="white"/>
</svg>
