<svg width="106" height="93" viewBox="0 0 106 93" fill="none" xmlns="http://www.w3.org/2000/svg">
<path fill-rule="evenodd" clip-rule="evenodd" d="M39.8703 77.0411C39.3312 75.9657 38.3919 75.8568 38.0117 75.8568C37.6316 75.8568 36.6923 75.9639 36.1806 76.9811L34.7789 79.7675C33.6148 82.0888 30.2047 81.8327 29.3915 79.3878L26.3158 70.2205L24.3769 76.0112C23.3005 79.2189 20.2869 81.375 16.8842 81.375H14.6199C13.0044 81.375 11.6959 80.0745 11.6959 78.4688C11.6959 76.863 13.0044 75.5625 14.6199 75.5625H16.8842C17.7668 75.5625 18.549 75.003 18.8286 74.1711L22.1528 64.2463C22.7559 62.4644 24.4262 61.2656 26.3158 61.2656C28.2054 61.2656 29.8758 62.4626 30.477 64.2463L33.0136 71.8098C36.6228 68.869 42.893 70.0479 45.075 74.3818C45.4204 75.0684 46.0783 75.4626 46.7855 75.5189V60.6026L70.1773 37.5179V29.0625H45.3217C42.9094 29.0625 40.9357 27.1008 40.9357 24.7031V0H4.38597C1.95541 0 0 1.94355 0 4.35938V88.6406C0 91.0564 1.95541 93 4.38597 93H65.7895C68.2201 93 70.1755 91.0564 70.1755 88.6406V81.375L46.7837 81.355C43.8378 81.2987 41.1952 79.6694 39.8703 77.0411ZM70.1755 22.142C70.1755 20.9977 69.7186 19.8896 68.8963 19.0723L51.0052 1.27148C50.1828 0.454102 49.068 0 47.8984 0H46.7837V23.25H70.1755V22.142ZM52.6316 63.022V75.5625H65.2395L94.7863 45.995L82.3813 33.6653L52.6316 63.022ZM103.9 30.3939L98.0758 24.605C96.2592 22.7995 93.3115 22.7995 91.495 24.605L86.5151 29.5547L98.9201 41.8845L103.9 36.9348C105.718 35.1293 105.718 32.1994 103.9 30.3939ZM24.6404 50.2492C24.6404 50.6475 24.3283 50.9662 23.9382 50.9662C23.5481 50.9662 23.236 50.6475 23.236 50.2492V47.2222C23.236 46.8239 22.9239 46.5053 22.5338 46.5053C22.1436 46.5053 21.8315 46.8239 21.8315 47.2222V48.7357C21.8315 49.134 21.5194 49.4526 21.2073 49.4526C20.8172 49.4526 20.5051 49.134 20.5051 48.7357V44.1951C20.5051 43.7969 20.193 43.4782 19.8029 43.4782C19.4127 43.4782 19.1006 43.7969 19.1006 44.1951V50.0102C19.1006 50.4085 18.7885 50.7272 18.3984 50.7272C18.0083 50.7272 17.6962 50.4085 17.6962 50.0102V42.602C17.6962 42.2037 17.3841 41.885 16.994 41.885C16.6819 41.885 16.3698 42.2037 16.3698 42.602V44.1155C16.3698 44.5138 16.0577 44.8324 15.6675 44.8324C15.2774 44.8324 14.9653 44.5138 14.9653 44.1155V42.5223L13.7949 41.3274L18.7885 36.3089L26.8251 44.5934L34.9398 36.3089L39.8554 41.3274L38.763 42.5223V44.1155C38.763 44.5138 38.4509 44.8324 38.0608 44.8324C37.6707 44.8324 37.3586 44.5138 37.3586 44.1155V42.602C37.3586 42.2037 37.0465 41.885 36.6563 41.885C36.2662 41.885 35.9541 42.2037 35.9541 42.602V50.0102C35.9541 50.4085 35.642 50.7272 35.2519 50.7272C34.9398 50.7272 34.6277 50.4085 34.6277 50.0102V44.1951C34.6277 43.7969 34.3156 43.4782 33.9254 43.4782C33.5353 43.4782 33.2232 43.7969 33.2232 44.1951V48.7357C33.2232 49.134 32.9111 49.4526 32.521 49.4526C32.1309 49.4526 31.8188 49.134 31.8188 48.7357V47.2222C31.8188 46.8239 31.5067 46.5053 31.1165 46.5053C30.7264 46.5053 30.4143 46.8239 30.4143 47.2222V50.2492C30.4143 50.6475 30.1022 50.9662 29.7901 50.9662C29.4 50.9662 29.0879 50.6475 29.0879 50.2492V50.0899H29.0098V49.8509H28.9318V49.7713H28.8538V49.6916H28.7758V49.612H28.6197V49.5323H28.0735V49.612H27.9955V49.6916H27.8395V49.8509H27.7614V50.0102H27.6834V53.8339L26.8251 54.6305L26.0449 53.8339V50.0899H25.9669V49.8509H25.8888V49.7713H25.8108V49.6916H25.7328V49.612H25.5767V49.5323H25.0306V49.612H24.9525L24.8745 49.6916H24.7965V49.8509H24.7185V49.9306L24.6404 50.0102V50.2492ZM29.0913 52.2406C29.0913 51.8423 29.4034 51.5237 29.7936 51.5237C30.1057 51.5237 30.4178 51.8423 30.4178 52.2406V52.3203C30.4178 52.7186 30.1057 53.0372 29.7936 53.0372C29.4034 53.0372 29.0913 52.7186 29.0913 52.3203V52.2406ZM24.6439 52.2406C24.6439 51.8423 24.3318 51.5237 23.9417 51.5237C23.5515 51.5237 23.2394 51.8423 23.2394 52.2406V52.3203C23.2394 52.7186 23.5515 53.0372 23.9417 53.0372C24.3318 53.0372 24.6439 52.7186 24.6439 52.3203V52.2406ZM37.362 46.2662C37.362 45.8679 37.6741 45.5493 38.0642 45.5493C38.4544 45.5493 38.7665 45.8679 38.7665 46.2662V47.3018C38.7665 47.7001 38.4544 48.0187 38.0642 48.0187C37.6741 48.0187 37.362 47.7001 37.362 47.3018V46.2662ZM16.3732 46.2662C16.3732 45.8679 16.0611 45.5493 15.671 45.5493C15.2809 45.5493 14.9688 45.8679 14.9688 46.2662V47.3018C14.9688 47.7001 15.2809 48.0187 15.671 48.0187C16.0611 48.0187 16.3732 47.7001 16.3732 47.3018V46.2662ZM31.9002 33.2022L26.8286 28.104L21.835 33.2022L26.8286 38.38L31.9002 33.2022Z" fill="white"/>
</svg>
