<svg width="165" height="187" viewBox="0 0 165 187" fill="none" xmlns="http://www.w3.org/2000/svg">
<mask id="path-1-inside-1_159_3369" fill="white">
<path fill-rule="evenodd" clip-rule="evenodd" d="M98.4623 40.6031C104.591 33.1596 111.508 25.749 119.168 18.7C145.856 43.2657 165 83.394 165 102.85C165 149.326 128.063 187 82.5 187C36.9372 187 0 149.326 0 102.85C0 76.6846 25.6855 33.2984 61.875 0C75.9737 12.9768 88.4223 26.8886 98.4623 40.6031ZM132 83.7945V88.5003L125.569 90.0469L125.083 92.7202L129.702 96.8737L127.426 101.314L121.061 99.3702L119.338 101.16L121.282 107.346L116.774 110.019L112.2 105.247L109.637 106.02L108.156 112.383L103.162 112.317L101.681 106.02L99.1179 105.38L94.8308 109.887L90.4333 107.324L92.2232 101.381L90.6321 99.4807L84.0911 101.138L81.7929 97.0504L86.2346 92.6539L85.7042 89.9806L79.34 88.3236L79.4062 83.5293L85.7042 81.8061L86.3451 79.5084L81.7708 74.8688L84.2016 70.649L90.4996 72.306L92.2895 70.4501L90.4996 64.3303L94.7866 61.9L99.14 66.5396L101.814 65.8326L103.184 60H108.178L109.725 65.8326L112.09 66.5396L116.796 61.9L121.017 64.4628L119.36 70.6931L120.951 72.3501L127.359 70.6931L129.658 74.9792L125.216 79.5526L125.702 81.8503L132 83.7945ZM93.1071 85.9375C93.1071 92.8748 98.7422 98.4865 105.659 98.4865C112.598 98.4865 118.211 92.8969 118.211 85.9375C118.211 79.0002 112.598 73.3885 105.659 73.3885C98.7201 73.3885 93.1071 79.0002 93.1071 85.9375ZM132 105.313L121.636 102.11L123.139 106.794L123.581 108.23L122.299 109.003L117.791 111.676L116.509 112.427L115.471 111.345L111.692 107.412L111.272 107.545L110.034 112.847L109.681 114.327L108.156 114.305L105.239 114.261C102.919 124.733 93.5933 132.554 82.4337 132.554C69.5284 132.554 59.0759 122.082 59.0759 109.202C59.0759 98.0004 66.9871 88.6329 77.4837 86.3352L77.5279 83.4852L77.55 82.0712L78.9201 81.6956L84.1795 80.2595L84.2458 80.0386L80.4449 76.1944L79.4284 75.1781L80.1576 73.9409L82.5884 69.721L83.3176 68.4617L84.7098 68.8373L89.704 70.1408L87.1406 60H77.771L75.2076 71.4885L70.1913 72.8362L62.0592 64.1314L54.0154 68.7048L57.3743 80.1933L54.0154 83.6619L42.1708 80.5468L37.5964 88.4561L46.1926 97.1609L44.933 101.513L33.1105 104.761L33 113.797L44.933 116.912L45.9938 121.95L37.6185 130.212L41.9719 137.901L54.2364 134.786L57.2638 138.343L53.9049 149.5L62.1696 154.294L70.2134 145.81L75.0087 147.048L77.7931 158.89L87.1627 159L89.9471 147.07L94.7424 145.611L103.339 154.559L111.802 149.544L108.112 137.945L111.338 134.587L123.271 138.277L127.514 129.903L118.918 122.104L119.824 117.089L132 114.129V105.313Z"/>
</mask>
<path fill-rule="evenodd" clip-rule="evenodd" d="M98.4623 40.6031C104.591 33.1596 111.508 25.749 119.168 18.7C145.856 43.2657 165 83.394 165 102.85C165 149.326 128.063 187 82.5 187C36.9372 187 0 149.326 0 102.85C0 76.6846 25.6855 33.2984 61.875 0C75.9737 12.9768 88.4223 26.8886 98.4623 40.6031ZM132 83.7945V88.5003L125.569 90.0469L125.083 92.7202L129.702 96.8737L127.426 101.314L121.061 99.3702L119.338 101.16L121.282 107.346L116.774 110.019L112.2 105.247L109.637 106.02L108.156 112.383L103.162 112.317L101.681 106.02L99.1179 105.38L94.8308 109.887L90.4333 107.324L92.2232 101.381L90.6321 99.4807L84.0911 101.138L81.7929 97.0504L86.2346 92.6539L85.7042 89.9806L79.34 88.3236L79.4062 83.5293L85.7042 81.8061L86.3451 79.5084L81.7708 74.8688L84.2016 70.649L90.4996 72.306L92.2895 70.4501L90.4996 64.3303L94.7866 61.9L99.14 66.5396L101.814 65.8326L103.184 60H108.178L109.725 65.8326L112.09 66.5396L116.796 61.9L121.017 64.4628L119.36 70.6931L120.951 72.3501L127.359 70.6931L129.658 74.9792L125.216 79.5526L125.702 81.8503L132 83.7945ZM93.1071 85.9375C93.1071 92.8748 98.7422 98.4865 105.659 98.4865C112.598 98.4865 118.211 92.8969 118.211 85.9375C118.211 79.0002 112.598 73.3885 105.659 73.3885C98.7201 73.3885 93.1071 79.0002 93.1071 85.9375ZM132 105.313L121.636 102.11L123.139 106.794L123.581 108.23L122.299 109.003L117.791 111.676L116.509 112.427L115.471 111.345L111.692 107.412L111.272 107.545L110.034 112.847L109.681 114.327L108.156 114.305L105.239 114.261C102.919 124.733 93.5933 132.554 82.4337 132.554C69.5284 132.554 59.0759 122.082 59.0759 109.202C59.0759 98.0004 66.9871 88.6329 77.4837 86.3352L77.5279 83.4852L77.55 82.0712L78.9201 81.6956L84.1795 80.2595L84.2458 80.0386L80.4449 76.1944L79.4284 75.1781L80.1576 73.9409L82.5884 69.721L83.3176 68.4617L84.7098 68.8373L89.704 70.1408L87.1406 60H77.771L75.2076 71.4885L70.1913 72.8362L62.0592 64.1314L54.0154 68.7048L57.3743 80.1933L54.0154 83.6619L42.1708 80.5468L37.5964 88.4561L46.1926 97.1609L44.933 101.513L33.1105 104.761L33 113.797L44.933 116.912L45.9938 121.95L37.6185 130.212L41.9719 137.901L54.2364 134.786L57.2638 138.343L53.9049 149.5L62.1696 154.294L70.2134 145.81L75.0087 147.048L77.7931 158.89L87.1627 159L89.9471 147.07L94.7424 145.611L103.339 154.559L111.802 149.544L108.112 137.945L111.338 134.587L123.271 138.277L127.514 129.903L118.918 122.104L119.824 117.089L132 114.129V105.313Z" fill="url(#paint0_linear_159_3369)"/>
<path d="M119.168 18.7L121.2 16.4928L119.169 14.6229L117.137 16.4924L119.168 18.7ZM98.4623 40.6031L96.0416 42.3752L98.3232 45.4918L100.778 42.51L98.4623 40.6031ZM61.875 0L63.9067 -2.20732L61.8753 -4.07702L59.8437 -2.20767L61.875 0ZM132 88.5003L132.701 91.4172L135 90.8644V88.5003H132ZM132 83.7945H135V81.5809L132.885 80.9279L132 83.7945ZM125.569 90.0469L124.868 87.13L122.968 87.5871L122.618 89.5101L125.569 90.0469ZM125.083 92.7202L122.132 92.1834L121.832 93.831L123.077 94.9508L125.083 92.7202ZM129.702 96.8737L132.372 98.2421L133.425 96.1871L131.708 94.6431L129.702 96.8737ZM127.426 101.314L126.549 104.184L128.95 104.917L130.095 102.683L127.426 101.314ZM121.061 99.3702L121.938 96.5011L120.178 95.9634L118.901 97.2891L121.061 99.3702ZM119.338 101.16L117.177 99.0786L115.942 100.361L116.476 102.059L119.338 101.16ZM121.282 107.346L122.813 109.926L124.857 108.714L124.144 106.446L121.282 107.346ZM116.774 110.019L114.609 112.095L116.256 113.814L118.305 112.6L116.774 110.019ZM112.2 105.247L114.366 103.171L113.094 101.844L111.334 102.375L112.2 105.247ZM109.637 106.02L108.77 103.148L107.108 103.65L106.715 105.34L109.637 106.02ZM108.156 112.383L108.116 115.383L110.531 115.415L111.078 113.063L108.156 112.383ZM103.162 112.317L100.241 113.004L100.778 115.286L103.122 115.317L103.162 112.317ZM101.681 106.02L104.602 105.334L104.183 103.553L102.409 103.11L101.681 106.02ZM99.1179 105.38L99.8453 102.469L98.1491 102.045L96.9442 103.312L99.1179 105.38ZM94.8308 109.887L93.3203 112.479L95.3697 113.673L97.0045 111.954L94.8308 109.887ZM90.4333 107.324L87.5607 106.459L86.8783 108.724L88.9227 109.916L90.4333 107.324ZM92.2232 101.381L95.0958 102.246L95.5626 100.696L94.5233 99.4547L92.2232 101.381ZM90.6321 99.4807L92.9322 97.5546L91.7223 96.1098L89.8954 96.5726L90.6321 99.4807ZM84.0911 101.138L81.4761 102.608L82.6016 104.61L84.8278 104.046L84.0911 101.138ZM81.7929 97.0504L79.6824 94.9183L78.0569 96.5272L79.1779 98.5208L81.7929 97.0504ZM86.2346 92.6539L88.345 94.786L89.491 93.6517L89.1772 92.0701L86.2346 92.6539ZM85.7042 89.9806L88.6469 89.3968L88.2808 87.5514L86.4601 87.0774L85.7042 89.9806ZM79.34 88.3236L76.3402 88.2821L76.3077 90.6341L78.5841 91.2268L79.34 88.3236ZM79.4062 83.5293L78.6145 80.6357L76.4377 81.2313L76.4065 83.4879L79.4062 83.5293ZM85.7042 81.8061L86.496 84.6997L88.1369 84.2507L88.5939 82.612L85.7042 81.8061ZM86.3451 79.5084L89.2348 80.3143L89.7018 78.64L88.4814 77.4021L86.3451 79.5084ZM81.7708 74.8688L79.1712 73.3713L78.0317 75.3494L79.6345 76.975L81.7708 74.8688ZM84.2016 70.649L84.9649 67.7477L82.7468 67.1641L81.602 69.1515L84.2016 70.649ZM90.4996 72.306L89.7362 75.2072L91.4376 75.6548L92.6589 74.3886L90.4996 72.306ZM92.2895 70.4501L94.4488 72.5328L95.6577 71.2794L95.1689 69.608L92.2895 70.4501ZM90.4996 64.3303L89.0201 61.7205L86.9532 62.8921L87.6202 65.1724L90.4996 64.3303ZM94.7866 61.9L96.9743 59.8473L95.3598 58.1266L93.3071 59.2902L94.7866 61.9ZM99.14 66.5396L96.9522 68.5924L98.1767 69.8974L99.9068 69.4399L99.14 66.5396ZM101.814 65.8326L102.581 68.733L104.322 68.2725L104.734 66.5187L101.814 65.8326ZM103.184 60V57H100.807L100.263 59.314L103.184 60ZM108.178 60L111.078 59.231L110.486 57H108.178V60ZM109.725 65.8326L106.825 66.6017L107.256 68.2256L108.866 68.7069L109.725 65.8326ZM112.09 66.5396L111.23 69.4139L112.931 69.9225L114.195 68.6762L112.09 66.5396ZM116.796 61.9L118.353 59.3357L116.355 58.1224L114.69 59.7635L116.796 61.9ZM121.017 64.4628L123.916 65.2341L124.494 63.064L122.574 61.8985L121.017 64.4628ZM119.36 70.6931L116.461 69.9219L116.027 71.5533L117.196 72.771L119.36 70.6931ZM120.951 72.3501L118.787 74.428L120.003 75.694L121.702 75.2546L120.951 72.3501ZM127.359 70.6931L130.003 69.2755L128.89 67.1988L126.608 67.7887L127.359 70.6931ZM129.658 74.9792L131.81 77.0694L133.338 75.4954L132.301 73.5616L129.658 74.9792ZM125.216 79.5526L123.064 77.4624L121.95 78.6094L122.281 80.1736L125.216 79.5526ZM125.702 81.8503L122.767 82.4713L123.132 84.1966L124.817 84.7168L125.702 81.8503ZM121.636 102.11L122.522 99.2436L117.02 97.543L118.779 103.026L121.636 102.11ZM132 105.313H135V103.101L132.886 102.447L132 105.313ZM123.139 106.794L126.006 105.911L126.001 105.894L125.995 105.877L123.139 106.794ZM123.581 108.23L125.13 110.798L127.137 109.587L126.448 107.347L123.581 108.23ZM122.299 109.003L123.829 111.583L123.839 111.577L123.849 111.572L122.299 109.003ZM117.791 111.676L119.308 114.264L119.314 114.261L119.321 114.257L117.791 111.676ZM116.509 112.427L114.344 114.504L115.983 116.213L118.026 115.016L116.509 112.427ZM115.471 111.345L117.635 109.268L117.634 109.266L115.471 111.345ZM111.692 107.412L113.855 105.334L112.565 103.991L110.789 104.551L111.692 107.412ZM111.272 107.545L110.369 104.684L108.739 105.199L108.35 106.863L111.272 107.545ZM110.034 112.847L112.952 113.544L112.954 113.537L112.956 113.529L110.034 112.847ZM109.681 114.327L109.637 117.327L112.04 117.362L112.599 115.024L109.681 114.327ZM108.156 114.305L108.111 117.305L108.113 117.305L108.156 114.305ZM105.239 114.261L105.284 111.261L102.839 111.224L102.31 113.612L105.239 114.261ZM77.4837 86.3352L78.1252 89.2658L80.4465 88.7577L80.4833 86.3817L77.4837 86.3352ZM77.5279 83.4852L74.5283 83.4383L74.5283 83.4386L77.5279 83.4852ZM77.55 82.0712L76.7569 79.1779L74.5856 79.7732L74.5504 82.0243L77.55 82.0712ZM78.9201 81.6956L78.1299 78.8015L78.127 78.8023L78.9201 81.6956ZM84.1795 80.2595L84.9697 83.1536L86.5747 82.7153L87.0529 81.1217L84.1795 80.2595ZM84.2458 80.0386L87.1192 80.9008L87.6309 79.1954L86.3791 77.9293L84.2458 80.0386ZM80.4449 76.1944L82.5782 74.0851L82.5721 74.0789L82.5659 74.0728L80.4449 76.1944ZM79.4284 75.1781L76.8439 73.6548L75.6639 75.6567L77.3073 77.2996L79.4284 75.1781ZM80.1576 73.9409L82.7421 75.4642L82.7497 75.4513L82.7571 75.4383L80.1576 73.9409ZM82.5884 69.721L79.9923 68.2177L79.9888 68.2236L82.5884 69.721ZM83.3176 68.4617L84.099 65.5653L81.8756 64.9654L80.7215 66.9584L83.3176 68.4617ZM84.7098 68.8373L83.9284 71.7338L83.9403 71.737L83.9522 71.7401L84.7098 68.8373ZM89.704 70.1408L88.9464 73.0436L93.8561 74.325L92.6125 69.4056L89.704 70.1408ZM87.1406 60L90.0491 59.2648L89.4766 57H87.1406V60ZM77.771 60V57H75.3666L74.843 59.3467L77.771 60ZM75.2076 71.4885L75.986 74.3858L77.7401 73.9145L78.1356 72.1418L75.2076 71.4885ZM70.1913 72.8362L67.9991 74.8842L69.2293 76.201L70.9697 75.7335L70.1913 72.8362ZM62.0592 64.1314L64.2514 62.0835L62.6349 60.3531L60.5764 61.5235L62.0592 64.1314ZM54.0154 68.7048L52.5326 66.0968L50.4702 67.2694L51.136 69.5466L54.0154 68.7048ZM57.3743 80.1933L59.5295 82.2802L60.7435 81.0265L60.2538 79.3514L57.3743 80.1933ZM54.0154 83.6619L53.2523 86.5632L54.9496 87.0096L56.1705 85.7489L54.0154 83.6619ZM42.1708 80.5468L42.9338 77.6454L40.7199 77.0631L39.5738 79.0448L42.1708 80.5468ZM37.5964 88.4561L34.9995 86.9542L33.8536 88.9355L35.4618 90.5641L37.5964 88.4561ZM46.1926 97.1609L49.0744 97.9949L49.5635 96.3048L48.3272 95.0529L46.1926 97.1609ZM44.933 101.513L45.7277 104.406L47.3477 103.961L47.8148 102.347L44.933 101.513ZM33.1105 104.761L32.3158 101.868L30.1383 102.466L30.1107 104.724L33.1105 104.761ZM33 113.797L30.0002 113.76L29.9715 116.107L32.2422 116.7L33 113.797ZM44.933 116.912L47.8687 116.294L47.4863 114.478L45.6908 114.01L44.933 116.912ZM45.9938 121.95L48.1007 124.085L49.267 122.935L48.9294 121.331L45.9938 121.95ZM37.6185 130.212L35.5116 128.077L33.8757 129.691L35.008 131.691L37.6185 130.212ZM41.9719 137.901L39.3613 139.379L40.4901 141.373L42.7104 140.809L41.9719 137.901ZM54.2364 134.786L56.5209 132.841L55.3095 131.418L53.4978 131.878L54.2364 134.786ZM57.2638 138.343L60.1365 139.208L60.6076 137.643L59.5484 136.398L57.2638 138.343ZM53.9049 149.5L51.0323 148.635L50.3488 150.905L52.3996 152.095L53.9049 149.5ZM62.1696 154.294L60.6643 156.889L62.7153 158.079L64.3467 156.358L62.1696 154.294ZM70.2134 145.81L70.9629 142.905L69.252 142.464L68.0364 143.746L70.2134 145.81ZM75.0087 147.048L77.9291 146.361L77.514 144.596L75.7582 144.143L75.0087 147.048ZM77.7931 158.89L74.8727 159.576L75.4101 161.862L77.7577 161.889L77.7931 158.89ZM87.1627 159L87.1274 162L89.5366 162.028L90.0842 159.682L87.1627 159ZM89.9471 147.07L89.0743 144.199L87.4189 144.703L87.0256 146.388L89.9471 147.07ZM94.7424 145.611L96.9058 143.533L95.6306 142.206L93.8696 142.741L94.7424 145.611ZM103.339 154.559L101.175 156.638L102.822 158.352L104.868 157.14L103.339 154.559ZM111.802 149.544L113.332 152.125L115.385 150.908L114.661 148.634L111.802 149.544ZM108.112 137.945L105.948 135.867L104.712 137.154L105.253 138.855L108.112 137.945ZM111.338 134.587L112.224 131.721L110.457 131.174L109.175 132.508L111.338 134.587ZM123.271 138.277L122.385 141.143L124.803 141.89L125.947 139.632L123.271 138.277ZM127.514 129.903L130.19 131.259L131.224 129.218L129.53 127.681L127.514 129.903ZM118.918 122.104L115.966 121.571L115.67 123.208L116.902 124.326L118.918 122.104ZM119.824 117.089L119.115 114.174L117.219 114.635L116.872 116.556L119.824 117.089ZM132 114.129L132.709 117.044L135 116.487V114.129H132ZM117.137 16.4924C109.368 23.6408 102.357 31.1529 96.1463 38.6962L100.778 42.51C106.825 35.1663 113.647 27.8573 121.2 20.9076L117.137 16.4924ZM168 102.85C168 92.3906 162.944 76.9728 154.75 61.3011C146.505 45.5307 134.851 29.0585 121.2 16.4928L117.137 20.9072C130.173 32.9072 141.435 48.7819 149.433 64.0811C157.484 79.479 162 93.8534 162 102.85H168ZM82.5 190C129.775 190 168 150.927 168 102.85H162C162 147.725 126.35 184 82.5 184V190ZM-3 102.85C-3 150.927 35.2246 190 82.5 190V184C38.6497 184 3 147.725 3 102.85H-3ZM59.8437 -2.20767C41.5452 14.629 25.8911 34.0228 14.7925 52.5587C3.75144 70.9987 -3 88.9542 -3 102.85H3C3 90.5804 9.0913 73.7601 19.9403 55.641C30.7319 37.6179 46.0153 18.6694 63.9063 2.20767L59.8437 -2.20767ZM100.883 38.831C90.7204 24.949 78.1393 10.8928 63.9067 -2.20732L59.8433 2.20732C73.808 15.0608 86.1243 28.8281 96.0416 42.3752L100.883 38.831ZM135 88.5003V83.7945H129V88.5003H135ZM126.271 92.9637L132.701 91.4172L131.299 85.5835L124.868 87.13L126.271 92.9637ZM128.035 93.2569L128.521 90.5836L122.618 89.5101L122.132 92.1834L128.035 93.2569ZM131.708 94.6431L127.089 90.4895L123.077 94.9508L127.696 99.1043L131.708 94.6431ZM130.095 102.683L132.372 98.2421L127.032 95.5053L124.756 99.946L130.095 102.683ZM120.185 102.239L126.549 104.184L128.302 98.4453L121.938 96.5011L120.185 102.239ZM121.498 103.241L123.222 101.451L118.901 97.2891L117.177 99.0786L121.498 103.241ZM124.144 106.446L122.2 100.26L116.476 102.059L118.42 108.246L124.144 106.446ZM118.305 112.6L122.813 109.926L119.752 104.766L115.244 107.439L118.305 112.6ZM110.034 107.323L114.609 112.095L118.94 107.943L114.366 103.171L110.034 107.323ZM110.503 108.892L113.066 108.119L111.334 102.375L108.77 103.148L110.503 108.892ZM111.078 113.063L112.559 106.7L106.715 105.34L105.234 111.703L111.078 113.063ZM103.122 115.317L108.116 115.383L108.196 109.383L103.202 109.317L103.122 115.317ZM98.7609 106.707L100.241 113.004L106.082 111.63L104.602 105.334L98.7609 106.707ZM98.3904 108.29L100.954 108.931L102.409 103.11L99.8453 102.469L98.3904 108.29ZM97.0045 111.954L101.292 107.447L96.9442 103.312L92.6571 107.819L97.0045 111.954ZM88.9227 109.916L93.3203 112.479L96.3414 107.295L91.9438 104.732L88.9227 109.916ZM89.3507 100.516L87.5607 106.459L93.3058 108.189L95.0958 102.246L89.3507 100.516ZM88.3321 101.407L89.9231 103.307L94.5233 99.4547L92.9322 97.5546L88.3321 101.407ZM84.8278 104.046L91.3688 102.389L89.8954 96.5726L83.3544 98.2296L84.8278 104.046ZM79.1779 98.5208L81.4761 102.608L86.706 99.6673L84.4078 95.5801L79.1779 98.5208ZM84.1241 90.5217L79.6824 94.9183L83.9033 99.1826L88.345 94.786L84.1241 90.5217ZM82.7616 90.5644L83.2919 93.2377L89.1772 92.0701L88.6469 89.3968L82.7616 90.5644ZM78.5841 91.2268L84.9484 92.8838L86.4601 87.0774L80.0958 85.4204L78.5841 91.2268ZM76.4065 83.4879L76.3402 88.2821L82.3397 88.3651L82.406 83.5708L76.4065 83.4879ZM84.9125 78.9124L78.6145 80.6357L80.198 86.423L86.496 84.6997L84.9125 78.9124ZM83.4554 78.7024L82.8145 81.0001L88.5939 82.612L89.2348 80.3143L83.4554 78.7024ZM79.6345 76.975L84.2088 81.6146L88.4814 77.4021L83.9071 72.7625L79.6345 76.975ZM81.602 69.1515L79.1712 73.3713L84.3703 76.3662L86.8011 72.1464L81.602 69.1515ZM91.2629 69.4047L84.9649 67.7477L83.4382 73.5502L89.7362 75.2072L91.2629 69.4047ZM90.1302 68.3675L88.3403 70.2233L92.6589 74.3886L94.4488 72.5328L90.1302 68.3675ZM87.6202 65.1724L89.4101 71.2923L95.1689 69.608L93.3789 63.4881L87.6202 65.1724ZM93.3071 59.2902L89.0201 61.7205L91.979 66.9401L96.2661 64.5098L93.3071 59.2902ZM101.328 64.4869L96.9743 59.8473L92.5989 63.9528L96.9522 68.5924L101.328 64.4869ZM101.047 62.9323L98.3731 63.6393L99.9068 69.4399L102.581 68.733L101.047 62.9323ZM100.263 59.314L98.8933 65.1466L104.734 66.5187L106.104 60.686L100.263 59.314ZM108.178 57H103.184V63H108.178V57ZM112.625 65.0636L111.078 59.231L105.278 60.769L106.825 66.6017L112.625 65.0636ZM112.949 63.6653L110.584 62.9584L108.866 68.7069L111.23 69.4139L112.949 63.6653ZM114.69 59.7635L109.984 64.4031L114.195 68.6762L118.902 64.0366L114.69 59.7635ZM122.574 61.8985L118.353 59.3357L115.239 64.4643L119.46 67.0271L122.574 61.8985ZM122.259 71.4644L123.916 65.2341L118.118 63.6916L116.461 69.9219L122.259 71.4644ZM123.115 70.2723L121.524 68.6153L117.196 72.771L118.787 74.428L123.115 70.2723ZM126.608 67.7887L120.2 69.4457L121.702 75.2546L128.11 73.5976L126.608 67.7887ZM132.301 73.5616L130.003 69.2755L124.715 72.1108L127.014 76.3969L132.301 73.5616ZM127.368 81.6427L131.81 77.0694L127.506 72.8891L123.064 77.4624L127.368 81.6427ZM128.637 81.2292L128.151 78.9315L122.281 80.1736L122.767 82.4713L128.637 81.2292ZM132.885 80.9279L126.587 78.9837L124.817 84.7168L131.115 86.661L132.885 80.9279ZM105.659 95.4865C100.395 95.4865 96.1071 91.2139 96.1071 85.9375H90.1071C90.1071 94.5357 97.0894 101.486 105.659 101.486V95.4865ZM115.211 85.9375C115.211 91.236 110.945 95.4865 105.659 95.4865V101.486C114.251 101.486 121.211 94.5578 121.211 85.9375H115.211ZM105.659 76.3885C110.942 76.3885 115.211 80.6577 115.211 85.9375H121.211C121.211 77.3427 114.254 70.3885 105.659 70.3885V76.3885ZM96.1071 85.9375C96.1071 80.6577 100.376 76.3885 105.659 76.3885V70.3885C97.0639 70.3885 90.1071 77.3427 90.1071 85.9375H96.1071ZM120.75 104.976L131.114 108.18L132.886 102.447L122.522 99.2436L120.75 104.976ZM125.995 105.877L124.493 101.193L118.779 103.026L120.282 107.71L125.995 105.877ZM126.448 107.347L126.006 105.911L120.271 107.676L120.713 109.112L126.448 107.347ZM123.849 111.572L125.13 110.798L122.031 105.661L120.749 106.434L123.849 111.572ZM119.321 114.257L123.829 111.583L120.769 106.422L116.261 109.096L119.321 114.257ZM118.026 115.016L119.308 114.264L116.274 109.088L114.992 109.839L118.026 115.016ZM113.306 113.422L114.344 114.504L118.674 110.35L117.635 109.268L113.306 113.422ZM109.529 109.491L113.307 113.423L117.634 109.266L113.855 105.334L109.529 109.491ZM112.175 110.406L112.595 110.273L110.789 104.551L110.369 104.684L112.175 110.406ZM112.956 113.529L114.193 108.227L108.35 106.863L107.113 112.165L112.956 113.529ZM112.599 115.024L112.952 113.544L107.116 112.15L106.763 113.63L112.599 115.024ZM108.113 117.305L109.637 117.327L109.724 111.328L108.199 111.306L108.113 117.305ZM105.194 117.261L108.111 117.305L108.201 111.306L105.284 111.261L105.194 117.261ZM82.4337 135.554C95.0312 135.554 105.55 126.725 108.168 114.91L102.31 113.612C100.287 122.741 92.1554 129.554 82.4337 129.554V135.554ZM56.0759 109.202C56.0759 123.738 67.8703 135.554 82.4337 135.554V129.554C71.1864 129.554 62.0759 120.426 62.0759 109.202H56.0759ZM76.8422 83.4046C65.0041 85.9959 56.0759 96.5546 56.0759 109.202H62.0759C62.0759 99.4462 68.97 91.2699 78.1252 89.2658L76.8422 83.4046ZM74.5283 83.4386L74.4841 86.2887L80.4833 86.3817L80.5275 83.5317L74.5283 83.4386ZM74.5504 82.0243L74.5283 83.4383L80.5275 83.5321L80.5496 82.1181L74.5504 82.0243ZM78.127 78.8023L76.7569 79.1779L78.3431 84.9644L79.7132 84.5889L78.127 78.8023ZM83.3893 77.3655L78.1299 78.8015L79.7103 84.5897L84.9697 83.1536L83.3893 77.3655ZM81.3723 79.1764L81.306 79.3973L87.0529 81.1217L87.1192 80.9008L81.3723 79.1764ZM78.3116 78.3036L82.1124 82.1479L86.3791 77.9293L82.5782 74.0851L78.3116 78.3036ZM77.3073 77.2996L78.3238 78.3159L82.5659 74.0728L81.5494 73.0565L77.3073 77.2996ZM77.5731 72.4175L76.8439 73.6548L82.0128 76.7014L82.7421 75.4642L77.5731 72.4175ZM79.9888 68.2236L77.558 72.4434L82.7571 75.4383L85.1879 71.2185L79.9888 68.2236ZM80.7215 66.9584L79.9923 68.2177L85.1845 71.2244L85.9138 69.9651L80.7215 66.9584ZM85.4912 65.9409L84.099 65.5653L82.5362 71.3582L83.9284 71.7338L85.4912 65.9409ZM90.4616 67.2381L85.4675 65.9346L83.9522 71.7401L88.9464 73.0436L90.4616 67.2381ZM84.2321 60.7352L86.7955 70.876L92.6125 69.4056L90.0491 59.2648L84.2321 60.7352ZM77.771 63H87.1406V57H77.771V63ZM78.1356 72.1418L80.699 60.6533L74.843 59.3467L72.2796 70.8352L78.1356 72.1418ZM70.9697 75.7335L75.986 74.3858L74.4292 68.5912L69.4129 69.9389L70.9697 75.7335ZM59.867 66.1794L67.9991 74.8842L72.3835 70.7882L64.2514 62.0835L59.867 66.1794ZM55.4982 71.3127L63.5419 66.7394L60.5764 61.5235L52.5326 66.0968L55.4982 71.3127ZM60.2538 79.3514L56.8949 67.8629L51.136 69.5466L54.4949 81.0351L60.2538 79.3514ZM56.1705 85.7489L59.5295 82.2802L55.2192 78.1063L51.8603 81.5749L56.1705 85.7489ZM41.4077 83.4481L53.2523 86.5632L54.7785 80.7606L42.9338 77.6454L41.4077 83.4481ZM40.1934 89.9581L44.7677 82.0487L39.5738 79.0448L34.9995 86.9542L40.1934 89.9581ZM48.3272 95.0529L39.731 86.3482L35.4618 90.5641L44.058 99.2689L48.3272 95.0529ZM47.8148 102.347L49.0744 97.9949L43.3109 96.3269L42.0513 100.679L47.8148 102.347ZM33.9052 107.654L45.7277 104.406L44.1384 98.6204L32.3158 101.868L33.9052 107.654ZM35.9998 113.834L36.1103 104.798L30.1107 104.724L30.0002 113.76L35.9998 113.834ZM45.6908 114.01L33.7578 110.894L32.2422 116.7L44.1753 119.815L45.6908 114.01ZM48.9294 121.331L47.8687 116.294L41.9974 117.53L43.0581 122.568L48.9294 121.331ZM39.7255 132.348L48.1007 124.085L43.8868 119.814L35.5116 128.077L39.7255 132.348ZM44.5824 136.423L40.2291 128.734L35.008 131.691L39.3613 139.379L44.5824 136.423ZM53.4978 131.878L41.2333 134.993L42.7104 140.809L54.9749 137.693L53.4978 131.878ZM59.5484 136.398L56.5209 132.841L51.9518 136.73L54.9793 140.287L59.5484 136.398ZM56.7776 150.365L60.1365 139.208L54.3912 137.478L51.0323 148.635L56.7776 150.365ZM63.675 151.699L55.4102 146.905L52.3996 152.095L60.6643 156.889L63.675 151.699ZM68.0364 143.746L59.9926 152.23L64.3467 156.358L72.3904 147.874L68.0364 143.746ZM75.7582 144.143L70.9629 142.905L69.4639 148.715L74.2592 149.952L75.7582 144.143ZM80.7134 158.203L77.9291 146.361L72.0883 147.734L74.8727 159.576L80.7134 158.203ZM87.1981 156L77.8284 155.89L77.7577 161.889L87.1274 162L87.1981 156ZM87.0256 146.388L84.2412 158.318L90.0842 159.682L92.8686 147.751L87.0256 146.388ZM93.8696 142.741L89.0743 144.199L90.8199 149.94L95.6152 148.482L93.8696 142.741ZM105.502 152.481L96.9058 143.533L92.579 147.69L101.175 156.638L105.502 152.481ZM110.273 146.963L101.809 151.978L104.868 157.14L113.332 152.125L110.273 146.963ZM105.253 138.855L108.943 150.454L114.661 148.634L110.971 137.036L105.253 138.855ZM109.175 132.508L105.948 135.867L110.275 140.024L113.502 136.665L109.175 132.508ZM124.157 135.41L112.224 131.721L110.452 137.453L122.385 141.143L124.157 135.41ZM124.838 128.547L120.595 136.921L125.947 139.632L130.19 131.259L124.838 128.547ZM116.902 124.326L125.498 132.125L129.53 127.681L120.934 119.882L116.902 124.326ZM116.872 116.556L115.966 121.571L121.87 122.638L122.776 117.622L116.872 116.556ZM131.291 111.213L119.115 114.174L120.533 120.004L132.709 117.044L131.291 111.213ZM129 105.313V114.129H135V105.313H129Z" fill="#1AD7A0" mask="url(#path-1-inside-1_159_3369)"/>
<defs>
<linearGradient id="paint0_linear_159_3369" x1="82.5" y1="0" x2="82.5" y2="187" gradientUnits="userSpaceOnUse">
<stop offset="0.080777" stop-color="#29C3A2"/>
<stop offset="1" stop-color="#DC39FD"/>
</linearGradient>
</defs>
</svg>
