<svg width="85" height="93" viewBox="0 0 85 93" fill="none" xmlns="http://www.w3.org/2000/svg">
<path fill-rule="evenodd" clip-rule="evenodd" d="M84.376 71.9916L44.0079 92.1888C43.5318 92.3941 43.0191 92.5 42.501 92.5C41.9829 92.5 41.4703 92.3941 40.9942 92.1888L0.624011 71.9916C-0.197732 71.5786 -0.197732 70.9014 0.624011 70.4864L10.2918 65.659C10.7686 65.4537 11.282 65.3478 11.8007 65.3478C12.3195 65.3478 12.8328 65.4537 13.3097 65.659L40.9942 79.4927C41.47 79.6991 41.9828 79.8056 42.501 79.8056C43.0193 79.8056 43.5321 79.6991 44.0079 79.4927L71.6924 65.659C72.1688 65.4536 72.6819 65.3477 73.2003 65.3477C73.7187 65.3477 74.2317 65.4536 74.7082 65.659L84.376 70.4967C85.208 70.9014 85.208 71.5786 84.376 71.9916ZM84.376 43.8018L74.7082 38.9641C74.2317 38.7587 73.7187 38.6528 73.2003 38.6528C72.6819 38.6528 72.1688 38.7587 71.6924 38.9641L44.0079 52.8143C43.5316 53.0187 43.019 53.1241 42.501 53.1241C41.9831 53.1241 41.4705 53.0187 40.9942 52.8143L13.3097 38.9641C12.8328 38.7588 12.3195 38.6529 11.8007 38.6529C11.282 38.6529 10.7686 38.7588 10.2918 38.9641L0.624011 43.8018C-0.197732 44.2147 -0.197732 44.894 0.624011 45.3111L40.9942 65.5042C41.4703 65.7095 41.9829 65.8154 42.501 65.8154C43.0191 65.8154 43.5318 65.7095 44.0079 65.5042L84.376 45.3111C85.208 44.894 85.208 44.2168 84.376 43.8018ZM0.624011 20.3216L40.9921 38.9641C41.9607 39.3461 43.0372 39.3461 44.0058 38.9641L84.376 20.3216C85.1977 19.9376 85.1977 19.312 84.376 18.93L44.0058 0.289611C43.038 -0.0965371 41.9599 -0.0965371 40.9921 0.289611L0.624011 18.93C-0.208004 19.312 -0.208004 19.9376 0.624011 20.3216ZM40.751 27.7858C40.751 28.1806 40.4416 28.4965 40.0549 28.4965C39.6682 28.4965 39.3588 28.1806 39.3588 27.7858V24.7851C39.3588 24.3903 39.0494 24.0744 38.6627 24.0744C38.2759 24.0744 37.9666 24.3903 37.9666 24.7851V26.2854C37.9666 26.6803 37.6572 26.9961 37.3478 26.9961C36.9611 26.9961 36.6517 26.6803 36.6517 26.2854V21.7845C36.6517 21.3896 36.3423 21.0738 35.9556 21.0738C35.5689 21.0738 35.2595 21.3896 35.2595 21.7845V27.5489C35.2595 27.9437 34.9501 28.2596 34.5634 28.2596C34.1766 28.2596 33.8673 27.9437 33.8673 27.5489V20.2052C33.8673 19.8103 33.5579 19.4945 33.1712 19.4945C32.8618 19.4945 32.5524 19.8103 32.5524 20.2052V21.7055C32.5524 22.1003 32.243 22.4162 31.8563 22.4162C31.4696 22.4162 31.1602 22.1003 31.1602 21.7055V20.1262L30 18.9417L34.9501 13.967L42.9167 22.1793L50.9606 13.967L55.8333 18.9417L54.7505 20.1262V21.7055C54.7505 22.1003 54.4411 22.4162 54.0544 22.4162C53.6677 22.4162 53.3583 22.1003 53.3583 21.7055V20.2052C53.3583 19.8103 53.0489 19.4945 52.6622 19.4945C52.2754 19.4945 51.9661 19.8103 51.9661 20.2052V27.5489C51.9661 27.9437 51.6567 28.2596 51.27 28.2596C50.9606 28.2596 50.6512 27.9437 50.6512 27.5489V21.7845C50.6512 21.3896 50.3418 21.0738 49.9551 21.0738C49.5684 21.0738 49.259 21.3896 49.259 21.7845V26.2854C49.259 26.6803 48.9496 26.9961 48.5629 26.9961C48.1761 26.9961 47.8668 26.6803 47.8668 26.2854V24.7851C47.8668 24.3903 47.5574 24.0744 47.1707 24.0744C46.7839 24.0744 46.4745 24.3903 46.4745 24.7851V27.7858C46.4745 28.1806 46.1652 28.4965 45.8558 28.4965C45.4691 28.4965 45.1597 28.1806 45.1597 27.7858V27.6278H45.0823V27.391H45.005V27.312H44.9276V27.233H44.8503V27.1541H44.6956V27.0751H44.1542V27.1541H44.0768V27.233H43.9222V27.391H43.8448V27.5489H43.7675V31.3392L42.9167 32.1288L42.1432 31.3392V27.6278H42.0659V27.391H41.9885V27.312H41.9112V27.233H41.8338V27.1541H41.6791V27.0751H41.1377V27.1541H41.0604L40.983 27.233H40.9057V27.391H40.8283V27.4699L40.751 27.5489V27.7858ZM45.1636 29.7596C45.1636 29.3648 45.4729 29.0489 45.8597 29.0489C46.1691 29.0489 46.4784 29.3648 46.4784 29.7596V29.8386C46.4784 30.2334 46.1691 30.5493 45.8597 30.5493C45.4729 30.5493 45.1636 30.2334 45.1636 29.8386V29.7596ZM40.7549 29.7596C40.7549 29.3648 40.4455 29.0489 40.0588 29.0489C39.672 29.0489 39.3627 29.3648 39.3627 29.7596V29.8386C39.3627 30.2334 39.672 30.5493 40.0588 30.5493C40.4455 30.5493 40.7549 30.2334 40.7549 29.8386V29.7596ZM53.3622 23.8373C53.3622 23.4424 53.6715 23.1266 54.0583 23.1266C54.445 23.1266 54.7544 23.4424 54.7544 23.8373V24.8638C54.7544 25.2586 54.445 25.5745 54.0583 25.5745C53.6715 25.5745 53.3622 25.2586 53.3622 24.8638V23.8373ZM32.5563 23.8373C32.5563 23.4424 32.2469 23.1266 31.8602 23.1266C31.4734 23.1266 31.1641 23.4424 31.1641 23.8373V24.8638C31.1641 25.2586 31.4734 25.5745 31.8602 25.5745C32.2469 25.5745 32.5563 25.2586 32.5563 24.8638V23.8373ZM47.948 10.8871L42.9205 5.83333L37.9704 10.8871L42.9205 16.0198L47.948 10.8871Z" fill="white"/>
</svg>
