<svg width="26" height="26" viewBox="0 0 26 26" fill="none" xmlns="http://www.w3.org/2000/svg">
<path d="M13.2111 6.45266C9.72621 6.45266 6.9153 9.2642 6.9153 12.7499C6.9153 16.2355 9.72621 19.047 13.2111 19.047C16.696 19.047 19.5069 16.2355 19.5069 12.7499C19.5069 9.2642 16.696 6.45266 13.2111 6.45266ZM13.2111 16.8438C10.9591 16.8438 9.118 15.0078 9.118 12.7499C9.118 10.4919 10.9536 8.65586 13.2111 8.65586C15.4686 8.65586 17.3042 10.4919 17.3042 12.7499C17.3042 15.0078 15.4631 16.8438 13.2111 16.8438ZM21.2329 6.19508C21.2329 7.01168 20.5753 7.66387 19.7644 7.66387C18.948 7.66387 18.2959 7.0062 18.2959 6.19508C18.2959 5.38395 18.9535 4.72628 19.7644 4.72628C20.5753 4.72628 21.2329 5.38395 21.2329 6.19508ZM25.4027 7.68579C25.3095 5.71827 24.8602 3.97544 23.4191 2.53953C21.9835 1.10362 20.2411 0.654208 18.274 0.555557C16.2467 0.440465 10.17 0.440465 8.14268 0.555557C6.18107 0.648727 4.43863 1.09813 2.99756 2.53405C1.55649 3.96996 1.11266 5.71278 1.01403 7.68031C0.898968 9.70813 0.898968 15.7861 1.01403 17.8139C1.10718 19.7814 1.55649 21.5243 2.99756 22.9602C4.43863 24.3961 6.17559 24.8455 8.14268 24.9441C10.17 25.0592 16.2467 25.0592 18.274 24.9441C20.2411 24.851 21.9835 24.4016 23.4191 22.9602C24.8547 21.5243 25.304 19.7814 25.4027 17.8139C25.5177 15.7861 25.5177 9.71361 25.4027 7.68579ZM22.7835 19.9897C22.3561 21.0639 21.5288 21.8915 20.4493 22.3244C18.8329 22.9657 14.9974 22.8177 13.2111 22.8177C11.4248 22.8177 7.58379 22.9602 5.97285 22.3244C4.8989 21.8969 4.07152 21.0694 3.63865 19.9897C2.99756 18.3729 3.1455 14.5365 3.1455 12.7499C3.1455 10.9632 3.00304 7.12129 3.63865 5.51C4.06604 4.43581 4.89342 3.60824 5.97285 3.17528C7.58926 2.53405 11.4248 2.68202 13.2111 2.68202C14.9974 2.68202 18.8384 2.53953 20.4493 3.17528C21.5233 3.60276 22.3507 4.43033 22.7835 5.51C23.4246 7.12677 23.2767 10.9632 23.2767 12.7499C23.2767 14.5365 23.4246 18.3784 22.7835 19.9897Z" fill="url(#paint0_linear_210_531)"/>
<defs>
<linearGradient id="paint0_linear_210_531" x1="13.2083" y1="0.469238" x2="13.2083" y2="25.0305" gradientUnits="userSpaceOnUse">
<stop stop-color="#8C2EA8"/>
<stop offset="1" stop-color="#21DEA2"/>
</linearGradient>
</defs>
</svg>
