<svg width="15" height="15" viewBox="0 0 15 15" fill="none" xmlns="http://www.w3.org/2000/svg">
<path d="M0 0C15.9911 0 12.2746 10.6239 12.2913 12.2645L15 15H14.1295L11.7723 12.6161C10.4665 12.7567 7.60714 13.7712 4.59375 11.3772C1.57366 8.98326 1.74107 6.11719 0 0ZM2.66853 1.54018C1.00446 0.753348 2.49442 1.84821 2.49442 1.84821C4.00781 2.89286 4.70424 4.31585 5.51451 5.86272C6.5692 7.87835 8.1596 10.5402 10.3426 11.4777C12.519 12.4152 11.4877 11.8962 10.5435 11.1931C9.59933 10.4833 8.26004 8.28013 7.49665 6.83371C6.43527 4.82478 5.45424 2.86272 2.66853 1.54018Z" fill="white"/>
</svg>
