<svg width="16" height="16" viewBox="0 0 16 16" fill="none" xmlns="http://www.w3.org/2000/svg">
<path d="M14.2857 16H1.71429C0.767857 16 0 15.2321 0 14.2857V1.71429C0 0.767857 0.767857 0 1.71429 0H14.2857C15.2321 0 16 0.767857 16 1.71429V14.2857C16 15.2321 15.2321 16 14.2857 16ZM8.50357 5.21071L3.65714 10.0571L3.43214 12.0964C3.40357 12.3679 3.63214 12.6 3.90714 12.5714L5.94643 12.3464L10.7929 7.5C10.875 7.41786 10.875 7.28214 10.7929 7.19643L8.81071 5.21429C8.72143 5.12857 8.58572 5.12857 8.50357 5.21071ZM12.3214 4.75357L11.2464 3.67857C10.9107 3.34286 10.3679 3.34286 10.0357 3.67857L9.21071 4.50357C9.12857 4.58571 9.12857 4.72143 9.21071 4.80714L11.1929 6.78929C11.275 6.87143 11.4107 6.87143 11.4964 6.78929L12.3214 5.96429C12.6536 5.63214 12.6536 5.08929 12.3214 4.75357Z" fill="white"/>
</svg>
