<svg width="16" height="16" viewBox="0 0 16 16" fill="none" xmlns="http://www.w3.org/2000/svg">
<path d="M15.0782 3.43605L9.15036 0.28359C8.43929 -0.0945299 7.56036 -0.0945299 6.84929 0.28359L0.921786 3.43605C0.731786 3.53698 0.732857 3.78823 0.923929 3.88791L8 7.57974L15.0764 3.88791C15.2675 3.78823 15.2686 3.53729 15.0782 3.43605ZM15.5725 4.83071L8.57143 8.48316V15.4774C8.57143 15.8799 9.04964 16.1309 9.43036 15.9284L14.8646 13.0384C15.5675 12.6647 16 11.9778 16 11.2353V5.05727C16 4.85696 15.7629 4.73134 15.5725 4.83071ZM0 5.05727V11.2353C0 11.9781 0.4325 12.6647 1.13536 13.0384L6.56964 15.9281C6.95071 16.1306 7.42857 15.8799 7.42857 15.4771V8.48316L0.4275 4.83071C0.237143 4.73134 0 4.85696 0 5.05727Z" fill="white"/>
</svg>
