<svg width="19" height="17" viewBox="0 0 19 17" fill="none" xmlns="http://www.w3.org/2000/svg">
<path d="M9.5 0C4.25348 0 0 3.53357 0 7.89286C0 9.77348 0.794512 11.4978 2.11523 12.854C1.64988 14.7631 0.100195 16.4688 0.0816406 16.4877C0.0417691 16.5308 0.015106 16.5849 0.00494422 16.6432C-0.00521759 16.7016 0.00156691 16.7618 0.0244599 16.8163C0.0473528 16.8707 0.0853515 16.9172 0.133763 16.9498C0.182175 16.9825 0.23888 16.9999 0.296875 17C2.75574 17 4.60156 15.7952 5.51445 15.0503C6.78885 15.5387 8.13903 15.7879 9.5 15.7857C14.7469 15.7857 19 12.2521 19 7.89286C19 3.53357 14.7469 0 9.5 0ZM13.0625 8.80357C13.0625 8.88408 13.0312 8.9613 12.9755 9.01823C12.9199 9.07516 12.8444 9.10714 12.7656 9.10714H10.6875V11.2321C10.6875 11.3127 10.6562 11.3899 10.6005 11.4468C10.5449 11.5037 10.4694 11.5357 10.3906 11.5357H8.60938C8.53064 11.5357 8.45513 11.5037 8.39945 11.4468C8.34378 11.3899 8.3125 11.3127 8.3125 11.2321V9.10714H6.23438C6.15564 9.10714 6.08013 9.07516 6.02445 9.01823C5.96878 8.9613 5.9375 8.88408 5.9375 8.80357V6.98214C5.9375 6.90163 5.96878 6.82442 6.02445 6.76749C6.08013 6.71055 6.15564 6.67857 6.23438 6.67857H8.3125V4.55357C8.3125 4.47306 8.34378 4.39584 8.39945 4.33891C8.45513 4.28198 8.53064 4.25 8.60938 4.25H10.3906C10.4694 4.25 10.5449 4.28198 10.6005 4.33891C10.6562 4.39584 10.6875 4.47306 10.6875 4.55357V6.67857H12.7656C12.8444 6.67857 12.9199 6.71055 12.9755 6.76749C13.0312 6.82442 13.0625 6.90163 13.0625 6.98214V8.80357Z" fill="white"/>
</svg>
