<svg width="19" height="15" viewBox="0 0 19 15" fill="none" xmlns="http://www.w3.org/2000/svg">
<path d="M12.35 10H13.775C14.0125 10 14.25 9.75 14.25 9.5V4.25C14.25 4 14.0125 3.75 13.775 3.75H12.35C12.1125 3.75 11.875 4 11.875 4.25V9.5C11.875 9.75 12.1125 10 12.35 10ZM15.9125 10H17.3375C17.575 10 17.8125 9.75 17.8125 9.5V0.5C17.8125 0.25 17.575 0 17.3375 0H15.9125C15.675 0 15.4375 0.25 15.4375 0.5V9.5C15.4375 9.75 15.675 10 15.9125 10ZM5.225 10H6.65C6.8875 10 7.125 9.75 7.125 9.5V6.75C7.125 6.5 6.8875 6.25 6.65 6.25H5.225C4.9875 6.25 4.75 6.5 4.75 6.75V9.5C4.75 9.75 4.9875 10 5.225 10ZM8.7875 10H10.2125C10.45 10 10.6875 9.75 10.6875 9.5V1.75C10.6875 1.5 10.45 1.25 10.2125 1.25H8.7875C8.55 1.25 8.3125 1.5 8.3125 1.75V9.5C8.3125 9.75 8.55 10 8.7875 10ZM18.4062 12.5H2.375V0.625C2.375 0.279687 2.1093 0 1.78125 0H0.59375C0.265703 0 0 0.279687 0 0.625V13.75C0 14.4402 0.531777 15 1.1875 15H18.4062C18.7343 15 19 14.7203 19 14.375V13.125C19 12.7797 18.7343 12.5 18.4062 12.5Z" fill="#38F2AF"/>
</svg>
