<svg width="22" height="16" viewBox="0 0 22 16" fill="none" xmlns="http://www.w3.org/2000/svg">
<path d="M21.45 13.7143H20.9C20.0049 13.7143 19.3256 13.4136 18.9719 13.075C18.666 12.7818 18.2961 12.5714 17.8798 12.5714H17.3195C16.9032 12.5714 16.5333 12.7818 16.2274 13.075C15.8744 13.4136 15.1951 13.7143 14.3 13.7143C13.4049 13.7143 12.7256 13.4136 12.3719 13.075C12.066 12.7818 11.6961 12.5714 11.2798 12.5714H10.7195C10.3032 12.5714 9.93334 12.7818 9.62741 13.075C9.27437 13.4136 8.59513 13.7143 7.7 13.7143C6.80487 13.7143 6.12563 13.4136 5.77191 13.075C5.46597 12.7818 5.09609 12.5714 4.67981 12.5714H4.1195C3.70322 12.5714 3.33334 12.7818 3.02741 13.075C2.67438 13.4136 1.99513 13.7143 1.1 13.7143H0.55C0.246125 13.7143 0 13.97 0 14.2857V15.4286C0 15.7443 0.246125 16 0.55 16H1.1C2.42756 16 3.59975 15.5646 4.4 14.8629C5.20025 15.565 6.37244 16 7.7 16C9.02756 16 10.1997 15.5646 11 14.8629C11.8003 15.565 12.9724 16 14.3 16C15.6276 16 16.7998 15.5646 17.6 14.8629C18.4002 15.565 19.5724 16 20.9 16H21.45C21.7539 16 22 15.7443 22 15.4286V14.2857C22 13.97 21.7539 13.7143 21.45 13.7143ZM7.7 12.5714V9.14286H14.3V12.5714C14.9573 12.5714 15.3608 12.3514 15.4822 12.235C15.7974 11.9329 16.1422 11.7229 16.5 11.5896V3.42857C16.5 2.79857 16.9936 2.28571 17.6 2.28571C18.2064 2.28571 18.7 2.79857 18.7 3.42857V4C18.7 4.31571 18.9461 4.57143 19.25 4.57143H20.35C20.6539 4.57143 20.9 4.31571 20.9 4V3.42857C20.9 1.53786 19.4198 0 17.6 0C15.7802 0 14.3 1.53786 14.3 3.42857V6.85714H7.7V3.42857C7.7 2.79857 8.19363 2.28571 8.8 2.28571C9.40637 2.28571 9.9 2.79857 9.9 3.42857V4C9.9 4.31571 10.1461 4.57143 10.45 4.57143H11.55C11.8539 4.57143 12.1 4.31571 12.1 4V3.42857C12.1 1.53786 10.6198 0 8.8 0C6.98019 0 5.5 1.53786 5.5 3.42857V11.5893C5.85784 11.7225 6.20263 11.9329 6.51784 12.2346C6.63919 12.3514 7.04275 12.5714 7.7 12.5714Z" fill="white"/>
</svg>
