<svg width="18" height="16" viewBox="0 0 18 16" fill="none" xmlns="http://www.w3.org/2000/svg">
<path d="M18 2.28572V3.71428C18 4.97322 13.9688 6 9 6C4.03124 6 0 4.97322 0 3.71428V2.28572C0 1.02678 4.03124 0 9 0C13.9688 0 18 1.02678 18 2.28572ZM18 5.5V8.71428C18 9.97322 13.9688 11 9 11C4.03124 11 0 9.97322 0 8.71428V5.5C1.93359 6.53572 5.47264 7.01788 9 7.01788C12.5274 7.01788 16.0664 6.53572 18 5.5ZM18 10.5V13.7143C18 14.9732 13.9688 16 9 16C4.03124 16 0 14.9732 0 13.7143V10.5C1.93359 11.5357 5.47264 12.0179 9 12.0179C12.5274 12.0179 16.0664 11.5357 18 10.5Z" fill="white"/>
</svg>
