<svg width="18" height="15" viewBox="0 0 18 15" fill="none" xmlns="http://www.w3.org/2000/svg">
<path d="M0 4.20045V3.60052C0 3.10351 0.377754 2.70061 0.84375 2.70061H13.5V0.900802C13.5 0.0996244 14.4105 -0.300646 14.9404 0.264457L17.7529 3.26414C18.0824 3.61559 18.0824 4.18538 17.7529 4.53679L14.9404 7.53647C14.4125 8.09936 13.5 7.70468 13.5 6.90017V5.10036H0.84375C0.377754 5.10036 0 4.69746 0 4.20045ZM17.1562 9.89985H4.5V8.10004C4.5 7.30085 3.59079 6.89717 3.05961 7.46369L0.247113 10.4634C-0.0823711 10.8148 -0.0823711 11.3846 0.247113 11.736L3.05961 14.7357C3.58794 15.2992 4.5 14.9032 4.5 14.0994V12.2996H17.1562C17.6222 12.2996 18 11.8967 18 11.3997V10.7998C18 10.3027 17.6222 9.89985 17.1562 9.89985Z" fill="#38F2AF"/>
</svg>
