<svg width="21" height="21" viewBox="0 0 21 21" fill="none" xmlns="http://www.w3.org/2000/svg">
<path d="M10.4614 5.49172C7.6905 5.49172 5.45547 7.72726 5.45547 10.4988C5.45547 13.2703 7.6905 15.5059 10.4614 15.5059C13.2323 15.5059 15.4674 13.2703 15.4674 10.4988C15.4674 7.72726 13.2323 5.49172 10.4614 5.49172ZM10.4614 13.754C8.67078 13.754 7.2069 12.2942 7.2069 10.4988C7.2069 8.7034 8.66642 7.24355 10.4614 7.24355C12.2564 7.24355 13.7159 8.7034 13.7159 10.4988C13.7159 12.2942 12.2521 13.754 10.4614 13.754ZM16.8398 5.28691C16.8398 5.93621 16.317 6.45479 15.6722 6.45479C15.023 6.45479 14.5045 5.93186 14.5045 5.28691C14.5045 4.64196 15.0273 4.11903 15.6722 4.11903C16.317 4.11903 16.8398 4.64196 16.8398 5.28691ZM20.1553 6.47222C20.0812 4.90778 19.724 3.52201 18.5781 2.38028C17.4367 1.23854 16.0512 0.881205 14.4871 0.802766C12.8751 0.711253 8.0434 0.711253 6.43139 0.802766C4.87166 0.876848 3.4862 1.23418 2.34036 2.37592C1.19452 3.51765 0.841622 4.90342 0.7632 6.46786C0.671707 8.08024 0.671707 12.913 0.7632 14.5254C0.837265 16.0898 1.19452 17.4756 2.34036 18.6173C3.4862 19.7591 4.8673 20.1164 6.43139 20.1948C8.0434 20.2863 12.8751 20.2863 14.4871 20.1948C16.0512 20.1207 17.4367 19.7634 18.5781 18.6173C19.7196 17.4756 20.0769 16.0898 20.1553 14.5254C20.2468 12.913 20.2468 8.08459 20.1553 6.47222ZM18.0727 16.2554C17.7329 17.1095 17.075 17.7676 16.2168 18.1118C14.9315 18.6217 11.8817 18.504 10.4614 18.504C9.04111 18.504 5.987 18.6173 4.7061 18.1118C3.85217 17.7719 3.19429 17.1139 2.8501 16.2554C2.34036 14.9699 2.45799 11.9194 2.45799 10.4988C2.45799 9.07817 2.34472 6.02337 2.8501 4.74219C3.18993 3.88806 3.84781 3.23004 4.7061 2.88578C5.99135 2.37592 9.04111 2.49358 10.4614 2.49358C11.8817 2.49358 14.9359 2.38028 16.2168 2.88578C17.0707 3.22568 17.7286 3.88371 18.0727 4.74219C18.5825 6.02773 18.4649 9.07817 18.4649 10.4988C18.4649 11.9194 18.5825 14.9742 18.0727 16.2554Z" fill="url(#paint0_linear_83_7297)"/>
<defs>
<linearGradient id="paint0_linear_83_7297" x1="10.4592" y1="0.734131" x2="10.4592" y2="20.2635" gradientUnits="userSpaceOnUse">
<stop stop-color="#8C2EA8"/>
<stop offset="1" stop-color="#21DEA2"/>
</linearGradient>
</defs>
</svg>
