<svg width="19" height="15" viewBox="0 0 19 15" fill="none" xmlns="http://www.w3.org/2000/svg">
<path d="M12.8683 4.86152L15.8727 1.58408C16.465 0.999609 16.0455 0 15.2077 0H0.942241C0.104458 0 -0.315027 0.999609 0.27724 1.58408L5.69997 7.5V12.068C5.69997 12.4368 5.87602 12.784 6.17497 13.0055L8.54968 14.7633C9.16896 15.2215 9.98864 14.9675 10.3078 14.3657C9.22685 13.3412 8.54998 11.9048 8.54998 10.3125C8.54998 7.68193 10.3921 5.47354 12.8683 4.86152ZM14.25 5.625C11.6265 5.625 9.49998 7.72354 9.49998 10.3125C9.49998 12.9015 11.6265 15 14.25 15C16.8735 15 19 12.9015 19 10.3125C19 7.72354 16.8735 5.625 14.25 5.625ZM14.725 12.6527V13.125C14.725 13.2545 14.6187 13.3594 14.4875 13.3594H14.0125C13.8813 13.3594 13.775 13.2545 13.775 13.125V12.6478C13.4398 12.6308 13.1138 12.5153 12.8437 12.3152C12.7279 12.2294 12.722 12.0583 12.8268 11.9596L13.1756 11.6312C13.2578 11.5538 13.3801 11.5503 13.4763 11.6098C13.5912 11.6807 13.7216 11.7188 13.8569 11.7188H14.6914C14.8844 11.7188 15.0418 11.5453 15.0418 11.3323C15.0418 11.158 14.9346 11.0045 14.7814 10.9594L13.4455 10.5639C12.8936 10.4004 12.5079 9.87773 12.5079 9.29268C12.5079 8.57432 13.0735 7.99072 13.7747 7.97227V7.5C13.7747 7.37051 13.881 7.26562 14.0122 7.26562H14.4872C14.6184 7.26562 14.7247 7.37051 14.7247 7.5V7.97725C15.0599 7.99424 15.3858 8.10938 15.656 8.30977C15.7718 8.39561 15.7777 8.5667 15.6729 8.66543L15.3241 8.99385C15.2419 9.07119 15.1195 9.07471 15.0233 9.01523C14.9085 8.94404 14.7781 8.90625 14.6428 8.90625H13.8082C13.6153 8.90625 13.4579 9.07969 13.4579 9.29268C13.4579 9.46699 13.5651 9.62051 13.7183 9.66563L15.0542 10.0611C15.6061 10.2246 15.9918 10.7473 15.9918 11.3323C15.9918 12.051 15.4265 12.6343 14.725 12.6527Z" fill="white"/>
</svg>
