<svg width="172" height="152" viewBox="0 0 172 152" fill="none" xmlns="http://www.w3.org/2000/svg">
<path d="M168.004 98.714L167.788 98.5188C164.887 95.9039 160.223 95.9985 157.01 98.575L157.005 98.5788L129.416 120.516C125.762 123.431 121.217 125.012 116.535 125C116.534 125 116.533 125 116.532 125L81.2205 125C79.5583 125 77.9625 124.344 76.7846 123.173C75.6063 122.001 74.9428 120.41 74.9428 118.75C74.9428 117.09 75.6063 115.499 76.7846 114.327C77.9625 113.156 79.5583 112.5 81.2205 112.5H104.598C108.732 112.5 112.424 109.684 113.046 105.862L113.048 105.854L113.049 105.845C113.128 105.397 113.166 104.943 113.164 104.488L113.164 104.485C113.16 102.369 112.312 100.339 110.803 98.8409C109.293 97.3429 107.245 96.5 105.109 96.5H57.3325C57.3324 96.5 57.3322 96.5 57.3321 96.5C49.6164 96.5021 42.137 99.1409 36.1472 103.972L36.147 103.973L22.2619 115.168L21.8498 115.5H21.3204H4.77767C3.90558 115.5 3.07094 115.845 2.45692 116.455C1.8432 117.065 1.5 117.891 1.5 118.75V147.25C1.5 148.109 1.84319 148.935 2.45693 149.545C3.07094 150.155 3.90558 150.5 4.77767 150.5H111.311H111.312C115.314 150.503 119.197 149.152 122.321 146.67L168.004 98.714ZM168.004 98.714C168.785 99.4535 169.409 100.341 169.837 101.326C170.303 102.394 170.528 103.549 170.497 104.712C170.467 105.875 170.181 107.017 169.66 108.06C169.139 109.102 168.395 110.02 167.479 110.748L167.479 110.748L122.322 146.669L168.004 98.714ZM100.625 49.4891V49.4658L100.624 49.4426C100.596 48.5484 100.272 47.6893 99.7039 46.9989C99.1405 46.3146 98.3687 45.8341 97.5073 45.6287L81.3233 41.3889C81.3228 41.3888 81.3224 41.3887 81.3219 41.3886C74.5695 39.6023 69.356 34.5588 68.52 28.4754C67.3587 19.9623 74.0338 12.4609 83.1744 11.4662L84.5121 11.3206V9.975V4.75C84.5121 3.08759 86.0485 1.5 88.1989 1.5H93.3856C95.536 1.5 97.0724 3.08759 97.0724 4.75V10.0106V11.3647L98.4193 11.5028C101.847 11.8544 105.155 12.9499 108.11 14.7117C108.327 14.8415 108.515 15.0123 108.664 15.2139L109.87 14.3222L108.664 15.2139C108.813 15.4155 108.92 15.6439 108.979 15.886C109.038 16.128 109.049 16.3792 109.01 16.6252C108.971 16.8711 108.883 17.1074 108.751 17.3202L108.746 17.3282C108.649 17.4874 108.528 17.6316 108.387 17.7557L108.377 17.7652L108.366 17.775L102.693 22.9699C102.693 22.9701 102.693 22.9702 102.692 22.9703C102.018 23.5873 100.867 23.7681 99.7155 23.2865L99.7067 23.2828L99.6978 23.2792C98.4548 22.7779 97.1266 22.5193 95.7857 22.5172H95.7834H85.1531C82.9458 22.5172 80.9298 24.1989 80.9298 26.5109V26.5342L80.9305 26.5574C80.9582 27.4516 81.2823 28.3107 81.8507 29.0011C82.4141 29.6854 83.1859 30.1659 84.0473 30.3713L100.232 34.6112C100.232 34.6114 100.233 34.6115 100.233 34.6116C106.996 36.3975 112.194 41.4404 113.032 47.5266C114.192 56.04 107.531 63.5392 98.3804 64.5338L97.0425 64.6792V66.025V71.25C97.0425 72.9113 95.5043 74.5 93.3528 74.5H88.166C86.018 74.5 84.4793 72.9119 84.4793 71.25V65.9953V64.6413L83.1323 64.5031C79.7046 64.1516 76.3968 63.0556 73.443 61.2931L73.4422 61.2927C73.2258 61.1637 73.0378 60.9938 72.8887 60.7931C72.7396 60.5925 72.6322 60.3649 72.5724 60.1237L71.1165 60.4847L72.5724 60.1237C72.5126 59.8825 72.5014 59.6321 72.5395 59.3866C72.5773 59.1424 72.6632 58.9077 72.7926 58.6957C72.896 58.5296 73.0239 58.3794 73.1724 58.2503L73.1867 58.2378L73.2007 58.225L78.8738 53.03C78.8739 53.0299 78.8741 53.0298 78.8742 53.0297C79.5487 52.4128 80.6965 52.2316 81.852 52.7139L81.8604 52.7174L81.8688 52.7208C83.1074 53.2204 84.4307 53.479 85.7669 53.4828H85.7712H96.4015C98.6089 53.4828 100.625 51.8011 100.625 49.4891Z" fill="url(#paint0_linear_159_3377)" stroke="#1AD7A0" stroke-width="3"/>
<defs>
<linearGradient id="paint0_linear_159_3377" x1="86" y1="0" x2="86" y2="152" gradientUnits="userSpaceOnUse">
<stop stop-color="#D73DFB"/>
<stop offset="0.0001" stop-color="#29C3A2"/>
<stop offset="1" stop-color="#D73DFB"/>
</linearGradient>
</defs>
</svg>
