<svg width="169" height="76" viewBox="0 0 169 76" fill="none" xmlns="http://www.w3.org/2000/svg">
<path d="M139.918 38.6934C139.257 37.9287 138.429 37.3281 137.499 36.9384C135.961 36.2774 134.327 35.8697 132.659 35.7311C132.062 35.6677 131.447 35.6212 130.902 35.3484C130.564 35.183 130.281 34.9212 130.088 34.5957C129.508 33.5829 130.225 32.6399 131.123 32.329C131.663 32.1662 132.227 32.0948 132.79 32.1176C132.79 32.1176 135.376 32.1176 135.376 34.9002L140.535 34.8769C140.535 28.3011 132.79 28.3032 132.79 28.3032C130.867 28.3032 128.782 28.6162 127.185 29.8615C126.117 30.7098 125.393 31.92 125.148 33.2657C124.874 34.6993 125.066 36.2491 125.99 37.3867C126.589 38.0973 127.337 38.6662 128.18 39.0528C129.653 39.7802 131.29 40.11 132.912 40.2834C133.514 40.3468 134.132 40.3934 134.679 40.664C135.021 40.8299 135.307 41.0922 135.502 41.4188C136.087 42.4338 135.365 43.3789 134.467 43.6876C133.927 43.8504 133.364 43.9219 132.8 43.899C132.8 43.899 130.217 43.899 130.217 41.1186L124.746 41.1397C124.746 47.7092 132.792 47.7134 132.809 47.7134C134.282 47.7134 135.778 47.5295 137.143 46.9332C137.891 46.62 138.569 46.1592 139.137 45.5781C139.704 44.997 140.151 44.3075 140.448 43.5502C141.044 41.9369 141.029 40.0656 139.918 38.6934Z" fill="white"/>
<path d="M101.11 29.7304V40.0127C101.108 40.7289 100.824 41.4151 100.32 41.9209C99.815 42.4267 99.1315 42.7107 98.4189 42.7107C97.7072 42.7096 97.0249 42.425 96.5217 41.9193C96.0185 41.4135 95.7352 40.7279 95.7341 40.0127V29.7304C95.7341 29.5681 95.7023 29.4073 95.6404 29.2574C95.5785 29.1074 95.4878 28.9712 95.3735 28.8565C95.2592 28.7418 95.1235 28.6509 94.9741 28.589C94.8248 28.5271 94.6648 28.4953 94.5033 28.4956H90.3457V40.6301C90.3457 45.1106 93.9604 47.5062 98.4189 47.5062C102.877 47.5062 106.49 45.1106 106.49 40.6301V28.4956H102.339C102.177 28.4953 102.017 28.5271 101.868 28.589C101.719 28.651 101.583 28.7419 101.469 28.8567C101.355 28.9714 101.265 29.1076 101.203 29.2575C101.141 29.4075 101.11 29.5682 101.11 29.7304Z" fill="white"/>
<path d="M70.043 47.1848V28.4956H73.6409C73.8289 28.4958 74.0144 28.5392 74.1832 28.6223C74.352 28.7055 74.4997 28.8263 74.615 28.9756L80.8051 37.8476V29.7304C80.8051 29.5681 80.8369 29.4073 80.8988 29.2574C80.9607 29.1074 81.0514 28.9712 81.1657 28.8565C81.2801 28.7418 81.4158 28.6509 81.5651 28.589C81.7144 28.5271 81.8744 28.4953 82.0359 28.4956H86.1872V47.1848H82.583C82.3965 47.1847 82.2125 47.142 82.0448 47.0599C81.8771 46.9779 81.7302 46.8586 81.6151 46.7112L75.4251 38.0041V47.1848H70.043Z" fill="white"/>
<path d="M110.646 47.189V28.4956H114.798C114.959 28.4953 115.119 28.5271 115.269 28.589C115.418 28.6509 115.554 28.7418 115.668 28.8565C115.782 28.9712 115.873 29.1074 115.935 29.2574C115.997 29.4073 116.029 29.5681 116.029 29.7304V42.9666H122.642V47.1954L110.646 47.189Z" fill="white"/>
<path d="M39.1344 45.7642L43.2919 51.5133V63.2567L28.084 56.7697V26.1891C28.084 25.0816 28.5218 24.0194 29.3011 23.2363C30.0804 22.4531 31.1373 22.0132 32.2394 22.0132L46.8898 42.2755L54.3444 46.8362V21.6347L47.4495 18.6936V35.945L43.2919 30.1938V12.7437L58.4914 19.2412V47.5995C58.4914 48.7073 58.0537 49.7696 57.2745 50.5531C56.4952 51.3366 55.4383 51.777 54.336 51.7776L43.7632 45.0517L32.2458 29.1197V54.3656L39.1344 57.3004V45.7642Z" fill="white"/>
</svg>
